<?xml version="1.0" encoding="UTF-8"?>
<svg width="58px" height="42px" viewBox="0 0 58 42" version="1.1" xmlns="http://www.w3.org/2000/svg" xmlns:xlink="http://www.w3.org/1999/xlink">
    <!-- Generator: Sketch 46.1 (44463) - http://www.bohemiancoding.com/sketch -->
    <title>Group 3</title>
    <desc>Created with Sketch.</desc>
    <defs></defs>
    <g id="Dashboard-Entreprise" stroke="none" stroke-width="1" fill="none" fill-rule="evenodd">
        <g id="Dashboard-entreprise---vide" transform="translate(-110.000000, -368.000000)" stroke="#000000" stroke-width="2.223">
            <g id="Group-3" transform="translate(110.000000, 369.000000)">
                <path d="M55.5833,4.2442 C57.3643,7.8712 55.8673,12.2562 52.2403,14.0362 C48.6123,15.8182 44.2283,14.3212 42.4473,10.6932 C40.6663,7.0662 42.1633,2.6822 45.7913,0.9012 C49.4183,-0.8798 53.8023,0.6172 55.5833,4.2442 Z" id="Stroke-13"></path>
                <path d="M45.7908,0.901 L20.9248,13.109" id="Stroke-15"></path>
                <path d="M52.24,14.0367 L22.048,28.8597" id="Stroke-17"></path>
                <path d="M42.0525,9.8888 L32.8695,14.3968" id="Stroke-21"></path>
                <path d="M29.8645,15.8727 L24.0065,18.7487" id="Stroke-23"></path>
                <path d="M17.9959,14.5475 L3.8819,21.4765" id="Stroke-25"></path>
                <path d="M16.9895,15.0416 L3.8825,21.4766" id="Stroke-27"></path>
                <path d="M18.8528,30.4288 L12.4468,33.5738" id="Stroke-29"></path>
                <path d="M9.2513,35.1427 L0.7303,39.3267" id="Stroke-31"></path>
            </g>
        </g>
    </g>
</svg>