<?xml version="1.0" encoding="UTF-8"?>
<svg width="156px" height="40px" viewBox="0 0 156 40" version="1.1" xmlns="http://www.w3.org/2000/svg" xmlns:xlink="http://www.w3.org/1999/xlink">
    <!-- Generator: Sketch 46.1 (44463) - http://www.bohemiancoding.com/sketch -->
    <title>LOGO White</title>
    <desc>Created with Sketch.</desc>
    <defs></defs>
    <g id="Dashboard-Entreprise" stroke="none" stroke-width="1" fill="none" fill-rule="evenodd">
        <g id="Nouvelle-mission-/-Compétences" transform="translate(-642.000000, -20.000000)">
            <g id="Group-7">
                <g id="LOGO" transform="translate(642.000000, 20.000000)">
                    <g id="Logo" transform="translate(0.000000, 0.677966)">
                        <path d="M99.7412675,26.1673898 C99.7412675,22.3056949 102.870722,19.164 106.717371,19.164 C107.537216,19.164 108.337475,19.3063729 109.089112,19.5789153 L100.396332,29.1287458 C99.9762805,28.2290847 99.7412675,27.2250169 99.7412675,26.1673898 L99.7412675,26.1673898 Z M39.3388779,33.1707797 C35.4922286,33.1707797 32.362774,30.0290847 32.362774,26.1673898 C32.362774,22.3056949 35.4922286,19.164 39.3388779,19.164 C43.1848519,19.164 46.3149818,22.3056949 46.3149818,26.1673898 C46.3149818,30.0290847 43.1848519,33.1707797 39.3388779,33.1707797 L39.3388779,33.1707797 Z M126.359865,3.28671186 L126.359865,13.163322 L133.335294,13.163322 L133.335294,18.9307797 L126.359865,18.9307797 L126.359865,26.1673898 C126.359865,30.0290847 129.488644,33.1707797 133.335294,33.1707797 L133.335294,38.9382373 C127.381631,38.9382373 122.384904,34.8053559 121.005216,29.2507797 L115.963917,34.9321356 L115.230514,34.2765424 L115.921371,34.9823051 C113.496956,37.5334915 110.227709,38.9382373 106.717371,38.9382373 C100.781268,38.9382373 95.7960208,34.8290847 94.3994494,29.2995932 L89.3959688,34.8155254 L89.3986701,34.8175593 L85.9855792,38.5782373 L78.2125922,38.5782373 L89.9544623,25.6338305 L89.9544623,23.8392542 C89.9544623,21.2616271 87.8656831,19.164 85.2974234,19.164 C84.0426701,19.164 82.8723325,19.6541695 81.9917091,20.5456949 L81.9917091,20.5463729 L65.6353455,38.5782373 L57.8650597,38.5782373 L69.6042286,25.6372203 L69.6042286,23.8392542 C69.6042286,21.2616271 67.514774,19.164 64.9465143,19.164 C63.6924364,19.164 62.5220987,19.6541695 61.6408,20.5456949 L61.6414753,20.5463729 L48.7596571,34.7463729 L48.7461506,34.7334915 C46.4176312,37.3090847 43.0680208,38.9382373 39.3388779,38.9382373 C33.4196571,38.9382373 28.4465662,34.8528136 27.0331117,29.3470508 L21.9458909,34.9551864 L21.525839,34.5714576 L21.9249558,34.9823051 C19.5005403,37.5334915 16.2312935,38.9382373 12.7209558,38.9382373 C5.70635844,38.9382373 -0.000135064935,33.2094237 -0.000135064935,26.1673898 C-0.000135064935,19.1253559 5.70635844,13.3965424 12.7209558,13.3965424 C16.9194494,13.3965424 20.8322805,15.5124746 23.183761,18.9172203 L19.1264104,23.3890847 C19.0933195,23.3131525 19.0602286,23.2385763 19.0359169,23.1870508 C17.8885403,20.7429831 15.4100987,19.164 12.7209558,19.164 C8.87430649,19.164 5.74485195,22.3056949 5.74485195,26.1673898 C5.74485195,30.0290847 8.87430649,33.1707797 12.7209558,33.1707797 C14.6125403,33.1707797 16.3764883,32.4270508 17.6994494,31.0731525 L17.6980987,31.0724746 L18.9960727,29.6419661 L19.0008,29.6467119 L27.9643844,19.764678 L27.9596571,19.7606102 L29.6371636,17.9111186 L29.6445922,17.9185763 C31.9798649,15.1565424 35.4564364,13.3965424 39.3388779,13.3965424 C45.2621506,13.3965424 50.2372675,17.4873898 51.6473455,22.9978983 L57.3930078,16.6629831 L57.9076052,17.1334915 L57.4200208,16.6311186 C59.4034494,14.5450169 62.0763844,13.3965424 64.9465143,13.3965424 C69.3624623,13.3965424 73.134826,16.1782373 74.6414753,20.084 L77.7445922,16.6629831 L78.2544623,17.1294237 L77.7709299,16.6311186 C79.7239688,14.5755254 82.467813,13.3965424 85.2974234,13.3965424 C89.7120208,13.3965424 93.4837091,16.1768814 94.9910338,20.0812881 L97.0649558,17.7951864 L97.1034494,17.8297627 C99.4373714,15.1206102 102.877475,13.3965424 106.717371,13.3965424 C109.996748,13.3965424 113.109995,14.6460339 115.484436,16.9145085 L117.524592,18.8629831 L104.755553,32.8894237 C105.378203,33.0724746 106.036644,33.1707797 106.717371,33.1707797 C108.601527,33.1707797 110.358047,32.4331525 111.678982,31.0901017 L120.614878,21.0195932 L120.614878,3.28671186 L126.359865,3.28671186 Z M139.01599,33.1668475 C140.604353,33.1668475 141.892197,34.4597288 141.892197,36.0543051 C141.892197,37.6488814 140.604353,38.9417627 139.01599,38.9417627 C137.427626,38.9417627 136.139782,37.6488814 136.139782,36.0543051 C136.139782,34.4597288 137.427626,33.1668475 139.01599,33.1668475 Z M152.93281,10.9351864 L153.356914,11.5012881 C153.916083,12.2477288 153.292758,13.1501017 152.542473,13.1501017 C152.340551,13.1501017 152.129174,13.0850169 151.929278,12.9338305 L151.366057,12.5080678 C150.290265,11.6951864 149.0112,11.2890847 147.732135,11.2890847 C146.45307,11.2890847 145.174005,11.6951864 144.098213,12.5080678 L143.534317,12.9338305 C143.334421,13.0850169 143.123719,13.1501017 142.921797,13.1501017 C142.170836,13.1501017 141.547512,12.2477288 142.107356,11.5012881 L142.53146,10.9351864 C144.150888,8.77518644 144.150888,5.79959322 142.53146,3.63891525 L142.107356,3.07349153 C141.548187,2.32705085 142.170836,1.42467797 142.921797,1.42467797 C143.123719,1.42467797 143.334421,1.48976271 143.534317,1.64094915 L144.098213,2.06671186 C145.174005,2.87959322 146.45307,3.28569492 147.732135,3.28569492 C149.0112,3.28569492 150.290265,2.87959322 151.366057,2.06671186 L151.929278,1.64094915 C152.129174,1.48976271 152.340551,1.42467797 152.542473,1.42467797 C153.292758,1.42467797 153.916083,2.32705085 153.356914,3.07349153 L152.93281,3.63891525 C151.313382,5.79959322 151.313382,8.77518644 152.93281,10.9351864 Z M149.633849,9.18874576 C149.347512,7.93925424 149.347512,6.63552542 149.633849,5.3860339 C149.016603,5.53044068 148.380447,5.60366102 147.732135,5.60366102 C147.083823,5.60366102 146.446992,5.53044068 145.830421,5.3860339 C146.116758,6.63552542 146.116758,7.93925424 145.830421,9.18874576 C146.446992,9.04501695 147.083823,8.97111864 147.732135,8.97111864 C148.380447,8.97111864 149.016603,9.04501695 149.633849,9.18874576 Z" id="Yellow" fill="#FFFF52"></path>
                        <path d="M101.856992,24.7425763 C101.856992,20.8808814 104.986447,17.7391864 108.833096,17.7391864 C109.65294,17.7391864 110.4532,17.8815593 111.205512,18.1541017 L102.512057,27.7039322 C102.092005,26.8042712 101.856992,25.8002034 101.856992,24.7425763 L101.856992,24.7425763 Z M41.4546026,31.7466441 C37.6079532,31.7466441 34.4784987,28.6042712 34.4784987,24.7425763 C34.4784987,20.8808814 37.6079532,17.7391864 41.4546026,17.7391864 C45.3012519,17.7391864 48.4307065,20.8808814 48.4307065,24.7425763 C48.4307065,28.6042712 45.3012519,31.7466441 41.4546026,31.7466441 L41.4546026,31.7466441 Z M128.47559,1.86189831 L128.47559,11.7385085 L135.451018,11.7385085 L135.451018,17.5059661 L128.47559,17.5059661 L128.47559,24.7425763 C128.47559,28.6042712 131.604369,31.7466441 135.451018,31.7466441 L135.451018,37.5134237 C129.497356,37.5134237 124.500629,33.3805424 123.12094,27.8259661 L118.079642,33.507322 L117.346239,32.8517288 L118.037096,33.5574915 C115.612681,36.108678 112.343434,37.5134237 108.833096,37.5134237 C102.896992,37.5134237 97.9117455,33.4042712 96.515174,27.8747797 L91.5116935,33.3907119 L91.5143948,33.3927458 L88.1013039,37.1534237 L80.3283169,37.1534237 L92.070187,24.2090169 L92.070187,22.4151186 C92.070187,19.8368136 89.9814078,17.7391864 87.4131481,17.7391864 C86.1583948,17.7391864 84.9880571,18.2293559 84.1074338,19.1208814 L84.1074338,19.1215593 L67.7510701,37.1534237 L59.9807844,37.1534237 L71.7199532,24.2124068 L71.7199532,22.4151186 C71.7199532,19.8368136 69.6304987,17.7391864 67.062239,17.7391864 C65.808161,17.7391864 64.6378234,18.2293559 63.7565247,19.1208814 L63.7572,19.1215593 L50.8753818,33.3215593 L50.8618753,33.308678 C48.5333558,35.8842712 45.1837455,37.5134237 41.4546026,37.5134237 C35.5353818,37.5134237 30.5622909,33.428 29.1488364,27.9229153 L24.0616156,33.5303729 L23.6415636,33.1466441 L24.0406805,33.5574915 C21.6162649,36.108678 18.3470182,37.5134237 14.8366805,37.5134237 C7.82208312,37.5134237 2.11558961,31.7846102 2.11558961,24.7425763 C2.11558961,17.7005424 7.82208312,11.9724068 14.8366805,11.9724068 C19.035174,11.9724068 22.9480052,14.087661 25.2994857,17.4924068 L21.2421351,21.9642712 C21.2090442,21.888339 21.1759532,21.8137627 21.1516416,21.7622373 C20.0042649,19.3188475 17.5258234,17.7391864 14.8366805,17.7391864 C10.9900312,17.7391864 7.86057662,20.8808814 7.86057662,24.7425763 C7.86057662,28.6042712 10.9900312,31.7466441 14.8366805,31.7466441 C16.7282649,31.7466441 18.492213,31.0022373 19.815174,29.648339 L19.8138234,29.647661 L21.1117974,28.2171525 L21.1165247,28.2218983 L30.0801091,18.3405424 L30.0753818,18.3357966 L31.7528883,16.4869831 L31.7603169,16.4937627 C34.0955896,13.7317288 37.572161,11.9724068 41.4546026,11.9724068 C47.3778753,11.9724068 52.3529922,16.0625763 53.7630701,21.5730847 L59.5087325,15.2388475 L60.0233299,15.708678 L59.5357455,15.2063051 C61.519174,13.1208814 64.1921091,11.9724068 67.062239,11.9724068 C71.478187,11.9724068 75.2505506,14.7534237 76.7572,18.6591864 L79.8603169,15.2388475 L80.370187,15.7046102 L79.8866545,15.2063051 C81.8396935,13.1507119 84.5835377,11.9724068 87.4131481,11.9724068 C91.8277455,11.9724068 95.5994338,14.7527458 97.1067584,18.6564746 L99.1806805,16.3703729 L99.219174,16.4049492 C101.553096,13.6964746 104.9932,11.9724068 108.833096,11.9724068 C112.112473,11.9724068 115.225719,13.2212203 117.600161,15.4896949 L119.640317,17.4381695 L106.871278,31.4646102 C107.493927,31.647661 108.152369,31.7466441 108.833096,31.7466441 C110.717252,31.7466441 112.473771,31.008339 113.794706,29.6659661 L122.730603,19.5947797 L122.730603,1.86189831 L128.47559,1.86189831 Z M141.131647,31.7423729 C142.72001,31.7423729 144.007855,33.0352542 144.007855,34.6298305 C144.007855,36.2244068 142.72001,37.5172881 141.131647,37.5172881 C139.543283,37.5172881 138.255439,36.2244068 138.255439,34.6298305 C138.255439,33.0352542 139.543283,31.7423729 141.131647,31.7423729 Z M155.048535,9.51111864 L155.472639,10.0772203 C156.031808,10.8229831 155.408483,11.7253559 154.658197,11.7253559 C154.456275,11.7253559 154.244899,11.6602712 154.045003,11.5090847 L153.481782,11.083322 C152.40599,10.2711186 151.126925,9.86433898 149.84786,9.86433898 C148.568795,9.86433898 147.28973,10.2711186 146.213938,11.083322 L145.650042,11.5090847 C145.450145,11.6602712 145.239444,11.7253559 145.037522,11.7253559 C144.286561,11.7253559 143.663236,10.8229831 144.223081,10.0772203 L144.647184,9.51111864 C146.266613,7.35044068 146.266613,4.37484746 144.647184,2.21484746 L144.223081,1.64874576 C143.663912,0.902305085 144.286561,-6.77966102e-05 145.037522,-6.77966102e-05 C145.239444,-6.77966102e-05 145.450145,0.0650169492 145.650042,0.21620339 L146.213938,0.641966102 C147.28973,1.45484746 148.568795,1.86094915 149.84786,1.86094915 C151.126925,1.86094915 152.40599,1.45484746 153.481782,0.641966102 L154.045003,0.21620339 C154.244899,0.0650169492 154.456275,-6.77966102e-05 154.658197,-6.77966102e-05 C155.408483,-6.77966102e-05 156.031808,0.902305085 155.472639,1.64874576 L155.048535,2.21484746 C153.429106,4.37484746 153.429106,7.35044068 155.048535,9.51111864 Z M151.749574,7.764 C151.463236,6.51450847 151.463236,5.21077966 151.749574,3.9619661 C151.132327,4.10569492 150.496171,4.17891525 149.84786,4.17891525 C149.199548,4.17891525 148.563392,4.10569492 147.946145,3.9619661 C148.232483,5.21077966 148.232483,6.51450847 147.946145,7.764 C148.562717,7.62027119 149.199548,7.54637288 149.84786,7.54637288 C150.496171,7.54637288 151.132327,7.62027119 151.749574,7.764 Z" id="Black" fill="#05131E"></path>
                    </g>
                </g>
            </g>
        </g>
    </g>
</svg>