<?xml version="1.0" encoding="UTF-8"?>
<svg width="154px" height="39px" viewBox="0 0 154 39" version="1.1" xmlns="http://www.w3.org/2000/svg" xmlns:xlink="http://www.w3.org/1999/xlink">
    <!-- Generator: Sketch 46.1 (44463) - http://www.bohemiancoding.com/sketch -->
    <title>LOGO White</title>
    <desc>Created with Sketch.</desc>
    <defs></defs>
    <g id="Dashboard-Entreprise" stroke="none" stroke-width="1" fill="none" fill-rule="evenodd">
        <g id="Profil---Experience" transform="translate(-644.000000, -20.000000)" fill="#FFFFFF">
            <g id="LOGO-White" transform="translate(642.000000, 20.000000)">
                <g id="Logo" transform="translate(2.025974, 0.677966)">
                    <path d="M99.8310182,24.7425763 C99.8310182,20.8808814 102.960473,17.7391864 106.807122,17.7391864 C107.626966,17.7391864 108.427226,17.8815593 109.179538,18.1541017 L100.486083,27.7039322 C100.066031,26.8042712 99.8310182,25.8002034 99.8310182,24.7425763 L99.8310182,24.7425763 Z M39.4286286,31.7466441 C35.5819792,31.7466441 32.4525247,28.6042712 32.4525247,24.7425763 C32.4525247,20.8808814 35.5819792,17.7391864 39.4286286,17.7391864 C43.2752779,17.7391864 46.4047325,20.8808814 46.4047325,24.7425763 C46.4047325,28.6042712 43.2752779,31.7466441 39.4286286,31.7466441 L39.4286286,31.7466441 Z M126.449616,1.86189831 L126.449616,11.7385085 L133.425044,11.7385085 L133.425044,17.5059661 L126.449616,17.5059661 L126.449616,24.7425763 C126.449616,28.6042712 129.578395,31.7466441 133.425044,31.7466441 L133.425044,37.5134237 C127.471382,37.5134237 122.474655,33.3805424 121.094966,27.8259661 L116.053668,33.507322 L115.320265,32.8517288 L116.011122,33.5574915 C113.586706,36.108678 110.31746,37.5134237 106.807122,37.5134237 C100.871018,37.5134237 95.8857714,33.4042712 94.4892,27.8747797 L89.4857195,33.3907119 L89.4884208,33.3927458 L86.0753299,37.1534237 L78.3023429,37.1534237 L90.044213,24.2090169 L90.044213,22.4151186 C90.044213,19.8368136 87.9554338,17.7391864 85.387174,17.7391864 C84.1324208,17.7391864 82.9620831,18.2293559 82.0814597,19.1208814 L82.0814597,19.1215593 L65.7250961,37.1534237 L57.9548104,37.1534237 L69.6939792,24.2124068 L69.6939792,22.4151186 C69.6939792,19.8368136 67.6045247,17.7391864 65.0362649,17.7391864 C63.782187,17.7391864 62.6118494,18.2293559 61.7305506,19.1208814 L61.731226,19.1215593 L48.8494078,33.3215593 L48.8359013,33.308678 C46.5073818,35.8842712 43.1577714,37.5134237 39.4286286,37.5134237 C33.5094078,37.5134237 28.5363169,33.428 27.1228623,27.9229153 L22.0356416,33.5303729 L21.6155896,33.1466441 L22.0147065,33.5574915 C19.5902909,36.108678 16.3210442,37.5134237 12.8107065,37.5134237 C5.79610909,37.5134237 0.0896155844,31.7846102 0.0896155844,24.7425763 C0.0896155844,17.7005424 5.79610909,11.9724068 12.8107065,11.9724068 C17.0092,11.9724068 20.9220312,14.087661 23.2735117,17.4924068 L19.216161,21.9642712 C19.1830701,21.888339 19.1499792,21.8137627 19.1256675,21.7622373 C17.9782909,19.3188475 15.4998494,17.7391864 12.8107065,17.7391864 C8.96405714,17.7391864 5.8346026,20.8808814 5.8346026,24.7425763 C5.8346026,28.6042712 8.96405714,31.7466441 12.8107065,31.7466441 C14.7022909,31.7466441 16.466239,31.0022373 17.7892,29.648339 L17.7878494,29.647661 L19.0858234,28.2171525 L19.0905506,28.2218983 L28.0541351,18.3405424 L28.0494078,18.3357966 L29.7269143,16.4869831 L29.7343429,16.4937627 C32.0696156,13.7317288 35.546187,11.9724068 39.4286286,11.9724068 C45.3519013,11.9724068 50.3270182,16.0625763 51.7370961,21.5730847 L57.4827584,15.2388475 L57.9973558,15.708678 L57.5097714,15.2063051 C59.4932,13.1208814 62.1661351,11.9724068 65.0362649,11.9724068 C69.452213,11.9724068 73.2245766,14.7534237 74.731226,18.6591864 L77.8343429,15.2388475 L78.344213,15.7046102 L77.8606805,15.2063051 C79.8137195,13.1507119 82.5575636,11.9724068 85.387174,11.9724068 C89.8017714,11.9724068 93.5734597,14.7527458 95.0807844,18.6564746 L97.1547065,16.3703729 L97.1932,16.4049492 C99.5271221,13.6964746 102.967226,11.9724068 106.807122,11.9724068 C110.086499,11.9724068 113.199745,13.2212203 115.574187,15.4896949 L117.614343,17.4381695 L104.845304,31.4646102 C105.467953,31.647661 106.126395,31.7466441 106.807122,31.7466441 C108.691278,31.7466441 110.447797,31.008339 111.768732,29.6659661 L120.704629,19.5947797 L120.704629,1.86189831 L126.449616,1.86189831 Z M139.105673,31.7423729 C140.694036,31.7423729 141.981881,33.0352542 141.981881,34.6298305 C141.981881,36.2244068 140.694036,37.5172881 139.105673,37.5172881 C137.517309,37.5172881 136.229465,36.2244068 136.229465,34.6298305 C136.229465,33.0352542 137.517309,31.7423729 139.105673,31.7423729 Z M153.022561,9.51111864 L153.446665,10.0772203 C154.005834,10.8229831 153.382509,11.7253559 152.632223,11.7253559 C152.430301,11.7253559 152.218925,11.6602712 152.019029,11.5090847 L151.455808,11.083322 C150.380016,10.2711186 149.100951,9.86433898 147.821886,9.86433898 C146.542821,9.86433898 145.263756,10.2711186 144.187964,11.083322 L143.624068,11.5090847 C143.424171,11.6602712 143.21347,11.7253559 143.011548,11.7253559 C142.260587,11.7253559 141.637262,10.8229831 142.197106,10.0772203 L142.62121,9.51111864 C144.240639,7.35044068 144.240639,4.37484746 142.62121,2.21484746 L142.197106,1.64874576 C141.637938,0.902305085 142.260587,-6.77966102e-05 143.011548,-6.77966102e-05 C143.21347,-6.77966102e-05 143.424171,0.0650169492 143.624068,0.21620339 L144.187964,0.641966102 C145.263756,1.45484746 146.542821,1.86094915 147.821886,1.86094915 C149.100951,1.86094915 150.380016,1.45484746 151.455808,0.641966102 L152.019029,0.21620339 C152.218925,0.0650169492 152.430301,-6.77966102e-05 152.632223,-6.77966102e-05 C153.382509,-6.77966102e-05 154.005834,0.902305085 153.446665,1.64874576 L153.022561,2.21484746 C151.403132,4.37484746 151.403132,7.35044068 153.022561,9.51111864 Z M149.7236,7.764 C149.437262,6.51450847 149.437262,5.21077966 149.7236,3.9619661 C149.106353,4.10569492 148.470197,4.17891525 147.821886,4.17891525 C147.173574,4.17891525 146.537418,4.10569492 145.920171,3.9619661 C146.206509,5.21077966 146.206509,6.51450847 145.920171,7.764 C146.536743,7.62027119 147.173574,7.54637288 147.821886,7.54637288 C148.470197,7.54637288 149.106353,7.62027119 149.7236,7.764 Z" id="White"></path>
                </g>
            </g>
        </g>
    </g>
</svg>