<svg xmlns="http://www.w3.org/2000/svg" width="20" height="20" viewBox="0 0 20 20"><g class="nc-icon-wrapper" fill="#1a1a1a"><g fill="none" fill-rule="evenodd"><path d="M0 0h20v20H0z"></path><path fill="#1a1a1a" fill-rule="nonzero" d="M6 5V3.5A1.5 1.5 0 0 1 7.5 2h5A1.5 1.5 0 0 1 14 3.5V5h-1V3.5a.5.5 0 0 0-.5-.5h-5a.5.5 0 0 0-.5.5V5h6v-.5h1V5h3.5a.5.5 0 1 1 0 1H16v10.5a1.5 1.5 0 0 1-1.5 1.5h-9A1.5 1.5 0 0 1 4 16.5V6H2.5a.5.5 0 0 1 0-1H6zM5 6v10.5a.5.5 0 0 0 .5.5h9a.5.5 0 0 0 .5-.5V6H5zm2 2.5a.5.5 0 0 1 1 0v6a.5.5 0 1 1-1 0v-6zm2.5 0a.5.5 0 0 1 1 0v6a.5.5 0 1 1-1 0v-6zm2.5 0a.5.5 0 1 1 1 0v6a.5.5 0 1 1-1 0v-6z"></path></g></g></svg>