<?xml version="1.0" encoding="UTF-8"?>
<svg width="14px" height="14px" viewBox="0 0 14 14" version="1.1" xmlns="http://www.w3.org/2000/svg" xmlns:xlink="http://www.w3.org/1999/xlink">
    <!-- Generator: Sketch 46.2 (44496) - http://www.bohemiancoding.com/sketch -->
    <title>Icon/App/Slack</title>
    <desc>Created with Sketch.</desc>
    <defs>
        <path d="M14.1071267,6.16786199 C15.49511,10.7204473 14.3847234,12.7191434 9.83213801,14.1071267 C5.22403332,15.49511 3.28085664,14.3847234 1.8928733,9.83213801 C0.504889964,5.27955265 1.61527664,3.28085664 6.16786199,1.8928733 C10.7204473,0.504889964 12.7191434,1.61527664 14.1071267,6.16786199 Z M11.7753147,9.16590601 C12.16395,8.999348 12.330508,8.61071267 12.2194694,8.27759667 C12.1084307,7.88896133 11.7197954,7.72240333 11.33116,7.833442 L10.4428507,8.11103867 L9.88765734,6.38993933 L10.7759667,6.11234266 C11.164602,6.00130399 11.33116,5.61266866 11.2201213,5.22403332 C11.1090827,4.89091732 10.7204473,4.66883998 10.3873313,4.83539798 L9.49902201,5.11299465 L9.22142534,4.22468532 C9.11038667,3.83604998 8.72175134,3.66949198 8.333116,3.78053065 C7.94448067,3.89156931 7.77792267,4.28020465 7.88896133,4.66883998 L8.166558,5.50162999 L6.38993933,6.11234266 L6.11234266,5.22403332 C5.94578466,4.89091732 5.55714932,4.66883998 5.22403332,4.77987865 C4.83539798,4.94643665 4.66883998,5.33507199 4.77987865,5.66818799 L5.16851399,6.61201666 L4.28020465,6.88961333 C3.89156931,7.000652 3.72501131,7.38928733 3.83604998,7.77792267 C3.89156931,8.05551933 4.16916598,8.22207733 4.44676265,8.22207733 C4.50228198,8.22207733 4.61332065,8.166558 4.66883998,8.166558 L5.55714932,7.88896133 L6.11234266,9.61006067 L5.22403332,9.88765734 C4.83539798,9.99869601 4.66883998,10.3873313 4.83539798,10.9425247 C4.89091732,11.2201213 5.16851399,11.3866793 5.44611065,11.3866793 C5.50162999,11.3866793 5.61266866,11.33116 5.66818799,11.33116 L6.55649733,11.0535633 L6.83409399,11.9418727 C6.88961333,12.2194694 7.16721,12.3860274 7.44480666,12.3860274 C7.500326,12.3860274 7.61136466,12.330508 7.666884,12.330508 C8.05551933,12.2194694 8.22207733,11.830834 8.11103867,11.4421987 L7.833442,10.5538893 L9.61006067,9.94317668 L9.88765734,10.831486 C9.94317668,11.1090827 10.2207733,11.2756407 10.49837,11.2756407 C10.5538893,11.2756407 10.664928,11.2201213 10.7204473,11.2201213 C11.1090827,11.1090827 11.2756407,10.7204473 11.164602,10.331812 L10.8870053,9.44350267 L11.7753147,9.16590601 Z M7.38702214,9.14222146 L6.80513511,7.4049882 L8.5950118,6.80546823 L9.17689883,8.54270149 L7.38702214,9.14222146 Z" id="path-1"></path>
    </defs>
    <g id="Back-Office" stroke="none" stroke-width="1" fill="none" fill-rule="evenodd">
        <g id="Détail-mission" transform="translate(-1279.000000, -1140.000000)">
            <g id="Group-9-Copy" transform="translate(336.000000, 1101.000000)">
                <g id="Group-Copy-3" transform="translate(934.000000, 34.000000)">
                    <g id="Icon/App/Slack" transform="translate(8.000000, 4.000000)">
                        <rect id="Bounding-Box" x="0" y="0" width="16" height="16"></rect>
                        <mask id="mask-2" fill="white">
                            <use xlink:href="#path-1"></use>
                        </mask>
                        <g id="Mask"></g>
                        <g id="Mixin/Fill/Black" mask="url(#mask-2)" fill-rule="evenodd" fill="#1A1A1A">
                            <rect id="Rectangle" x="0" y="0" width="16" height="16"></rect>
                        </g>
                    </g>
                </g>
            </g>
        </g>
    </g>
</svg>