<?xml version="1.0" encoding="UTF-8"?>
<svg width="43px" height="43px" viewBox="0 0 43 43" version="1.1" xmlns="http://www.w3.org/2000/svg" xmlns:xlink="http://www.w3.org/1999/xlink">
    <!-- Generator: Sketch 46.1 (44463) - http://www.bohemiancoding.com/sketch -->
    <title>Group 10 Copy</title>
    <desc>Created with Sketch.</desc>
    <defs></defs>
    <g id="Dashboard-Entreprise" stroke="none" stroke-width="1" fill="none" fill-rule="evenodd" opacity="0.0965806159">
        <g id="Nouvelle-mission-/-Compétences" transform="translate(-495.000000, -151.000000)" fill="#000000">
            <g id="Group-10-Copy" transform="translate(495.000000, 151.000000)">
                <path d="M32.9641373,35.7551745 C33.0762745,35.3040961 33.3764314,34.8083314 33.7895686,34.394351 C34.3190588,33.8648608 34.9885098,33.5233902 35.4952353,33.5233902 C35.6815686,33.5233902 35.8206863,33.5680765 35.9083725,33.657449 C36.2279216,33.9761549 35.9758235,34.9719 35.1714706,35.7754098 C34.6411373,36.3049 33.9716863,36.6472137 33.4658039,36.6472137 C33.2794706,36.6472137 33.1403529,36.6016843 33.0518235,36.5131549 C32.9118627,36.3740373 32.8798235,36.0974882 32.9641373,35.7551745 M1.55221569,21.6461157 C1.55221569,10.7190569 10.443098,1.82817451 21.3701569,1.82817451 C24.214902,1.82817451 26.9205294,2.43186078 29.3681569,3.51613529 C29.3512941,4.16197843 29.0207843,4.78084118 28.4246863,5.26480196 C27.7602941,5.80609608 26.8606667,6.1121549 25.8927451,6.12817451 C23.9467843,6.16105686 22.3498824,5.0009 22.3271176,3.54648824 C22.3203725,3.20417451 22.0379216,2.92931176 21.6981373,2.93774314 C21.3558235,2.94280196 21.0834902,3.2244098 21.088549,3.56672353 C21.1231176,5.67793922 23.2351765,7.36674314 25.8160196,7.36674314 C25.848902,7.36674314 25.8809412,7.36674314 25.9129804,7.3659 C27.1566078,7.34566471 28.3268824,6.94095882 29.2062745,6.22513529 C29.9305294,5.63578235 30.3908824,4.89297843 30.5493922,4.08609608 C36.8670196,7.40299804 41.188098,14.0283706 41.188098,21.6461157 C41.188098,26.1063118 39.7067059,30.2267235 37.2101765,33.5419392 C37.1342941,33.2519 36.9951765,32.9930569 36.783549,32.7814294 C36.4597843,32.4568216 36.0137647,32.2848216 35.4952353,32.2848216 C34.652098,32.2848216 33.687549,32.7468608 32.9143922,33.5191745 C32.3376863,34.0958804 31.9279216,34.7855667 31.7626667,35.4583902 C31.5721176,36.2307039 31.7230392,36.9347235 32.1766471,37.3883314 C32.3638235,37.5755078 32.5923137,37.7095667 32.8494706,37.7921941 C29.6092941,40.1032333 25.6457059,41.4632137 21.3701569,41.4632137 C10.443098,41.4632137 1.55221569,32.5740176 1.55221569,21.6461157 M21.3701569,0.59044902 C9.761,0.59044902 0.315333333,10.0369588 0.315333333,21.6461157 C0.315333333,33.2561157 9.761,42.7009392 21.3701569,42.7009392 C32.981,42.7009392 42.4258235,33.2561157 42.4258235,21.6461157 C42.4258235,10.0369588 32.981,0.59044902 21.3701569,0.59044902" id="Fill-52"></path>
                <path d="M11.5637118,10.0641922 C11.835202,9.22527059 11.7298098,8.50860392 11.2677706,8.04572157 C10.7315353,7.51032941 9.85382941,7.45721176 8.85808431,7.9015451 C8.54612353,8.04066275 8.40616275,8.40658431 8.54528039,8.7185451 C8.68439804,9.03050588 9.05116275,9.1713098 9.36312353,9.03134902 C9.87996667,8.80117255 10.2728686,8.80117255 10.391751,8.92174118 C10.6210843,9.14938824 10.3984961,10.2092118 9.35131961,11.2572314 C8.30414314,12.305251 7.24347647,12.5269961 7.01414314,12.299349 C6.92477059,12.2082902 6.89188824,11.9384863 7.02173137,11.5379961 C7.12712353,11.2125451 6.94922157,10.8634863 6.62461373,10.7580941 C6.29916275,10.6518588 5.95094706,10.8306039 5.84471176,11.1552118 C5.57322157,11.9949765 5.67777059,12.7116431 6.1398098,13.1736824 C6.43406471,13.4687804 6.83118235,13.6171725 7.29659412,13.6171725 C7.56386863,13.6171725 7.85306471,13.5682706 8.15912353,13.4696235 C8.8555549,13.2436627 9.59077059,12.7681333 10.2264961,12.1324078 C10.8622216,11.4966824 11.3360647,10.7623098 11.5637118,10.0641922" id="Fill-54"></path>
                <path d="M11.9712843,24.7499569 C12.2630098,24.572898 12.356598,24.1918 12.1795392,23.8992314 C12.0016373,23.608349 11.6205392,23.5139176 11.3288137,23.6918196 C9.65602941,24.7078 8.77242157,26.6824275 9.13328431,28.6056235 C9.18808824,28.9040941 9.44861765,29.1115059 9.74034314,29.1115059 C9.77828431,29.1115059 9.81622549,29.1072902 9.8550098,29.1005451 C10.1905784,29.0373098 10.4114804,28.7143882 10.3490882,28.3788196 C10.0835,26.9581333 10.7352451,25.4995059 11.9712843,24.7499569" id="Fill-56"></path>
                <path d="M17.8279686,25.2802059 C17.2487333,24.3266176 16.3482627,23.6074216 15.2926549,23.2516176 C14.9680471,23.1428529 14.617302,23.3173824 14.5085373,23.6419902 C14.4006157,23.9649118 14.5751451,24.3165 14.8980667,24.4252647 C15.6779686,24.6874804 16.3423608,25.2195 16.7689882,25.9235196 C17.768949,27.5693235 17.2436745,29.7218529 15.5970275,30.7218137 C14.3938706,31.4519706 12.8787529,31.3912647 11.7379882,30.5675196 C11.4605961,30.3676961 11.0735961,30.4300882 10.8737725,30.7074804 C10.673949,30.9848725 10.7363412,31.3718725 11.0137333,31.5716961 C11.8391647,32.166951 12.8096157,32.467951 13.7825961,32.467951 C14.629949,32.467951 15.4806745,32.2394608 16.2378118,31.779951 C18.4687529,30.4258725 19.1812039,27.5103039 17.8279686,25.2802059" id="Fill-58"></path>
                <path d="M33.597249,20.1917039 C33.7700922,20.1917039 33.9463078,20.1731549 34.1225235,20.1335275 C35.1460922,19.9050373 35.9150333,19.0475667 36.0811314,17.9472725 C36.1325627,17.6100176 35.8990137,17.2938412 35.5617588,17.2432529 C35.2245039,17.1926647 34.9083275,17.4253706 34.8577392,17.7634686 C34.7692098,18.3536647 34.3746216,18.809802 33.8535627,18.9253118 C33.130151,19.086351 32.3915627,18.5484294 32.208602,17.7255275 C32.1175431,17.3166059 32.1757196,16.9034686 32.3721706,16.5603118 C32.5593471,16.2365471 32.8485431,16.0156451 33.1891706,15.9406059 C33.529798,15.8647235 33.885602,15.9406059 34.1916608,16.1547627 C34.4707392,16.3512137 34.8568961,16.2837627 35.0533471,16.0038412 C35.249798,15.7239196 35.1815039,15.3377627 34.9015824,15.1421549 C34.3080137,14.7256451 33.6039941,14.5797824 32.9193667,14.7323902 C32.2364255,14.8841549 31.6605627,15.314998 31.2988569,15.9439784 C30.9481118,16.5552529 30.8418765,17.2828804 31.0003863,17.9944882 C31.2904255,19.2946059 32.3949353,20.1917039 33.597249,20.1917039" id="Fill-60"></path>
                <path d="M4.65479216,26.7458314 C4.32428235,26.8343608 4.12783137,27.1724588 4.21551765,27.5038118 C4.30320392,27.8343216 4.6421451,28.0299294 4.97349804,27.9422431 C5.14128235,27.8984 5.4819098,28.1597725 5.61343922,28.6555373 C5.6808902,28.9084784 5.67667451,29.1664784 5.60247843,29.3637725 C5.55526275,29.4877137 5.48359608,29.5737137 5.41192941,29.5922627 C5.08226275,29.679949 4.88581176,30.0197333 4.97434118,30.3502431 C5.04769412,30.6267922 5.29810588,30.8097529 5.57212549,30.8097529 C5.62355686,30.8097529 5.67751765,30.8030078 5.73063529,30.7886745 C6.19520392,30.6655765 6.56955686,30.3055569 6.76010588,29.8005176 C6.92620392,29.3612431 6.9439098,28.8410275 6.81069412,28.3368314 C6.50800784,27.2036549 5.56116471,26.503851 4.65479216,26.7458314" id="Fill-62"></path>
                <path d="M27.7505137,17.2535392 C27.991651,17.4955196 28.3845529,17.4955196 28.6256902,17.2535392 C28.8676706,17.0115588 28.8676706,16.6195 28.6256902,16.3775196 C26.4942392,14.2469118 23.0255725,14.2469118 20.8941216,16.3775196 C18.7626706,18.5098137 18.7626706,21.9784804 20.8941216,24.1099314 C21.9598471,25.1756569 23.360298,25.7085196 24.7599059,25.7085196 C26.1595137,25.7085196 27.5599647,25.1756569 28.6256902,24.1099314 C28.8676706,23.8687941 28.8676706,23.4758922 28.6256902,23.2347549 C28.3845529,22.9927745 27.991651,22.9927745 27.7505137,23.2347549 C26.1021804,24.8839314 23.4184745,24.8839314 21.769298,23.2347549 C20.1201216,21.5855784 20.1201216,18.9027157 21.769298,17.2535392 C23.4184745,15.6043627 26.1021804,15.6043627 27.7505137,17.2535392" id="Fill-64"></path>
                <path d="M29.6080294,19.6248627 C29.2665588,19.6248627 28.9900098,19.9022549 28.9900098,20.2437255 C28.9900098,20.4958235 28.966402,20.7487647 28.9225588,20.9958039 C28.8618529,21.3322157 29.0852843,21.6542941 29.4216961,21.715 C29.4587941,21.7217451 29.495049,21.7242745 29.5313039,21.7242745 C29.8255588,21.7242745 30.0860882,21.5143333 30.1408922,21.2150196 C30.1982255,20.8954706 30.2268922,20.5683333 30.2268922,20.2437255 C30.2268922,19.9022549 29.9495,19.6248627 29.6080294,19.6248627" id="Fill-66"></path>
                <path d="M18.4553471,40.0851059 C18.6661314,40.3549098 19.0556608,40.4021255 19.3246216,40.1913412 C20.1213863,39.5674196 21.2781706,39.7073804 21.9020922,40.5049882 C22.0243471,40.6609686 22.2056216,40.7419098 22.3902686,40.7419098 C22.5226412,40.7419098 22.6575431,40.6989098 22.7705235,40.6103804 C23.0403275,40.3995961 23.0875431,40.0100667 22.8767588,39.741949 C21.8321118,38.4072627 19.8962686,38.1720275 18.5615824,39.2158314 C18.2926216,39.4266157 18.2445627,39.815302 18.4553471,40.0851059 Z" id="Fill-68"></path>
            </g>
        </g>
    </g>
</svg>