<?xml version="1.0" encoding="UTF-8"?>
<svg width="51px" height="50px" viewBox="0 0 51 50" version="1.1" xmlns="http://www.w3.org/2000/svg" xmlns:xlink="http://www.w3.org/1999/xlink">
    <!-- Generator: Sketch 46.1 (44463) - http://www.bohemiancoding.com/sketch -->
    <title>Group 11 Copy 2</title>
    <desc>Created with Sketch.</desc>
    <defs></defs>
    <g id="Dashboard-Entreprise" stroke="none" stroke-width="1" fill="none" fill-rule="evenodd" opacity="0.0953917572">
        <g id="Dashboard-entreprise---vide" transform="translate(-422.000000, -190.000000)" fill="#000000">
            <g id="Group-11-Copy-2" transform="translate(422.000000, 189.000000)">
                <path d="M19.3694,3.9937 C18.5874,5.6677 19.5374,7.5207 21.9774,9.0777 C23.9904,10.3627 26.5094,11.1747 29.4624,11.4887 C29.8704,11.5317 30.2274,11.2397 30.2624,10.8367 C30.2964,10.4317 29.9934,10.0707 29.5864,10.0267 C26.8684,9.7367 24.5704,9.0037 22.7574,7.8467 C21.9364,7.3237 20.0964,5.9637 20.7164,4.6387 C21.4824,2.9957 24.3584,2.6807 25.5594,2.6197 C28.2224,2.4877 30.6904,3.1657 32.1634,4.4347 C32.5914,4.8037 33.0454,5.3417 32.7774,5.8087 C32.4664,6.3557 31.5734,6.7287 30.2654,6.8617 C29.8594,6.9037 29.5714,7.2647 29.6234,7.6677 C29.6784,8.0757 30.0454,8.3657 30.4504,8.3247 C32.2894,8.1377 33.5084,7.5427 34.0704,6.5567 C34.3274,6.1077 34.4044,5.6307 34.3104,5.1497 C34.2454,4.8177 34.0964,4.4847 33.8704,4.1577 C35.5734,4.8297 37.2294,5.7067 38.8034,6.7957 C39.1484,7.0347 39.4854,7.2817 39.8174,7.5357 C39.0754,8.3477 37.8474,9.0297 36.2774,9.4887 C35.8894,9.6027 35.6744,10.0117 35.7974,10.4007 C35.9224,10.7907 36.3384,11.0147 36.7284,10.8997 C38.6044,10.3497 40.0534,9.5227 40.9744,8.4827 C43.9674,11.0837 46.2504,14.3327 47.6624,17.9807 C46.3004,17.2417 44.2944,16.5827 41.5784,16.7397 C41.1704,16.7637 40.8674,17.1107 40.9004,17.5157 C40.9334,17.9187 41.2924,18.2307 41.6994,18.2067 C45.5234,17.9857 47.6634,19.5767 48.4234,20.2917 C48.5824,20.8687 48.7194,21.4517 48.8354,22.0447 C50.0494,28.2427 48.7674,34.4807 45.2294,39.6107 C40.4014,46.6087 32.3144,50.0767 24.2534,49.4577 C24.0934,47.3897 24.0834,44.4667 24.7544,41.3167 C24.7754,41.2187 24.7754,41.1197 24.7574,41.0247 C24.7014,40.7427 24.4824,40.5037 24.1814,40.4327 C23.7824,40.3397 23.3904,40.5847 23.3064,40.9797 C22.6244,44.1737 22.6074,47.1417 22.7584,49.2967 C19.1274,48.7887 15.5434,47.4417 12.3074,45.2027 C9.8724,43.5187 7.8004,41.4507 6.1564,39.0997 C6.3364,39.2147 6.5204,39.3247 6.7144,39.4267 C8.1024,40.1507 9.4624,40.2067 10.6454,39.5877 C11.0034,39.4007 11.1344,38.9557 10.9364,38.5967 C10.7394,38.2367 10.2884,38.0967 9.9304,38.2847 C8.2774,39.1477 6.2564,37.6417 5.0264,36.0887 C3.8794,34.6387 3.0044,32.8047 2.4184,30.6267 C2.3684,30.4047 2.3194,30.1797 2.2754,29.9547 C1.8414,27.7357 1.7284,25.5107 1.9234,23.3337 C2.0004,22.8787 2.0984,22.4377 2.2214,22.0117 C2.5604,20.8407 3.0154,20.1917 3.6504,19.9707 C4.5464,19.6597 5.4754,20.4427 5.8334,20.7947 C7.7054,22.6337 8.2134,25.3797 8.3074,27.3587 C8.3264,27.7657 8.6744,28.0867 9.0834,28.0767 C9.4914,28.0667 9.8064,27.7307 9.7884,27.3247 C9.7544,26.6377 9.6764,25.8677 9.5194,25.0677 C9.1634,23.2517 8.4044,21.2767 6.8624,19.7617 C5.6804,18.5997 4.3184,18.1687 3.1314,18.5817 C3.0234,18.6197 2.9214,18.6637 2.8224,18.7117 C3.3394,17.0157 4.0564,15.3767 4.9674,13.8237 C7.9064,14.8487 9.5444,17.4617 10.3994,19.4747 C10.5594,19.8517 10.9954,20.0357 11.3714,19.8857 C11.6984,19.7557 11.8744,19.4147 11.8084,19.0797 C11.7984,19.0297 11.7834,18.9807 11.7634,18.9307 C10.8184,16.7097 9.0184,13.8417 5.7654,12.5617 C5.8044,12.5047 5.8424,12.4457 5.8824,12.3877 C9.3434,7.3707 14.4794,4.1687 20.0814,2.9847 C19.7934,3.2757 19.5494,3.6087 19.3694,3.9937 M0.8224,30.2017 C2.1114,36.7867 5.8964,42.5407 11.4794,46.4027 C23.0064,54.3767 38.6974,51.7107 46.4584,40.4597 C50.2184,35.0107 51.5784,28.3817 50.2894,21.7977 C48.9994,15.2117 45.2144,9.4577 39.6314,5.5957 C28.1054,-2.3783 12.4134,0.2877 4.6524,11.5377 C0.8924,16.9887 -0.4676,23.6167 0.8224,30.2017" id="Fill-12"></path>
                <path d="M9.4661,30.7428 C9.5031,30.6238 9.5091,30.5018 9.4871,30.3858 C9.4361,30.1278 9.2481,29.9018 8.9791,29.8118 C8.5871,29.6828 8.1731,29.8898 8.0511,30.2738 C7.9861,30.4848 7.6141,31.5208 6.8051,31.3068 C6.2771,31.1668 5.7901,30.5758 5.3181,29.4978 C4.7921,28.3008 4.3461,26.3978 4.8151,24.9788 C4.8921,24.7428 5.0111,24.5918 5.1311,24.5758 C5.2791,24.5558 5.5321,24.6808 5.7691,25.0068 C6.0101,25.3388 6.4741,25.4208 6.8031,25.1898 C7.1341,24.9568 7.2051,24.4988 6.9631,24.1658 C6.4141,23.4098 5.6431,23.0178 4.8981,23.1188 C4.2061,23.2128 3.6621,23.7128 3.4051,24.4898 C2.8081,26.2988 3.3021,28.5528 3.9611,30.0578 C4.3901,31.0338 5.1131,32.3718 6.4541,32.7268 C7.7731,33.0758 8.9831,32.2798 9.4661,30.7428" id="Fill-14"></path>
                <path d="M12.8753,37.1021 C13.1823,36.4881 13.4303,35.8181 13.6343,35.0521 C13.6643,34.9421 13.6663,34.8311 13.6463,34.7251 C13.5933,34.4561 13.3903,34.2231 13.1063,34.1421 C12.7103,34.0301 12.3053,34.2551 12.2013,34.6441 C12.0223,35.3161 11.8083,35.8971 11.5453,36.4231 C11.3653,36.7841 11.5173,37.2271 11.8843,37.4141 C12.2523,37.6021 12.6943,37.4621 12.8753,37.1021" id="Fill-16"></path>
                <path d="M12.8138,22.4 C12.8118,22.391 12.6388,21.53 12.4968,21.025 C12.3868,20.632 11.9778,20.394 11.5848,20.494 C11.1898,20.595 10.9608,21 11.0708,21.388 C11.2718,22.11 11.3478,22.583 11.3488,22.591 C11.4108,22.988 11.7908,23.277 12.1948,23.224 C12.5988,23.171 12.8758,22.802 12.8138,22.4" id="Fill-18"></path>
                <path d="M15.9788,17.5992 C15.9668,17.5382 15.2028,15.9822 14.8068,15.2662 C14.6078,14.9072 14.1578,14.7682 13.7988,14.9572 C13.4418,15.1462 13.3128,15.5902 13.5118,15.9502 C13.8938,16.6412 14.2538,17.3392 14.5838,18.0252 C14.7618,18.3952 15.2048,18.5582 15.5728,18.3922 C15.8828,18.2502 16.0408,17.9202 15.9788,17.5992" id="Fill-20"></path>
                <path d="M15.597,20.3311 C18.824,28.4501 17.599,34.4191 16.004,37.9981 C15.839,38.3661 16.01,38.8031 16.385,38.9741 C16.76,39.1461 17.197,38.9871 17.361,38.6191 C18.68,35.6611 19.767,31.1911 18.624,25.3521 C18.286,23.6261 17.753,21.7811 16.973,19.8191 C16.823,19.4391 16.391,19.2451 16.011,19.3861 C15.631,19.5271 15.446,19.9521 15.597,20.3311" id="Fill-22"></path>
                <path d="M16.1253,40.9205 C16.2293,40.7595 16.2603,40.5695 16.2253,40.3925 C16.1873,40.1985 16.0723,40.0195 15.8923,39.9025 C15.5453,39.6785 15.0873,39.7715 14.8703,40.1105 C14.3673,40.8945 13.9883,41.3125 13.9763,41.3245 C13.7023,41.6205 13.7273,42.0845 14.0303,42.3625 C14.3343,42.6425 14.8033,42.6295 15.0763,42.3355 C15.0953,42.3145 15.5413,41.8315 16.1253,40.9205" id="Fill-24"></path>
                <path d="M28.6546,45.5294 C28.6626,45.8334 28.6746,46.1424 28.6916,46.4474 C28.7146,46.8534 29.0626,47.1724 29.4706,47.1594 C29.8796,47.1464 30.1926,46.8074 30.1716,46.4014 C30.1546,46.1124 30.1306,45.4454 30.1226,45.4044 C30.0536,45.0574 29.7436,44.7934 29.3776,44.7934 C28.9676,44.7944 28.6446,45.1234 28.6546,45.5294" id="Fill-26"></path>
                <path d="M30.2034,42.9 C30.4044,40.334 31.4374,34.127 36.6474,31.908 C36.9664,31.772 37.1334,31.437 37.0684,31.108 C37.0574,31.053 37.0404,30.998 37.0154,30.944 C36.8474,30.57 36.4084,30.396 36.0354,30.555 C33.7544,31.526 31.9464,33.247 30.6624,35.669 C29.6024,37.665 28.9334,40.115 28.7254,42.751 C28.6934,43.154 28.9984,43.515 29.4064,43.557 C29.8134,43.598 30.1714,43.304 30.2034,42.9" id="Fill-28"></path>
                <path d="M38.9534,30.8321 C38.8564,31.2241 39.0994,31.6281 39.4964,31.7341 C39.9304,31.8511 40.3364,32.0401 40.7034,32.2951 C41.0424,32.5311 41.5024,32.4551 41.7324,32.1241 C41.8484,31.9581 41.8834,31.7601 41.8474,31.5731 C41.8104,31.3891 41.7034,31.2171 41.5364,31.0991 C41.0214,30.7411 40.4554,30.4781 39.8494,30.3161 C39.4524,30.2091 39.0514,30.4411 38.9534,30.8321" id="Fill-30"></path>
                <path d="M42.0843,34.0557 C42.6793,35.5187 42.5003,37.3127 41.6173,38.7367 C39.9663,41.4057 37.6623,41.7967 36.6253,41.2197 C35.6413,40.6717 35.4053,39.7967 35.3803,39.1577 C35.3333,37.9337 36.0323,36.5977 37.0443,35.9777 C37.3883,35.7677 37.4893,35.3157 37.2693,34.9687 C37.0473,34.6217 36.5903,34.5117 36.2453,34.7217 C34.7733,35.6217 33.8323,37.4127 33.8993,39.1797 C33.9563,40.6247 34.6753,41.8037 35.9253,42.4977 C38.5523,43.9597 41.5773,41.6407 42.8863,39.5287 C43.7913,38.0647 44.1083,36.2827 43.7893,34.6547 C43.7143,34.2707 43.6033,33.8947 43.4573,33.5337 C43.3023,33.1547 42.8703,32.9637 42.4913,33.1077 C42.1123,33.2507 41.9303,33.6757 42.0843,34.0557" id="Fill-32"></path>
                <path d="M38.9808,35.9742 C39.3828,36.3282 39.3988,36.8102 39.3398,37.1522 C39.2208,37.8562 38.6898,38.5502 38.1048,38.7652 C37.7248,38.9062 37.5388,39.3282 37.6888,39.7092 C37.8398,40.0902 38.2698,40.2852 38.6498,40.1452 C39.7108,39.7532 40.5968,38.6372 40.8018,37.4312 C40.8648,37.0592 40.8608,36.6982 40.7938,36.3582 C40.6818,35.7862 40.3928,35.2742 39.9458,34.8822 C39.6358,34.6112 39.1678,34.6342 38.9008,34.9352 C38.6338,35.2372 38.6688,35.7022 38.9808,35.9742" id="Fill-34"></path>
                <path d="M26.4085,33.1993 C26.1955,33.5403 26.3045,33.9953 26.6535,34.2153 C27.0025,34.4353 27.4595,34.3383 27.6735,33.9973 C29.0875,31.7403 32.0845,27.7663 36.2595,26.5183 C38.3825,25.8833 40.6085,26.1483 42.5295,27.2653 C43.3365,27.7343 44.0235,28.2953 44.5745,28.9323 C44.8435,29.2443 45.3105,29.2863 45.6195,29.0273 C45.8255,28.8533 45.9075,28.5873 45.8585,28.3373 C45.8345,28.2143 45.7785,28.0943 45.6895,27.9913 C45.0285,27.2253 44.2085,26.5553 43.2555,26.0013 C40.9695,24.6723 38.3215,24.3553 35.8015,25.1093 C31.1735,26.4933 27.9305,30.7723 26.4085,33.1993" id="Fill-36"></path>
                <path d="M26.5686,35.9879 C26.6406,35.8419 26.6576,35.6839 26.6276,35.5329 C26.5846,35.3119 26.4386,35.1099 26.2196,35.0009 C25.8506,34.8169 25.4076,34.9619 25.2326,35.3239 C25.0436,35.7119 24.8626,36.1129 24.6946,36.5139 C24.5376,36.8859 24.7186,37.3199 25.0966,37.4839 C25.4746,37.6469 25.9076,37.4779 26.0636,37.1069 C26.2216,36.7289 26.3916,36.3529 26.5686,35.9879" id="Fill-38"></path>
                <path d="M25.0247,25.4737 C24.7397,25.7577 24.7457,26.2237 25.0397,26.5137 C25.3317,26.8037 25.8007,26.8077 26.0867,26.5247 C26.1577,26.4537 33.2537,19.5097 40.1637,21.5147 C40.5577,21.6287 40.9647,21.4067 41.0707,21.0167 C41.1017,20.9057 41.1037,20.7927 41.0837,20.6857 C41.0307,20.4177 40.8307,20.1857 40.5467,20.1047 C37.3147,19.1667 33.5957,19.8067 29.7937,21.9557 C26.9697,23.5517 25.1027,25.3967 25.0247,25.4737" id="Fill-40"></path>
                <path d="M32.4329,11.5865 C32.7909,11.5715 33.1529,11.5455 33.5069,11.5085 C33.9119,11.4675 34.1999,11.1075 34.1479,10.7025 C34.1469,10.6865 34.1429,10.6695 34.1399,10.6535 C34.0659,10.2755 33.7099,10.0065 33.3209,10.0465 C32.9959,10.0795 32.6639,10.1045 32.3349,10.1175 C31.9269,10.1345 31.6189,10.4775 31.6449,10.8825 C31.6709,11.2885 32.0249,11.6035 32.4329,11.5865" id="Fill-44"></path>
                <path d="M22.2044,13.9786 C22.5844,14.1406 23.0164,13.9676 23.1694,13.5956 C23.2254,13.4596 23.2364,13.3166 23.2094,13.1806 C23.1634,12.9436 23.0014,12.7316 22.7604,12.6296 C19.1754,11.1066 16.8794,9.2656 15.7424,7.0006 C15.5584,6.6336 15.1134,6.4766 14.7484,6.6506 C14.3834,6.8246 14.2354,7.2646 14.4204,7.6306 C15.7254,10.2316 18.2724,12.3086 22.2044,13.9786" id="Fill-46"></path>
                <path d="M30.2923,14.2095 C29.8833,14.2035 29.5543,14.5255 29.5563,14.9325 C29.5583,15.3365 29.8923,15.6735 30.3013,15.6795 C37.2693,15.8015 42.5233,12.7695 42.7433,12.6405 C43.0143,12.4815 43.1413,12.1755 43.0833,11.8815 C43.0663,11.7975 43.0343,11.7145 42.9873,11.6355 C42.7733,11.2855 42.3173,11.1665 41.9683,11.3695 C41.9183,11.3985 36.8303,14.3245 30.2923,14.2095" id="Fill-48"></path>
            </g>
        </g>
    </g>
</svg>