<?xml version="1.0" encoding="UTF-8"?>
<svg width="51px" height="51px" viewBox="0 0 51 51" version="1.1" xmlns="http://www.w3.org/2000/svg" xmlns:xlink="http://www.w3.org/1999/xlink">
    <!-- Generator: Sketch 46.1 (44463) - http://www.bohemiancoding.com/sketch -->
    <title>Group 10</title>
    <desc>Created with Sketch.</desc>
    <defs></defs>
    <g id="Dashboard-Entreprise" stroke="none" stroke-width="1" fill="none" fill-rule="evenodd">
        <g id="Dashboard-entreprise---vide" transform="translate(-220.000000, -570.000000)">
            <g id="Group-10" transform="translate(220.000000, 570.000000)">
                <path d="M5.4632,27.5396 C5.4632,15.4856 15.2342,5.7136 27.2892,5.7136 C39.3432,5.7136 49.1142,15.4856 49.1142,27.5396 C49.1142,39.5936 39.3432,49.3646 27.2892,49.3646 C15.2342,49.3646 5.4632,39.5936 5.4632,27.5396" id="Fill-50" fill="#C5EBD6"></path>
                <path d="M39.097,42.4073 C39.23,41.8723 39.586,41.2843 40.076,40.7933 C40.704,40.1653 41.498,39.7603 42.099,39.7603 C42.32,39.7603 42.485,39.8133 42.589,39.9193 C42.968,40.2973 42.669,41.4783 41.715,42.4313 C41.086,43.0593 40.292,43.4653 39.692,43.4653 C39.471,43.4653 39.306,43.4113 39.201,43.3063 C39.035,43.1413 38.997,42.8133 39.097,42.4073 M1.841,25.6733 C1.841,12.7133 12.386,2.1683 25.346,2.1683 C28.72,2.1683 31.929,2.8843 34.832,4.1703 C34.812,4.9363 34.42,5.6703 33.713,6.2443 C32.925,6.8863 31.858,7.2493 30.71,7.2683 C28.402,7.3073 26.508,5.9313 26.481,4.2063 C26.473,3.8003 26.138,3.4743 25.735,3.4843 C25.329,3.4903 25.006,3.8243 25.012,4.2303 C25.053,6.7343 27.558,8.7373 30.619,8.7373 C30.658,8.7373 30.696,8.7373 30.734,8.7363 C32.209,8.7123 33.597,8.2323 34.64,7.3833 C35.499,6.6843 36.045,5.8033 36.233,4.8463 C43.726,8.7803 48.851,16.6383 48.851,25.6733 C48.851,30.9633 47.094,35.8503 44.133,39.7823 C44.043,39.4383 43.878,39.1313 43.627,38.8803 C43.243,38.4953 42.714,38.2913 42.099,38.2913 C41.099,38.2913 39.955,38.8393 39.038,39.7553 C38.354,40.4393 37.868,41.2573 37.672,42.0553 C37.446,42.9713 37.625,43.8063 38.163,44.3443 C38.385,44.5663 38.656,44.7253 38.961,44.8233 C35.118,47.5643 30.417,49.1773 25.346,49.1773 C12.386,49.1773 1.841,38.6343 1.841,25.6733 M25.346,0.7003 C11.577,0.7003 0.374,11.9043 0.374,25.6733 C0.374,39.4433 11.577,50.6453 25.346,50.6453 C39.117,50.6453 50.319,39.4433 50.319,25.6733 C50.319,11.9043 39.117,0.7003 25.346,0.7003" id="Fill-52" fill="#000000"></path>
                <path d="M13.7151,11.9366 C14.0371,10.9416 13.9121,10.0916 13.3641,9.5426 C12.7281,8.9076 11.6871,8.8446 10.5061,9.3716 C10.1361,9.5366 9.9701,9.9706 10.1351,10.3406 C10.3001,10.7106 10.7351,10.8776 11.1051,10.7116 C11.7181,10.4386 12.1841,10.4386 12.3251,10.5816 C12.5971,10.8516 12.3331,12.1086 11.0911,13.3516 C9.8491,14.5946 8.5911,14.8576 8.3191,14.5876 C8.2131,14.4796 8.1741,14.1596 8.3281,13.6846 C8.4531,13.2986 8.2421,12.8846 7.8571,12.7596 C7.4711,12.6336 7.0581,12.8456 6.9321,13.2306 C6.6101,14.2266 6.7341,15.0766 7.2821,15.6246 C7.6311,15.9746 8.1021,16.1506 8.6541,16.1506 C8.9711,16.1506 9.3141,16.0926 9.6771,15.9756 C10.5031,15.7076 11.3751,15.1436 12.1291,14.3896 C12.8831,13.6356 13.4451,12.7646 13.7151,11.9366" id="Fill-54" fill="#000000"></path>
                <path d="M14.1985,29.3546 C14.5445,29.1446 14.6555,28.6926 14.4455,28.3456 C14.2345,28.0006 13.7825,27.8886 13.4365,28.0996 C11.4525,29.3046 10.4045,31.6466 10.8325,33.9276 C10.8975,34.2816 11.2065,34.5276 11.5525,34.5276 C11.5975,34.5276 11.6425,34.5226 11.6885,34.5146 C12.0865,34.4396 12.3485,34.0566 12.2745,33.6586 C11.9595,31.9736 12.7325,30.2436 14.1985,29.3546" id="Fill-56" fill="#000000"></path>
                <path d="M21.1448,29.9835 C20.4578,28.8525 19.3898,27.9995 18.1378,27.5775 C17.7528,27.4485 17.3368,27.6555 17.2078,28.0405 C17.0798,28.4235 17.2868,28.8405 17.6698,28.9695 C18.5948,29.2805 19.3828,29.9115 19.8888,30.7465 C21.0748,32.6985 20.4518,35.2515 18.4988,36.4375 C17.0718,37.3035 15.2748,37.2315 13.9218,36.2545 C13.5928,36.0175 13.1338,36.0915 12.8968,36.4205 C12.6598,36.7495 12.7338,37.2085 13.0628,37.4455 C14.0418,38.1515 15.1928,38.5085 16.3468,38.5085 C17.3518,38.5085 18.3608,38.2375 19.2588,37.6925 C21.9048,36.0865 22.7498,32.6285 21.1448,29.9835" id="Fill-58" fill="#000000"></path>
                <path d="M39.8479,23.9483 C40.0529,23.9483 40.2619,23.9263 40.4709,23.8793 C41.6849,23.6083 42.5969,22.5913 42.7939,21.2863 C42.8549,20.8863 42.5779,20.5113 42.1779,20.4513 C41.7779,20.3913 41.4029,20.6673 41.3429,21.0683 C41.2379,21.7683 40.7699,22.3093 40.1519,22.4463 C39.2939,22.6373 38.4179,21.9993 38.2009,21.0233 C38.0929,20.5383 38.1619,20.0483 38.3949,19.6413 C38.6169,19.2573 38.9599,18.9953 39.3639,18.9063 C39.7679,18.8163 40.1899,18.9063 40.5529,19.1603 C40.8839,19.3933 41.3419,19.3133 41.5749,18.9813 C41.8079,18.6493 41.7269,18.1913 41.3949,17.9593 C40.6909,17.4653 39.8559,17.2923 39.0439,17.4733 C38.2339,17.6533 37.5509,18.1643 37.1219,18.9103 C36.7059,19.6353 36.5799,20.4983 36.7679,21.3423 C37.1119,22.8843 38.4219,23.9483 39.8479,23.9483" id="Fill-60" fill="#000000"></path>
                <path d="M5.5208,31.7218 C5.1288,31.8268 4.8958,32.2278 4.9998,32.6208 C5.1038,33.0128 5.5058,33.2448 5.8988,33.1408 C6.0978,33.0888 6.5018,33.3988 6.6578,33.9868 C6.7378,34.2868 6.7328,34.5928 6.6448,34.8268 C6.5888,34.9738 6.5038,35.0758 6.4188,35.0978 C6.0278,35.2018 5.7948,35.6048 5.8998,35.9968 C5.9868,36.3248 6.2838,36.5418 6.6088,36.5418 C6.6698,36.5418 6.7338,36.5338 6.7968,36.5168 C7.3478,36.3708 7.7918,35.9438 8.0178,35.3448 C8.2148,34.8238 8.2358,34.2068 8.0778,33.6088 C7.7188,32.2648 6.5958,31.4348 5.5208,31.7218" id="Fill-62" fill="#000000"></path>
                <path d="M32.9134,20.4635 C33.1994,20.7505 33.6654,20.7505 33.9514,20.4635 C34.2384,20.1765 34.2384,19.7115 33.9514,19.4245 C31.4234,16.8975 27.3094,16.8975 24.7814,19.4245 C22.2534,21.9535 22.2534,26.0675 24.7814,28.5955 C26.0454,29.8595 27.7064,30.4915 29.3664,30.4915 C31.0264,30.4915 32.6874,29.8595 33.9514,28.5955 C34.2384,28.3095 34.2384,27.8435 33.9514,27.5575 C33.6654,27.2705 33.1994,27.2705 32.9134,27.5575 C30.9584,29.5135 27.7754,29.5135 25.8194,27.5575 C23.8634,25.6015 23.8634,22.4195 25.8194,20.4635 C27.7754,18.5075 30.9584,18.5075 32.9134,20.4635" id="Fill-64" fill="#000000"></path>
                <path d="M35.1165,23.276 C34.7115,23.276 34.3835,23.605 34.3835,24.01 C34.3835,24.309 34.3555,24.609 34.3035,24.902 C34.2315,25.301 34.4965,25.683 34.8955,25.755 C34.9395,25.763 34.9825,25.766 35.0255,25.766 C35.3745,25.766 35.6835,25.517 35.7485,25.162 C35.8165,24.783 35.8505,24.395 35.8505,24.01 C35.8505,23.605 35.5215,23.276 35.1165,23.276" id="Fill-66" fill="#000000"></path>
                <path d="M21.8889,47.5428 C22.1389,47.8628 22.6009,47.9188 22.9199,47.6688 C23.8649,46.9288 25.2369,47.0948 25.9769,48.0408 C26.1219,48.2258 26.3369,48.3218 26.5559,48.3218 C26.7129,48.3218 26.8729,48.2708 27.0069,48.1658 C27.3269,47.9158 27.3829,47.4538 27.1329,47.1358 C25.8939,45.5528 23.5979,45.2738 22.0149,46.5118 C21.6959,46.7618 21.6389,47.2228 21.8889,47.5428 Z" id="Fill-68" fill="#000000"></path>
            </g>
        </g>
    </g>
</svg>