<?xml version="1.0" encoding="UTF-8"?>
<svg width="63px" height="51px" viewBox="0 0 63 51" version="1.1" xmlns="http://www.w3.org/2000/svg" xmlns:xlink="http://www.w3.org/1999/xlink">
    <!-- Generator: Sketch 46.1 (44463) - http://www.bohemiancoding.com/sketch -->
    <title>Group 18</title>
    <desc>Created with Sketch.</desc>
    <defs></defs>
    <g id="Dashboard-Entreprise" stroke="none" stroke-width="1" fill="none" fill-rule="evenodd">
        <g id="Dashboard-entreprise---vide" transform="translate(-1256.000000, -356.000000)">
            <g id="Group-18" transform="translate(1256.000000, 356.609000)">
                <g id="Group-9">
                    <path d="M19.4104,26.9053 C19.4104,15.4713 28.6794,6.2023 40.1124,6.2023 C51.5474,6.2023 60.8154,15.4713 60.8154,26.9053 C60.8154,38.3393 51.5474,47.6083 40.1124,47.6083 C28.6794,47.6083 19.4104,38.3393 19.4104,26.9053" id="Fill-72" fill="#FFC793"></path>
                    <path d="M53.7444,41.7583 C51.6104,43.8923 49.1374,45.5613 46.4454,46.7183 C49.6864,44.5823 52.6954,41.9313 55.3164,38.8783 C55.5784,38.5713 55.5444,38.1113 55.2374,37.8473 C54.9314,37.5843 54.4704,37.6203 54.2064,37.9263 C50.5114,42.2323 45.4234,46.0853 40.3954,48.3943 C39.3454,48.5373 38.2784,48.6113 37.1984,48.6113 C36.4394,48.6113 35.6864,48.5743 34.9414,48.5033 C38.2184,47.3443 41.3344,45.7843 44.2344,43.8413 C44.5704,43.6173 44.6594,43.1633 44.4354,42.8273 C44.2114,42.4933 43.7574,42.4033 43.4214,42.6283 C39.8364,45.0283 35.9114,46.8263 31.7534,47.9763 C30.8344,47.7583 29.9324,47.4853 29.0524,47.1583 C29.7944,46.9813 30.5354,46.7783 31.2664,46.5533 C31.6524,46.4343 31.8694,46.0253 31.7504,45.6393 C31.6314,45.2543 31.2224,45.0383 30.8364,45.1563 C29.4834,45.5733 28.1014,45.9043 26.7234,46.1483 C24.5974,45.0813 22.6274,43.6813 20.8784,41.9763 C21.7094,41.8133 22.5384,41.6273 23.3534,41.4143 C23.7444,41.3133 23.9784,40.9143 23.8774,40.5243 C23.7754,40.1333 23.3774,39.8983 22.9854,40.0003 C21.8974,40.2833 20.7844,40.5213 19.6734,40.7133 C17.7744,38.5703 16.3384,36.1603 15.3614,33.6113 C16.7944,33.2453 18.2204,32.7993 19.6084,32.2803 C19.9864,32.1383 20.1794,31.7173 20.0384,31.3403 C19.8964,30.9623 19.4744,30.7693 19.0984,30.9113 C17.7204,31.4263 16.3044,31.8663 14.8814,32.2273 C14.5704,31.2333 14.3274,30.2233 14.1524,29.2023 C17.3194,28.1793 20.3614,26.7833 23.1984,25.0403 C23.5424,24.8293 23.6494,24.3783 23.4384,24.0353 C23.2264,23.6923 22.7774,23.5833 22.4324,23.7953 C19.7684,25.4333 16.9174,26.7523 13.9484,27.7323 C13.8044,26.3833 13.7744,25.0243 13.8634,23.6713 C15.3824,23.0143 16.8524,22.2663 18.2394,21.4403 C18.5864,21.2343 18.7004,20.7853 18.4924,20.4393 C18.2874,20.0923 17.8384,19.9783 17.4924,20.1853 C16.3884,20.8423 15.2284,21.4493 14.0324,21.9973 C14.2374,20.5113 14.5844,19.0433 15.0734,17.6133 C17.4324,16.2253 19.8844,14.3823 21.8654,12.5713 C22.1634,12.2983 22.1844,11.8363 21.9134,11.5383 C21.6404,11.2403 21.1784,11.2193 20.8804,11.4913 C19.3464,12.8943 17.7084,14.1743 15.9974,15.3133 C17.1184,12.9053 18.6704,10.6523 20.6544,8.6673 C25.0734,4.2483 30.9494,1.8133 37.1994,1.8133 C38.0504,1.8133 38.8924,1.8603 39.7264,1.9493 C39.4804,2.6933 39.2124,3.4343 38.9254,4.1623 C38.7764,4.5383 38.9604,4.9623 39.3354,5.1103 C39.4244,5.1453 39.5154,5.1623 39.6034,5.1623 C39.8944,5.1623 40.1704,4.9873 40.2834,4.7003 C40.6154,3.8633 40.9204,3.0093 41.1974,2.1533 C42.2234,2.3283 43.2304,2.5713 44.2154,2.8803 C43.1184,7.2303 41.3234,11.3323 38.8714,15.0823 C38.6504,15.4193 38.7444,15.8723 39.0834,16.0933 C39.2064,16.1743 39.3454,16.2123 39.4814,16.2123 C39.7214,16.2123 39.9544,16.0963 40.0944,15.8813 C42.6124,12.0313 44.4624,7.8233 45.6014,3.3613 C48.1854,4.3543 50.5874,5.8103 52.7014,7.6873 C52.3334,9.8573 51.7754,12.0223 51.0364,14.1303 C50.9024,14.5113 51.1024,14.9283 51.4834,15.0623 C51.5634,15.0903 51.6454,15.1033 51.7244,15.1033 C52.0274,15.1033 52.3094,14.9153 52.4144,14.6143 C53.0724,12.7403 53.5914,10.8223 53.9674,8.8953 C57.0164,12.0293 59.0144,15.8123 59.9554,19.7963 C58.7134,24.1543 56.8444,28.1773 54.3944,31.7593 C54.1674,32.0923 54.2524,32.5473 54.5864,32.7763 C54.7114,32.8613 54.8554,32.9033 54.9974,32.9033 C55.2304,32.9033 55.4604,32.7923 55.6004,32.5853 C57.6144,29.6413 59.2474,26.4113 60.4784,22.9523 C61.1254,29.6733 58.8814,36.6223 53.7444,41.7583 M54.7784,7.6343 C50.0834,2.9383 43.8404,0.3523 37.1984,0.3523 C30.5584,0.3523 24.3154,2.9383 19.6204,7.6343 C9.9274,17.3273 9.9274,33.0983 19.6204,42.7913 C24.3154,47.4873 30.5584,50.0723 37.1984,50.0723 C43.8404,50.0723 50.0834,47.4873 54.7784,42.7913 C64.4714,33.0983 64.4714,17.3263 54.7784,7.6343" id="Fill-74" fill="#000000"></path>
                    <path d="M4.4788,19.1133 C2.9048,19.1133 1.6228,17.8313 1.6228,16.2573 C1.6228,14.6823 2.9048,13.4013 4.4788,13.4013 C6.0528,13.4013 7.3348,14.6823 7.3348,16.2573 C7.3348,17.8313 6.0528,19.1133 4.4788,19.1133 M4.4788,11.9393 C2.0978,11.9393 0.1618,13.8763 0.1618,16.2573 C0.1618,18.6373 2.0978,20.5743 4.4788,20.5743 C6.8598,20.5743 8.7958,18.6373 8.7958,16.2573 C8.7958,13.8763 6.8598,11.9393 4.4788,11.9393" id="Fill-76" fill="#000000"></path>
                </g>
                <path d="M36.1985,33.8506 C35.8685,34.0816 35.7885,34.5376 36.0185,34.8686 C36.1615,35.0706 36.3875,35.1796 36.6185,35.1796 C36.7625,35.1796 36.9095,35.1366 37.0365,35.0476 C41.2165,32.1236 44.8095,28.4186 47.7195,24.0376 C48.5305,22.8156 49.2855,21.5396 49.9645,20.2466 C50.1515,19.8886 50.0135,19.4466 49.6565,19.2596 C49.3005,19.0726 48.8575,19.2096 48.6705,19.5676 C48.0145,20.8166 47.2855,22.0486 46.5025,23.2286 C43.6945,27.4576 40.2275,31.0316 36.1985,33.8506" id="Fill-78" fill="#000000"></path>
                <path d="M30.2415,37.3677 C29.3595,37.7857 28.4535,38.1747 27.5465,38.5207 C27.1695,38.6647 26.9795,39.0877 27.1245,39.4637 C27.2355,39.7557 27.5125,39.9337 27.8065,39.9337 C27.8935,39.9337 27.9815,39.9187 28.0675,39.8857 C29.0105,39.5257 29.9525,39.1227 30.8685,38.6867 C31.2335,38.5137 31.3885,38.0777 31.2155,37.7137 C31.0425,37.3497 30.6055,37.1947 30.2415,37.3677" id="Fill-80" fill="#000000"></path>
                <path d="M44.0813,21.0435 C44.3143,20.7145 44.2353,20.2575 43.9053,20.0245 C43.5763,19.7925 43.1213,19.8705 42.8883,20.1995 C37.3983,27.9665 29.6803,33.6665 21.1503,36.2515 C20.7643,36.3685 20.5453,36.7755 20.6623,37.1615 C20.7593,37.4775 21.0483,37.6815 21.3613,37.6815 C21.4323,37.6815 21.5033,37.6715 21.5743,37.6495 C30.4123,34.9715 38.4053,29.0735 44.0813,21.0435" id="Fill-82" fill="#000000"></path>
                <path d="M24.096,17.1241 C28.237,13.6721 31.736,9.3691 34.214,4.6801 C34.404,4.3231 34.267,3.8801 33.91,3.6921 C33.553,3.5031 33.111,3.6401 32.923,3.9971 C30.532,8.5201 27.157,12.6701 23.16,16.0011 C22.851,16.2601 22.809,16.7211 23.068,17.0301 C23.211,17.2041 23.419,17.2931 23.629,17.2931 C23.794,17.2931 23.96,17.2371 24.096,17.1241" id="Fill-84" fill="#000000"></path>
                <path d="M55.803,23.9966 C55.902,24.0416 56.004,24.0626 56.105,24.0626 C56.382,24.0626 56.648,23.9036 56.77,23.6346 C56.924,23.2976 57.074,22.9556 57.216,22.6176 C57.373,22.2466 57.199,21.8176 56.828,21.6606 C56.456,21.5026 56.028,21.6766 55.87,22.0486 C55.733,22.3746 55.587,22.7046 55.441,23.0296 C55.274,23.3976 55.436,23.8296 55.803,23.9966" id="Fill-86" fill="#000000"></path>
                <path d="M55.1624,25.2974 C54.8104,25.1014 54.3654,25.2294 54.1704,25.5814 C53.1714,27.3814 52.0294,29.1324 50.7754,30.7864 C46.1674,36.8694 40.2474,41.4904 33.6574,44.1534 C33.2834,44.3044 33.1024,44.7304 33.2544,45.1044 C33.3684,45.3884 33.6424,45.5614 33.9324,45.5614 C34.0224,45.5614 34.1154,45.5444 34.2044,45.5084 C41.0394,42.7474 47.1724,37.9624 51.9394,31.6704 C53.2354,29.9604 54.4154,28.1514 55.4474,26.2904 C55.6434,25.9384 55.5164,25.4924 55.1624,25.2974" id="Fill-88" fill="#000000"></path>
                <path d="M35.0433,20.0479 C34.3053,20.8789 33.5173,21.6909 32.6993,22.4639 C32.4063,22.7399 32.3943,23.2029 32.6703,23.4969 C32.8143,23.6479 33.0073,23.7249 33.2013,23.7249 C33.3823,23.7249 33.5633,23.6589 33.7033,23.5249 C34.5523,22.7239 35.3703,21.8799 36.1363,21.0189 C36.4033,20.7159 36.3763,20.2549 36.0743,19.9859 C35.7723,19.7189 35.3123,19.7459 35.0433,20.0479" id="Fill-90" fill="#000000"></path>
                <path d="M29.6321,18.148 C29.3381,18.425 29.3231,18.888 29.6001,19.181 C29.7431,19.335 29.9381,19.411 30.1331,19.411 C30.3121,19.411 30.4921,19.346 30.6331,19.213 C34.0681,15.983 36.5011,12.774 38.0731,9.406 C38.2451,9.04 38.0861,8.605 37.7211,8.434 C37.3551,8.264 36.9211,8.422 36.7501,8.788 C35.2571,11.986 32.9291,15.048 29.6321,18.148" id="Fill-92" fill="#000000"></path>
                <path d="M27.2376,20.2725 C26.6316,20.7845 25.9956,21.3045 25.2936,21.8635 C24.9776,22.1145 24.9256,22.5745 25.1766,22.8895 C25.3216,23.0715 25.5346,23.1655 25.7496,23.1655 C25.9096,23.1655 26.0696,23.1135 26.2036,23.0065 C26.9166,22.4395 27.5626,21.9105 28.1796,21.3905 C28.4886,21.1295 28.5276,20.6685 28.2676,20.3595 C28.0086,20.0525 27.5476,20.0135 27.2376,20.2725" id="Fill-94" fill="#000000"></path>
            </g>
        </g>
    </g>
</svg>