<?xml version="1.0" encoding="UTF-8"?>
<svg width="65px" height="65px" viewBox="0 0 65 65" version="1.1" xmlns="http://www.w3.org/2000/svg" xmlns:xlink="http://www.w3.org/1999/xlink">
    <!-- Generator: Sketch 46.1 (44463) - http://www.bohemiancoding.com/sketch -->
    <title>Group 6</title>
    <desc>Created with Sketch.</desc>
    <defs></defs>
    <g id="Dashboard-Entreprise" stroke="none" stroke-width="1" fill="none" fill-rule="evenodd">
        <g id="Dashboard-entreprise---vide" transform="translate(-724.000000, -181.000000)">
            <g id="Group-6" transform="translate(724.000000, 181.000000)">
                <path d="M10.7031528,27.6317708 C11.6023194,23.4826042 13.6723889,19.6936458 16.6894722,16.6774653 C19.7065556,13.6603819 23.4937083,11.5912153 27.6446806,10.6920486 C31.6864167,9.81635417 35.8798194,10.0817708 39.7707917,11.4594097 C41.2612778,11.9857292 42.6957917,12.6763542 44.0364167,13.5087153 C45.4727361,14.4006597 46.8151667,15.4659375 48.0257917,16.6774653 C49.1434306,17.7951042 50.1346806,19.0246875 50.9823889,20.3373264 C48.1485694,25.3919792 43.2230139,31.5841319 37.4109306,37.3989236 C31.5970417,43.2128125 25.4030833,48.1365625 20.3493333,50.9712847 C19.0357917,50.1235764 17.8062083,49.1314236 16.6894722,48.0137847 C15.4788472,46.8031597 14.4126667,45.4616319 13.5207222,44.0235069 C12.6883611,42.6846875 11.9986389,41.2492708 11.4714167,39.7587847 C10.092875,35.8678125 9.82745833,31.6753125 10.7031528,27.6317708" id="Fill-70" fill="#FFFFFF"></path>
                <path d="M15.7371319,33.7911528 C15.7371319,23.170875 24.3460208,14.5619861 34.9662986,14.5619861 C45.5865764,14.5619861 54.1963681,23.170875 54.1963681,33.7911528 C54.1963681,44.4114306 45.5865764,53.0212222 34.9662986,53.0212222 C24.3460208,53.0212222 15.7371319,44.4114306 15.7371319,33.7911528" id="Fill-96" fill="#CBE4F3"></path>
                <path d="M61.7250833,10.2783958 C60.1912639,14.1693681 57.2915417,19.0190903 53.3391806,24.3048542 C49.5619583,29.3595069 44.8819583,34.7138819 39.8038333,39.7920069 C34.7266111,44.8683264 29.3704306,49.5501319 24.3166806,53.3282569 C19.0318194,57.2797153 14.1811944,60.1794375 10.2902222,61.7132569 C6.55272222,63.1874931 3.82091667,63.3265208 2.59945833,62.1050625 C1.37529167,60.8827014 1.51522222,58.1508958 2.98945833,54.4124931 C4.42848611,50.7643681 7.06820833,46.2739514 10.648625,41.3691597 C11.0819583,42.4154792 11.5947361,43.4283958 12.1734167,44.3970764 C9.68445833,49.0554097 9.20056944,52.3460347 10.778625,53.9231875 C11.3861944,54.5307569 12.2465417,54.8340903 13.3416111,54.8340903 C15.1607083,54.8340903 17.6261944,53.9981181 20.6468889,52.3451319 C25.8712639,49.4851319 32.3279306,44.3844375 38.3620972,38.3502708 C44.3971667,32.3161042 49.4978611,25.8594375 52.3569583,20.6359653 C55.0066111,15.7961736 55.5527917,12.3836736 53.9359167,10.7677014 C52.3578611,9.18964583 49.0672361,9.67353472 44.4098056,12.1615903 C43.4402222,11.5820069 42.4273056,11.0701319 41.3818889,10.6358958 C46.284875,7.05547917 50.7770972,4.41665972 54.4243194,2.97763194 C58.1627222,1.50339583 60.8945278,1.36436806 62.1177917,2.58582639 C63.33925,3.8081875 63.1993194,6.53999306 61.7250833,10.2783958 M54.01175,37.0592986 C53.1125833,41.2084653 51.0425139,44.9974236 48.0254306,48.0136042 C45.0083472,51.0306875 41.2211944,53.0998542 37.0702222,53.9990208 C33.4464722,54.7844375 29.7008472,54.6499236 26.1601528,53.6207569 C30.9557083,49.9500625 35.9787639,45.5201319 40.7553611,40.7435347 C45.5319583,35.9678403 49.9627917,30.9447847 53.6325833,26.1483264 C54.66175,29.6881181 54.7962639,33.4346458 54.01175,37.0592986 M13.0148056,45.7015903 C13.8182778,46.8634653 14.7291806,47.9585347 15.7375833,48.9660347 C16.7459861,49.9744375 17.8401528,50.8853403 19.001125,51.6888125 C15.4216111,53.4952708 12.7394583,53.9800625 11.7319583,52.9725625 C10.7235556,51.9632569 11.2074444,49.2811042 13.0148056,45.7015903 M51.7015417,18.9892986 C50.8971667,17.8283264 49.9853611,16.7323542 48.9778611,15.7257569 C47.9703611,14.7173542 46.8752917,13.8055486 45.7143194,13.0020764 C49.2929306,11.1956181 51.9750833,10.7108264 52.9834861,11.7192292 C53.9927917,12.7285347 53.5070972,15.4097847 51.7015417,18.9892986 M10.7027917,27.6315903 C11.6019583,23.4824236 13.6720278,19.6934653 16.6891111,16.6772847 C19.7061944,13.6611042 23.4933472,11.5910347 27.6443194,10.6918681 C31.6869583,9.81617361 35.8794583,10.0815903 39.7713333,11.4592292 C41.2609167,11.9864514 42.6954306,12.6761736 44.0360556,13.5094375 C45.472375,14.4004792 46.8148056,15.4666597 48.0254306,16.6772847 C49.1430694,17.7949236 50.1343194,19.0245069 50.9829306,20.3371458 C48.1482083,25.3917986 43.2235556,31.5848542 37.4105694,37.3987431 C31.5966806,43.2126319 25.403625,48.1363819 20.3489722,50.9711042 C19.0363333,50.1233958 17.80675,49.1321458 16.6891111,48.0136042 C15.4784861,46.8029792 14.4132083,45.4614514 13.5203611,44.0233264 C12.6889028,42.6845069 11.9982778,41.2499931 11.4710556,39.7586042 C10.0934167,35.8676319 9.828,31.6751319 10.7027917,27.6315903 M63.0684167,1.63429861 C61.3964722,-0.0376458333 58.3216111,-0.00695138889 53.9305,1.72457639 C50.0016111,3.27464583 45.147375,6.16082639 39.8769583,10.0743681 C35.8478611,8.71749306 31.5280694,8.4719375 27.3590417,9.37561806 C22.9561944,10.3289514 18.9370278,12.5254097 15.7375833,15.7257569 C12.5372361,18.9252014 10.3416806,22.9443681 9.38744444,27.3463125 C8.48376389,31.5162431 8.72931944,35.8360347 10.0861944,39.8642292 C6.17265278,45.1346458 3.287375,49.9897847 1.73730556,53.9186736 C0.004875,58.3106875 -0.0258194444,61.3846458 1.646125,63.0556875 C2.46675,63.8781181 3.62681944,64.2879792 5.11369444,64.2879792 C6.65563889,64.2879792 8.54966667,63.8465208 10.7840417,62.9663125 C14.7129306,61.4162431 19.5671667,58.5309653 24.8366806,54.6183264 C27.2678611,55.4380486 29.8055694,55.8515208 32.3523056,55.8515208 C34.0251528,55.8515208 35.7025139,55.6736736 37.3564028,55.3152708 C41.75925,54.3619375 45.7775139,52.1654792 48.9778611,48.9660347 C52.1773056,45.7656875 54.3728611,41.7465208 55.3270972,37.3436736 C56.2307778,33.1746458 55.986125,28.8557569 54.6283472,24.8266597 C58.5427917,19.5562431 61.4280694,14.7011042 62.9781389,10.7722153 C64.7105694,6.38110417 64.7412639,3.30624306 63.0684167,1.63429861" id="Fill-98" fill="#000000"></path>
            </g>
        </g>
    </g>
</svg>