<?xml version="1.0" encoding="UTF-8"?>
<svg width="189px" height="168px" viewBox="0 0 189 168" version="1.1" xmlns="http://www.w3.org/2000/svg" xmlns:xlink="http://www.w3.org/1999/xlink">
    <!-- Generator: Sketch 46.1 (44463) - http://www.bohemiancoding.com/sketch -->
    <title>Group 14</title>
    <desc>Created with Sketch.</desc>
    <defs>
        <path d="M7.51200828,1.24506322 C4.12374446,1.24506322 1.37551721,3.98728345 1.37551721,7.36814128 C1.37551721,10.7475986 4.12374446,13.4898188 7.51200828,13.4898188 L117.679708,13.4898188 C121.069376,13.4898188 123.816199,10.7475986 123.816199,7.36814128 C123.816199,3.98728345 121.069376,1.24506322 117.679708,1.24506322 L7.51200828,1.24506322 Z" id="path-1"></path>
        <path d="M83.4293297,1.330495 L4.00163221,1.330495 C0.0519327927,5.74073581 0.474413079,12.5220588 4.94344043,16.4127063 L6.72599845,17.9630831 L45.344346,17.3622595 L50.7930784,29.7568709 L126.891463,30.3562939 L131.368912,17.3622595 L172.665307,17.3622595 L177.758931,11.875018 L177.538568,6.17489734 L172.679343,1.330495 L83.4293297,1.330495 Z" id="path-3"></path>
    </defs>
    <g id="Dashboard-Entreprise" stroke="none" stroke-width="1" fill="none" fill-rule="evenodd">
        <g id="Détail-Mission-Vide" transform="translate(-305.000000, -466.000000)">
            <g id="Group-2" transform="translate(252.000000, 286.000000)">
                <g id="Group-14" transform="translate(54.000000, 180.000000)">
                    <circle id="Oval-4" fill-opacity="0.499688632" fill="#C4E3F6" cx="93" cy="84" r="84"></circle>
                    <g id="Group-4" transform="translate(0.000000, 11.000000)">
                        <g id="Group-8" transform="translate(69.225962, 0.000000)">
                            <g id="Page-1">
                                <g id="Group-9" transform="translate(5.030790, 0.125278)">
                                    <path d="M0.00158001227,38.3527682 C0.00158001227,38.3527682 1.5447891,48.9741239 15.3334759,54.2075966 C29.1211297,59.4420988 16.610187,58.114172 16.610187,58.114172 L10.731738,73.4295944 L6.87474818,73.4295944 L6.87474818,78.3686586 L10.8629211,78.3686586 L10.8629211,85.8941146 L31.2913321,85.8941146 L31.2913321,78.6764494 L33.8788413,78.3068946 L34.5719425,72.377547 L30.7500726,73.4295944 L22.90491,55.9884597 C22.90491,55.9884597 39.5042206,53.2873125 42.7228548,37.7989507 L0.00158001227,38.3527682 Z" id="Fill-1" fill="#DADADA"></path>
                                    <path d="M23.8247411,16.914368 C21.4272925,14.5251291 17.5403475,14.5251291 15.1439318,16.914368" id="Stroke-3" stroke="#000000" stroke-width="1.7703"></path>
                                    <path d="M28.1652491,12.5886207 C23.3703518,7.81014299 15.5974948,7.81014299 10.8015645,12.5886207" id="Stroke-5" stroke="#000000" stroke-width="1.7703"></path>
                                    <path d="M32.5058603,8.26297632 C25.3145473,1.09525979 13.6537124,1.09525979 6.46136647,8.26297632" id="Stroke-7" stroke="#000000" stroke-width="1.7703"></path>
                                    <g id="Group-15" transform="translate(46.743249, 0.874722)"></g>
                                </g>
                                <g id="Group-13" transform="translate(0.000000, 18.595688)" fill="#000000">
                                    <path d="M13.5480123,67.4597109 L35.4814137,67.4597109 L35.4814137,64.7956221 L13.5480123,64.7956221 L13.5480123,67.4597109 Z M13.5480123,63.4151959 L35.4814137,63.4151959 L35.4814137,61.218455 L13.5480123,61.218455 L13.5480123,63.4151959 Z M10.1196917,59.8359699 L38.9097342,59.8359699 L38.9097342,55.288078 L10.1196917,55.288078 L10.1196917,59.8359699 Z M23.3619544,37.9931181 C23.3619544,37.3600368 23.8784233,36.8453364 24.514713,36.8453364 C25.1499697,36.8453364 25.6664386,37.3600368 25.6664386,37.9931181 C25.6664386,38.6272289 25.1499697,39.1419292 24.514713,39.1419292 C23.8784233,39.1419292 23.3619544,38.6272289 23.3619544,37.9931181 Z M21.6328165,36.2915189 C22.1410219,35.1344726 23.2462653,34.4149216 24.514713,34.4149216 C25.7831606,34.4149216 26.8873711,35.1344726 27.3966095,36.2915189 L35.1415771,53.9076517 L25.2067813,53.9076517 L25.2067813,40.4245624 C26.2707072,40.122948 27.0526412,39.1481056 27.0526412,37.9931181 C27.0526412,36.5993097 25.9143437,35.4638808 24.514713,35.4638808 C23.1150822,35.4638808 21.9767848,36.5993097 21.9767848,37.9931181 C21.9767848,39.1481056 22.7587187,40.122948 23.8216117,40.4245624 L23.8216117,53.9076517 L13.8868159,53.9076517 L21.6328165,36.2915189 Z M45.9812265,22.9556339 C42.9412905,29.9061469 36.5856242,35.078885 29.0224536,36.5488691 L28.6650571,35.7377014 C27.9327042,34.0700724 26.34198,33.0334659 24.514713,33.0334659 C22.6884789,33.0334659 21.0977547,34.0700724 20.3643689,35.7377014 L20.0069724,36.5488691 C12.4241759,35.0747674 6.08916837,29.9339407 3.04716653,22.9556339 L45.9812265,22.9556339 Z M46.8272025,20.7094817 C46.7352711,21.0008021 46.6350761,21.2890343 46.5317823,21.5752076 L2.49764362,21.5752076 C2.3933169,21.2890343 2.29518781,21.0008021 2.2022234,20.7094817 L46.8272025,20.7094817 Z M22.7845421,10.1426843 L19.4068355,19.3269967 L13.5666052,19.3269967 L22.7845421,10.1426843 Z M24.514713,1.9929196 C25.1499697,1.9929196 25.6664386,2.50761991 25.6664386,3.1407013 C25.6664386,3.77378268 25.1499697,4.28951239 24.514713,4.28951239 C23.8784233,4.28951239 23.3619544,3.77378268 23.3619544,3.1407013 C23.3619544,2.50761991 23.8784233,1.9929196 24.514713,1.9929196 Z M29.6246563,19.3269967 L26.2469497,10.1437137 L35.4638537,19.3269967 L29.6246563,19.3269967 Z M24.5157459,9.4468095 L28.1485882,19.3269967 L20.8829036,19.3269967 L24.5157459,9.4468095 Z M36.8665833,67.4597109 L36.8665833,61.2174256 L39.6028355,61.2174256 C39.9850225,61.2174256 40.2959368,60.9086054 40.2959368,60.5266977 L40.2959368,54.5973502 C40.2959368,54.2164719 39.9850225,53.9076517 39.6028355,53.9076517 L36.6537981,53.9076517 L29.5905694,37.843855 C38.6205117,35.9682871 45.9791606,29.1011556 48.4220585,20.2009578 C48.4788701,19.9930189 48.4354867,19.7716977 48.3043036,19.5997878 C48.1741534,19.4289073 47.9696318,19.3280261 47.7537477,19.3280261 L37.4223038,19.3280261 L25.2078142,7.15536372 L25.2078142,5.57317496 C26.2707072,5.27053118 27.0526412,4.29568879 27.0526412,3.1407013 C27.0526412,1.74586345 25.9133108,0.611463969 24.514713,0.611463969 C23.1150822,0.611463969 21.9767848,1.74586345 21.9767848,3.1407013 C21.9767848,4.29671819 22.7587187,5.27156058 23.8216117,5.57317496 L23.8216117,7.15433432 L11.6071221,19.3269967 L1.27567819,19.3269967 C1.05876125,19.3269967 0.856305442,19.4289073 0.72512234,19.5997878 C0.592906301,19.7716977 0.549522913,19.9930189 0.60736743,20.2009578 C3.06679235,29.1495374 10.3903214,35.9631401 19.4388566,37.8397374 L12.3745949,53.9076517 L9.42762336,53.9076517 C9.04543637,53.9076517 8.73452209,54.2154425 8.73452209,54.5973502 L8.73452209,60.5256683 C8.73452209,60.9086054 9.04543637,61.2174256 9.42762336,61.2174256 L12.1628427,61.2174256 L12.1628427,67.4597109 L36.8665833,67.4597109 Z" id="Fill-10"></path>
                                </g>
                            </g>
                        </g>
                        <g id="Page-1" transform="translate(0.000000, 73.949686)">
                            <g id="Group-6" transform="translate(33.686136, 57.043432)">
                                <mask id="mask-2" fill="white">
                                    <use xlink:href="#path-1"></use>
                                </mask>
                                <g id="Clip-5"></g>
                                <polygon id="Fill-4" fill="#DADADA" mask="url(#mask-2)" points="-1.74746829 16.6073787 126.941992 16.6073787 126.941992 -1.87249665 -1.74746829 -1.87249665"></polygon>
                            </g>
                            <g id="Group-12" transform="translate(8.421534, 12.226758)">
                                <mask id="mask-4" fill="white">
                                    <use xlink:href="#path-3"></use>
                                </mask>
                                <g id="Clip-11"></g>
                                <polygon id="Fill-10" fill="#DADADA" mask="url(#mask-4)" points="-1.83028004 33.4752543 180.884724 33.4752543 180.884724 -1.78846539 -1.83028004 -1.78846539"></polygon>
                            </g>
                            <polygon id="Fill-13" fill="#CBE4F3" points="76.0352228 58.2884949 114.537072 58.2884949 114.537072 42.1152777 76.0352228 42.1152777"></polygon>
                            <polygon id="Stroke-34" stroke="#000000" stroke-width="0.62478" points="93.7358836 57.7745036 104.469129 57.7745036 104.469129 42.070461 93.7358836 42.070461"></polygon>
                            <polygon id="Stroke-35" stroke="#000000" stroke-width="0.62478" points="82.4019025 57.7759042 93.1337439 57.7759042 93.1337439 42.070461 82.4019025 42.070461"></polygon>
                            <g id="Group-85" transform="translate(0.000000, 1.064396)" stroke="#000000" stroke-width="0.62478">
                                <path d="M29.090224,3.62615805 C29.090224,2.4721287 28.1484158,1.53377959 26.993262,1.53377959 C25.8367047,1.53377959 24.8948965,2.4721287 24.8948965,3.62615805 C24.8948965,4.7801874 25.8367047,5.7185365 26.993262,5.7185365 C28.1484158,5.7185365 29.090224,4.7801874 29.090224,3.62615805 Z" id="Stroke-36"></path>
                                <path d="M161.975994,3.62615805 C161.975994,2.4721287 161.03559,1.53377959 159.880436,1.53377959 C158.722475,1.53377959 157.78207,2.4721287 157.78207,3.62615805 C157.78207,4.7801874 158.722475,5.7185365 159.880436,5.7185365 C161.03559,5.7185365 161.975994,4.7801874 161.975994,3.62615805 Z" id="Stroke-38"></path>
                                <path d="M37.439052,3.62615805 C37.439052,2.4721287 36.4986474,1.53377959 35.3420901,1.53377959 C34.1855328,1.53377959 33.2451281,2.4721287 33.2451281,3.62615805 C33.2451281,4.7801874 34.1855328,5.7185365 35.3420901,5.7185365 C36.4986474,5.7185365 37.439052,4.7801874 37.439052,3.62615805 Z" id="Stroke-44"></path>
                                <polygon id="Stroke-46" points="72.6595913 56.7115082 81.8011664 56.7115082 81.8011664 41.006065 72.6595913 41.006065"></polygon>
                                <polygon id="Stroke-48" points="47.2299274 28.6111736 48.5464939 32.2581304 138.322853 32.2581304 139.640823 28.6111736 93.436077 28.6111736"></polygon>
                                <path d="M148.396552,64.8947527 C148.396552,65.0614147 148.260403,65.1958647 148.09478,65.1958647 L38.6386996,65.1958647 C38.4716725,65.1958647 38.3369279,65.0614147 38.3369279,64.8947527 C38.3369279,64.7294912 38.4716725,64.5950412 38.6386996,64.5950412 L148.09478,64.5950412 C148.260403,64.5950412 148.396552,64.7294912 148.396552,64.8947527 Z M33.985802,57.3123317 L33.9843985,57.3123317 L33.9829949,57.3123317 L33.9198334,57.3123317 C30.8979063,57.3123317 28.4219753,59.7478378 28.3882891,62.7715628 C28.354603,65.8162955 30.8094802,68.3190267 33.8580754,68.3540397 L33.985802,68.3540397 L79.3596234,68.3540397 L107.372452,68.3540397 L152.535735,68.3540397 C152.559596,68.3540397 152.577843,68.3554402 152.600301,68.3554402 C155.622228,68.3554402 158.099562,65.9185336 158.133248,62.8934081 C158.166934,59.8486753 155.712057,57.3459442 152.662058,57.3123317 L152.539946,57.3123317 L152.535735,57.3123317 L33.985802,57.3123317 Z" id="Stroke-50"></path>
                                <polygon id="Stroke-52" points="105.071268 56.7101076 114.212843 56.7101076 114.212843 41.006065 105.071268 41.006065"></polygon>
                                <polygon id="Stroke-53" points="48.7637695 32.8578335 51.4895393 40.406642 93.4357963 40.406642 135.38065 40.406642 138.10642 32.8578335"></polygon>
                                <path d="M43.2768594,22.2226968 C43.2768594,22.3879583 43.1421148,22.5224083 42.9750877,22.5224083 C42.8094642,22.5224083 42.6747197,22.3879583 42.6747197,22.2226968 L42.6747197,18.8194306 C42.6747197,18.6527686 42.8094642,18.5197191 42.9750877,18.5197191 C43.1421148,18.5197191 43.2768594,18.6527686 43.2768594,18.8194306 L43.2768594,22.2226968 Z M34.8665541,22.2226968 C34.8665541,22.3879583 34.7318096,22.5224083 34.5661861,22.5224083 C34.399159,22.5224083 34.2644145,22.3879583 34.2644145,22.2226968 L34.2644145,18.8194306 C34.2644145,18.6527686 34.399159,18.5197191 34.5661861,18.5197191 C34.7318096,18.5197191 34.8665541,18.6527686 34.8665541,18.8194306 L34.8665541,22.2226968 Z M26.4562489,22.2226968 C26.4562489,22.3879583 26.3215044,22.5224083 26.1544773,22.5224083 C25.9902574,22.5224083 25.8541092,22.3879583 25.8541092,22.2226968 L25.8541092,18.8194306 C25.8541092,18.6527686 25.9902574,18.5197191 26.1544773,18.5197191 C26.3215044,18.5197191 26.4562489,18.6527686 26.4562489,18.8194306 L26.4562489,22.2226968 Z M18.0459437,22.2226968 C18.0459437,22.3879583 17.9126027,22.5224083 17.7455756,22.5224083 C17.5785485,22.5224083 17.4452076,22.3879583 17.4452076,22.2226968 L17.4452076,18.8194306 C17.4452076,18.6527686 17.5785485,18.5197191 17.7455756,18.5197191 C17.9126027,18.5197191 18.0459437,18.6527686 18.0459437,18.8194306 L18.0459437,22.2226968 Z M51.0836213,18.8194306 C51.0836213,18.6527686 51.2183659,18.5197191 51.385393,18.5197191 C51.5524201,18.5197191 51.685761,18.6527686 51.685761,18.8194306 L51.685761,22.2226968 C51.685761,22.3879583 51.5524201,22.5224083 51.385393,22.5224083 C51.2183659,22.5224083 51.0836213,22.3879583 51.0836213,22.2226968 L51.0836213,18.8194306 Z M59.4939266,18.8194306 C59.4939266,18.6527686 59.6286711,18.5197191 59.7971018,18.5197191 C59.9613217,18.5197191 60.0960663,18.6527686 60.0960663,18.8194306 L60.0960663,22.2226968 C60.0960663,22.3879583 59.9613217,22.5224083 59.7971018,22.5224083 C59.6286711,22.5224083 59.4939266,22.3879583 59.4939266,22.2226968 L59.4939266,18.8194306 Z M67.9042318,18.8194306 C67.9042318,18.6527686 68.0403799,18.5197191 68.2060035,18.5197191 C68.371627,18.5197191 68.5077751,18.6527686 68.5077751,18.8194306 L68.5077751,22.2226968 C68.5077751,22.3879583 68.371627,22.5224083 68.2060035,22.5224083 C68.0403799,22.5224083 67.9042318,22.3879583 67.9042318,22.2226968 L67.9042318,18.8194306 Z M76.3145371,18.8194306 C76.3145371,18.6527686 76.4492816,18.5197191 76.6163087,18.5197191 C76.7819322,18.5197191 76.9166767,18.6527686 76.9166767,18.8194306 L76.9166767,22.2226968 C76.9166767,22.3879583 76.7819322,22.5224083 76.6163087,22.5224083 C76.4492816,22.5224083 76.3145371,22.3879583 76.3145371,22.2226968 L76.3145371,18.8194306 Z M84.7234387,18.8194306 C84.7234387,18.6527686 84.8595868,18.5197191 85.0252103,18.5197191 C85.1908338,18.5197191 85.326982,18.6527686 85.326982,18.8194306 L85.326982,22.2226968 C85.326982,22.3879583 85.1908338,22.5224083 85.0252103,22.5224083 C84.8595868,22.5224083 84.7234387,22.3879583 84.7234387,22.2226968 L84.7234387,18.8194306 Z M93.1337439,18.8194306 C93.1337439,18.6527686 93.2684885,18.5197191 93.4355156,18.5197191 C93.6011391,18.5197191 93.7358836,18.6527686 93.7358836,18.8194306 L93.7358836,22.2226968 C93.7358836,22.3879583 93.6011391,22.5224083 93.4355156,22.5224083 C93.2684885,22.5224083 93.1337439,22.3879583 93.1337439,22.2226968 L93.1337439,18.8194306 Z M101.545453,18.8194306 C101.545453,18.6527686 101.678794,18.5197191 101.847224,18.5197191 C102.012848,18.5197191 102.146189,18.6527686 102.146189,18.8194306 L102.146189,22.2226968 C102.146189,22.3879583 102.012848,22.5224083 101.847224,22.5224083 C101.678794,22.5224083 101.545453,22.3879583 101.545453,22.2226968 L101.545453,18.8194306 Z M109.954354,18.8194306 C109.954354,18.6527686 110.089099,18.5197191 110.256126,18.5197191 C110.42175,18.5197191 110.556494,18.6527686 110.556494,18.8194306 L110.556494,22.2226968 C110.556494,22.3879583 110.42175,22.5224083 110.256126,22.5224083 C110.089099,22.5224083 109.954354,22.3879583 109.954354,22.2226968 L109.954354,18.8194306 Z M118.36466,18.8194306 C118.36466,18.6527686 118.499404,18.5197191 118.665028,18.5197191 C118.832055,18.5197191 118.966799,18.6527686 118.966799,18.8194306 L118.966799,22.2226968 C118.966799,22.3879583 118.832055,22.5224083 118.665028,22.5224083 C118.499404,22.5224083 118.36466,22.3879583 118.36466,22.2226968 L118.36466,18.8194306 Z M126.773561,18.8194306 C126.773561,18.6527686 126.909709,18.5197191 127.076737,18.5197191 C127.24236,18.5197191 127.377105,18.6527686 127.377105,18.8194306 L127.377105,22.2226968 C127.377105,22.3879583 127.24236,22.5224083 127.076737,22.5224083 C126.909709,22.5224083 126.773561,22.3879583 126.773561,22.2226968 L126.773561,18.8194306 Z M135.183867,18.8194306 C135.183867,18.6527686 135.318611,18.5197191 135.485638,18.5197191 C135.651262,18.5197191 135.786006,18.6527686 135.786006,18.8194306 L135.786006,22.2226968 C135.786006,22.3879583 135.651262,22.5224083 135.485638,22.5224083 C135.318611,22.5224083 135.183867,22.3879583 135.183867,22.2226968 L135.183867,18.8194306 Z M143.595575,18.8194306 C143.595575,18.6527686 143.728916,18.5197191 143.895943,18.5197191 C144.06297,18.5197191 144.196311,18.6527686 144.196311,18.8194306 L144.196311,22.2226968 C144.196311,22.3879583 144.06297,22.5224083 143.895943,22.5224083 C143.728916,22.5224083 143.595575,22.3879583 143.595575,22.2226968 L143.595575,18.8194306 Z M152.005881,18.8194306 C152.005881,18.6527686 152.139222,18.5197191 152.306249,18.5197191 C152.471872,18.5197191 152.606617,18.6527686 152.606617,18.8194306 L152.606617,22.2226968 C152.606617,22.3879583 152.471872,22.5224083 152.306249,22.5224083 C152.139222,22.5224083 152.005881,22.3879583 152.005881,22.2226968 L152.005881,18.8194306 Z M160.414782,18.8194306 C160.414782,18.6527686 160.549527,18.5197191 160.716554,18.5197191 C160.882177,18.5197191 161.016922,18.6527686 161.016922,18.8194306 L161.016922,22.2226968 C161.016922,22.3879583 160.882177,22.5224083 160.716554,22.5224083 C160.549527,22.5224083 160.414782,22.3879583 160.414782,22.2226968 L160.414782,18.8194306 Z M168.825087,18.8194306 C168.825087,18.6527686 168.959832,18.5197191 169.125456,18.5197191 C169.292483,18.5197191 169.427227,18.6527686 169.427227,18.8194306 L169.427227,22.2226968 C169.427227,22.3879583 169.292483,22.5224083 169.125456,22.5224083 C168.959832,22.5224083 168.825087,22.3879583 168.825087,22.2226968 L168.825087,18.8194306 Z M93.4355156,28.0110503 L140.06976,28.0110503 L178.112636,28.0110503 C182.597103,28.0124508 186.19029,24.4733341 186.239416,20.0841011 C186.263277,17.9427044 185.450599,15.920352 183.950162,14.3895825 C182.448322,12.858813 180.44119,12.0030946 178.295102,11.9792858 L8.75699172,11.9792858 C6.55054982,11.9792858 4.56026063,12.788787 3.04859529,14.2635356 C1.51306893,15.7620932 0.655476059,17.7648383 0.631615046,19.906235 C0.58389302,24.3262794 4.14620188,27.9620321 8.57592874,28.0110503 L46.8026749,28.0110503 L93.4355156,28.0110503 Z" id="Stroke-54"></path>
                                <path d="M0.632036123,19.9059549 C0.654493547,17.7645582 1.51349001,15.7604125 3.04901637,14.264656 C4.56068171,12.7885068 6.5509709,11.9790057 8.66337233,11.9790057 C8.6839583,11.9790057 65.1671865,11.9790057 178.113057,11.9790057 C180.440207,12.0028145 182.448743,12.8599334 183.94918,14.3893024 C185.45102,15.9200719 186.263698,17.9438249 186.238434,20.083821 C186.190712,24.4744545 182.59612,28.0121707 178.208501,28.0121707 C178.187915,28.0121707 165.475142,28.0117039 140.070181,28.0107702 L93.4359366,28.0107702 L46.8016924,28.0107702 L8.75741279,28.0107702 C4.14662296,27.961752 0.582910508,24.3259993 0.632036123,19.9059549 Z M138.324116,32.25715 L48.5477571,32.25715 L47.2297871,28.6115937 L93.4359366,28.6115937 L139.640683,28.6115937 L138.324116,32.25715 Z M135.38079,40.4067821 L93.4359366,40.4067821 L51.4896796,40.4067821 L48.7653134,32.8579736 L138.10656,32.8579736 L135.38079,40.4067821 Z M105.071689,56.7102477 L114.213264,56.7102477 L114.213264,41.0062051 L105.071689,41.0062051 L105.071689,56.7102477 Z M158.134371,62.8935481 C158.099281,65.9172731 155.624754,68.3555803 152.60002,68.3555803 C152.585984,68.3555803 113.048286,68.3551134 33.9869249,68.3541797 C30.8091994,68.3205672 28.3543223,65.8164356 28.3880084,62.7717028 C28.4230982,59.7479779 30.8976255,57.3110712 33.9209562,57.3110712 C33.9340564,57.3110712 73.4722226,57.3115381 152.535455,57.3124717 C155.711777,57.3460842 158.166654,59.8502159 158.134371,62.8935481 Z M93.7363047,56.7116482 L104.46955,56.7116482 L104.46955,41.0062051 L93.7363047,41.0062051 L93.7363047,56.7116482 Z M82.4023236,56.7102477 L93.134165,56.7102477 L93.134165,41.0062051 L82.4023236,41.0062051 L82.4023236,56.7102477 Z M72.6586088,56.7116482 L81.8001839,56.7116482 L81.8001839,41.0062051 L72.6586088,41.0062051 L72.6586088,56.7116482 Z M24.8944754,3.6262981 C24.8944754,2.47226875 25.8362836,1.53391964 26.992841,1.53391964 C28.1479947,1.53391964 29.0898029,2.47226875 29.0898029,3.6262981 C29.0898029,4.78032745 28.1479947,5.72007708 26.992841,5.72007708 C25.8362836,5.72007708 24.8944754,4.78032745 24.8944754,3.6262981 Z M33.2444263,3.6262981 C33.2444263,2.47226875 34.184831,1.53391964 35.3413883,1.53391964 C36.4993492,1.53391964 37.4397538,2.47226875 37.4397538,3.6262981 C37.4397538,4.78032745 36.4993492,5.72007708 35.3413883,5.72007708 C34.184831,5.72007708 33.2444263,4.78032745 33.2444263,3.6262981 Z M157.78207,3.6262981 C157.78207,2.47226875 158.722475,1.53391964 159.879032,1.53391964 C161.03559,1.53391964 161.975994,2.47226875 161.975994,3.6262981 C161.975994,4.78032745 161.03559,5.72007708 159.879032,5.72007708 C158.722475,5.72007708 157.78207,4.78032745 157.78207,3.6262981 Z M152.532648,68.9550033 C155.95179,68.9550033 158.69721,66.2533982 158.733704,62.9005508 C158.773004,59.525295 156.050042,56.7494623 152.668796,56.7102477 L114.814001,56.7102477 L114.814001,41.0062051 L135.591328,41.0062051 C135.676479,41.0062051 137.23961,36.874668 140.280719,28.6115937 L178.11025,28.6115937 C182.92456,28.6129943 186.78864,24.8091791 186.841977,20.0908236 C186.865838,17.788367 185.992806,15.6147583 184.380082,13.9705466 C182.768762,12.3249344 180.607235,11.404792 178.301138,11.3781821 L160.180804,11.3781821 L160.180804,6.28868863 C161.526846,6.13883287 162.579538,5.00861238 162.579538,3.6262981 C162.579538,2.14034526 161.366837,0.933096108 159.879032,0.933096108 C158.391228,0.933096108 157.178527,2.14034526 157.178527,3.6262981 C157.178527,5.00861238 158.232622,6.13883287 159.577261,6.28868863 L159.577261,11.3781821 L35.6417563,11.3781821 L35.6417563,6.28868863 C36.9877982,6.13883287 38.0404899,5.00861238 38.0404899,3.6262981 C38.0404899,2.14034526 36.8305962,0.933096108 35.3413883,0.933096108 C33.853584,0.933096108 32.6436903,2.14034526 32.6436903,3.6262981 C32.6436903,5.00861238 33.6949784,6.13883287 35.0410202,6.28868863 L35.0410202,11.3781821 L27.293209,11.3781821 L27.293209,6.28868863 C28.6392509,6.13883287 29.6919426,5.00861238 29.6919426,3.6262981 C29.6919426,2.14034526 28.4806453,0.933096108 26.992841,0.933096108 C25.5050366,0.933096108 24.2923358,2.14034526 24.2923358,3.6262981 C24.2923358,5.00861238 25.3450275,6.13883287 26.6910693,6.28868863 L26.6910693,11.3781821 L8.75741279,11.3781821 C3.9880174,11.3333655 0.0818292382,15.1483848 0.0298964455,19.8989522 C-0.0234399362,24.6509202 3.80835801,28.5597745 8.56933187,28.6115937 L46.5911541,28.6115937 L50.9970199,40.8087316 C51.0250917,40.8880945 58.0449081,40.953919 72.0564691,41.0062051 L72.0564691,56.7102477 L33.9897321,56.7102477 C30.5691857,56.7102477 27.8237657,59.4118528 27.7872723,62.7647002 C27.7479718,66.1413565 30.4709345,68.9171892 33.8563911,68.9550033 L152.532648,68.9550033 Z" id="Stroke-55"></path>
                                <path d="M169.125596,22.5235287 C169.292623,22.5235287 169.427368,22.3876782 169.427368,22.2224167 L169.427368,18.8191505 C169.427368,18.6524885 169.292623,18.519439 169.125596,18.519439 C168.959972,18.519439 168.825228,18.6524885 168.825228,18.8191505 L168.825228,22.2224167 C168.825228,22.3876782 168.959972,22.5235287 169.125596,22.5235287 Z" id="Stroke-56"></path>
                                <path d="M160.716414,22.5235287 C160.882037,22.5235287 161.016782,22.3876782 161.016782,22.2224167 L161.016782,18.8191505 C161.016782,18.6524885 160.882037,18.519439 160.716414,18.519439 C160.549386,18.519439 160.414642,18.6524885 160.414642,18.8191505 L160.414642,22.2224167 C160.414642,22.3876782 160.549386,22.5235287 160.716414,22.5235287 Z" id="Stroke-57"></path>
                                <path d="M152.305828,22.5235287 C152.471451,22.5235287 152.606196,22.3876782 152.606196,22.2224167 L152.606196,18.8191505 C152.606196,18.6524885 152.471451,18.519439 152.305828,18.519439 C152.1388,18.519439 152.00546,18.6524885 152.00546,18.8191505 L152.00546,22.2224167 C152.00546,22.3876782 152.1388,22.5235287 152.305828,22.5235287 Z" id="Stroke-58"></path>
                                <path d="M143.895242,22.5235287 C144.062269,22.5235287 144.197013,22.3876782 144.197013,22.2224167 L144.197013,18.8191505 C144.197013,18.6524885 144.062269,18.519439 143.895242,18.519439 C143.729618,18.519439 143.594874,18.6524885 143.594874,18.8191505 L143.594874,22.2224167 C143.594874,22.3876782 143.729618,22.5235287 143.895242,22.5235287 Z" id="Stroke-59"></path>
                                <path d="M135.486059,22.5235287 C135.651683,22.5235287 135.786427,22.3876782 135.786427,22.2224167 L135.786427,18.8191505 C135.786427,18.6524885 135.651683,18.519439 135.486059,18.519439 C135.319032,18.519439 135.184288,18.6524885 135.184288,18.8191505 L135.184288,22.2224167 C135.184288,22.3876782 135.319032,22.5235287 135.486059,22.5235287 Z" id="Stroke-60"></path>
                                <path d="M127.075473,22.5235287 C127.2425,22.5235287 127.377245,22.3876782 127.377245,22.2224167 L127.377245,18.8191505 C127.377245,18.6524885 127.2425,18.519439 127.075473,18.519439 C126.90985,18.519439 126.775105,18.6524885 126.775105,18.8191505 L126.775105,22.2224167 C126.775105,22.3876782 126.90985,22.5235287 127.075473,22.5235287 Z" id="Stroke-61"></path>
                                <path d="M118.664887,22.5235287 C118.831914,22.5235287 118.966659,22.3876782 118.966659,22.2224167 L118.966659,18.8191505 C118.966659,18.6524885 118.831914,18.519439 118.664887,18.519439 C118.499264,18.519439 118.364519,18.6524885 118.364519,18.8191505 L118.364519,22.2224167 C118.364519,22.3876782 118.499264,22.5235287 118.664887,22.5235287 Z" id="Stroke-62"></path>
                                <path d="M110.255705,22.5235287 C110.421328,22.5235287 110.556073,22.3876782 110.556073,22.2224167 L110.556073,18.8191505 C110.556073,18.6524885 110.421328,18.519439 110.255705,18.519439 C110.088678,18.519439 109.955337,18.6524885 109.955337,18.8191505 L109.955337,22.2224167 C109.955337,22.3876782 110.088678,22.5235287 110.255705,22.5235287 Z" id="Stroke-63"></path>
                                <path d="M101.845119,22.5235287 C102.012146,22.5235287 102.146891,22.3876782 102.146891,22.2224167 L102.146891,18.8191505 C102.146891,18.6524885 102.012146,18.519439 101.845119,18.519439 C101.679496,18.519439 101.544751,18.6524885 101.544751,18.8191505 L101.544751,22.2224167 C101.544751,22.3876782 101.679496,22.5235287 101.845119,22.5235287 Z" id="Stroke-64"></path>
                                <path d="M93.4359366,22.5235287 C93.6015602,22.5235287 93.7363047,22.3876782 93.7363047,22.2224167 L93.7363047,18.8191505 C93.7363047,18.6524885 93.6015602,18.519439 93.4359366,18.519439 C93.2689096,18.519439 93.134165,18.6524885 93.134165,18.8191505 L93.134165,22.2224167 C93.134165,22.3876782 93.2689096,22.5235287 93.4359366,22.5235287 Z" id="Stroke-65"></path>
                                <path d="M17.7462774,18.5188788 C17.5792503,18.5188788 17.4445058,18.6547293 17.4445058,18.8199908 L17.4445058,22.223257 C17.4445058,22.3885185 17.5792503,22.5229685 17.7462774,22.5229685 C17.9119009,22.5229685 18.0466455,22.3885185 18.0466455,22.223257 L18.0466455,18.8199908 C18.0466455,18.6547293 17.9119009,18.5188788 17.7462774,18.5188788 Z" id="Stroke-66"></path>
                                <path d="M26.1554598,18.5188788 C25.9884327,18.5188788 25.8536881,18.6547293 25.8536881,18.8199908 L25.8536881,22.223257 C25.8536881,22.3885185 25.9884327,22.5229685 26.1554598,22.5229685 C26.3210833,22.5229685 26.4558278,22.3885185 26.4558278,22.223257 L26.4558278,18.8199908 C26.4558278,18.6547293 26.3210833,18.5188788 26.1554598,18.5188788 Z" id="Stroke-67"></path>
                                <path d="M34.5646421,18.5188788 C34.3990186,18.5188788 34.2642741,18.6547293 34.2642741,18.8199908 L34.2642741,22.223257 C34.2642741,22.3885185 34.3990186,22.5229685 34.5646421,22.5229685 C34.7316692,22.5229685 34.8664138,22.3885185 34.8664138,22.223257 L34.8664138,18.8199908 C34.8664138,18.6547293 34.7316692,18.5188788 34.5646421,18.5188788 Z" id="Stroke-68"></path>
                                <path d="M42.9752281,18.5188788 C42.808201,18.5188788 42.6748601,18.6547293 42.6748601,18.8199908 L42.6748601,22.223257 C42.6748601,22.3885185 42.808201,22.5229685 42.9752281,22.5229685 C43.1422552,22.5229685 43.2755961,22.3885185 43.2755961,22.223257 L43.2755961,18.8199908 C43.2755961,18.6547293 43.1422552,18.5188788 42.9752281,18.5188788 Z" id="Stroke-69"></path>
                                <path d="M51.3858141,22.5235287 C51.5528411,22.5235287 51.6861821,22.3876782 51.6861821,22.2224167 L51.6861821,18.8191505 C51.6861821,18.6524885 51.5528411,18.519439 51.3858141,18.519439 C51.218787,18.519439 51.0840424,18.6524885 51.0840424,18.8191505 L51.0840424,22.2224167 C51.0840424,22.3876782 51.218787,22.5235287 51.3858141,22.5235287 Z" id="Stroke-70"></path>
                                <path d="M59.7949964,22.5235287 C59.9620235,22.5235287 60.0967681,22.3876782 60.0967681,22.2224167 L60.0967681,18.8191505 C60.0967681,18.6524885 59.9620235,18.519439 59.7949964,18.519439 C59.6293729,18.519439 59.4946284,18.6524885 59.4946284,18.8191505 L59.4946284,22.2224167 C59.4946284,22.3876782 59.6293729,22.5235287 59.7949964,22.5235287 Z" id="Stroke-71"></path>
                                <path d="M68.2055824,22.5235287 C68.3712059,22.5235287 68.5059504,22.3876782 68.5059504,22.2224167 L68.5059504,18.8191505 C68.5059504,18.6524885 68.3712059,18.519439 68.2055824,18.519439 C68.0385553,18.519439 67.9038107,18.6524885 67.9038107,18.8191505 L67.9038107,22.2224167 C67.9038107,22.3876782 68.0385553,22.5235287 68.2055824,22.5235287 Z" id="Stroke-72"></path>
                                <path d="M76.6147647,22.5235287 C76.7817918,22.5235287 76.9165364,22.3876782 76.9165364,22.2224167 L76.9165364,18.8191505 C76.9165364,18.6524885 76.7817918,18.519439 76.6147647,18.519439 C76.4491412,18.519439 76.3143967,18.6524885 76.3143967,18.8191505 L76.3143967,22.2224167 C76.3143967,22.3876782 76.4491412,22.5235287 76.6147647,22.5235287 Z" id="Stroke-73"></path>
                                <path d="M85.0253507,22.5235287 C85.1923778,22.5235287 85.3271223,22.3876782 85.3271223,22.2224167 L85.3271223,18.8191505 C85.3271223,18.6524885 85.1923778,18.519439 85.0253507,18.519439 C84.8597272,18.519439 84.7249827,18.6524885 84.7249827,18.8191505 L84.7249827,22.2224167 C84.7249827,22.3876782 84.8597272,22.5235287 85.0253507,22.5235287 Z" id="Stroke-74"></path>
                                <path d="M38.3367876,64.8947527 C38.3367876,65.0614147 38.4729357,65.1958647 38.6371556,65.1958647 L148.09464,65.1958647 C148.261667,65.1958647 148.396411,65.0614147 148.396411,64.8947527 C148.396411,64.7294912 148.261667,64.5950412 148.09464,64.5950412 L38.6371556,64.5950412 C38.4729357,64.5950412 38.3367876,64.7294912 38.3367876,64.8947527 Z" id="Stroke-75"></path>
                            </g>
                        </g>
                    </g>
                </g>
            </g>
        </g>
    </g>
</svg>