<?xml version="1.0" encoding="UTF-8"?>
<svg width="175px" height="267px" viewBox="0 0 175 267" version="1.1" xmlns="http://www.w3.org/2000/svg" xmlns:xlink="http://www.w3.org/1999/xlink">
    <!-- Generator: Sketch 46.1 (44463) - http://www.bohemiancoding.com/sketch -->
    <title>Page 1</title>
    <desc>Created with Sketch.</desc>
    <defs>
        <path d="M1.03750746,1.01215534 L5.62643284,4.12407767 L5.62643284,28.0892621 L18.2271493,28.3546602 L18.4167313,4.12407767 C18.4167313,4.12407767 23.0653881,1.59108738 22.8134776,1.01215534 C22.7290746,0.81831068 20.2826866,0.754563107 17.0558955,0.754563107 C10.6036119,0.754563107 1.03750746,1.01215534 1.03750746,1.01215534 Z" id="path-1"></path>
        <path d="M6.94961194,1.15656311 C3.81501493,1.15656311 1.27253731,3.70386408 1.27253731,6.84440777 C1.27253731,9.98365049 3.81501493,12.5309515 6.94961194,12.5309515 L108.869463,12.5309515 C112.005358,12.5309515 114.546537,9.98365049 114.546537,6.84440777 C114.546537,3.70386408 112.005358,1.15656311 108.869463,1.15656311 L6.94961194,1.15656311 Z" id="path-3"></path>
        <path d="M3.0281194,7.7407767 C-1.32967164,8.62153398 1.43225373,12.2005049 1.43225373,12.2005049 L13.5161642,11.388699 L20.887791,9.97974757 C20.887791,9.97974757 19.8295075,7.86046602 18.1024925,7.18266019 C16.3780746,6.50485437 9.53753731,0.763669903 9.53753731,0.763669903 C9.53753731,0.763669903 7.38720896,6.85871845 3.0281194,7.7407767 Z" id="path-5"></path>
        <path d="M77.1832836,1.23592233 L3.70204478,1.23592233 C0.0480447761,5.33267961 0.438895522,11.6319806 4.57334328,15.2460777 L6.22244776,16.6862524 L41.9495821,16.1281359 L46.9903881,27.6417282 L117.391567,28.1985437 L121.533806,16.1281359 L159.738493,16.1281359 L164.450776,11.030932 L164.24691,5.73598058 L159.751478,1.23592233 L77.1832836,1.23592233 Z" id="path-7"></path>
        <path d="M0.423313433,22.9087961 L0.423313433,1.04467961 L16.0794179,1.04467961 L16.0794179,22.9087961 L0.423313433,22.9087961 Z M1.00114925,22.3285631 L15.5015821,22.3285631 L15.5015821,1.62231068 L1.00114925,1.62231068 L1.00114925,22.3285631 Z M4.00979104,4.65487379 L7.18983582,4.65487379 C7.43655224,4.65487379 7.63652239,4.8552233 7.63652239,5.1011068 L7.63652239,11.2364854 C7.63652239,11.4836699 7.43655224,11.6840194 7.18983582,11.6840194 L4.00979104,11.6840194 C3.76177612,11.6840194 3.56180597,11.4836699 3.56180597,11.2364854 L3.56180597,5.1011068 C3.56180597,4.8552233 3.76177612,4.65487379 4.00979104,4.65487379 Z M4.1409403,11.1050874 L7.05738806,11.1050874 L7.05738806,5.23380583 L4.1409403,5.23380583 L4.1409403,11.1050874 Z" id="path-9"></path>
        <path d="M0.881686567,0.270601942 L26.010403,0.270601942 L25.8844478,0.651786408 C25.2598657,2.54469903 23.5757015,3.82225243 21.5954776,3.90941748 L5.30959701,3.90941748 C3.31638806,3.82225243 1.63222388,2.54469903 1.00634328,0.651786408 L0.881686567,0.270601942 Z M1.70234328,0.849533981 C2.33861194,2.30271845 3.71892537,3.26153398 5.32128358,3.33308738 L21.5824925,3.33178641 C23.1731642,3.26153398 24.5534776,2.30271845 25.1897463,0.849533981 L1.70234328,0.849533981 Z" id="path-11"></path>
        <path d="M1.22189552,1.25543689 L25.6688955,1.25543689 L25.6688955,1.57157282 L26.010403,1.57157282 L25.9662537,1.70557282 L26.2727015,1.70557282 L26.2597164,1.81615534 C25.6688955,3.92112621 23.8263134,5.40423301 21.663,5.52262136 L21.6084627,5.5252233 C21.6019701,5.5252233 21.5941791,5.52652427 21.5889851,5.52652427 L21.5889851,11.210466 L24.9949701,11.210466 L24.9949701,7.32056311 C24.9949701,7.07337864 25.1962388,6.87302913 25.4416567,6.87302913 L25.4416567,7.45196117 C25.5130746,7.45196117 25.5715075,7.39341748 25.5715075,7.32056311 L25.5715075,7.47798058 L25.8870448,7.47798058 L25.8870448,16.8254563 L25.5715075,16.8254563 L25.5715075,17.1415922 L25.8870448,17.1415922 L25.8870448,26.4903689 L25.5715075,26.4903689 L25.5715075,26.6477864 C25.5715075,26.574932 25.5130746,26.5163883 25.4416567,26.5163883 L25.4416567,27.0953204 C25.1962388,27.0953204 24.9949701,26.8949709 24.9949701,26.6477864 L24.9949701,21.214932 L21.5889851,21.214932 L21.5889851,28.9739223 L21.2747463,28.9739223 L21.2747463,29.1781748 L21.0825672,29.1781748 L21.0825672,29.4943107 L5.80822388,29.4943107 L5.80822388,29.1781748 L5.61734328,29.1781748 L5.61734328,28.9739223 L5.30310448,28.9739223 L5.30310448,21.214932 L1.8971194,21.214932 L1.8971194,26.6477864 C1.8971194,26.8949709 1.69585075,27.0953204 1.44913433,27.0953204 L1.44913433,26.5163883 C1.37771642,26.5163883 1.31928358,26.574932 1.31928358,26.6477864 L1.31928358,26.4903689 L1.00504478,26.4903689 L1.00504478,17.1415922 L1.31928358,17.1415922 L1.31928358,16.8254563 L1.00504478,16.8254563 L1.00504478,7.47798058 L1.31928358,7.47798058 L1.31928358,7.32056311 C1.31928358,7.39341748 1.37771642,7.45196117 1.44913433,7.45196117 L1.44913433,6.87302913 C1.69585075,6.87302913 1.8971194,7.07337864 1.8971194,7.32056311 L1.8971194,11.210466 L5.30310448,11.210466 L5.30310448,5.52652427 C5.30310448,5.52652427 5.29141791,5.5252233 5.28492537,5.5252233 L5.24726866,5.52392233 C3.06837313,5.40683495 1.22189552,3.92372816 0.634970149,1.82656311 L0.61938806,1.70557282 L0.907656716,1.70557282 L0.923238806,1.7016699 L0.881686567,1.57157282 L1.22189552,1.57157282 L1.22189552,1.25543689 Z M1.70234328,2.15050485 C2.33861194,3.60368932 3.71892537,4.56250485 5.32128358,4.63405825 L21.576,4.63275728 C23.1757612,4.55990291 24.5534776,3.59978641 25.1897463,2.15050485 L1.70234328,2.15050485 Z M6.1951791,26.2314757 L20.6943134,26.2314757 L20.6943134,5.5252233 L6.1951791,5.5252233 L6.1951791,26.2314757 Z M21.5889851,20.321165 L24.9949701,20.321165 L24.9949701,12.105534 L21.5889851,12.105534 L21.5889851,20.321165 Z M1.8971194,20.321165 L5.30310448,20.321165 L5.30310448,12.105534 L1.8971194,12.105534 L1.8971194,20.321165 Z M6.1951791,28.5992427 L20.6943134,28.5992427 L20.6943134,27.1278447 L6.1951791,27.1278447 L6.1951791,28.5992427 Z" id="path-13"></path>
        <path d="M1.41277612,0.751961165 L4.5928209,0.751961165 C4.83953731,0.751961165 5.03950746,0.95231068 5.03950746,1.19819417 L5.03950746,7.33357282 C5.03950746,7.58075728 4.83953731,7.7811068 4.5928209,7.7811068 L1.41277612,7.7811068 C1.16476119,7.7811068 0.964791045,7.58075728 0.964791045,7.33357282 L0.964791045,1.19819417 C0.964791045,0.95231068 1.16476119,0.751961165 1.41277612,0.751961165 Z M1.85816418,6.88603883 L4.14613433,6.88603883 L4.14613433,1.64572816 L1.85816418,1.64572816 L1.85816418,6.88603883 Z" id="path-15"></path>
    </defs>
    <g id="Dashboard-Entreprise" stroke="none" stroke-width="1" fill="none" fill-rule="evenodd">
        <g id="Artboard" transform="translate(-453.000000, -683.000000)">
            <g id="Page-1" transform="translate(454.000000, 682.000000)">
                <g id="Group-3" transform="translate(75.313433, 168.813981)">
                    <mask id="mask-2" fill="white">
                        <use xlink:href="#path-1"></use>
                    </mask>
                    <g id="Clip-2"></g>
                    <polygon id="Fill-1" fill="#DADADA" mask="url(#mask-2)" points="-1.85426866 31.2493204 25.7143433 31.2493204 25.7143433 -2.14269903 -1.85426866 -2.14269903"></polygon>
                </g>
                <g id="Group-6" transform="translate(31.164179, 134.988738)">
                    <mask id="mask-4" fill="white">
                        <use xlink:href="#path-3"></use>
                    </mask>
                    <g id="Clip-5"></g>
                    <polygon id="Fill-4" fill="#DADADA" mask="url(#mask-4)" points="-1.61664179 15.4269126 117.438313 15.4269126 117.438313 -1.73939806 -1.61664179 -1.73939806"></polygon>
                </g>
                <g id="Group-9" transform="translate(77.910448, 86.852816)">
                    <mask id="mask-6" fill="white">
                        <use xlink:href="#path-5"></use>
                    </mask>
                    <g id="Clip-8"></g>
                    <polygon id="Fill-7" fill="#E8E4E5" mask="url(#mask-6)" points="-2.32173134 15.097767 23.7782687 15.097767 23.7782687 -2.13359223 -2.32173134 -2.13359223"></polygon>
                </g>
                <g id="Group-12" transform="translate(7.791045, 93.357670)">
                    <mask id="mask-8" fill="white">
                        <use xlink:href="#path-7"></use>
                    </mask>
                    <g id="Clip-11"></g>
                    <polygon id="Fill-10" fill="#DADADA" mask="url(#mask-8)" points="-1.69325373 31.0958058 167.342552 31.0958058 167.342552 -1.66133981 -1.69325373 -1.66133981"></polygon>
                </g>
                <polygon id="Fill-13" fill="#CBE4F3" points="70.3427463 136.145301 105.962104 136.145301 105.962104 121.121689 70.3427463 121.121689"></polygon>
                <polygon id="Fill-14" fill="#CBE4F3" points="75.6601343 161.788738 98.7320149 161.788738 98.7320149 146.765126 75.6601343 146.765126"></polygon>
                <g id="Group-17" transform="translate(77.910448, 171.415922)">
                    <mask id="mask-10" fill="white">
                        <use xlink:href="#path-9"></use>
                    </mask>
                    <g id="Clip-16"></g>
                    <polygon id="Fill-15" fill="#000000" mask="url(#mask-10)" points="-2.46586567 25.8047573 18.971194 25.8047573 18.971194 -1.85128155 -2.46586567 -1.85128155"></polygon>
                </g>
                <polygon id="Fill-18" fill="#000000" points="73.9383134 169.34868 98.3853134 169.34868 98.3853134 168.771049 73.9383134 168.771049"></polygon>
                <path d="M81.7864925,182.785107 L85.2314328,182.785107 L85.2314328,176.385631 L81.7864925,176.385631 L81.7864925,182.785107 Z M82.3656269,182.204874 L84.653597,182.204874 L84.653597,176.964563 L82.3656269,176.964563 L82.3656269,182.204874 Z" id="Fill-19" fill="#000000"></path>
                <polygon id="Fill-20" fill="#000000" points="98.0256269 184.338466 98.6034627 184.338466 98.6034627 174.989689 98.0256269 174.989689"></polygon>
                <path d="M93.7262687,188.413107 L98.2892239,188.413107 L98.2892239,179.039612 L93.7262687,179.039612 L93.7262687,188.413107 Z M94.305403,187.834175 L97.7113881,187.834175 L97.7113881,179.618544 L94.305403,179.618544 L94.305403,187.834175 Z" id="Fill-21" fill="#000000"></path>
                <g id="Group-24" transform="translate(72.716418, 168.813981)">
                    <mask id="mask-12" fill="white">
                        <use xlink:href="#path-11"></use>
                    </mask>
                    <g id="Clip-23"></g>
                    <polygon id="Fill-22" fill="#000000" mask="url(#mask-12)" points="-2.01008955 6.80667961 28.9008806 6.80667961 28.9008806 -2.62535922 -2.01008955 -2.62535922"></polygon>
                </g>
                <path d="M78.3337612,196.691184 L93.9898657,196.691184 L93.9898657,194.060621 L78.3337612,194.060621 L78.3337612,196.691184 Z M78.911597,196.112252 L93.4120299,196.112252 L93.4120299,194.640854 L78.911597,194.640854 L78.911597,196.112252 Z" id="Fill-25" fill="#000000"></path>
                <polygon id="Fill-26" fill="#000000" points="78.5246418 197.00732 93.8002836 197.00732 93.8002836 196.428388 78.5246418 196.428388"></polygon>
                <polygon id="Fill-27" fill="#000000" points="98.0256269 194.003379 98.6034627 194.003379 98.6034627 184.654602 98.0256269 184.654602"></polygon>
                <g id="Group-30" transform="translate(72.716418, 167.513010)">
                    <mask id="mask-14" fill="white">
                        <use xlink:href="#path-13"></use>
                    </mask>
                    <g id="Clip-29"></g>
                    <polygon id="Fill-28" fill="#000000" mask="url(#mask-14)" points="-2.27238806 32.3889709 29.1631791 32.3889709 29.1631791 -1.6392233 -2.27238806 -1.6392233"></polygon>
                </g>
                <g id="Group-33" transform="translate(80.507463, 175.318835)">
                    <mask id="mask-16" fill="white">
                        <use xlink:href="#path-15"></use>
                    </mask>
                    <g id="Clip-32"></g>
                    <polygon id="Fill-31" fill="#000000" mask="url(#mask-16)" points="-1.92568657 10.6783689 7.93128358 10.6783689 7.93128358 -2.14269903 -1.92568657 -2.14269903"></polygon>
                </g>
                <polygon id="Stroke-34" stroke="#000000" stroke-width="0.5785" points="86.7182239 135.667845 96.6479104 135.667845 96.6479104 121.080058 86.7182239 121.080058"></polygon>
                <polygon id="Stroke-35" stroke="#000000" stroke-width="0.5785" points="76.2327761 135.669146 86.1611642 135.669146 86.1611642 121.080058 76.2327761 121.080058"></polygon>
                <g id="Group-85" transform="translate(0.000000, 0.988738)" stroke="#000000">
                    <path d="M26.9123463,85.3684078 C26.9123463,84.2964078 26.0410478,83.4247573 24.9723761,83.4247573 C23.902406,83.4247573 23.0311075,84.2964078 23.0311075,85.3684078 C23.0311075,86.4404078 23.902406,87.3120583 24.9723761,87.3120583 C26.0410478,87.3120583 26.9123463,86.4404078 26.9123463,85.3684078 Z" id="Stroke-36" stroke-width="0.5785"></path>
                    <path d="M149.849449,85.3684078 C149.849449,84.2964078 148.979449,83.4247573 147.910778,83.4247573 C146.839509,83.4247573 145.969509,84.2964078 145.969509,85.3684078 C145.969509,86.4404078 146.839509,87.3120583 147.910778,87.3120583 C148.979449,87.3120583 149.849449,86.4404078 149.849449,85.3684078 Z" id="Stroke-38" stroke-width="0.5785"></path>
                    <path d="M87.1280328,168.480542 C87.1215403,168.455823 87.1137493,168.433707 87.1137493,168.407687 L87.1137493,168.405085 L87.1137493,160.128309 L85.4438687,160.128309 L85.4438687,168.405085 L85.4438687,168.407687" id="Stroke-40" stroke-width="0.5785"></path>
                    <path d="M89.3078373,17.5628466 C89.3078373,15.9782641 88.0223149,14.6890019 86.4407328,14.6890019 C84.8591507,14.6890019 83.5723299,15.9782641 83.5723299,17.5628466 C83.5723299,19.1474291 84.8591507,20.4353903 86.4407328,20.4353903 C88.0223149,20.4353903 89.3078373,19.1474291 89.3078373,17.5628466 Z" id="Stroke-42" stroke-width="0.5785"></path>
                    <path d="M34.6361284,85.3684078 C34.6361284,84.2964078 33.7661284,83.4247573 32.6961582,83.4247573 C31.6261881,83.4247573 30.7561881,84.2964078 30.7561881,85.3684078 C30.7561881,86.4404078 31.6261881,87.3120583 32.6961582,87.3120583 C33.7661284,87.3120583 34.6361284,86.4404078 34.6361284,85.3684078 Z" id="Stroke-44" stroke-width="0.5785"></path>
                    <polygon id="Stroke-46" stroke-width="0.5785" points="67.2198358 134.680408 75.6770149 134.680408 75.6770149 120.09132 67.2198358 120.09132"></polygon>
                    <polygon id="Stroke-48" stroke-width="0.5785" points="43.693997 108.577468 44.911997 111.965196 127.967131 111.965196 129.18643 108.577468 86.4408627 108.577468"></polygon>
                    <path d="M86.4407328,83.9288835 C84.4786881,88.0854854 80.9246731,91.187 76.6084343,92.569932 L96.2717328,92.569932 C91.955494,91.187 88.4014791,88.0854854 86.4407328,83.9288835 Z" id="Stroke-49" stroke-width="0.5785"></path>
                    <path d="M137.286649,142.281981 C137.286649,142.436796 137.160694,142.561689 137.00747,142.561689 L35.7459627,142.561689 C35.5914403,142.561689 35.4667836,142.436796 35.4667836,142.281981 C35.4667836,142.128466 35.5914403,142.003573 35.7459627,142.003573 L137.00747,142.003573 C137.160694,142.003573 137.286649,142.128466 137.286649,142.281981 Z M31.4414104,135.238524 L31.4401119,135.238524 L31.4388134,135.238524 L31.3803806,135.238524 C28.584694,135.238524 26.2941269,137.500913 26.2629627,140.309709 C26.2317985,143.138019 28.5028881,145.462854 31.3232463,145.495379 L31.4414104,145.495379 L73.4182612,145.495379 L99.3338731,145.495379 L141.115948,145.495379 C141.138022,145.495379 141.154903,145.49668 141.175679,145.49668 C143.971366,145.49668 146.263231,143.23299 146.294396,140.422893 C146.32556,137.594583 144.05447,135.269748 141.232813,135.238524 L141.119843,135.238524 L141.115948,135.238524 L31.4414104,135.238524 Z" id="Stroke-50" stroke-width="0.5785"></path>
                    <path d="M96.6651806,156.883687 C96.6651806,157.038503 96.5405239,157.163396 96.3873,157.163396 C96.2327776,157.163396 96.1081209,157.038503 96.1081209,156.883687 L96.1081209,146.054406 L73.6971806,146.054406 L73.6971806,159.570192 L99.0557328,159.570192 L99.0557328,146.054406 L96.6651806,146.054406 L96.6651806,156.883687 Z" id="Stroke-51" stroke-width="0.5785"></path>
                    <polygon id="Stroke-52" stroke-width="0.5785" points="97.2049701 134.679107 105.662149 134.679107 105.662149 120.09132 97.2049701 120.09132"></polygon>
                    <polygon id="Stroke-53" stroke-width="0.5785" points="45.113006 112.522272 47.6347075 119.534505 86.440603 119.534505 125.2452 119.534505 127.766901 112.522272"></polygon>
                    <path d="M40.0368806,102.643089 C40.0368806,102.796604 39.9122239,102.921497 39.7577015,102.921497 C39.6044776,102.921497 39.4798209,102.796604 39.4798209,102.643089 L39.4798209,99.4817301 C39.4798209,99.3269146 39.6044776,99.2033223 39.7577015,99.2033223 C39.9122239,99.2033223 40.0368806,99.3269146 40.0368806,99.4817301 L40.0368806,102.643089 Z M32.2562239,102.643089 C32.2562239,102.796604 32.1315672,102.921497 31.9783433,102.921497 C31.8238209,102.921497 31.6991642,102.796604 31.6991642,102.643089 L31.6991642,99.4817301 C31.6991642,99.3269146 31.8238209,99.2033223 31.9783433,99.2033223 C32.1315672,99.2033223 32.2562239,99.3269146 32.2562239,99.4817301 L32.2562239,102.643089 Z M24.4755672,102.643089 C24.4755672,102.796604 24.3509104,102.921497 24.1963881,102.921497 C24.0444627,102.921497 23.9185075,102.796604 23.9185075,102.643089 L23.9185075,99.4817301 C23.9185075,99.3269146 24.0444627,99.2033223 24.1963881,99.2033223 C24.3509104,99.2033223 24.4755672,99.3269146 24.4755672,99.4817301 L24.4755672,102.643089 Z M16.6949104,102.643089 C16.6949104,102.796604 16.5715522,102.921497 16.4170299,102.921497 C16.2625075,102.921497 16.1391493,102.796604 16.1391493,102.643089 L16.1391493,99.4817301 C16.1391493,99.3269146 16.2625075,99.2033223 16.4170299,99.2033223 C16.5715522,99.2033223 16.6949104,99.3269146 16.6949104,99.4817301 L16.6949104,102.643089 Z M47.2591791,99.4817301 C47.2591791,99.3269146 47.3838358,99.2033223 47.5383582,99.2033223 C47.6928806,99.2033223 47.8162388,99.3269146 47.8162388,99.4817301 L47.8162388,102.643089 C47.8162388,102.796604 47.6928806,102.921497 47.5383582,102.921497 C47.3838358,102.921497 47.2591791,102.796604 47.2591791,102.643089 L47.2591791,99.4817301 Z M55.0398358,99.4817301 C55.0398358,99.3269146 55.1644925,99.2033223 55.3203134,99.2033223 C55.4722388,99.2033223 55.5968955,99.3269146 55.5968955,99.4817301 L55.5968955,102.643089 C55.5968955,102.796604 55.4722388,102.921497 55.3203134,102.921497 C55.1644925,102.921497 55.0398358,102.796604 55.0398358,102.643089 L55.0398358,99.4817301 Z M62.8204925,99.4817301 C62.8204925,99.3269146 62.9464478,99.2033223 63.0996716,99.2033223 C63.2528955,99.2033223 63.3788507,99.3269146 63.3788507,99.4817301 L63.3788507,102.643089 C63.3788507,102.796604 63.2528955,102.921497 63.0996716,102.921497 C62.9464478,102.921497 62.8204925,102.796604 62.8204925,102.643089 L62.8204925,99.4817301 Z M70.6011493,99.4817301 C70.6011493,99.3269146 70.725806,99.2033223 70.8803284,99.2033223 C71.0335522,99.2033223 71.158209,99.3269146 71.158209,99.4817301 L71.158209,102.643089 C71.158209,102.796604 71.0335522,102.921497 70.8803284,102.921497 C70.725806,102.921497 70.6011493,102.796604 70.6011493,102.643089 L70.6011493,99.4817301 Z M78.3805075,99.4817301 C78.3805075,99.3269146 78.5064627,99.2033223 78.6596866,99.2033223 C78.8129104,99.2033223 78.9388657,99.3269146 78.9388657,99.4817301 L78.9388657,102.643089 C78.9388657,102.796604 78.8129104,102.921497 78.6596866,102.921497 C78.5064627,102.921497 78.3805075,102.796604 78.3805075,102.643089 L78.3805075,99.4817301 Z M86.1611642,99.4817301 C86.1611642,99.3269146 86.2858209,99.2033223 86.4403433,99.2033223 C86.5935672,99.2033223 86.7182239,99.3269146 86.7182239,99.4817301 L86.7182239,102.643089 C86.7182239,102.796604 86.5935672,102.921497 86.4403433,102.921497 C86.2858209,102.921497 86.1611642,102.796604 86.1611642,102.643089 L86.1611642,99.4817301 Z M93.9431194,99.4817301 C93.9431194,99.3269146 94.0664776,99.2033223 94.2222985,99.2033223 C94.3755224,99.2033223 94.4988806,99.3269146 94.4988806,99.4817301 L94.4988806,102.643089 C94.4988806,102.796604 94.3755224,102.921497 94.2222985,102.921497 C94.0664776,102.921497 93.9431194,102.796604 93.9431194,102.643089 L93.9431194,99.4817301 Z M101.722478,99.4817301 C101.722478,99.3269146 101.847134,99.2033223 102.001657,99.2033223 C102.154881,99.2033223 102.279537,99.3269146 102.279537,99.4817301 L102.279537,102.643089 C102.279537,102.796604 102.154881,102.921497 102.001657,102.921497 C101.847134,102.921497 101.722478,102.796604 101.722478,102.643089 L101.722478,99.4817301 Z M109.503134,99.4817301 C109.503134,99.3269146 109.627791,99.2033223 109.781015,99.2033223 C109.935537,99.2033223 110.060194,99.3269146 110.060194,99.4817301 L110.060194,102.643089 C110.060194,102.796604 109.935537,102.921497 109.781015,102.921497 C109.627791,102.921497 109.503134,102.796604 109.503134,102.643089 L109.503134,99.4817301 Z M117.282493,99.4817301 C117.282493,99.3269146 117.408448,99.2033223 117.56297,99.2033223 C117.716194,99.2033223 117.840851,99.3269146 117.840851,99.4817301 L117.840851,102.643089 C117.840851,102.796604 117.716194,102.921497 117.56297,102.921497 C117.408448,102.921497 117.282493,102.796604 117.282493,102.643089 L117.282493,99.4817301 Z M125.063149,99.4817301 C125.063149,99.3269146 125.187806,99.2033223 125.342328,99.2033223 C125.495552,99.2033223 125.620209,99.3269146 125.620209,99.4817301 L125.620209,102.643089 C125.620209,102.796604 125.495552,102.921497 125.342328,102.921497 C125.187806,102.921497 125.063149,102.796604 125.063149,102.643089 L125.063149,99.4817301 Z M132.845104,99.4817301 C132.845104,99.3269146 132.968463,99.2033223 133.122985,99.2033223 C133.277507,99.2033223 133.400866,99.3269146 133.400866,99.4817301 L133.400866,102.643089 C133.400866,102.796604 133.277507,102.921497 133.122985,102.921497 C132.968463,102.921497 132.845104,102.796604 132.845104,102.643089 L132.845104,99.4817301 Z M140.625761,99.4817301 C140.625761,99.3269146 140.749119,99.2033223 140.903642,99.2033223 C141.056866,99.2033223 141.181522,99.3269146 141.181522,99.4817301 L141.181522,102.643089 C141.181522,102.796604 141.056866,102.921497 140.903642,102.921497 C140.749119,102.921497 140.625761,102.796604 140.625761,102.643089 L140.625761,99.4817301 Z M148.405119,99.4817301 C148.405119,99.3269146 148.529776,99.2033223 148.684299,99.2033223 C148.837522,99.2033223 148.962179,99.3269146 148.962179,99.4817301 L148.962179,102.643089 C148.962179,102.796604 148.837522,102.921497 148.684299,102.921497 C148.529776,102.921497 148.405119,102.796604 148.405119,102.643089 L148.405119,99.4817301 Z M156.185776,99.4817301 C156.185776,99.3269146 156.310433,99.2033223 156.463657,99.2033223 C156.618179,99.2033223 156.742836,99.3269146 156.742836,99.4817301 L156.742836,102.643089 C156.742836,102.796604 156.618179,102.921497 156.463657,102.921497 C156.310433,102.921497 156.185776,102.796604 156.185776,102.643089 L156.185776,99.4817301 Z M86.4403433,108.020002 L129.583254,108.020002 L164.778,108.020002 C168.926731,108.021303 172.25091,104.73375 172.296358,100.656507 C172.318433,98.6673223 171.566597,96.7887204 170.178493,95.3667592 C168.78909,93.9447981 166.932224,93.1499049 164.946806,93.1277883 L8.10138806,93.1277883 C6.06013433,93.1277883 4.21885075,93.8797495 2.82035821,95.2496718 C1.39979104,96.6417107 0.606402985,98.502099 0.584328358,100.491283 C0.540179104,104.597148 3.83579104,107.974468 7.9338806,108.020002 L43.2987313,108.020002 L86.4403433,108.020002 Z" id="Stroke-54" stroke-width="0.5785"></path>
                    <path d="M8.0991806,108.019742 L7.93427015,108.019742 C3.8361806,107.974208 0.539270149,104.596887 0.58471791,100.491023 C0.60549403,98.5018388 1.4001806,96.6401495 2.82074776,95.2507126 C4.2192403,93.8794893 6.06052388,93.1275282 8.01477761,93.1275282 C8.04334478,93.1275282 8.07580746,93.1262272 8.10177761,93.1275282 L164.77839,93.1275282 L164.780987,93.1275282 L164.947196,93.1275282 C166.931315,93.1496447 168.789479,93.9458388 170.177584,95.366499 C171.566987,96.7884602 172.318822,98.6683631 172.295449,100.656247 C172.2513,104.73479 168.925822,108.021043 164.866688,108.021043 C164.838121,108.021043 164.809554,108.021043 164.782285,108.019742 L164.779688,108.019742 L164.77839,108.019742 L129.583643,108.019742 L86.4407328,108.019742 L43.2978224,108.019742 L8.10177761,108.019742 L8.0991806,108.019742 Z M86.4407328,83.9283631 C88.4014791,88.086266 91.955494,91.1877806 96.2717328,92.5694117 L76.6084343,92.5694117 C80.9246731,91.1877806 84.4786881,88.086266 86.4407328,83.9283631 Z M127.9683,111.964285 L44.9131657,111.964285 L43.6938672,108.577858 L86.4407328,108.577858 L129.1863,108.577858 L127.9683,111.964285 Z M125.24533,119.534635 L86.4407328,119.534635 L47.6348373,119.534635 L45.1144343,112.522402 L127.767031,112.522402 L125.24533,119.534635 Z M97.2053597,134.679237 L105.662539,134.679237 L105.662539,120.09145 L97.2053597,120.09145 L97.2053597,134.679237 Z M141.118285,135.238654 L141.232554,135.238654 C144.05421,135.269878 146.3253,137.596014 146.295434,140.423023 C146.262972,143.231819 143.973703,145.49681 141.175419,145.49681 C141.155942,145.49681 141.137763,145.495509 141.115688,145.495509 L99.3349119,145.495509 L73.4193,145.495509 L31.4424493,145.495509 L31.3255836,145.495509 C28.5026284,145.464285 26.2315388,143.13815 26.262703,140.309839 C26.2951657,137.501043 28.5844343,135.237353 31.3814194,135.237353 C31.3995985,135.237353 31.4190761,135.238654 31.4398522,135.238654 L31.4411507,135.237353 L31.4424493,135.238654 L141.115688,135.238654 L141.118285,135.238654 Z M99.0557328,159.570713 L73.6984791,159.570713 L73.6984791,146.053625 L96.1081209,146.053625 L96.1081209,156.884208 C96.1081209,157.037722 96.2327776,157.162616 96.3860015,157.162616 C96.5405239,157.162616 96.6651806,157.037722 96.6651806,156.884208 L96.6651806,146.053625 L99.0557328,146.053625 L99.0557328,159.570713 Z M86.7186134,134.680538 L96.6483,134.680538 L96.6483,120.09145 L86.7186134,120.09145 L86.7186134,134.680538 Z M76.2331657,134.679237 L86.1615537,134.679237 L86.1615537,120.09145 L76.2331657,120.09145 L76.2331657,134.679237 Z M67.2189269,134.680538 L75.676106,134.680538 L75.676106,120.09145 L67.2189269,120.09145 L67.2189269,134.680538 Z M23.0307179,85.3685379 C23.0307179,84.2965379 23.9020164,83.4248874 24.9719866,83.4248874 C26.0406582,83.4248874 26.9119567,84.2965379 26.9119567,85.3685379 C26.9119567,86.4405379 26.0406582,87.3134893 24.9719866,87.3134893 C23.9020164,87.3134893 23.0307179,86.4405379 23.0307179,85.3685379 Z M30.7555388,85.3685379 C30.7555388,84.2965379 31.6255388,83.4248874 32.695509,83.4248874 C33.7667776,83.4248874 34.6367776,84.2965379 34.6367776,85.3685379 C34.6367776,86.4405379 33.7667776,87.3134893 32.695509,87.3134893 C31.6255388,87.3134893 30.7555388,86.4405379 30.7555388,85.3685379 Z M83.5723299,17.5632369 C83.5723299,15.9773534 84.8591507,14.6893922 86.4407328,14.6893922 C88.0223149,14.6893922 89.3078373,15.9773534 89.3078373,17.5632369 C89.3078373,19.1465184 88.0223149,20.4357806 86.4407328,20.4357806 C84.8591507,20.4357806 83.5723299,19.1465184 83.5723299,17.5632369 Z M145.969509,85.3685379 C145.969509,84.2965379 146.839509,83.4248874 147.909479,83.4248874 C148.979449,83.4248874 149.849449,84.2965379 149.849449,85.3685379 C149.849449,86.4405379 148.979449,87.3134893 147.909479,87.3134893 C146.839509,87.3134893 145.969509,86.4405379 145.969509,85.3685379 Z M87.6704194,168.215664 L87.6704194,160.128829 L99.3349119,160.128829 C99.4881358,160.128829 99.6127925,160.003936 99.6127925,159.850421 L99.6127925,146.053625 L141.113091,146.053625 L141.175419,146.053625 C144.276255,146.053625 146.816136,143.544052 146.849897,140.429528 C146.886255,137.294188 144.367151,134.715664 141.239046,134.679237 L141.115688,134.679237 L141.113091,134.679237 L106.2183,134.679237 L106.2183,120.09145 L125.440106,120.09145 C125.55827,120.09145 125.663449,120.018596 125.702404,119.908014 L129.778419,108.577858 L164.775793,108.577858 C164.805658,108.579159 164.835524,108.579159 164.866688,108.579159 C169.229673,108.579159 172.804464,105.045722 172.853807,100.662751 C172.875882,98.5239553 172.06821,96.5048485 170.576225,94.9775087 C169.085539,93.448868 167.085837,92.5941301 164.95239,92.5694117 L164.77839,92.5694117 L164.775793,92.5694117 L148.188658,92.5694117 L148.188658,87.8416835 C149.433927,87.7024796 150.407807,86.6525961 150.407807,85.3685379 C150.407807,83.9882078 149.285897,82.8667709 147.909479,82.8667709 C146.533061,82.8667709 145.411151,83.9882078 145.411151,85.3685379 C145.411151,86.6525961 146.38633,87.7024796 147.6303,87.8416835 L147.6303,92.5694117 L98.5856731,92.5694117 C93.2864642,91.6483243 88.8546582,88.1513146 86.7186134,83.2063243 L86.7186134,77.1138777 L100.0413,77.1138777 C100.194524,77.1138777 100.319181,76.9889845 100.319181,76.8341689 C100.319181,76.6806544 100.194524,76.5557612 100.0413,76.5557612 L86.7186134,76.5557612 L86.7186134,67.5348291 L99.9945537,67.5348291 C100.149076,67.5348291 100.272434,67.4099359 100.272434,67.2551204 C100.272434,67.1016058 100.149076,66.9767126 99.9945537,66.9767126 L86.7186134,66.9767126 L86.7186134,57.9557806 L99.9945537,57.9557806 C100.149076,57.9557806 100.272434,57.8295864 100.272434,57.6760718 C100.272434,57.5225573 100.149076,57.3963631 99.9945537,57.3963631 L86.7186134,57.3963631 L86.7186134,48.3741301 L97.8247478,48.3741301 C97.9779716,48.3741301 98.1026284,48.2505379 98.1026284,48.0957223 C98.1026284,47.9422078 97.9779716,47.8173146 97.8247478,47.8173146 L86.7186134,47.8173146 L86.7186134,20.9795864 C88.4767925,20.8364796 89.864897,19.3598777 89.864897,17.5632369 C89.864897,15.7639942 88.4767925,14.2873922 86.7186134,14.1455864 L86.7186134,0.884790291 C86.7186134,0.729974757 86.5939567,0.606382524 86.4407328,0.606382524 C86.2862104,0.606382524 86.1615537,0.729974757 86.1615537,0.884790291 L86.1615537,14.1455864 C84.4046731,14.2873922 83.0152701,15.7639942 83.0152701,17.5632369 C83.0152701,19.3598777 84.4046731,20.8364796 86.1615537,20.9795864 L86.1615537,47.8173146 L75.0567179,47.8173146 C74.903494,47.8173146 74.7788373,47.9422078 74.7788373,48.0957223 C74.7788373,48.2505379 74.903494,48.3741301 75.0567179,48.3741301 L86.1615537,48.3741301 L86.1615537,57.3963631 L72.7947179,57.3963631 C72.641494,57.3963631 72.5168373,57.5225573 72.5168373,57.6760718 C72.5168373,57.8295864 72.641494,57.9557806 72.7947179,57.9557806 L86.1615537,57.9557806 L86.1615537,66.9767126 L72.7947179,66.9767126 C72.641494,66.9767126 72.5168373,67.1016058 72.5168373,67.2551204 C72.5168373,67.4099359 72.641494,67.5348291 72.7947179,67.5348291 L86.1615537,67.5348291 L86.1615537,76.5557612 L72.8401657,76.5557612 C72.6869418,76.5557612 72.5622851,76.6806544 72.5622851,76.8341689 C72.5622851,76.9889845 72.6869418,77.1138777 72.8401657,77.1138777 L86.1615537,77.1138777 L86.1615537,83.2063243 C84.0268075,88.1513146 79.5963,91.6483243 74.2957925,92.5694117 L32.9733896,92.5694117 L32.9733896,87.8416835 C34.2186582,87.7024796 35.1925388,86.6525961 35.1925388,85.3685379 C35.1925388,83.9882078 34.0732254,82.8667709 32.695509,82.8667709 C31.319091,82.8667709 30.1997776,83.9882078 30.1997776,85.3685379 C30.1997776,86.6525961 31.1723597,87.7024796 32.4176284,87.8416835 L32.4176284,92.5694117 L25.2498672,92.5694117 L25.2498672,87.8416835 C26.4951358,87.7024796 27.4690164,86.6525961 27.4690164,85.3685379 C27.4690164,83.9882078 26.3484045,82.8667709 24.9719866,82.8667709 C23.5955687,82.8667709 22.4736582,83.9882078 22.4736582,85.3685379 C22.4736582,86.6525961 23.4475388,87.7024796 24.6928075,87.8416835 L24.6928075,92.5694117 L8.10177761,92.5694117 C3.68944925,92.5277806 0.0757029851,96.0716252 0.027658209,100.484518 C-0.0216850746,104.898713 3.5232403,108.529722 7.92777761,108.577858 L8.10177761,108.577858 L8.10437463,108.577858 L43.1030463,108.577858 L47.1790612,119.908014 C47.2180164,120.018596 47.3231955,120.09145 47.4400612,120.09145 L66.6618672,120.09145 L66.6618672,134.679237 L31.4450463,134.679237 L31.3814194,134.679237 C28.2805836,134.679237 25.740703,137.18881 25.7069418,140.303334 C25.6705836,143.439975 28.1896881,146.018499 31.3216881,146.053625 L31.4424493,146.053625 L73.1414194,146.053625 L73.1414194,159.850421 C73.1414194,160.003936 73.2660761,160.128829 73.4193,160.128829 L84.8877179,160.128829 L84.8877179,168.215664 L87.6704194,168.215664 Z" id="Stroke-55" stroke-width="0.5785"></path>
                    <path d="M156.463787,102.922538 C156.618309,102.922538 156.742966,102.796344 156.742966,102.642829 L156.742966,99.4814699 C156.742966,99.3266544 156.618309,99.2030621 156.463787,99.2030621 C156.310563,99.2030621 156.185906,99.3266544 156.185906,99.4814699 L156.185906,102.642829 C156.185906,102.796344 156.310563,102.922538 156.463787,102.922538 Z" id="Stroke-56" stroke-width="0.5785"></path>
                    <path d="M148.684169,102.922538 C148.837393,102.922538 148.962049,102.796344 148.962049,102.642829 L148.962049,99.4814699 C148.962049,99.3266544 148.837393,99.2030621 148.684169,99.2030621 C148.529646,99.2030621 148.40499,99.3266544 148.40499,99.4814699 L148.40499,102.642829 C148.40499,102.796344 148.529646,102.922538 148.684169,102.922538 Z" id="Stroke-57" stroke-width="0.5785"></path>
                    <path d="M140.903252,102.922538 C141.056476,102.922538 141.181133,102.796344 141.181133,102.642829 L141.181133,99.4814699 C141.181133,99.3266544 141.056476,99.2030621 140.903252,99.2030621 C140.74873,99.2030621 140.625372,99.3266544 140.625372,99.4814699 L140.625372,102.642829 C140.625372,102.796344 140.74873,102.922538 140.903252,102.922538 Z" id="Stroke-58" stroke-width="0.5785"></path>
                    <path d="M133.122336,102.922538 C133.276858,102.922538 133.401515,102.796344 133.401515,102.642829 L133.401515,99.4814699 C133.401515,99.3266544 133.276858,99.2030621 133.122336,99.2030621 C132.969112,99.2030621 132.844455,99.3266544 132.844455,99.4814699 L132.844455,102.642829 C132.844455,102.796344 132.969112,102.922538 133.122336,102.922538 Z" id="Stroke-59" stroke-width="0.5785"></path>
                    <path d="M125.342718,102.922538 C125.495942,102.922538 125.620599,102.796344 125.620599,102.642829 L125.620599,99.4814699 C125.620599,99.3266544 125.495942,99.2030621 125.342718,99.2030621 C125.188196,99.2030621 125.063539,99.3266544 125.063539,99.4814699 L125.063539,102.642829 C125.063539,102.796344 125.188196,102.922538 125.342718,102.922538 Z" id="Stroke-60" stroke-width="0.5785"></path>
                    <path d="M117.561801,102.922538 C117.716324,102.922538 117.840981,102.796344 117.840981,102.642829 L117.840981,99.4814699 C117.840981,99.3266544 117.716324,99.2030621 117.561801,99.2030621 C117.408578,99.2030621 117.283921,99.3266544 117.283921,99.4814699 L117.283921,102.642829 C117.283921,102.796344 117.408578,102.922538 117.561801,102.922538 Z" id="Stroke-61" stroke-width="0.5785"></path>
                    <path d="M109.780885,102.922538 C109.935407,102.922538 110.060064,102.796344 110.060064,102.642829 L110.060064,99.4814699 C110.060064,99.3266544 109.935407,99.2030621 109.780885,99.2030621 C109.627661,99.2030621 109.503004,99.3266544 109.503004,99.4814699 L109.503004,102.642829 C109.503004,102.796344 109.627661,102.922538 109.780885,102.922538 Z" id="Stroke-62" stroke-width="0.5785"></path>
                    <path d="M102.001267,102.922538 C102.154491,102.922538 102.279148,102.796344 102.279148,102.642829 L102.279148,99.4814699 C102.279148,99.3266544 102.154491,99.2030621 102.001267,99.2030621 C101.846745,99.2030621 101.723387,99.3266544 101.723387,99.4814699 L101.723387,102.642829 C101.723387,102.796344 101.846745,102.922538 102.001267,102.922538 Z" id="Stroke-63" stroke-width="0.5785"></path>
                    <path d="M94.2203507,102.922538 C94.3748731,102.922538 94.4995299,102.796344 94.4995299,102.642829 L94.4995299,99.4814699 C94.4995299,99.3266544 94.3748731,99.2030621 94.2203507,99.2030621 C94.0671269,99.2030621 93.9424701,99.3266544 93.9424701,99.4814699 L93.9424701,102.642829 C93.9424701,102.796344 94.0671269,102.922538 94.2203507,102.922538 Z" id="Stroke-64" stroke-width="0.5785"></path>
                    <path d="M86.4407328,102.922538 C86.5939567,102.922538 86.7186134,102.796344 86.7186134,102.642829 L86.7186134,99.4814699 C86.7186134,99.3266544 86.5939567,99.2030621 86.4407328,99.2030621 C86.2862104,99.2030621 86.1615537,99.3266544 86.1615537,99.4814699 L86.1615537,102.642829 C86.1615537,102.796344 86.2862104,102.922538 86.4407328,102.922538 Z" id="Stroke-65" stroke-width="0.5785"></path>
                    <path d="M16.4176791,99.2025417 C16.2631567,99.2025417 16.1385,99.3287359 16.1385,99.4822505 L16.1385,102.64361 C16.1385,102.797124 16.2631567,102.922017 16.4176791,102.922017 C16.570903,102.922017 16.6955597,102.797124 16.6955597,102.64361 L16.6955597,99.4822505 C16.6955597,99.3287359 16.570903,99.2025417 16.4176791,99.2025417 Z" id="Stroke-66" stroke-width="0.5785"></path>
                    <path d="M24.197297,99.2025417 C24.0427746,99.2025417 23.9181179,99.3287359 23.9181179,99.4822505 L23.9181179,102.64361 C23.9181179,102.797124 24.0427746,102.922017 24.197297,102.922017 C24.3505209,102.922017 24.4751776,102.797124 24.4751776,102.64361 L24.4751776,99.4822505 C24.4751776,99.3287359 24.3505209,99.2025417 24.197297,99.2025417 Z" id="Stroke-67" stroke-width="0.5785"></path>
                    <path d="M31.9769149,99.2025417 C31.823691,99.2025417 31.6990343,99.3287359 31.6990343,99.4822505 L31.6990343,102.64361 C31.6990343,102.797124 31.823691,102.922017 31.9769149,102.922017 C32.1314373,102.922017 32.256094,102.797124 32.256094,102.64361 L32.256094,99.4822505 C32.256094,99.3287359 32.1314373,99.2025417 31.9769149,99.2025417 Z" id="Stroke-68" stroke-width="0.5785"></path>
                    <path d="M39.7578313,99.2025417 C39.603309,99.2025417 39.4799507,99.3287359 39.4799507,99.4822505 L39.4799507,102.64361 C39.4799507,102.797124 39.603309,102.922017 39.7578313,102.922017 C39.9123537,102.922017 40.0357119,102.797124 40.0357119,102.64361 L40.0357119,99.4822505 C40.0357119,99.3287359 39.9123537,99.2025417 39.7578313,99.2025417 Z" id="Stroke-69" stroke-width="0.5785"></path>
                    <path d="M47.5387478,102.922538 C47.6932701,102.922538 47.8166284,102.796344 47.8166284,102.642829 L47.8166284,99.4814699 C47.8166284,99.3266544 47.6932701,99.2030621 47.5387478,99.2030621 C47.3842254,99.2030621 47.2595687,99.3266544 47.2595687,99.4814699 L47.2595687,102.642829 C47.2595687,102.796344 47.3842254,102.922538 47.5387478,102.922538 Z" id="Stroke-70" stroke-width="0.5785"></path>
                    <path d="M55.3183657,102.922538 C55.4728881,102.922538 55.5975448,102.796344 55.5975448,102.642829 L55.5975448,99.4814699 C55.5975448,99.3266544 55.4728881,99.2030621 55.3183657,99.2030621 C55.1651418,99.2030621 55.0404851,99.3266544 55.0404851,99.4814699 L55.0404851,102.642829 C55.0404851,102.796344 55.1651418,102.922538 55.3183657,102.922538 Z" id="Stroke-71" stroke-width="0.5785"></path>
                    <path d="M63.0992821,102.922538 C63.252506,102.922538 63.3771627,102.796344 63.3771627,102.642829 L63.3771627,99.4814699 C63.3771627,99.3266544 63.252506,99.2030621 63.0992821,99.2030621 C62.9447597,99.2030621 62.820103,99.3266544 62.820103,99.4814699 L62.820103,102.642829 C62.820103,102.796344 62.9447597,102.922538 63.0992821,102.922538 Z" id="Stroke-72" stroke-width="0.5785"></path>
                    <path d="M70.8789,102.922538 C71.0334224,102.922538 71.1580791,102.796344 71.1580791,102.642829 L71.1580791,99.4814699 C71.1580791,99.3266544 71.0334224,99.2030621 70.8789,99.2030621 C70.7256761,99.2030621 70.6010194,99.3266544 70.6010194,99.4814699 L70.6010194,102.642829 C70.6010194,102.796344 70.7256761,102.922538 70.8789,102.922538 Z" id="Stroke-73" stroke-width="0.5785"></path>
                    <path d="M78.6598164,102.922538 C78.8143388,102.922538 78.9389955,102.796344 78.9389955,102.642829 L78.9389955,99.4814699 C78.9389955,99.3266544 78.8143388,99.2030621 78.6598164,99.2030621 C78.5065925,99.2030621 78.3819358,99.3266544 78.3819358,99.4814699 L78.3819358,102.642829 C78.3819358,102.796344 78.5065925,102.922538 78.6598164,102.922538 Z" id="Stroke-74" stroke-width="0.5785"></path>
                    <path d="M35.4666537,142.281981 C35.4666537,142.436796 35.592609,142.561689 35.7445343,142.561689 L137.00734,142.561689 C137.161863,142.561689 137.286519,142.436796 137.286519,142.281981 C137.286519,142.128466 137.161863,142.003573 137.00734,142.003573 L35.7445343,142.003573 C35.592609,142.003573 35.4666537,142.128466 35.4666537,142.281981 Z" id="Stroke-75" stroke-width="0.5785"></path>
                    <polyline id="Stroke-76" stroke-width="1.1583" points="45.1154731 193.045344 74.1669806 193.045344 74.1669806 173.686897 45.1154731 173.686897"></polyline>
                    <polyline id="Stroke-77" stroke-width="1.1583" stroke-dasharray="1.736799955368042,2.893800091743469" points="45.1154731 173.687027 10.4076672 173.687027 10.4076672 193.045474 45.1154731 193.045474"></polyline>
                    <polyline id="Stroke-78" stroke-width="1.1583" points="127.177639 193.045344 98.1261313 193.045344 98.1261313 173.686897 127.177639 173.686897"></polyline>
                    <polyline id="Stroke-79" stroke-width="1.1583" stroke-dasharray="1.736799955368042,2.893800091743469" points="127.177639 173.687027 161.885445 173.687027 161.885445 193.045474 127.177639 193.045474"></polyline>
                    <path d="M64.8581104,215.586095 C64.8581104,206.462386 70.5442746,198.670872 78.5586627,195.570658" id="Stroke-80" stroke-width="1.1583"></path>
                    <path d="M93.7892463,195.503658 C101.897127,198.557037 107.667694,206.395386 107.667694,215.586746" id="Stroke-81" stroke-width="1.1583"></path>
                    <path d="M107.668343,215.586095 C107.668343,227.430134 98.0840597,237.031299 86.2637463,237.031299 C74.4408358,237.031299 64.8578507,227.430134 64.8578507,215.586095" id="Stroke-82" stroke-width="1.1583" stroke-dasharray="1.736799955368042,2.893800091743469"></path>
                    <path d="M82.2535657,237.030518 L82.2535657,266.674441" id="Stroke-83" stroke-width="1.1583" stroke-dasharray="1.736799955368042,2.893800091743469"></path>
                    <path d="M91.0209582,237.030518 L91.0209582,266.674441" id="Stroke-84" stroke-width="1.1583" stroke-dasharray="1.736799955368042,2.893800091743469"></path>
                </g>
            </g>
        </g>
    </g>
</svg>