<?xml version="1.0" standalone="no"?>
<!DOCTYPE svg PUBLIC "-//W3C//DTD SVG 1.1//EN" "http://www.w3.org/Graphics/SVG/1.1/DTD/svg11.dtd" >
<svg>
<metadata>
Created by FontForge 20090622 at Tue Aug  8 15:33:08 2017
 By deploy user
Copyright (c) 2013 by Hannes von Doehren. All rights reserved.
</metadata>
<defs>
<font id="NiveauGroteskBold" horiz-adv-x="520" >
  <font-face 
    font-family="Niveau Grotesk Bold"
    font-weight="700"
    font-stretch="normal"
    units-per-em="1000"
    panose-1="2 0 0 0 0 0 0 0 0 0"
    ascent="750"
    descent="-250"
    x-height="498"
    cap-height="680"
    bbox="-102 -215 1217 916"
    underline-thickness="50"
    underline-position="-50"
    unicode-range="U+0020-U+FB02"
  />
<missing-glyph horiz-adv-x="833" 
d="M69 49l301 301l-301 301l20 20l301 -301l301 301l20 -20l-301 -301l301 -301l-20 -20l-301 301l-301 -301z" />
    <glyph glyph-name="fi" unicode="fi" horiz-adv-x="589" 
d="M326 478v-116h-97v-362h-136v362h-70v116h70v45q0 86 49.5 131.5t134.5 45.5q31 0 51 -6v-136q-18 9 -46 9q-25 0 -39 -14.5t-14 -38.5v-36h97zM531 498v-498h-136v498h136zM383 643q0 34 23 57.5t57 23.5q35 0 57.5 -23.5t22.5 -57.5t-22.5 -57t-57.5 -23q-34 0 -57 23
t-23 57z" />
    <glyph glyph-name="fl" unicode="fl" horiz-adv-x="587" 
d="M326 478v-116h-97v-362h-136v362h-70v116h70v45q0 86 49.5 131.5t134.5 45.5q31 0 51 -6v-136q-18 9 -46 9q-25 0 -39 -14.5t-14 -38.5v-36h97zM530 690v-690h-137v690h137z" />
    <glyph glyph-name=".notdef" horiz-adv-x="833" 
d="M69 49l301 301l-301 301l20 20l301 -301l301 301l20 -20l-301 -301l301 -301l-20 -20l-301 301l-301 -301z" />
    <glyph glyph-name=".null" horiz-adv-x="0" 
 />
    <glyph glyph-name="nonmarkingreturn" horiz-adv-x="333" 
 />
    <glyph glyph-name="space" unicode=" " horiz-adv-x="215" 
 />
    <glyph glyph-name="exclam" unicode="!" horiz-adv-x="273" 
d="M183 236h-94l-32 444h158zM43 82q0 41 26 67.5t66 26.5q41 0 67.5 -27t26.5 -67t-26.5 -66t-67.5 -26q-40 0 -66 26t-26 66z" />
    <glyph glyph-name="quotedbl" unicode="&#x22;" horiz-adv-x="445" 
d="M182 444h-126l-8 236h142zM389 444h-126l-8 236h142z" />
    <glyph glyph-name="numbersign" unicode="#" horiz-adv-x="663" 
d="M305 0l54 181h-145l-54 -181h-93l54 181h-86v77h109l46 156h-125v77h148l56 189h94l-57 -189h145l56 189h94l-57 -189h84v-77h-107l-46 -156h123v-77h-146l-54 -181h-93zM283 414l-46 -156h145l46 156h-145z" />
    <glyph glyph-name="dollar" unicode="$" horiz-adv-x="489" 
d="M422 660v-151q-69 49 -147 49h-2v-142l59 -35q123 -74 123 -188q0 -77 -46.5 -132.5t-135.5 -67.5v-110h-50v106q-91 1 -169 35v157q31 -24 76.5 -41.5t89.5 -17.5h3v145l-66 39q-65 38 -91.5 82t-26.5 105q0 71 44.5 126t139.5 68v91h50v-87h3q77 0 146 -31zM191 497
q0 -27 32 -50v100q-32 -15 -32 -50zM304 185q0 26 -31 51v-103q31 17 31 52z" />
    <glyph glyph-name="percent" unicode="%" horiz-adv-x="887" 
d="M244 0l302 680h102l-303 -680h-101zM194 595q-29 0 -45.5 -16.5t-16.5 -43.5v-116q0 -27 16.5 -43.5t45.5 -16.5t45.5 16.5t16.5 43.5v116q0 27 -16.5 43.5t-45.5 16.5zM194 690q69 0 114.5 -43t45.5 -109v-121q0 -67 -45.5 -110t-114.5 -43t-114.5 43t-45.5 110v121
q0 66 45.5 109t114.5 43zM692 320q-28 0 -44.5 -16t-16.5 -43v-116q0 -27 16.5 -43.5t44.5 -16.5q29 0 45.5 16.5t16.5 43.5v116q0 27 -16.5 43t-45.5 16zM692 416q69 0 114.5 -43t45.5 -109v-122q0 -66 -45.5 -109.5t-114.5 -43.5q-68 0 -113.5 43.5t-45.5 109.5v122
q0 66 45.5 109t113.5 43z" />
    <glyph glyph-name="ampersand" unicode="&#x26;" horiz-adv-x="693" 
d="M29 200q0 84 43 132.5t115 80.5l-4 6q-45 56 -45 109q0 70 50.5 116t129.5 46q80 0 127.5 -46t47.5 -119q0 -60 -30.5 -97t-84.5 -64l85 -100l175 189v-187l-92 -101l139 -165h-171l-57 71q-91 -82 -198 -82q-110 0 -170 62.5t-60 148.5zM259 119q55 0 117 55l-112 142
q-47 -21 -71.5 -45t-24.5 -61q0 -36 24.5 -63.5t66.5 -27.5zM296 462l4 -5q62 28 62 63q0 21 -11.5 34.5t-32.5 13.5q-22 0 -35.5 -13.5t-13.5 -34.5t27 -58z" />
    <glyph glyph-name="quotesingle" unicode="'" horiz-adv-x="239" 
d="M182 444h-126l-8 232h142z" />
    <glyph glyph-name="parenleft" unicode="(" horiz-adv-x="270" 
d="M137 242q0 -231 118 -400l-75 -48q-67 84 -108.5 203t-41.5 245q0 127 41.5 246t108.5 203l75 -48q-118 -169 -118 -401z" />
    <glyph glyph-name="parenright" unicode=")" horiz-adv-x="270" 
d="M133 243q0 231 -118 400l75 48q67 -84 108.5 -203t41.5 -245q0 -127 -41.5 -246t-108.5 -203l-75 48q118 169 118 401z" />
    <glyph glyph-name="asterisk" unicode="*" horiz-adv-x="356" 
d="M61 635l94 -54v109h43v-109l94 55l22 -38l-95 -55l95 -53l-22 -38l-94 54v-107h-43v106l-93 -53l-22 37l93 54l-93 54z" />
    <glyph glyph-name="plus" unicode="+" 
d="M33 232v106h169v175h113v-175h171v-106h-171v-175h-113v175h-169z" />
    <glyph glyph-name="comma" unicode="," horiz-adv-x="267" 
d="M165 -115h-126l29 278h151z" />
    <glyph glyph-name="hyphen" unicode="-" horiz-adv-x="373" 
d="M321 221h-269v128h269v-128z" />
    <glyph glyph-name="period" unicode="." horiz-adv-x="263" 
d="M39 82q0 41 26 67.5t66 26.5q41 0 67.5 -27t26.5 -67t-26.5 -66t-67.5 -26q-40 0 -66 26t-26 66z" />
    <glyph glyph-name="slash" unicode="/" horiz-adv-x="447" 
d="M22 0l302 680h102l-303 -680h-101z" />
    <glyph glyph-name="zero" unicode="0" horiz-adv-x="590" 
d="M295 552q-49 0 -77 -30.5t-28 -80.5v-202q0 -49 28 -80t77 -31q48 0 76 31t28 80v202q0 50 -28 80.5t-76 30.5zM295 691q107 0 176.5 -69.5t69.5 -176.5v-209q0 -107 -69.5 -177t-176.5 -70t-177 70t-70 177v209q0 106 70 176t177 70z" />
    <glyph glyph-name="one" unicode="1" horiz-adv-x="478" 
d="M33 0v137h155v406h-129v137h271v-543h133v-137h-430z" />
    <glyph glyph-name="two" unicode="2" horiz-adv-x="469" 
d="M39 0v121l188 235q51 64 51 110q0 39 -21.5 61t-59.5 22q-81 0 -144 -63v160q64 45 155 45q107 0 161.5 -57.5t54.5 -140.5q0 -61 -18.5 -104.5t-53.5 -88.5l-128 -163h197v-137h-382z" />
    <glyph glyph-name="three" unicode="3" horiz-adv-x="466" 
d="M97 282v137h95q31 0 51 17.5t20 46.5q0 30 -21 48t-57 18q-76 0 -130 -40v153q63 29 136 29q98 0 158 -54t60 -135q0 -107 -81 -151q46 -22 73 -64t27 -99q0 -85 -65.5 -142t-165.5 -57q-76 0 -150 31v160q57 -49 142 -49q40 0 66 21.5t26 55.5t-24.5 54t-63.5 20h-96z
" />
    <glyph glyph-name="four" unicode="4" horiz-adv-x="564" 
d="M531 131h-82v-131h-142v131h-289v121l289 428h142v-412h82v-137zM167 268h140v212z" />
    <glyph glyph-name="five" unicode="5" horiz-adv-x="493" 
d="M439 543h-202l-13 -100q105 -3 166 -61.5t61 -156.5q0 -114 -67 -175t-175 -61q-92 0 -165 40v171q73 -69 157 -69q45 0 74.5 26.5t29.5 67.5q0 86 -137 86h-91l32 369h330v-137z" />
    <glyph glyph-name="six" unicode="6" horiz-adv-x="550" 
d="M433 680l-139 -213q95 -6 160 -69t65 -164q0 -104 -70 -174.5t-173 -70.5q-104 0 -174.5 70.5t-70.5 174.5q0 75 44 146l187 300h171zM375 234q0 42 -28.5 71.5t-70.5 29.5q-43 0 -72 -29.5t-29 -71.5q0 -43 29 -73t72 -30q42 0 70.5 30t28.5 73z" />
    <glyph glyph-name="seven" unicode="7" horiz-adv-x="438" 
d="M420 559l-214 -559h-162l219 543h-234v137h391v-121z" />
    <glyph glyph-name="eight" unicode="8" horiz-adv-x="523" 
d="M61 500q0 83 57.5 137t142.5 54q86 0 144 -54t58 -137q0 -87 -69 -136q92 -49 92 -161q0 -93 -64.5 -153.5t-160.5 -60.5t-160 60.5t-64 153.5q0 112 92 162q-68 45 -68 135zM171 204q0 -37 26 -63t64 -26q39 0 65 26t26 63q0 39 -26 65.5t-65 26.5q-38 0 -64 -27
t-26 -65zM194 499q0 -29 19 -48t49 -19t48.5 19t18.5 48t-18.5 47.5t-48.5 18.5t-49 -18.5t-19 -47.5z" />
    <glyph glyph-name="nine" unicode="9" horiz-adv-x="549" 
d="M117 0l136 204q-93 8 -158 74.5t-65 167.5q0 104 70 174.5t174 70.5t174 -70.5t70 -174.5q0 -75 -44 -146l-187 -300h-170zM174 446q0 -42 29 -71.5t71 -29.5t71 29.5t29 71.5q0 43 -29 73t-71 30t-71 -30t-29 -73z" />
    <glyph glyph-name="colon" unicode=":" horiz-adv-x="265" 
d="M49 74q0 36 23.5 60t59.5 24q37 0 61 -24t24 -60q0 -37 -24 -60.5t-61 -23.5q-36 0 -59.5 23.5t-23.5 60.5zM49 399q0 37 23.5 61t59.5 24q37 0 61 -24t24 -61q0 -36 -24 -59.5t-61 -23.5q-36 0 -59.5 23.5t-23.5 59.5z" />
    <glyph glyph-name="semicolon" unicode=";" horiz-adv-x="270" 
d="M154 -112h-114l27 254h137zM58 399q0 37 23.5 61t60.5 24t61 -24t24 -61q0 -36 -24 -59.5t-61 -23.5t-60.5 23.5t-23.5 59.5z" />
    <glyph glyph-name="less" unicode="&#x3c;" 
d="M22 232v105l453 174v-109l-318 -118l318 -116v-109z" />
    <glyph glyph-name="equal" unicode="=" 
d="M33 452h453v-106h-453v106zM33 224h453v-105h-453v105z" />
    <glyph glyph-name="greater" unicode="&#x3e;" 
d="M497 337v-105l-453 -173v109l318 116l-318 118v109z" />
    <glyph glyph-name="question" unicode="?" horiz-adv-x="432" 
d="M253 236h-138q0 52 10.5 79t43.5 55l49 40q34 29 34 71q0 30 -21 48.5t-65 18.5q-30 0 -67.5 -14t-61.5 -35v163q60 28 142 28q111 0 165.5 -58t54.5 -138q0 -83 -64 -141l-51 -48q-18 -16 -24.5 -30t-6.5 -39zM91 82q0 41 26 67.5t66 26.5q41 0 67.5 -27t26.5 -67
t-26.5 -66t-67.5 -26q-40 0 -66 26t-26 66z" />
    <glyph glyph-name="at" unicode="@" horiz-adv-x="803" 
d="M406 -95q-158 0 -261.5 103.5t-103.5 261.5t103.5 261.5t261.5 103.5t261.5 -97t103.5 -243q0 -93 -45.5 -147.5t-107.5 -54.5q-73 0 -100 59q-45 -63 -130 -63q-76 0 -124.5 52t-48.5 130q0 79 48.5 130.5t124.5 51.5q70 0 115 -45v35h70v-215q0 -66 50 -66
q31 0 52.5 34.5t21.5 98.5q0 114 -83 192.5t-208 78.5t-207.5 -85t-82.5 -211t82.5 -211t207.5 -85q114 0 194 70l42 -53q-99 -86 -236 -86zM289 271q0 -48 30 -81t77 -33q48 0 77 33t29 81t-29 80.5t-77 32.5q-47 0 -77 -32.5t-30 -80.5z" />
    <glyph glyph-name="A" unicode="A" horiz-adv-x="656" 
d="M500 0l-51 145h-243l-51 -145h-159l252 680h159l252 -680h-159zM328 494l-75 -212h150z" />
    <glyph glyph-name="B" unicode="B" horiz-adv-x="579" 
d="M75 0v680h236q93 0 152.5 -50t59.5 -131q0 -106 -81 -149q100 -48 100 -162q0 -84 -63 -136t-162 -52h-242zM396 208q0 35 -22 53.5t-57 18.5h-100v-143h100q36 0 57.5 18t21.5 53zM377 480q0 31 -18.5 47t-48.5 16h-93v-126h93q30 0 48.5 16t18.5 47z" />
    <glyph glyph-name="C" unicode="C" horiz-adv-x="582" 
d="M538 186v-162q-73 -35 -155 -35q-149 0 -249.5 101t-100.5 250t100.5 250t249.5 101q82 0 155 -35v-163q-64 56 -155 56q-86 0 -145 -61t-59 -148q0 -88 58.5 -148.5t145.5 -60.5q93 0 155 55z" />
    <glyph glyph-name="D" unicode="D" horiz-adv-x="698" 
d="M75 0v680h252q153 0 244.5 -94.5t91.5 -245.5t-91.5 -245.5t-244.5 -94.5h-252zM326 543h-109v-406h109q90 0 140 56.5t50 146.5q0 89 -50 146t-140 57z" />
    <glyph glyph-name="E" unicode="E" horiz-adv-x="518" 
d="M462 0h-387v680h387v-137h-245v-132h225v-137h-225v-137h245v-137z" />
    <glyph glyph-name="F" unicode="F" horiz-adv-x="504" 
d="M442 245h-225v-245h-142v680h387v-137h-245v-161h225v-137z" />
    <glyph glyph-name="G" unicode="G" horiz-adv-x="724" 
d="M569 659v-154q-81 44 -184 44q-89 0 -147.5 -59t-58.5 -150q0 -87 56 -148t141 -61q78 0 126 45t48 104q0 2 -0.5 7.5t-0.5 7.5h-176v129h322q9 -47 9 -99q0 -142 -88 -239t-244 -97q-147 0 -243 100.5t-96 250.5t100 250.5t252 100.5q112 0 184 -32z" />
    <glyph glyph-name="H" unicode="H" horiz-adv-x="744" 
d="M528 0v274h-311v-274h-142v680h142v-269h311v269h142v-680h-142z" />
    <glyph glyph-name="I" unicode="I" horiz-adv-x="292" 
d="M75 0v680h142v-680h-142z" />
    <glyph glyph-name="J" unicode="J" horiz-adv-x="446" 
d="M235 680h142v-455q0 -236 -208 -236q-41 0 -82 11.5t-64 27.5v156q56 -53 124 -53q88 0 88 98v451z" />
    <glyph glyph-name="K" unicode="K" horiz-adv-x="572" 
d="M75 0v680h142v-275l175 275h166l-184 -279l194 -401h-166l-130 280l-55 -78v-202h-142z" />
    <glyph glyph-name="L" unicode="L" horiz-adv-x="480" 
d="M462 0h-387v680h142v-543h245v-137z" />
    <glyph glyph-name="M" unicode="M" horiz-adv-x="874" 
d="M499 0h-124l-158 424v-424h-142v680h174l189 -499l188 499h173v-680h-142v424z" />
    <glyph glyph-name="N" unicode="N" horiz-adv-x="715" 
d="M498 0l-277 393v-393h-142v595l-47 75v10h168l298 -433v433h142v-680h-142z" />
    <glyph glyph-name="O" unicode="O" horiz-adv-x="766" 
d="M33 340q0 149 100.5 250t249.5 101t249.5 -101t100.5 -250t-100.5 -250t-249.5 -101t-249.5 101t-100.5 250zM179 340q0 -87 58.5 -148t145.5 -61q86 0 144.5 61t58.5 148t-58.5 148t-144.5 61t-145 -61t-59 -148z" />
    <glyph glyph-name="P" unicode="P" horiz-adv-x="559" 
d="M75 0v680h232q101 0 162.5 -58t61.5 -157q0 -100 -61.5 -158t-162.5 -58h-90v-249h-142zM385 464q0 38 -22 58.5t-58 20.5h-88v-157h88q36 0 58 20t22 58z" />
    <glyph glyph-name="Q" unicode="Q" horiz-adv-x="775" 
d="M33 340q0 149 100.5 250t249.5 101t249.5 -101t100.5 -250q0 -117 -65 -206l66 -65l-97 -97l-69 69q-84 -52 -185 -52q-149 0 -249.5 101t-100.5 250zM179 340q0 -87 58.5 -148t145.5 -61q40 0 75 19l-96 97l97 98l101 -102q26 41 26 97q0 87 -58.5 148t-144.5 61
t-145 -61t-59 -148z" />
    <glyph glyph-name="R" unicode="R" horiz-adv-x="593" 
d="M75 0v680h235q102 0 163.5 -52.5t61.5 -145.5q0 -69 -34.5 -113t-88.5 -59q62 -32 101 -114.5t51 -195.5h-147q-19 115 -62 184t-103 69h-35v-253h-142zM389 466q0 36 -22 56.5t-57 20.5h-93v-153h93q35 0 57 20t22 56z" />
    <glyph glyph-name="S" unicode="S" horiz-adv-x="492" 
d="M424 660v-151q-69 49 -147 49q-41 0 -62.5 -17t-21.5 -44q0 -33 51 -62l90 -54q123 -74 123 -188q0 -87 -58.5 -145.5t-170.5 -58.5q-88 0 -172 35v157q31 -24 76.5 -41.5t89.5 -17.5q40 0 62 17.5t22 45.5q0 35 -54 66l-93 55q-65 38 -91.5 82t-26.5 105q0 38 12.5 71.5
t39.5 63t74.5 46.5t110.5 17q77 0 146 -31z" />
    <glyph glyph-name="T" unicode="T" horiz-adv-x="512" 
d="M185 0v543h-165v137h472v-137h-165v-543h-142z" />
    <glyph glyph-name="U" unicode="U" horiz-adv-x="654" 
d="M445 680h142v-424q0 -125 -70 -196t-190 -71t-189.5 71t-69.5 196v424h142v-436q0 -52 32 -84.5t85 -32.5q54 0 86 32.5t32 84.5v436z" />
    <glyph glyph-name="V" unicode="V" horiz-adv-x="656" 
d="M248 0l-252 680h159l173 -515l172 515h159l-252 -680h-159z" />
    <glyph glyph-name="W" unicode="W" horiz-adv-x="959" 
d="M190 0l-182 680h158l115 -502l139 419l-23 83h143l139 -502l114 502h158l-182 -680h-159l-120 405l-141 -405h-159z" />
    <glyph glyph-name="X" unicode="X" horiz-adv-x="607" 
d="M303 241l-133 -241h-168l205 348l-195 332h168l123 -226l123 226h168l-194 -332l204 -348h-167z" />
    <glyph glyph-name="Y" unicode="Y" horiz-adv-x="572" 
d="M215 0v294l-219 386h160l130 -246l131 246h159l-219 -388v-292h-142z" />
    <glyph glyph-name="Z" unicode="Z" horiz-adv-x="505" 
d="M464 559l-255 -422h255v-137h-428v121l249 422h-239v137h418v-121z" />
    <glyph glyph-name="bracketleft" unicode="[" horiz-adv-x="290" 
d="M68 690h204v-82h-114v-731h114v-82h-204v895z" />
    <glyph glyph-name="backslash" unicode="\" horiz-adv-x="447" 
d="M124 680l302 -680h-101l-303 680h102z" />
    <glyph glyph-name="bracketright" unicode="]" horiz-adv-x="290" 
d="M222 -205h-204v82h114v731h-114v82h204v-895z" />
    <glyph glyph-name="asciicircum" unicode="^" horiz-adv-x="450" 
d="M225 706l190 -158l-67 -78l-124 103l-123 -104l-66 79z" />
    <glyph glyph-name="underscore" unicode="_" horiz-adv-x="503" 
d="M452 -115h-400v85h400v-85z" />
    <glyph glyph-name="grave" unicode="`" horiz-adv-x="600" 
d="M206 696h112l74 -147h-100z" />
    <glyph glyph-name="a" unicode="a" horiz-adv-x="486" 
d="M78 350v129q70 29 144 29q212 0 212 -209v-299h-136v37q-41 -48 -111 -48q-79 0 -121.5 47t-42.5 115t46 114t120 46q66 0 109 -36v27q0 43 -25 64t-67 21q-66 0 -128 -37zM157 151q0 -26 20.5 -44t49.5 -18t49 18t20 44t-20 44t-49 18t-49.5 -18t-20.5 -44z" />
    <glyph glyph-name="b" unicode="b" horiz-adv-x="611" 
d="M193 64v-64h-136v690h136v-256q55 74 153 74q104 0 170.5 -74t66.5 -185t-66.5 -185.5t-169.5 -74.5q-99 0 -154 75zM193 249q0 -52 36 -89t89 -37q52 0 87.5 37t35.5 89t-35 88.5t-88 36.5t-89 -36.5t-36 -88.5z" />
    <glyph glyph-name="c" unicode="c" horiz-adv-x="442" 
d="M402 157v-144q-45 -24 -110 -24q-117 0 -190 74.5t-73 185.5q0 112 73 185.5t190 73.5q64 0 110 -23v-144q-49 34 -110 34q-54 0 -89.5 -36.5t-35.5 -89.5t35.5 -90t89.5 -37q64 0 110 35z" />
    <glyph glyph-name="d" unicode="d" horiz-adv-x="611" 
d="M418 0v64q-56 -75 -153 -75q-104 0 -170 74.5t-66 185.5t66 185t171 74q97 0 152 -74v256h136v-690h-136zM418 249q0 52 -35.5 88.5t-88.5 36.5t-89 -36.5t-36 -88.5t36 -89t89 -37t88.5 37t35.5 89z" />
    <glyph glyph-name="e" unicode="e" horiz-adv-x="535" 
d="M503 206h-338q9 -43 44.5 -68.5t87.5 -25.5q96 0 169 47v-131q-75 -39 -180 -39q-112 0 -184.5 72.5t-72.5 187.5q0 110 71 184.5t178 74.5q105 0 169 -68.5t64 -168.5q0 -33 -8 -65zM277 395q-44 0 -75.5 -25t-36.5 -61h215q-1 38 -30 62t-73 24z" />
    <glyph glyph-name="f" unicode="f" horiz-adv-x="341" 
d="M327 478v-116h-97v-362h-136v362h-70v116h70v45q0 86 49.5 131.5t134.5 45.5q31 0 51 -6v-136q-18 9 -46 9q-25 0 -39 -14.5t-14 -38.5v-36h97z" />
    <glyph glyph-name="g" unicode="g" horiz-adv-x="615" 
d="M420 498h136v-438q0 -135 -72.5 -205t-204.5 -70q-99 0 -167 37v141q77 -50 168 -50q62 0 101 34.5t39 94.5v35q-58 -73 -157 -73q-102 0 -168 71.5t-66 179.5t66 180.5t167 72.5q102 0 158 -76v66zM412 256q0 49 -34 84t-85 35q-50 0 -84 -35t-34 -84q0 -50 34 -84.5
t84 -34.5q51 0 85 34.5t34 84.5z" />
    <glyph glyph-name="h" unicode="h" horiz-adv-x="552" 
d="M193 690v-255q46 73 131 73q79 0 127.5 -53t48.5 -134v-321h-137v283q0 41 -23 66.5t-61 25.5t-61 -23t-25 -63v-289h-136v690h136z" />
    <glyph glyph-name="i" unicode="i" horiz-adv-x="250" 
d="M193 498v-498h-136v498h136zM45 643q0 34 23 57.5t57 23.5q35 0 57.5 -23.5t22.5 -57.5t-22.5 -57t-57.5 -23q-34 0 -57 23t-23 57z" />
    <glyph glyph-name="j" unicode="j" horiz-adv-x="250" 
d="M57 -35v533h136v-534q0 -88 -44.5 -133.5t-120.5 -45.5q-29 0 -47 7v137q16 -10 34 -10q42 0 42 46zM45 643q0 34 23.5 57.5t57.5 23.5t57.5 -23.5t23.5 -57.5t-23.5 -57t-57.5 -23t-57.5 23t-23.5 57z" />
    <glyph glyph-name="k" unicode="k" horiz-adv-x="495" 
d="M57 0v690h136v-380l136 188h160l-150 -201l150 -297h-158l-94 200l-44 -60v-140h-136z" />
    <glyph glyph-name="l" unicode="l" horiz-adv-x="251" 
d="M194 690v-690h-137v690h137z" />
    <glyph glyph-name="m" unicode="m" horiz-adv-x="843" 
d="M193 498v-59q45 69 127 69q110 0 153 -90q42 90 147 90q73 0 122 -51.5t49 -131.5v-325h-136v286q0 42 -22 65.5t-58 23.5q-37 0 -60 -24t-23 -65v-286h-136v286q0 42 -22 65.5t-58 23.5t-58.5 -21.5t-24.5 -60.5v-293h-136v498h136z" />
    <glyph glyph-name="n" unicode="n" horiz-adv-x="552" 
d="M193 498v-63q46 73 131 73q79 0 127.5 -53t48.5 -134v-321h-137v283q0 41 -23 66.5t-62 25.5q-37 0 -60 -23t-25 -63v-289h-136v498h136z" />
    <glyph glyph-name="o" unicode="o" horiz-adv-x="574" 
d="M28 249q0 109 75 184t184 75t184 -75t75 -184q0 -110 -75 -185t-184 -75t-184 75t-75 185zM166 249q0 -52 35 -89.5t86 -37.5q52 0 86 37t34 90t-34 89.5t-86 36.5q-51 0 -86 -37t-35 -89z" />
    <glyph glyph-name="p" unicode="p" horiz-adv-x="611" 
d="M193 498v-72q51 82 153 82q103 0 170 -74t67 -185t-67 -185.5t-171 -74.5q-98 0 -152 75v-269h-136v703h136zM193 249q0 -52 36 -89t89 -37q52 0 87.5 37t35.5 89t-35 88.5t-88 36.5t-89 -36.5t-36 -88.5z" />
    <glyph glyph-name="q" unicode="q" horiz-adv-x="612" 
d="M418 434v64h136v-703h-136v269q-56 -75 -151 -75q-105 0 -171.5 74.5t-66.5 185.5t66.5 185t170.5 74q97 0 152 -74zM418 249q0 52 -35.5 88.5t-88.5 36.5t-89 -36.5t-36 -88.5t36 -89t89 -37t88.5 37t35.5 89z" />
    <glyph glyph-name="r" unicode="r" horiz-adv-x="364" 
d="M193 498v-54q42 64 118 64q23 0 39 -3v-145q-32 15 -73 15q-36 0 -59 -23t-25 -63v-289h-136v498h136z" />
    <glyph glyph-name="s" unicode="s" horiz-adv-x="391" 
d="M335 491v-134q-54 33 -109 33q-24 0 -36.5 -10.5t-12.5 -25.5q0 -18 29 -36l72 -42q82 -49 82 -135q0 -67 -48 -109.5t-135 -42.5q-72 0 -130 25v136q18 -16 54.5 -30t65.5 -14q25 0 38.5 10.5t13.5 26.5q0 24 -33 43l-78 45q-72 42 -72 128q0 67 49.5 108t135.5 41
q60 0 114 -17z" />
    <glyph glyph-name="t" unicode="t" horiz-adv-x="329" 
d="M232 0h-136v382h-76v116h84v109l128 29v-138h84v-116h-84v-382z" />
    <glyph glyph-name="u" unicode="u" horiz-adv-x="555" 
d="M360 0v62q-42 -73 -131 -73q-78 0 -126 53t-48 134v322h136v-283q0 -42 22.5 -67.5t61.5 -25.5q37 0 60 23.5t25 62.5v290h136v-498h-136z" />
    <glyph glyph-name="v" unicode="v" horiz-adv-x="523" 
d="M2 498h143l116 -329l117 329h144l-189 -498h-143z" />
    <glyph glyph-name="w" unicode="w" horiz-adv-x="788" 
d="M9 498h141l88 -331l88 263l-24 68h135l116 -331l86 331h141l-148 -498h-142l-99 273l-92 -273h-143z" />
    <glyph glyph-name="x" unicode="x" horiz-adv-x="499" 
d="M250 148l-89 -148h-158l164 249l-164 249h158l89 -147l88 147h159l-163 -249l163 -249h-159z" />
    <glyph glyph-name="y" unicode="y" horiz-adv-x="523" 
d="M73 -205l114 243l-183 460h153l105 -288l111 288h154l-296 -703h-158z" />
    <glyph glyph-name="z" unicode="z" horiz-adv-x="416" 
d="M379 389l-184 -272h184v-117h-345v109l178 273h-168v116h335v-109z" />
    <glyph glyph-name="braceleft" unicode="{" horiz-adv-x="317" 
d="M1 202v81h30q81 0 81 95v160q0 88 32.5 120t106.5 32h48v-81h-27q-36 0 -53 -17t-17 -61v-174q0 -95 -74 -115q74 -20 74 -115v-171q0 -45 17 -62.5t53 -17.5h27v-81h-46q-75 0 -108 32.5t-33 122.5v156q0 96 -81 96h-30z" />
    <glyph glyph-name="bar" unicode="|" horiz-adv-x="226" 
d="M158 690v-895h-90v895h90z" />
    <glyph glyph-name="braceright" unicode="}" horiz-adv-x="317" 
d="M317 283v-81h-30q-81 0 -81 -95v-160q0 -88 -33 -120t-107 -32h-47v81h27q36 0 53 17t17 61v174q0 95 74 115q-74 20 -74 115v171q0 45 -17 62.5t-53 17.5h-27v81h46q75 0 108 -32.5t33 -122.5v-156q0 -96 81 -96h30z" />
    <glyph glyph-name="asciitilde" unicode="~" 
d="M486 345v-105q-53 -40 -111 -40q-48 0 -120.5 31.5t-115.5 31.5q-46 0 -106 -39v105q60 40 117 40q45 0 116 -31.5t117 -31.5q52 0 103 39z" />
    <glyph glyph-name="uni00A0" unicode="&#xa0;" horiz-adv-x="215" 
 />
    <glyph glyph-name="exclamdown" unicode="&#xa1;" horiz-adv-x="258" 
d="M82 263h94l32 -445h-158zM222 416q0 -41 -26 -67.5t-66 -26.5t-67 27t-27 67t26.5 66t67.5 26q40 0 66 -26t26 -66z" />
    <glyph glyph-name="cent" unicode="&#xa2;" 
d="M369 690v-89q39 -6 68 -19v-144q-31 21 -68 29v-244q37 8 68 30v-143q-26 -14 -68 -21v-89h-90v90q-97 15 -156 86t-59 170t58.5 169t156.5 86v89h90zM202 346q0 -40 21 -72t56 -46v235q-35 -14 -56 -46t-21 -71z" />
    <glyph glyph-name="sterling" unicode="&#xa3;" 
d="M40 371h66q-13 61 -13 101q0 95 59 157t166 62q91 0 146 -32v-158q-22 18 -60 33.5t-74 15.5q-44 0 -68 -23.5t-24 -61.5q0 -32 20 -94h163v-92h-135q9 -40 9 -63q0 -22 -11 -44.5t-27 -34.5h206v-137h-387v120q25 9 43.5 33.5t18.5 51.5q0 29 -9 74h-89v92z" />
    <glyph glyph-name="currency" unicode="&#xa4;" horiz-adv-x="531" 
d="M70 283q0 46 21 91l-53 57l77 76l54 -55q42 24 93 24q54 0 100 -26l55 55l72 -71l-54 -56q25 -43 25 -95q0 -51 -25 -94l58 -61l-77 -76l-63 61q-37 -21 -91 -21q-49 0 -90 23l-58 -58l-72 72l55 57q-27 44 -27 97zM182 283q0 -32 22.5 -57.5t58.5 -25.5q38 0 60.5 25.5
t22.5 57.5q0 34 -22.5 60t-60.5 26q-36 0 -58.5 -26t-22.5 -60z" />
    <glyph glyph-name="yen" unicode="&#xa5;" 
d="M55 225h135v54h-134v92h95l-154 309h160l104 -246l105 246h159l-154 -309h89v-92h-128v-54h128v-93h-128v-132h-142v132h-135v93z" />
    <glyph glyph-name="brokenbar" unicode="&#xa6;" horiz-adv-x="234" 
d="M162 394h-90v296h90v-296zM72 108h90v-313h-90v313z" />
    <glyph glyph-name="section" unicode="&#xa7;" horiz-adv-x="505" 
d="M430 504q-89 51 -158 51q-72 0 -72 -38q0 -24 50 -44l105 -44q109 -44 109 -148q0 -67 -57 -110q57 -46 57 -128q0 -70 -57.5 -120t-161.5 -50q-97 0 -183 40v155q90 -61 176 -61q75 0 75 38q0 24 -54 47l-106 45q-105 43 -105 142q0 72 56 114q-56 46 -56 128
q0 69 55.5 118.5t169.5 49.5q83 0 157 -36v-149zM217 338q-26 -15 -26 -40q0 -13 14.5 -25t46.5 -28l41 -21q28 17 28 42q0 23 -65 53z" />
    <glyph glyph-name="dieresis" unicode="&#xa8;" horiz-adv-x="580" 
d="M112 641q0 31 21 52.5t52 21.5t51.5 -21.5t20.5 -52.5t-20.5 -52t-51.5 -21t-52 21t-21 52zM323 641q0 31 20.5 52.5t51.5 21.5q32 0 52.5 -21.5t20.5 -52.5t-20.5 -52t-52.5 -21q-31 0 -51.5 21t-20.5 52z" />
    <glyph glyph-name="copyright" unicode="&#xa9;" horiz-adv-x="819" 
d="M37 341q0 160 106.5 264t266.5 104t266 -104t106 -264q0 -159 -106.5 -264t-265.5 -105t-266 105t-107 264zM120 341q0 -129 81.5 -209t208.5 -80q126 0 207 80t81 209t-81 208.5t-207 79.5q-127 0 -208.5 -79.5t-81.5 -208.5zM520 260v-111q-44 -18 -92 -18
q-92 0 -154.5 60t-62.5 148t62.5 147.5t154.5 59.5q50 0 92 -17v-113q-35 32 -92 32q-49 0 -82.5 -32t-33.5 -77t33.5 -77.5t82.5 -32.5q56 0 92 31z" />
    <glyph glyph-name="ordfeminine" unicode="&#xaa;" horiz-adv-x="358" 
d="M63 519v93q52 23 108 23q70 0 107.5 -36t37.5 -107v-193h-100v24q-23 -31 -76 -31q-52 0 -82 31t-30 74q0 45 32.5 74t83.5 29q45 0 72 -20v14q0 53 -63 53q-41 0 -90 -28zM132 399q0 -16 11 -27t28 -11q18 0 29 11t11 27q0 15 -11 25.5t-29 10.5q-17 0 -28 -10.5
t-11 -25.5zM61 249h239v-93h-239v93z" />
    <glyph glyph-name="guillemotleft" unicode="&#xab;" horiz-adv-x="510" 
d="M32 284l164 228l70 -51l-101 -178l102 -177l-71 -50zM236 284l164 228l70 -51l-101 -178l102 -177l-71 -50z" />
    <glyph glyph-name="logicalnot" unicode="&#xac;" 
d="M25 345v105h453v-287h-109v182h-344z" />
    <glyph glyph-name="uni00AD" unicode="&#xad;" horiz-adv-x="373" 
d="M321 221h-269v128h269v-128z" />
    <glyph glyph-name="registered" unicode="&#xae;" horiz-adv-x="604" 
d="M41 509q0 112 74.5 185t186.5 73t186.5 -72.5t74.5 -185.5q0 -111 -74.5 -184t-186.5 -73q-111 0 -186 73t-75 184zM99 509q0 -90 57 -146t146 -56t146 56t57 146q0 91 -57 146.5t-146 55.5t-146 -55.5t-57 -146.5zM201 372v281h106q45 0 72 -21.5t27 -59.5
q0 -30 -16 -48.5t-39 -24.5q58 -30 66 -127h-70q-15 99 -67 99h-11v-99h-68zM336 562q0 26 -29 26h-38v-51h38q29 0 29 25z" />
    <glyph glyph-name="macron" unicode="&#xaf;" horiz-adv-x="580" 
d="M141 669h297v-90h-297v90z" />
    <glyph glyph-name="degree" unicode="&#xb0;" horiz-adv-x="391" 
d="M29 525q0 66 45 115t119 49q76 0 122.5 -49t46.5 -115q0 -64 -46.5 -113.5t-122.5 -49.5q-74 0 -119 49.5t-45 113.5zM109 525q0 -34 23.5 -60.5t60.5 -26.5q39 0 63 26.5t24 60.5q0 35 -24 61.5t-63 26.5q-37 0 -60.5 -27t-23.5 -61z" />
    <glyph glyph-name="plusminus" unicode="&#xb1;" 
d="M33 369v106h169v175h113v-175h171v-106h-171v-144h-113v144h-169zM33 40v106h453v-106h-453z" />
    <glyph glyph-name="twosuperior" unicode="&#xb2;" horiz-adv-x="304" 
d="M27 397v83l117 137q31 34 31 58q0 21 -13 33t-35 12q-51 0 -92 -36v107q42 26 99 26q71 0 106.5 -36t35.5 -87q0 -61 -48 -115l-75 -87h116v-95h-242z" />
    <glyph glyph-name="threesuperior" unicode="&#xb3;" horiz-adv-x="302" 
d="M64 561v95h60q18 0 29.5 8.5t11.5 22.5t-12 23t-32 9q-50 0 -84 -23v107q34 14 87 14q64 0 103 -33t39 -84q0 -63 -49 -90q61 -30 61 -98q0 -52 -42 -87t-107 -35q-54 0 -97 16v115q36 -33 90 -33q24 0 39.5 11t15.5 28q0 34 -53 34h-60z" />
    <glyph glyph-name="acute" unicode="&#xb4;" horiz-adv-x="580" 
d="M270 696h113l-86 -147h-100z" />
    <glyph glyph-name="mu" unicode="&#xb5;" horiz-adv-x="578" 
d="M371 0v62q-42 -73 -131 -73q-23 0 -38 17v-211h-136v703h136v-283q0 -42 22.5 -67.5t61.5 -25.5q37 0 60 23.5t25 62.5v290h136v-498h-136z" />
    <glyph glyph-name="paragraph" unicode="&#xb6;" horiz-adv-x="598" 
d="M237 498h113v-703h-100v340h-13q-213 0 -213 179q0 86 53 135t160 49zM524 -205h-100v703h100v-703z" />
    <glyph glyph-name="periodcentered" unicode="&#xb7;" horiz-adv-x="269" 
d="M42 299q0 41 26 67.5t66 26.5t67 -26.5t27 -67.5q0 -40 -26.5 -66t-67.5 -26q-40 0 -66 26t-26 66z" />
    <glyph glyph-name="cedilla" unicode="&#xb8;" horiz-adv-x="580" 
d="M327 -152h-134l75 168h118z" />
    <glyph glyph-name="onesuperior" unicode="&#xb9;" horiz-adv-x="312" 
d="M22 397v94h97v225h-79v95h177v-320h84v-94h-279z" />
    <glyph glyph-name="ordmasculine" unicode="&#xba;" horiz-adv-x="378" 
d="M14 465q0 72 50.5 121t124.5 49t124 -49t50 -121q0 -73 -50 -122.5t-124 -49.5t-124.5 49.5t-50.5 122.5zM116 465q0 -31 20.5 -53.5t52.5 -22.5q31 0 52 22.5t21 53.5q0 30 -21 52t-52 22q-32 0 -52.5 -21.5t-20.5 -52.5zM70 249h239v-93h-239v93z" />
    <glyph glyph-name="guillemotright" unicode="&#xbb;" horiz-adv-x="510" 
d="M479 283l-164 -228l-70 51l101 178l-102 177l71 50zM274 283l-164 -228l-70 51l101 178l-102 177l71 50z" />
    <glyph glyph-name="onequarter" unicode="&#xbc;" horiz-adv-x="856" 
d="M250 0l302 680h102l-303 -680h-101zM38 266v94h97v225h-79v95h177v-320h84v-94h-279zM828 77h-50v-77h-98v77h-183v83l183 254h98v-243h50v-94zM599 171h81v112z" />
    <glyph glyph-name="onehalf" unicode="&#xbd;" horiz-adv-x="853" 
d="M249 0l302 680h102l-303 -680h-101zM36 266v94h97v225h-79v95h177v-320h84v-94h-279zM570 0v83l117 137q31 34 31 58q0 21 -13 33t-35 12q-51 0 -92 -36v107q42 26 99 26q71 0 106.5 -36t35.5 -87q0 -61 -48 -115l-75 -87h116v-95h-242z" />
    <glyph glyph-name="threequarters" unicode="&#xbe;" horiz-adv-x="824" 
d="M218 0l302 680h102l-303 -680h-101zM796 77h-50v-77h-98v77h-183v83l183 254h98v-243h50v-94zM567 171h81v112zM74 430v95h60q18 0 29.5 8.5t11.5 22.5t-12 23t-32 9q-50 0 -84 -23v107q34 14 87 14q64 0 103 -33t39 -84q0 -63 -49 -90q61 -31 61 -98q0 -52 -42 -87
t-107 -35q-54 0 -97 16v115q36 -33 90 -33q24 0 39.5 11t15.5 28q0 34 -53 34h-60z" />
    <glyph glyph-name="questiondown" unicode="&#xbf;" horiz-adv-x="424" 
d="M175 263h138q0 -53 -10.5 -80t-43.5 -55l-49 -40q-34 -29 -34 -71q0 -30 21 -48.5t65 -18.5q30 0 67 14t62 35v-163q-60 -28 -142 -28q-111 0 -165.5 58t-54.5 138q0 83 64 141l51 48q18 16 24.5 30.5t6.5 39.5zM337 416q0 -41 -26 -67.5t-66 -26.5q-41 0 -67.5 27
t-26.5 67t26.5 66t67.5 26q40 0 66 -26t26 -66z" />
    <glyph glyph-name="Agrave" unicode="&#xc0;" horiz-adv-x="656" 
d="M500 0l-51 145h-243l-51 -145h-159l252 680h159l252 -680h-159zM328 494l-75 -212h150zM189 873h112l74 -147h-100z" />
    <glyph glyph-name="Aacute" unicode="&#xc1;" horiz-adv-x="656" 
d="M500 0l-51 145h-243l-51 -145h-159l252 680h159l252 -680h-159zM328 494l-75 -212h150zM355 873h113l-86 -147h-100z" />
    <glyph glyph-name="Acircumflex" unicode="&#xc2;" horiz-adv-x="656" 
d="M500 0l-51 145h-243l-51 -145h-159l252 680h159l252 -680h-159zM328 494l-75 -212h150zM258 873h140l87 -147h-100l-57 91l-57 -91h-101z" />
    <glyph glyph-name="Atilde" unicode="&#xc3;" horiz-adv-x="656" 
d="M500 0l-51 145h-243l-51 -145h-159l252 680h159l252 -680h-159zM328 494l-75 -212h150zM476 835v-92q-39 25 -75 25q-25 0 -73 -20t-78 -20q-43 0 -70 21v92q27 -25 70 -25q23 0 68.5 20.5t82.5 20.5q39 0 75 -22z" />
    <glyph glyph-name="Adieresis" unicode="&#xc4;" horiz-adv-x="656" 
d="M500 0l-51 145h-243l-51 -145h-159l252 680h159l252 -680h-159zM328 494l-75 -212h150zM150 818q0 31 21 52.5t52 21.5t51.5 -21.5t20.5 -52.5t-20.5 -52t-51.5 -21t-52 21t-21 52zM361 818q0 31 20.5 52.5t51.5 21.5q32 0 52.5 -21.5t20.5 -52.5t-20.5 -52t-52.5 -21
q-31 0 -51.5 21t-20.5 52z" />
    <glyph glyph-name="Aring" unicode="&#xc5;" horiz-adv-x="656" 
d="M500 0l-51 145h-243l-51 -145h-159l252 680h159l252 -680h-159zM328 494l-75 -212h150zM220 816q0 41 28.5 70.5t77.5 29.5q52 0 81.5 -29t29.5 -71q0 -40 -29.5 -69.5t-81.5 -29.5q-49 0 -77.5 29.5t-28.5 69.5zM284 816q0 -17 11.5 -29t30.5 -12q22 0 34 11.5t12 29.5
t-12 30.5t-34 12.5q-19 0 -30.5 -12.5t-11.5 -30.5z" />
    <glyph glyph-name="AE" unicode="&#xc6;" horiz-adv-x="917" 
d="M861 0h-387v145h-222l-97 -145h-174l469 680h411v-137h-245v-132h225v-137h-225v-137h245v-137zM329 282h145v218z" />
    <glyph glyph-name="Ccedilla" unicode="&#xc7;" horiz-adv-x="582" 
d="M357 -152h-134l68 152q-115 29 -186.5 122.5t-71.5 217.5q0 149 100.5 250t249.5 101q82 0 155 -35v-163q-64 56 -155 56q-86 0 -145 -61t-59 -148q0 -88 58.5 -148.5t145.5 -60.5q93 0 155 55v-162q-62 -30 -131 -34z" />
    <glyph glyph-name="Egrave" unicode="&#xc8;" horiz-adv-x="518" 
d="M462 0h-387v680h387v-137h-245v-132h225v-137h-225v-137h245v-137zM144 873h112l74 -147h-100z" />
    <glyph glyph-name="Eacute" unicode="&#xc9;" horiz-adv-x="518" 
d="M462 0h-387v680h387v-137h-245v-132h225v-137h-225v-137h245v-137zM293 873h113l-86 -147h-100z" />
    <glyph glyph-name="Ecircumflex" unicode="&#xca;" horiz-adv-x="518" 
d="M462 0h-387v680h387v-137h-245v-132h225v-137h-225v-137h245v-137zM197 873h140l87 -147h-100l-57 91l-57 -91h-101z" />
    <glyph glyph-name="Edieresis" unicode="&#xcb;" horiz-adv-x="518" 
d="M462 0h-387v680h387v-137h-245v-132h225v-137h-225v-137h245v-137zM93 818q0 31 21 52.5t52 21.5t51.5 -21.5t20.5 -52.5t-20.5 -52t-51.5 -21t-52 21t-21 52zM304 818q0 31 20.5 52.5t51.5 21.5q32 0 52.5 -21.5t20.5 -52.5t-20.5 -52t-52.5 -21q-31 0 -51.5 21
t-20.5 52z" />
    <glyph glyph-name="Igrave" unicode="&#xcc;" horiz-adv-x="292" 
d="M75 0v680h142v-680h-142zM13 873h112l74 -147h-100z" />
    <glyph glyph-name="Iacute" unicode="&#xcd;" horiz-adv-x="292" 
d="M75 0v680h142v-680h-142zM172 873h113l-86 -147h-100z" />
    <glyph glyph-name="Icircumflex" unicode="&#xce;" horiz-adv-x="292" 
d="M75 0v680h142v-680h-142zM76 873h140l87 -147h-100l-57 91l-57 -91h-101z" />
    <glyph glyph-name="Idieresis" unicode="&#xcf;" horiz-adv-x="292" 
d="M75 0v680h142v-680h-142zM-32 818q0 31 21 52.5t52 21.5t51.5 -21.5t20.5 -52.5t-20.5 -52t-51.5 -21t-52 21t-21 52zM179 818q0 31 20.5 52.5t51.5 21.5q32 0 52.5 -21.5t20.5 -52.5t-20.5 -52t-52.5 -21q-31 0 -51.5 21t-20.5 52z" />
    <glyph glyph-name="Eth" unicode="&#xd0;" horiz-adv-x="702" 
d="M24 385h56v295h252q153 0 244.5 -94.5t91.5 -245.5t-91.5 -245.5t-244.5 -94.5h-252v295h-56v90zM330 543h-108v-158h98v-90h-98v-158h108q90 0 140.5 56.5t50.5 146.5q0 89 -50.5 146t-140.5 57z" />
    <glyph glyph-name="Ntilde" unicode="&#xd1;" horiz-adv-x="717" 
d="M500 0l-277 393v-393h-142v595l-47 75v10h168l298 -433v433h142v-680h-142zM511 835v-92q-39 25 -75 25q-25 0 -73 -20t-78 -20q-43 0 -70 21v92q27 -25 70 -25q23 0 68.5 20.5t82.5 20.5q39 0 75 -22z" />
    <glyph glyph-name="Ograve" unicode="&#xd2;" horiz-adv-x="766" 
d="M33 340q0 149 100.5 250t249.5 101t249.5 -101t100.5 -250t-100.5 -250t-249.5 -101t-249.5 101t-100.5 250zM179 340q0 -87 58.5 -148t145.5 -61q86 0 144.5 61t58.5 148t-58.5 148t-144.5 61t-145 -61t-59 -148zM249 873h112l74 -147h-100z" />
    <glyph glyph-name="Oacute" unicode="&#xd3;" horiz-adv-x="766" 
d="M33 340q0 149 100.5 250t249.5 101t249.5 -101t100.5 -250t-100.5 -250t-249.5 -101t-249.5 101t-100.5 250zM179 340q0 -87 58.5 -148t145.5 -61q86 0 144.5 61t58.5 148t-58.5 148t-144.5 61t-145 -61t-59 -148zM410 873h113l-86 -147h-100z" />
    <glyph glyph-name="Ocircumflex" unicode="&#xd4;" horiz-adv-x="766" 
d="M33 340q0 149 100.5 250t249.5 101t249.5 -101t100.5 -250t-100.5 -250t-249.5 -101t-249.5 101t-100.5 250zM179 340q0 -87 58.5 -148t145.5 -61q86 0 144.5 61t58.5 148t-58.5 148t-144.5 61t-145 -61t-59 -148zM313 873h140l87 -147h-100l-57 91l-57 -91h-101z" />
    <glyph glyph-name="Otilde" unicode="&#xd5;" horiz-adv-x="766" 
d="M33 340q0 149 100.5 250t249.5 101t249.5 -101t100.5 -250t-100.5 -250t-249.5 -101t-249.5 101t-100.5 250zM179 340q0 -87 58.5 -148t145.5 -61q86 0 144.5 61t58.5 148t-58.5 148t-144.5 61t-145 -61t-59 -148zM531 835v-92q-39 25 -75 25q-25 0 -73 -20t-78 -20
q-43 0 -70 21v92q27 -25 70 -25q23 0 68.5 20.5t82.5 20.5q39 0 75 -22z" />
    <glyph glyph-name="Odieresis" unicode="&#xd6;" horiz-adv-x="766" 
d="M33 340q0 149 100.5 250t249.5 101t249.5 -101t100.5 -250t-100.5 -250t-249.5 -101t-249.5 101t-100.5 250zM179 340q0 -87 58.5 -148t145.5 -61q86 0 144.5 61t58.5 148t-58.5 148t-144.5 61t-145 -61t-59 -148zM205 818q0 31 21 52.5t52 21.5t51.5 -21.5t20.5 -52.5
t-20.5 -52t-51.5 -21t-52 21t-21 52zM416 818q0 31 20.5 52.5t51.5 21.5q32 0 52.5 -21.5t20.5 -52.5t-20.5 -52t-52.5 -21q-31 0 -51.5 21t-20.5 52z" />
    <glyph glyph-name="multiply" unicode="&#xd7;" 
d="M105 55l-75 75l152 151l-156 157l81 80l155 -156l154 153l75 -75l-153 -153l155 -156l-80 -81l-156 157z" />
    <glyph glyph-name="Oslash" unicode="&#xd8;" horiz-adv-x="766" 
d="M33 340q0 149 100.5 250t249.5 101q95 0 176 -46l48 66l67 -47l-49 -67q108 -102 108 -257q0 -149 -100.5 -250t-249.5 -101q-92 0 -172 43l-45 -62l-63 46l44 61q-114 101 -114 263zM179 340q0 -86 55 -143l239 329q-44 23 -90 23q-86 0 -145 -61t-59 -148zM586 340
q0 80 -50 136l-238 -326q40 -19 85 -19q86 0 144.5 61t58.5 148z" />
    <glyph glyph-name="Ugrave" unicode="&#xd9;" horiz-adv-x="654" 
d="M445 680h142v-424q0 -125 -70 -196t-190 -71t-189.5 71t-69.5 196v424h142v-436q0 -52 32 -84.5t85 -32.5q54 0 86 32.5t32 84.5v436zM195 873h112l74 -147h-100z" />
    <glyph glyph-name="Uacute" unicode="&#xda;" horiz-adv-x="654" 
d="M445 680h142v-424q0 -125 -70 -196t-190 -71t-189.5 71t-69.5 196v424h142v-436q0 -52 32 -84.5t85 -32.5q54 0 86 32.5t32 84.5v436zM349 873h113l-86 -147h-100z" />
    <glyph glyph-name="Ucircumflex" unicode="&#xdb;" horiz-adv-x="654" 
d="M445 680h142v-424q0 -125 -70 -196t-190 -71t-189.5 71t-69.5 196v424h142v-436q0 -52 32 -84.5t85 -32.5q54 0 86 32.5t32 84.5v436zM257 873h140l87 -147h-100l-57 91l-57 -91h-101z" />
    <glyph glyph-name="Udieresis" unicode="&#xdc;" horiz-adv-x="654" 
d="M445 680h142v-424q0 -125 -70 -196t-190 -71t-189.5 71t-69.5 196v424h142v-436q0 -52 32 -84.5t85 -32.5q54 0 86 32.5t32 84.5v436zM149 818q0 31 21 52.5t52 21.5t51.5 -21.5t20.5 -52.5t-20.5 -52t-51.5 -21t-52 21t-21 52zM360 818q0 31 20.5 52.5t51.5 21.5
q32 0 52.5 -21.5t20.5 -52.5t-20.5 -52t-52.5 -21q-31 0 -51.5 21t-20.5 52z" />
    <glyph glyph-name="Yacute" unicode="&#xdd;" horiz-adv-x="572" 
d="M215 0v294l-219 386h160l130 -246l131 246h159l-219 -388v-292h-142zM308 873h113l-86 -147h-100z" />
    <glyph glyph-name="Thorn" unicode="&#xde;" horiz-adv-x="546" 
d="M75 0v680h142v-119h90q101 0 162.5 -58t61.5 -158q0 -99 -61.5 -157t-162.5 -58h-90v-130h-142zM385 345q0 38 -22 58.5t-58 20.5h-88v-157h88q36 0 58 20t22 58z" />
    <glyph glyph-name="germandbls" unicode="&#xdf;" horiz-adv-x="555" 
d="M258 419h36q30 0 50.5 21t20.5 53q0 35 -23 56t-59 21q-43 0 -66.5 -25.5t-23.5 -72.5v-472h-136v466q0 107 56.5 170.5t168.5 63.5q101 0 160 -53.5t59 -138.5q0 -50 -22.5 -88.5t-57.5 -57.5q45 -18 74 -60.5t29 -92.5q0 -102 -60 -158t-166 -56q-26 0 -48 4l1 129
q27 -5 47 -5q42 0 67 25.5t25 70.5q0 38 -26.5 61t-66.5 23h-39v116z" />
    <glyph glyph-name="agrave" unicode="&#xe0;" horiz-adv-x="486" 
d="M78 350v129q70 29 144 29q212 0 212 -209v-299h-136v37q-41 -48 -111 -48q-79 0 -121.5 47t-42.5 115t46 114t120 46q66 0 109 -36v27q0 43 -25 64t-67 21q-66 0 -128 -37zM157 151q0 -26 20.5 -44t49.5 -18t49 18t20 44t-20 44t-49 18t-49.5 -18t-20.5 -44zM104 696h112
l74 -147h-100z" />
    <glyph glyph-name="aacute" unicode="&#xe1;" horiz-adv-x="486" 
d="M78 350v129q70 29 144 29q212 0 212 -209v-299h-136v37q-41 -48 -111 -48q-79 0 -121.5 47t-42.5 115t46 114t120 46q66 0 109 -36v27q0 43 -25 64t-67 21q-66 0 -128 -37zM157 151q0 -26 20.5 -44t49.5 -18t49 18t20 44t-20 44t-49 18t-49.5 -18t-20.5 -44zM275 696h113
l-86 -147h-100z" />
    <glyph glyph-name="acircumflex" unicode="&#xe2;" horiz-adv-x="486" 
d="M78 350v129q70 29 144 29q212 0 212 -209v-299h-136v37q-41 -48 -111 -48q-79 0 -121.5 47t-42.5 115t46 114t120 46q66 0 109 -36v27q0 43 -25 64t-67 21q-66 0 -128 -37zM157 151q0 -26 20.5 -44t49.5 -18t49 18t20 44t-20 44t-49 18t-49.5 -18t-20.5 -44zM164 696h140
l87 -147h-100l-57 91l-57 -91h-101z" />
    <glyph glyph-name="atilde" unicode="&#xe3;" horiz-adv-x="486" 
d="M78 350v129q70 29 144 29q212 0 212 -209v-299h-136v37q-41 -48 -111 -48q-79 0 -121.5 47t-42.5 115t46 114t120 46q66 0 109 -36v27q0 43 -25 64t-67 21q-66 0 -128 -37zM157 151q0 -26 20.5 -44t49.5 -18t49 18t20 44t-20 44t-49 18t-49.5 -18t-20.5 -44zM383 658v-92
q-39 25 -75 25q-25 0 -73 -20t-78 -20q-43 0 -70 21v92q27 -25 70 -25q23 0 68.5 20.5t82.5 20.5q39 0 75 -22z" />
    <glyph glyph-name="adieresis" unicode="&#xe4;" horiz-adv-x="486" 
d="M78 350v129q70 29 144 29q212 0 212 -209v-299h-136v37q-41 -48 -111 -48q-79 0 -121.5 47t-42.5 115t46 114t120 46q66 0 109 -36v27q0 43 -25 64t-67 21q-66 0 -128 -37zM157 151q0 -26 20.5 -44t49.5 -18t49 18t20 44t-20 44t-49 18t-49.5 -18t-20.5 -44zM55 641
q0 31 21 52.5t52 21.5t51.5 -21.5t20.5 -52.5t-20.5 -52t-51.5 -21t-52 21t-21 52zM266 641q0 31 20.5 52.5t51.5 21.5q32 0 52.5 -21.5t20.5 -52.5t-20.5 -52t-52.5 -21q-31 0 -51.5 21t-20.5 52z" />
    <glyph glyph-name="aring" unicode="&#xe5;" horiz-adv-x="486" 
d="M78 350v129q70 29 144 29q212 0 212 -209v-299h-136v37q-41 -48 -111 -48q-79 0 -121.5 47t-42.5 115t46 114t120 46q66 0 109 -36v27q0 43 -25 64t-67 21q-66 0 -128 -37zM157 151q0 -26 20.5 -44t49.5 -18t49 18t20 44t-20 44t-49 18t-49.5 -18t-20.5 -44zM126 639
q0 41 28.5 70.5t77.5 29.5q52 0 81.5 -29t29.5 -71q0 -40 -29.5 -69.5t-81.5 -29.5q-49 0 -77.5 29.5t-28.5 69.5zM190 639q0 -17 11.5 -29t30.5 -12q22 0 34 11.5t12 29.5t-12 30.5t-34 12.5q-19 0 -30.5 -12.5t-11.5 -30.5z" />
    <glyph glyph-name="ae" unicode="&#xe6;" horiz-adv-x="832" 
d="M800 207h-338q9 -44 44.5 -69.5t87.5 -25.5q94 0 169 47v-131q-70 -39 -185 -39q-64 0 -114 22.5t-77 60.5q-27 -37 -73.5 -60t-105.5 -23q-93 0 -139 46.5t-46 115.5q0 68 46 114t120 46q66 0 109 -36v27q0 43 -25 64t-67 21q-66 0 -128 -37v129q70 29 144 29
q126 0 174 -78q70 78 179 78q105 0 169 -68.5t64 -168.5q0 -34 -8 -64zM157 151q0 -26 20.5 -44t49.5 -18t49 18t20 44t-20 44t-49 18t-49.5 -18t-20.5 -44zM574 395q-44 0 -75.5 -25t-37.5 -61h216q-1 38 -30 62t-73 24z" />
    <glyph glyph-name="ccedilla" unicode="&#xe7;" horiz-adv-x="442" 
d="M273 -152h-134l68 153q-82 25 -130 92t-48 156q0 112 73 185.5t190 73.5q64 0 110 -23v-144q-49 34 -110 34q-54 0 -89.5 -36.5t-35.5 -89.5t35.5 -90t89.5 -37q64 0 110 35v-144q-26 -14 -79 -22z" />
    <glyph glyph-name="egrave" unicode="&#xe8;" horiz-adv-x="535" 
d="M503 206h-338q9 -43 44.5 -68.5t87.5 -25.5q96 0 169 47v-131q-75 -39 -180 -39q-112 0 -184.5 72.5t-72.5 187.5q0 110 71 184.5t178 74.5q105 0 169 -68.5t64 -168.5q0 -33 -8 -65zM277 395q-44 0 -75.5 -25t-36.5 -61h215q-1 38 -30 62t-73 24zM152 696h112l74 -147
h-100z" />
    <glyph glyph-name="eacute" unicode="&#xe9;" horiz-adv-x="535" 
d="M503 206h-338q9 -43 44.5 -68.5t87.5 -25.5q96 0 169 47v-131q-75 -39 -180 -39q-112 0 -184.5 72.5t-72.5 187.5q0 110 71 184.5t178 74.5q105 0 169 -68.5t64 -168.5q0 -33 -8 -65zM277 395q-44 0 -75.5 -25t-36.5 -61h215q-1 38 -30 62t-73 24zM306 696h113l-86 -147
h-100z" />
    <glyph glyph-name="ecircumflex" unicode="&#xea;" horiz-adv-x="535" 
d="M503 206h-338q9 -43 44.5 -68.5t87.5 -25.5q96 0 169 47v-131q-75 -39 -180 -39q-112 0 -184.5 72.5t-72.5 187.5q0 110 71 184.5t178 74.5q105 0 169 -68.5t64 -168.5q0 -33 -8 -65zM277 395q-44 0 -75.5 -25t-36.5 -61h215q-1 38 -30 62t-73 24zM214 696h140l87 -147
h-100l-57 91l-57 -91h-101z" />
    <glyph glyph-name="edieresis" unicode="&#xeb;" horiz-adv-x="535" 
d="M503 206h-338q9 -43 44.5 -68.5t87.5 -25.5q96 0 169 47v-131q-75 -39 -180 -39q-112 0 -184.5 72.5t-72.5 187.5q0 110 71 184.5t178 74.5q105 0 169 -68.5t64 -168.5q0 -33 -8 -65zM277 395q-44 0 -75.5 -25t-36.5 -61h215q-1 38 -30 62t-73 24zM103 641q0 31 21 52.5
t52 21.5t51.5 -21.5t20.5 -52.5t-20.5 -52t-51.5 -21t-52 21t-21 52zM314 641q0 31 20.5 52.5t51.5 21.5q32 0 52.5 -21.5t20.5 -52.5t-20.5 -52t-52.5 -21q-31 0 -51.5 21t-20.5 52z" />
    <glyph glyph-name="igrave" unicode="&#xec;" horiz-adv-x="250" 
d="M193 498v-498h-136v498h136zM-8 696h112l74 -147h-100z" />
    <glyph glyph-name="iacute" unicode="&#xed;" horiz-adv-x="250" 
d="M193 498v-498h-136v498h136zM149 696h113l-86 -147h-100z" />
    <glyph glyph-name="icircumflex" unicode="&#xee;" horiz-adv-x="250" 
d="M193 498v-498h-136v498h136zM55 696h140l87 -147h-100l-57 91l-57 -91h-101z" />
    <glyph glyph-name="idieresis" unicode="&#xef;" horiz-adv-x="250" 
d="M193 498v-498h-136v498h136zM-53 641q0 31 21 52.5t52 21.5t51.5 -21.5t20.5 -52.5t-20.5 -52t-51.5 -21t-52 21t-21 52zM158 641q0 31 20.5 52.5t51.5 21.5q32 0 52.5 -21.5t20.5 -52.5t-20.5 -52t-52.5 -21q-31 0 -51.5 21t-20.5 52z" />
    <glyph glyph-name="eth" unicode="&#xf0;" horiz-adv-x="544" 
d="M417 608l-69 -29l124 -199q44 -71 44 -146q0 -104 -70 -174.5t-174 -70.5t-174 70.5t-70 174.5q0 101 65 167.5t158 73.5l-33 49l-68 -28l-36 59l65 28l-64 97h170l25 -41l70 30zM172 234q0 -43 29 -73t71 -30t71 30t29 73q0 42 -29 71.5t-71 29.5t-71 -29.5t-29 -71.5z
" />
    <glyph glyph-name="ntilde" unicode="&#xf1;" horiz-adv-x="552" 
d="M193 498v-63q46 73 131 73q79 0 127.5 -53t48.5 -134v-321h-137v283q0 41 -23 66.5t-62 25.5q-37 0 -60 -23t-25 -63v-289h-136v498h136zM426 658v-92q-39 25 -75 25q-25 0 -73 -20t-78 -20q-43 0 -70 21v92q27 -25 70 -25q23 0 68.5 20.5t82.5 20.5q39 0 75 -22z" />
    <glyph glyph-name="ograve" unicode="&#xf2;" horiz-adv-x="574" 
d="M28 249q0 109 75 184t184 75t184 -75t75 -184q0 -110 -75 -185t-184 -75t-184 75t-75 185zM166 249q0 -52 35 -89.5t86 -37.5q52 0 86 37t34 90t-34 89.5t-86 36.5q-51 0 -86 -37t-35 -89zM162 696h112l74 -147h-100z" />
    <glyph glyph-name="oacute" unicode="&#xf3;" horiz-adv-x="574" 
d="M28 249q0 109 75 184t184 75t184 -75t75 -184q0 -110 -75 -185t-184 -75t-184 75t-75 185zM166 249q0 -52 35 -89.5t86 -37.5q52 0 86 37t34 90t-34 89.5t-86 36.5q-51 0 -86 -37t-35 -89zM317 696h113l-86 -147h-100z" />
    <glyph glyph-name="ocircumflex" unicode="&#xf4;" horiz-adv-x="574" 
d="M28 249q0 109 75 184t184 75t184 -75t75 -184q0 -110 -75 -185t-184 -75t-184 75t-75 185zM166 249q0 -52 35 -89.5t86 -37.5q52 0 86 37t34 90t-34 89.5t-86 36.5q-51 0 -86 -37t-35 -89zM217 696h140l87 -147h-100l-57 91l-57 -91h-101z" />
    <glyph glyph-name="otilde" unicode="&#xf5;" horiz-adv-x="574" 
d="M28 249q0 109 75 184t184 75t184 -75t75 -184q0 -110 -75 -185t-184 -75t-184 75t-75 185zM166 249q0 -52 35 -89.5t86 -37.5q52 0 86 37t34 90t-34 89.5t-86 36.5q-51 0 -86 -37t-35 -89zM435 658v-92q-39 25 -75 25q-25 0 -73 -20t-78 -20q-43 0 -70 21v92
q27 -25 70 -25q23 0 68.5 20.5t82.5 20.5q39 0 75 -22z" />
    <glyph glyph-name="odieresis" unicode="&#xf6;" horiz-adv-x="574" 
d="M28 249q0 109 75 184t184 75t184 -75t75 -184q0 -110 -75 -185t-184 -75t-184 75t-75 185zM166 249q0 -52 35 -89.5t86 -37.5q52 0 86 37t34 90t-34 89.5t-86 36.5q-51 0 -86 -37t-35 -89zM109 641q0 31 21 52.5t52 21.5t51.5 -21.5t20.5 -52.5t-20.5 -52t-51.5 -21
t-52 21t-21 52zM320 641q0 31 20.5 52.5t51.5 21.5q32 0 52.5 -21.5t20.5 -52.5t-20.5 -52t-52.5 -21q-31 0 -51.5 21t-20.5 52z" />
    <glyph glyph-name="divide" unicode="&#xf7;" 
d="M262 11q-33 0 -54.5 20.5t-21.5 51.5q0 32 21.5 53t54.5 21t54.5 -21t21.5 -53q0 -31 -21.5 -51.5t-54.5 -20.5zM262 411q-33 0 -54.5 20.5t-21.5 52.5t21.5 52.5t54.5 20.5t54.5 -20.5t21.5 -52.5t-21.5 -52.5t-54.5 -20.5zM33 233v105h453v-105h-453z" />
    <glyph glyph-name="oslash" unicode="&#xf8;" horiz-adv-x="574" 
d="M28 249q0 109 75 184t184 75q65 0 121 -29l33 44l68 -46l-35 -47q72 -75 72 -181q0 -110 -75 -185t-184 -75q-63 0 -117 28l-34 -47l-63 46l33 45q-78 73 -78 188zM156 249q0 -45 27 -82l151 209q-23 10 -47 10q-56 0 -93.5 -40t-37.5 -97zM418 249q0 41 -24 73
l-148 -202q19 -8 41 -8q56 0 93.5 40t37.5 97z" />
    <glyph glyph-name="ugrave" unicode="&#xf9;" horiz-adv-x="555" 
d="M360 0v62q-42 -73 -131 -73q-78 0 -126 53t-48 134v322h136v-283q0 -42 22.5 -67.5t61.5 -25.5q37 0 60 23.5t25 62.5v290h136v-498h-136zM139 696h112l74 -147h-100z" />
    <glyph glyph-name="uacute" unicode="&#xfa;" horiz-adv-x="555" 
d="M360 0v62q-42 -73 -131 -73q-78 0 -126 53t-48 134v322h136v-283q0 -42 22.5 -67.5t61.5 -25.5q37 0 60 23.5t25 62.5v290h136v-498h-136zM300 696h113l-86 -147h-100z" />
    <glyph glyph-name="ucircumflex" unicode="&#xfb;" horiz-adv-x="555" 
d="M360 0v62q-42 -73 -131 -73q-78 0 -126 53t-48 134v322h136v-283q0 -42 22.5 -67.5t61.5 -25.5q37 0 60 23.5t25 62.5v290h136v-498h-136zM206 696h140l87 -147h-100l-57 91l-57 -91h-101z" />
    <glyph glyph-name="udieresis" unicode="&#xfc;" horiz-adv-x="555" 
d="M360 0v62q-42 -73 -131 -73q-78 0 -126 53t-48 134v322h136v-283q0 -42 22.5 -67.5t61.5 -25.5q37 0 60 23.5t25 62.5v290h136v-498h-136zM98 641q0 31 21 52.5t52 21.5t51.5 -21.5t20.5 -52.5t-20.5 -52t-51.5 -21t-52 21t-21 52zM309 641q0 31 20.5 52.5t51.5 21.5
q32 0 52.5 -21.5t20.5 -52.5t-20.5 -52t-52.5 -21q-31 0 -51.5 21t-20.5 52z" />
    <glyph glyph-name="yacute" unicode="&#xfd;" horiz-adv-x="523" 
d="M73 -205l114 243l-183 460h153l105 -288l111 288h154l-296 -703h-158zM293 696h113l-86 -147h-100z" />
    <glyph glyph-name="thorn" unicode="&#xfe;" horiz-adv-x="614" 
d="M196 690v-264q49 82 153 82q103 0 169.5 -74t66.5 -185t-66.5 -185.5t-170.5 -74.5q-99 0 -152 75v-269h-137v895h137zM196 249q0 -52 35.5 -89t88.5 -37q52 0 87.5 37t35.5 89t-35 88.5t-88 36.5t-88.5 -36.5t-35.5 -88.5z" />
    <glyph glyph-name="ydieresis" unicode="&#xff;" horiz-adv-x="523" 
d="M73 -205l114 243l-183 460h153l105 -288l111 288h154l-296 -703h-158zM88 641q0 31 21 52.5t52 21.5t51.5 -21.5t20.5 -52.5t-20.5 -52t-51.5 -21t-52 21t-21 52zM299 641q0 31 20.5 52.5t51.5 21.5q32 0 52.5 -21.5t20.5 -52.5t-20.5 -52t-52.5 -21q-31 0 -51.5 21
t-20.5 52z" />
    <glyph glyph-name="Amacron" unicode="&#x100;" horiz-adv-x="656" 
d="M500 0l-51 145h-243l-51 -145h-159l252 680h159l252 -680h-159zM328 494l-75 -212h150zM179 846h297v-90h-297v90z" />
    <glyph glyph-name="amacron" unicode="&#x101;" horiz-adv-x="486" 
d="M78 350v129q70 29 144 29q212 0 212 -209v-299h-136v37q-41 -48 -111 -48q-79 0 -121.5 47t-42.5 115t46 114t120 46q66 0 109 -36v27q0 43 -25 64t-67 21q-66 0 -128 -37zM157 151q0 -26 20.5 -44t49.5 -18t49 18t20 44t-20 44t-49 18t-49.5 -18t-20.5 -44zM85 669h297
v-90h-297v90z" />
    <glyph glyph-name="Abreve" unicode="&#x102;" horiz-adv-x="656" 
d="M500 0l-51 145h-243l-51 -145h-159l252 680h159l252 -680h-159zM328 494l-75 -212h150zM405 872h74q0 -66 -40 -108t-113 -42q-70 0 -109 42.5t-39 107.5h72q4 -30 25 -49.5t51 -19.5q32 0 53 19t26 50z" />
    <glyph glyph-name="abreve" unicode="&#x103;" horiz-adv-x="486" 
d="M78 350v129q70 29 144 29q212 0 212 -209v-299h-136v37q-41 -48 -111 -48q-79 0 -121.5 47t-42.5 115t46 114t120 46q66 0 109 -36v27q0 43 -25 64t-67 21q-66 0 -128 -37zM157 151q0 -26 20.5 -44t49.5 -18t49 18t20 44t-20 44t-49 18t-49.5 -18t-20.5 -44zM310 695h74
q0 -66 -40 -108t-113 -42q-70 0 -109 42.5t-39 107.5h72q4 -30 25 -49.5t51 -19.5q32 0 53 19t26 50z" />
    <glyph glyph-name="Aogonek" unicode="&#x104;" horiz-adv-x="656" 
d="M500 0l-51 145h-243l-51 -145h-159l252 680h159l252 -680l-85 -52q-30 -19 -30 -39q0 -24 29 -24q33 0 63 28v-91q-38 -19 -84 -19q-57 0 -88 21.5t-31 62.5q0 54 56 84l56 29h-45zM328 494l-75 -212h150z" />
    <glyph glyph-name="aogonek" unicode="&#x105;" horiz-adv-x="486" 
d="M78 350v129q70 29 144 29q212 0 212 -209v-299l-85 -52q-30 -19 -30 -39q0 -24 29 -24q33 0 63 28v-91q-38 -19 -84 -19q-57 0 -88 21.5t-31 62.5q0 54 56 84l56 29h-22v37q-41 -48 -111 -48q-79 0 -121.5 47t-42.5 115t46 114t120 46q66 0 109 -36v27q0 43 -25 64
t-67 21q-66 0 -128 -37zM157 151q0 -26 20.5 -44t49.5 -18t49 18t20 44t-20 44t-49 18t-49.5 -18t-20.5 -44z" />
    <glyph glyph-name="Cacute" unicode="&#x106;" horiz-adv-x="582" 
d="M538 186v-162q-73 -35 -155 -35q-149 0 -249.5 101t-100.5 250t100.5 250t249.5 101q82 0 155 -35v-163q-64 56 -155 56q-86 0 -145 -61t-59 -148q0 -88 58.5 -148.5t145.5 -60.5q93 0 155 55zM400 873h113l-86 -147h-100z" />
    <glyph glyph-name="cacute" unicode="&#x107;" horiz-adv-x="442" 
d="M402 157v-144q-45 -24 -110 -24q-117 0 -190 74.5t-73 185.5q0 112 73 185.5t190 73.5q64 0 110 -23v-144q-49 34 -110 34q-54 0 -89.5 -36.5t-35.5 -89.5t35.5 -90t89.5 -37q64 0 110 35zM302 696h113l-86 -147h-100z" />
    <glyph glyph-name="Ccircumflex" unicode="&#x108;" horiz-adv-x="582" 
d="M538 186v-162q-73 -35 -155 -35q-149 0 -249.5 101t-100.5 250t100.5 250t249.5 101q82 0 155 -35v-163q-64 56 -155 56q-86 0 -145 -61t-59 -148q0 -88 58.5 -148.5t145.5 -60.5q93 0 155 55zM302 873h140l87 -147h-100l-57 91l-57 -91h-101z" />
    <glyph glyph-name="ccircumflex" unicode="&#x109;" horiz-adv-x="442" 
d="M402 157v-144q-45 -24 -110 -24q-117 0 -190 74.5t-73 185.5q0 112 73 185.5t190 73.5q64 0 110 -23v-144q-49 34 -110 34q-54 0 -89.5 -36.5t-35.5 -89.5t35.5 -90t89.5 -37q64 0 110 35zM199 696h140l87 -147h-100l-57 91l-57 -91h-101z" />
    <glyph glyph-name="Cdotaccent" unicode="&#x10a;" horiz-adv-x="582" 
d="M538 186v-162q-73 -35 -155 -35q-149 0 -249.5 101t-100.5 250t100.5 250t249.5 101q82 0 155 -35v-163q-64 56 -155 56q-86 0 -145 -61t-59 -148q0 -88 58.5 -148.5t145.5 -60.5q93 0 155 55zM298 818q0 34 23 57.5t57 23.5q35 0 57.5 -23.5t22.5 -57.5t-22.5 -57
t-57.5 -23q-34 0 -57 23t-23 57z" />
    <glyph glyph-name="cdotaccent" unicode="&#x10b;" horiz-adv-x="442" 
d="M402 157v-144q-45 -24 -110 -24q-117 0 -190 74.5t-73 185.5q0 112 73 185.5t190 73.5q64 0 110 -23v-144q-49 34 -110 34q-54 0 -89.5 -36.5t-35.5 -89.5t35.5 -90t89.5 -37q64 0 110 35zM204 641q0 34 23 57.5t57 23.5q35 0 57.5 -23.5t22.5 -57.5t-22.5 -57t-57.5 -23
q-34 0 -57 23t-23 57z" />
    <glyph glyph-name="Ccaron" unicode="&#x10c;" horiz-adv-x="582" 
d="M538 186v-162q-73 -35 -155 -35q-149 0 -249.5 101t-100.5 250t100.5 250t249.5 101q82 0 155 -35v-163q-64 56 -155 56q-86 0 -145 -61t-59 -148q0 -88 58.5 -148.5t145.5 -60.5q93 0 155 55zM444 726h-140l-88 147h101l57 -92l57 92h100z" />
    <glyph glyph-name="ccaron" unicode="&#x10d;" horiz-adv-x="442" 
d="M402 157v-144q-45 -24 -110 -24q-117 0 -190 74.5t-73 185.5q0 112 73 185.5t190 73.5q64 0 110 -23v-144q-49 34 -110 34q-54 0 -89.5 -36.5t-35.5 -89.5t35.5 -90t89.5 -37q64 0 110 35zM338 549h-140l-88 147h101l57 -92l57 92h100z" />
    <glyph glyph-name="Dcaron" unicode="&#x10e;" horiz-adv-x="698" 
d="M75 0v680h252q153 0 244.5 -94.5t91.5 -245.5t-91.5 -245.5t-244.5 -94.5h-252zM326 543h-109v-406h109q90 0 140 56.5t50 146.5q0 89 -50 146t-140 57zM398 726h-140l-88 147h101l57 -92l57 92h100z" />
    <glyph glyph-name="dcaron" unicode="&#x10f;" horiz-adv-x="614" 
d="M418 0v64q-56 -75 -153 -75q-104 0 -170 74.5t-66 185.5t66 185t171 74q97 0 152 -74v256h136v-690h-136zM418 249q0 52 -35.5 88.5t-88.5 36.5t-89 -36.5t-36 -88.5t36 -89t89 -37t88.5 37t35.5 89zM702 528h-105l24 153h127z" />
    <glyph glyph-name="Dcroat" unicode="&#x110;" horiz-adv-x="702" 
d="M24 385h56v295h252q153 0 244.5 -94.5t91.5 -245.5t-91.5 -245.5t-244.5 -94.5h-252v295h-56v90zM330 543h-108v-158h98v-90h-98v-158h108q90 0 140.5 56.5t50.5 146.5q0 89 -50.5 146t-140.5 57z" />
    <glyph glyph-name="dcroat" unicode="&#x111;" horiz-adv-x="614" 
d="M418 0v64q-56 -75 -153 -75q-104 0 -170 74.5t-66 185.5t66 185t171 74q97 0 152 -74v112h-114v81h114v63h136v-63h49v-81h-49v-546h-136zM418 249q0 52 -35.5 88.5t-88.5 36.5t-89 -36.5t-36 -88.5t36 -89t89 -37t88.5 37t35.5 89z" />
    <glyph glyph-name="Emacron" unicode="&#x112;" horiz-adv-x="518" 
d="M462 0h-387v680h387v-137h-245v-132h225v-137h-225v-137h245v-137zM124 846h297v-90h-297v90z" />
    <glyph glyph-name="emacron" unicode="&#x113;" horiz-adv-x="535" 
d="M503 206h-338q9 -43 44.5 -68.5t87.5 -25.5q96 0 169 47v-131q-75 -39 -180 -39q-112 0 -184.5 72.5t-72.5 187.5q0 110 71 184.5t178 74.5q105 0 169 -68.5t64 -168.5q0 -33 -8 -65zM277 395q-44 0 -75.5 -25t-36.5 -61h215q-1 38 -30 62t-73 24zM131 669h297v-90h-297
v90z" />
    <glyph glyph-name="Ebreve" unicode="&#x114;" horiz-adv-x="518" 
d="M462 0h-387v680h387v-137h-245v-132h225v-137h-225v-137h245v-137zM349 872h74q0 -66 -40 -108t-113 -42q-70 0 -109 42.5t-39 107.5h72q4 -30 25 -49.5t51 -19.5q32 0 53 19t26 50z" />
    <glyph glyph-name="ebreve" unicode="&#x115;" horiz-adv-x="535" 
d="M503 206h-338q9 -43 44.5 -68.5t87.5 -25.5q96 0 169 47v-131q-75 -39 -180 -39q-112 0 -184.5 72.5t-72.5 187.5q0 110 71 184.5t178 74.5q105 0 169 -68.5t64 -168.5q0 -33 -8 -65zM277 395q-44 0 -75.5 -25t-36.5 -61h215q-1 38 -30 62t-73 24zM355 695h74
q0 -66 -40 -108t-113 -42q-70 0 -109 42.5t-39 107.5h72q4 -30 25 -49.5t51 -19.5q32 0 53 19t26 50z" />
    <glyph glyph-name="Edotaccent" unicode="&#x116;" horiz-adv-x="518" 
d="M462 0h-387v680h387v-137h-245v-132h225v-137h-225v-137h245v-137zM196 818q0 34 23 57.5t57 23.5q35 0 57.5 -23.5t22.5 -57.5t-22.5 -57t-57.5 -23q-34 0 -57 23t-23 57z" />
    <glyph glyph-name="edotaccent" unicode="&#x117;" horiz-adv-x="535" 
d="M503 206h-338q9 -43 44.5 -68.5t87.5 -25.5q96 0 169 47v-131q-75 -39 -180 -39q-112 0 -184.5 72.5t-72.5 187.5q0 110 71 184.5t178 74.5q105 0 169 -68.5t64 -168.5q0 -33 -8 -65zM277 395q-44 0 -75.5 -25t-36.5 -61h215q-1 38 -30 62t-73 24zM203 641q0 34 23 57.5
t57 23.5q35 0 57.5 -23.5t22.5 -57.5t-22.5 -57t-57.5 -23q-34 0 -57 23t-23 57z" />
    <glyph glyph-name="Eogonek" unicode="&#x118;" horiz-adv-x="518" 
d="M462 0l-85 -52q-30 -19 -30 -39q0 -24 29 -24q33 0 63 28v-91q-38 -19 -84 -19q-57 0 -88 21.5t-31 62.5q0 54 56 84l56 29h-273v680h387v-137h-245v-132h225v-137h-225v-137h245v-137z" />
    <glyph glyph-name="eogonek" unicode="&#x119;" horiz-adv-x="535" 
d="M503 206h-338q9 -43 44.5 -68.5t87.5 -25.5q96 0 169 47v-131q-30 -16 -80 -28h-1l-84 -52q-30 -19 -30 -39q0 -24 29 -24q33 0 63 28v-91q-38 -19 -84 -19q-57 0 -88 21.5t-31 62.5q0 54 56 84l38 20q-100 10 -162.5 80.5t-62.5 177.5q0 110 71 184.5t178 74.5
q105 0 169 -68.5t64 -168.5q0 -33 -8 -65zM277 395q-44 0 -75.5 -25t-36.5 -61h215q-1 38 -30 62t-73 24z" />
    <glyph glyph-name="Ecaron" unicode="&#x11a;" horiz-adv-x="518" 
d="M462 0h-387v680h387v-137h-245v-132h225v-137h-225v-137h245v-137zM337 726h-140l-88 147h101l57 -92l57 92h100z" />
    <glyph glyph-name="ecaron" unicode="&#x11b;" horiz-adv-x="535" 
d="M503 206h-338q9 -43 44.5 -68.5t87.5 -25.5q96 0 169 47v-131q-75 -39 -180 -39q-112 0 -184.5 72.5t-72.5 187.5q0 110 71 184.5t178 74.5q105 0 169 -68.5t64 -168.5q0 -33 -8 -65zM277 395q-44 0 -75.5 -25t-36.5 -61h215q-1 38 -30 62t-73 24zM350 549h-140l-88 147
h101l57 -92l57 92h100z" />
    <glyph glyph-name="Gcircumflex" unicode="&#x11c;" horiz-adv-x="724" 
d="M569 659v-154q-81 44 -184 44q-89 0 -147.5 -59t-58.5 -150q0 -87 56 -148t141 -61q78 0 126 45t48 104q0 2 -0.5 7.5t-0.5 7.5h-176v129h322q9 -47 9 -99q0 -142 -88 -239t-244 -97q-147 0 -243 100.5t-96 250.5t100 250.5t252 100.5q112 0 184 -32zM308 873h140
l87 -147h-100l-57 91l-57 -91h-101z" />
    <glyph glyph-name="gcircumflex" unicode="&#x11d;" horiz-adv-x="615" 
d="M420 498h136v-438q0 -135 -72.5 -205t-204.5 -70q-99 0 -167 37v141q77 -50 168 -50q62 0 101 34.5t39 94.5v35q-58 -73 -157 -73q-102 0 -168 71.5t-66 179.5t66 180.5t167 72.5q102 0 158 -76v66zM412 256q0 49 -34 84t-85 35q-50 0 -84 -35t-34 -84q0 -50 34 -84.5
t84 -34.5q51 0 85 34.5t34 84.5zM245 696h140l87 -147h-100l-57 91l-57 -91h-101z" />
    <glyph glyph-name="Gbreve" unicode="&#x11e;" horiz-adv-x="724" 
d="M569 659v-154q-81 44 -184 44q-89 0 -147.5 -59t-58.5 -150q0 -87 56 -148t141 -61q78 0 126 45t48 104q0 2 -0.5 7.5t-0.5 7.5h-176v129h322q9 -47 9 -99q0 -142 -88 -239t-244 -97q-147 0 -243 100.5t-96 250.5t100 250.5t252 100.5q112 0 184 -32zM463 872h74
q0 -66 -40 -108t-113 -42q-70 0 -109 42.5t-39 107.5h72q4 -30 25 -49.5t51 -19.5q32 0 53 19t26 50z" />
    <glyph glyph-name="gbreve" unicode="&#x11f;" horiz-adv-x="615" 
d="M420 498h136v-438q0 -135 -72.5 -205t-204.5 -70q-99 0 -167 37v141q77 -50 168 -50q62 0 101 34.5t39 94.5v35q-58 -73 -157 -73q-102 0 -168 71.5t-66 179.5t66 180.5t167 72.5q102 0 158 -76v66zM412 256q0 49 -34 84t-85 35q-50 0 -84 -35t-34 -84q0 -50 34 -84.5
t84 -34.5q51 0 85 34.5t34 84.5zM393 695h74q0 -66 -40 -108t-113 -42q-70 0 -109 42.5t-39 107.5h72q4 -30 25 -49.5t51 -19.5q32 0 53 19t26 50z" />
    <glyph glyph-name="Gdotaccent" unicode="&#x120;" horiz-adv-x="724" 
d="M569 659v-154q-81 44 -184 44q-89 0 -147.5 -59t-58.5 -150q0 -87 56 -148t141 -61q78 0 126 45t48 104q0 2 -0.5 7.5t-0.5 7.5h-176v129h322q9 -47 9 -99q0 -142 -88 -239t-244 -97q-147 0 -243 100.5t-96 250.5t100 250.5t252 100.5q112 0 184 -32zM300 818
q0 34 23 57.5t57 23.5q35 0 57.5 -23.5t22.5 -57.5t-22.5 -57t-57.5 -23q-34 0 -57 23t-23 57z" />
    <glyph glyph-name="gdotaccent" unicode="&#x121;" horiz-adv-x="615" 
d="M420 498h136v-438q0 -135 -72.5 -205t-204.5 -70q-99 0 -167 37v141q77 -50 168 -50q62 0 101 34.5t39 94.5v35q-58 -73 -157 -73q-102 0 -168 71.5t-66 179.5t66 180.5t167 72.5q102 0 158 -76v66zM412 256q0 49 -34 84t-85 35q-50 0 -84 -35t-34 -84q0 -50 34 -84.5
t84 -34.5q51 0 85 34.5t34 84.5zM230 641q0 34 23 57.5t57 23.5q35 0 57.5 -23.5t22.5 -57.5t-22.5 -57t-57.5 -23q-34 0 -57 23t-23 57z" />
    <glyph glyph-name="Gcommaaccent" unicode="&#x122;" horiz-adv-x="724" 
d="M569 659v-154q-81 44 -184 44q-89 0 -147.5 -59t-58.5 -150q0 -87 56 -148t141 -61q78 0 126 45t48 104q0 2 -0.5 7.5t-0.5 7.5h-176v129h322q9 -47 9 -99q0 -142 -88 -239t-244 -97q-147 0 -243 100.5t-96 250.5t100 250.5t252 100.5q112 0 184 -32zM397 -215h-105
l24 153h127z" />
    <glyph glyph-name="gcommaaccent" unicode="&#x123;" horiz-adv-x="615" 
d="M420 498h136v-438q0 -135 -72.5 -205t-204.5 -70q-99 0 -167 37v141q77 -50 168 -50q62 0 101 34.5t39 94.5v35q-58 -73 -157 -73q-102 0 -168 71.5t-66 179.5t66 180.5t167 72.5q102 0 158 -76v66zM412 256q0 49 -34 84t-85 35q-50 0 -84 -35t-34 -84q0 -50 34 -84.5
t84 -34.5q51 0 85 34.5t34 84.5zM294 700h105l-23 -153h-128z" />
    <glyph glyph-name="Hcircumflex" unicode="&#x124;" horiz-adv-x="744" 
d="M528 0v274h-311v-274h-142v680h142v-269h311v269h142v-680h-142zM302 873h140l87 -147h-100l-57 91l-57 -91h-101z" />
    <glyph glyph-name="hcircumflex" unicode="&#x125;" horiz-adv-x="552" 
d="M193 690v-255q46 73 131 73q79 0 127.5 -53t48.5 -134v-321h-137v283q0 41 -23 66.5t-61 25.5t-61 -23t-25 -63v-289h-136v690h136zM208 870h140l87 -147h-100l-57 91l-57 -91h-101z" />
    <glyph glyph-name="Hbar" unicode="&#x126;" horiz-adv-x="744" 
d="M528 0v274h-311v-274h-142v680h142v-84h311v84h142v-680h-142zM217 411h311v96h-311v-96z" />
    <glyph glyph-name="hbar" unicode="&#x127;" horiz-adv-x="552" 
d="M193 690v-63h117v-81h-117v-111q46 73 131 73q79 0 127.5 -53t48.5 -134v-321h-137v283q0 41 -23 66.5t-61 25.5t-61 -23t-25 -63v-289h-136v546h-46v81h46v63h136z" />
    <glyph glyph-name="Itilde" unicode="&#x128;" horiz-adv-x="292" 
d="M75 0v680h142v-680h-142zM294 835v-92q-39 25 -75 25q-25 0 -73 -20t-78 -20q-43 0 -70 21v92q27 -25 70 -25q23 0 68.5 20.5t82.5 20.5q39 0 75 -22z" />
    <glyph glyph-name="itilde" unicode="&#x129;" horiz-adv-x="250" 
d="M193 498v-498h-136v498h136zM273 658v-92q-39 25 -75 25q-25 0 -73 -20t-78 -20q-43 0 -70 21v92q27 -25 70 -25q23 0 68.5 20.5t82.5 20.5q39 0 75 -22z" />
    <glyph glyph-name="Imacron" unicode="&#x12a;" horiz-adv-x="292" 
d="M75 0v680h142v-680h-142zM-2 846h297v-90h-297v90z" />
    <glyph glyph-name="imacron" unicode="&#x12b;" horiz-adv-x="250" 
d="M193 498v-498h-136v498h136zM-23 669h297v-90h-297v90z" />
    <glyph glyph-name="Ibreve" unicode="&#x12c;" horiz-adv-x="292" 
d="M75 0v680h142v-680h-142zM223 872h74q0 -66 -40 -108t-113 -42q-70 0 -109 42.5t-39 107.5h72q4 -30 25 -49.5t51 -19.5q32 0 53 19t26 50z" />
    <glyph glyph-name="ibreve" unicode="&#x12d;" horiz-adv-x="250" 
d="M193 498v-498h-136v498h136zM202 695h74q0 -66 -40 -108t-113 -42q-70 0 -109 42.5t-39 107.5h72q4 -30 25 -49.5t51 -19.5q32 0 53 19t26 50z" />
    <glyph glyph-name="Iogonek" unicode="&#x12e;" horiz-adv-x="292" 
d="M75 0v680h142v-680l-86 -52q-29 -18 -29 -39q0 -24 28 -24q32 0 64 28v-91q-38 -19 -84 -19q-57 0 -88.5 21.5t-31.5 62.5q0 54 57 84l57 29h-29z" />
    <glyph glyph-name="iogonek" unicode="&#x12f;" horiz-adv-x="251" 
d="M193 498v-498l-85 -52q-30 -19 -30 -39q0 -24 29 -24q33 0 63 28v-91q-38 -19 -84 -19q-57 0 -88 21.5t-31 62.5q0 54 56 84l56 29h-22v498h136zM45 643q0 34 23 57.5t57 23.5q35 0 57.5 -23.5t22.5 -57.5t-22.5 -57t-57.5 -23q-34 0 -57 23t-23 57z" />
    <glyph glyph-name="Idotaccent" unicode="&#x130;" horiz-adv-x="292" 
d="M75 0v680h142v-680h-142zM66 818q0 34 23 57.5t57 23.5q35 0 57.5 -23.5t22.5 -57.5t-22.5 -57t-57.5 -23q-34 0 -57 23t-23 57z" />
    <glyph glyph-name="dotlessi" unicode="&#x131;" horiz-adv-x="250" 
d="M193 498v-498h-136v498h136z" />
    <glyph glyph-name="IJ" unicode="&#x132;" horiz-adv-x="738" 
d="M75 0v680h142v-680h-142zM527 680h142v-455q0 -236 -208 -236q-41 0 -82 11.5t-64 27.5v156q56 -53 124 -53q88 0 88 98v451z" />
    <glyph glyph-name="ij" unicode="&#x133;" horiz-adv-x="501" 
d="M193 498v-498h-136v498h136zM45 643q0 34 23 57.5t57 23.5q35 0 57.5 -23.5t22.5 -57.5t-22.5 -57t-57.5 -23q-34 0 -57 23t-23 57zM307 -35v533h136v-534q0 -88 -44.5 -133.5t-120.5 -45.5q-30 0 -47 7v137q16 -10 34 -10q42 0 42 46zM295 643q0 34 23.5 57.5t57.5 23.5
t57.5 -23.5t23.5 -57.5t-23.5 -57t-57.5 -23t-57.5 23t-23.5 57z" />
    <glyph glyph-name="Jcircumflex" unicode="&#x134;" horiz-adv-x="446" 
d="M235 680h142v-455q0 -236 -208 -236q-41 0 -82 11.5t-64 27.5v156q56 -53 124 -53q88 0 88 98v451zM231 873h140l87 -147h-100l-57 91l-57 -91h-101z" />
    <glyph glyph-name="jcircumflex" unicode="&#x135;" horiz-adv-x="250" 
d="M57 -35v533h136v-534q0 -88 -44.5 -133.5t-120.5 -45.5q-29 0 -47 7v137q16 -10 34 -10q42 0 42 46zM56 696h140l87 -147h-100l-57 91l-57 -91h-101z" />
    <glyph glyph-name="Kcommaaccent" unicode="&#x136;" horiz-adv-x="572" 
d="M75 0v680h142v-275l175 275h166l-184 -279l194 -401h-166l-130 280l-55 -78v-202h-142zM321 -215h-105l24 153h127z" />
    <glyph glyph-name="kcommaaccent" unicode="&#x137;" horiz-adv-x="495" 
d="M57 0v690h136v-380l136 188h160l-150 -201l150 -297h-158l-94 200l-44 -60v-140h-136zM280 -215h-105l24 153h127z" />
    <glyph glyph-name="kgreenlandic" unicode="&#x138;" horiz-adv-x="495" 
d="M57 0v498h136v-188l136 188h160l-150 -201l150 -297h-158l-94 200l-44 -60v-140h-136z" />
    <glyph glyph-name="Lacute" unicode="&#x139;" horiz-adv-x="480" 
d="M462 0h-387v680h142v-543h245v-137zM171 873h113l-86 -147h-100z" />
    <glyph glyph-name="lacute" unicode="&#x13a;" horiz-adv-x="251" 
d="M194 690v-690h-137v690h137zM150 870h113l-86 -147h-100z" />
    <glyph glyph-name="Lcommaaccent" unicode="&#x13b;" horiz-adv-x="480" 
d="M462 0h-387v680h142v-543h245v-137zM283 -215h-105l24 153h127z" />
    <glyph glyph-name="lcommaaccent" unicode="&#x13c;" horiz-adv-x="251" 
d="M194 690v-690h-137v690h137zM142 -215h-105l24 153h127z" />
    <glyph glyph-name="Lcaron" unicode="&#x13d;" horiz-adv-x="482" 
d="M462 0h-387v680h142v-543h245v-137zM421 527h-105l24 153h127z" />
    <glyph glyph-name="lcaron" unicode="&#x13e;" horiz-adv-x="251" 
d="M194 690v-690h-137v690h137zM341 528h-105l24 153h127z" />
    <glyph glyph-name="Ldot" unicode="&#x13f;" horiz-adv-x="483" 
d="M462 0h-387v680h142v-543h245v-137zM297 367q0 37 24.5 62t61.5 25q38 0 63 -24.5t25 -62.5q0 -37 -25 -61.5t-63 -24.5q-37 0 -61.5 24.5t-24.5 61.5z" />
    <glyph glyph-name="ldot" unicode="&#x140;" horiz-adv-x="405" 
d="M194 690v-690h-137v690h137zM241 367q0 37 24.5 62t61.5 25q38 0 63 -24.5t25 -62.5q0 -37 -25 -61.5t-63 -24.5q-37 0 -61.5 24.5t-24.5 61.5z" />
    <glyph glyph-name="Lslash" unicode="&#x141;" horiz-adv-x="486" 
d="M468 0h-387v258l-65 -33v99l65 33v323h142v-254l152 77v-99l-152 -77v-190h245v-137z" />
    <glyph glyph-name="lslash" unicode="&#x142;" horiz-adv-x="303" 
d="M216 690v-264l83 42v-98l-83 -43v-327h-137v259l-67 -34v99l67 33v333h137z" />
    <glyph glyph-name="Nacute" unicode="&#x143;" horiz-adv-x="715" 
d="M498 0l-277 393v-393h-142v595l-47 75v10h168l298 -433v433h142v-680h-142zM383 873h113l-86 -147h-100z" />
    <glyph glyph-name="nacute" unicode="&#x144;" horiz-adv-x="552" 
d="M193 498v-63q46 73 131 73q79 0 127.5 -53t48.5 -134v-321h-137v283q0 41 -23 66.5t-62 25.5q-37 0 -60 -23t-25 -63v-289h-136v498h136zM307 696h113l-86 -147h-100z" />
    <glyph glyph-name="Ncommaaccent" unicode="&#x145;" horiz-adv-x="715" 
d="M498 0l-277 393v-393h-142v595l-47 75v10h168l298 -433v433h142v-680h-142zM381 -215h-105l24 153h127z" />
    <glyph glyph-name="ncommaaccent" unicode="&#x146;" horiz-adv-x="552" 
d="M193 498v-63q46 73 131 73q79 0 127.5 -53t48.5 -134v-321h-137v283q0 41 -23 66.5t-62 25.5q-37 0 -60 -23t-25 -63v-289h-136v498h136zM292 -215h-105l24 153h127z" />
    <glyph glyph-name="Ncaron" unicode="&#x147;" horiz-adv-x="715" 
d="M498 0l-277 393v-393h-142v595l-47 75v10h168l298 -433v433h142v-680h-142zM431 726h-140l-88 147h101l57 -92l57 92h100z" />
    <glyph glyph-name="ncaron" unicode="&#x148;" horiz-adv-x="552" 
d="M193 498v-63q46 73 131 73q79 0 127.5 -53t48.5 -134v-321h-137v283q0 41 -23 66.5t-62 25.5q-37 0 -60 -23t-25 -63v-289h-136v498h136zM348 549h-140l-88 147h101l57 -92l57 92h100z" />
    <glyph glyph-name="napostrophe" unicode="&#x149;" horiz-adv-x="552" 
d="M193 498v-63q46 73 131 73q79 0 127.5 -53t48.5 -134v-321h-137v283q0 41 -23 66.5t-62 25.5q-37 0 -60 -23t-25 -63v-289h-136v498h136zM88 527h-105l24 153h127z" />
    <glyph glyph-name="Eng" unicode="&#x14a;" horiz-adv-x="715" 
d="M500 -35v38l-279 390v-393h-142v595l-47 75v10h168l298 -433v433h142v-716q0 -88 -46 -133.5t-123 -45.5q-29 0 -47 7v137q16 -10 34 -10q42 0 42 46z" />
    <glyph glyph-name="eng" unicode="&#x14b;" horiz-adv-x="552" 
d="M363 -35v318q0 41 -23 66.5t-62 25.5q-37 0 -60 -23t-25 -63v-289h-136v498h136v-63q46 73 131 73q79 0 127.5 -53t48.5 -134v-357q0 -88 -44.5 -133.5t-121.5 -45.5q-30 0 -47 7v137q16 -10 34 -10q42 0 42 46z" />
    <glyph glyph-name="Omacron" unicode="&#x14c;" horiz-adv-x="766" 
d="M33 340q0 149 100.5 250t249.5 101t249.5 -101t100.5 -250t-100.5 -250t-249.5 -101t-249.5 101t-100.5 250zM179 340q0 -87 58.5 -148t145.5 -61q86 0 144.5 61t58.5 148t-58.5 148t-144.5 61t-145 -61t-59 -148zM234 846h297v-90h-297v90z" />
    <glyph glyph-name="omacron" unicode="&#x14d;" horiz-adv-x="574" 
d="M28 249q0 109 75 184t184 75t184 -75t75 -184q0 -110 -75 -185t-184 -75t-184 75t-75 185zM166 249q0 -52 35 -89.5t86 -37.5q52 0 86 37t34 90t-34 89.5t-86 36.5q-51 0 -86 -37t-35 -89zM139 669h297v-90h-297v90z" />
    <glyph glyph-name="Obreve" unicode="&#x14e;" horiz-adv-x="766" 
d="M33 340q0 149 100.5 250t249.5 101t249.5 -101t100.5 -250t-100.5 -250t-249.5 -101t-249.5 101t-100.5 250zM179 340q0 -87 58.5 -148t145.5 -61q86 0 144.5 61t58.5 148t-58.5 148t-144.5 61t-145 -61t-59 -148zM459 872h74q0 -66 -40 -108t-113 -42q-70 0 -109 42.5
t-39 107.5h72q4 -30 25 -49.5t51 -19.5q32 0 53 19t26 50z" />
    <glyph glyph-name="obreve" unicode="&#x14f;" horiz-adv-x="574" 
d="M28 249q0 109 75 184t184 75t184 -75t75 -184q0 -110 -75 -185t-184 -75t-184 75t-75 185zM166 249q0 -52 35 -89.5t86 -37.5q52 0 86 37t34 90t-34 89.5t-86 36.5q-51 0 -86 -37t-35 -89zM364 695h74q0 -66 -40 -108t-113 -42q-70 0 -109 42.5t-39 107.5h72
q4 -30 25 -49.5t51 -19.5q32 0 53 19t26 50z" />
    <glyph glyph-name="Ohungarumlaut" unicode="&#x150;" horiz-adv-x="766" 
d="M33 340q0 149 100.5 250t249.5 101t249.5 -101t100.5 -250t-100.5 -250t-249.5 -101t-249.5 101t-100.5 250zM179 340q0 -87 58.5 -148t145.5 -61q86 0 144.5 61t58.5 148t-58.5 148t-144.5 61t-145 -61t-59 -148zM332 873h113l-86 -147h-100zM510 873h112l-86 -147h-100
z" />
    <glyph glyph-name="ohungarumlaut" unicode="&#x151;" horiz-adv-x="574" 
d="M28 249q0 109 75 184t184 75t184 -75t75 -184q0 -110 -75 -185t-184 -75t-184 75t-75 185zM166 249q0 -52 35 -89.5t86 -37.5q52 0 86 37t34 90t-34 89.5t-86 36.5q-51 0 -86 -37t-35 -89zM234 696h113l-86 -147h-100zM412 696h112l-86 -147h-100z" />
    <glyph glyph-name="OE" unicode="&#x152;" horiz-adv-x="1033" 
d="M977 0h-387v68q-85 -79 -207 -79q-149 0 -249.5 101t-100.5 250t100.5 250t249.5 101q120 0 207 -79v68h387v-137h-245v-132h225v-137h-225v-137h245v-137zM179 340q0 -87 58.5 -148t145.5 -61q86 0 144.5 61t58.5 148t-58.5 148t-144.5 61t-145 -61t-59 -148z" />
    <glyph glyph-name="oe" unicode="&#x153;" horiz-adv-x="918" 
d="M887 206h-338q8 -43 44 -68.5t88 -25.5q94 0 169 47v-131q-76 -39 -181 -39q-121 0 -193 88q-33 -42 -83 -65t-106 -23q-114 0 -186.5 76.5t-72.5 183.5q0 109 75 184t184 75q118 0 190 -87q69 87 184 87q106 0 169.5 -68.5t63.5 -168.5q0 -37 -7 -65zM166 249
q0 -52 35 -89.5t86 -37.5q52 0 86 37t34 90t-34 89.5t-86 36.5q-51 0 -86 -37t-35 -89zM660 395q-43 0 -75 -25t-37 -61h216q-2 38 -31 62t-73 24z" />
    <glyph glyph-name="Racute" unicode="&#x154;" horiz-adv-x="593" 
d="M75 0v680h235q102 0 163.5 -52.5t61.5 -145.5q0 -69 -34.5 -113t-88.5 -59q62 -32 101 -114.5t51 -195.5h-147q-19 115 -62 184t-103 69h-35v-253h-142zM389 466q0 36 -22 56.5t-57 20.5h-93v-153h93q35 0 57 20t22 56zM298 873h113l-86 -147h-100z" />
    <glyph glyph-name="racute" unicode="&#x155;" horiz-adv-x="364" 
d="M193 498v-54q42 64 118 64q23 0 39 -3v-145q-32 15 -73 15q-36 0 -59 -23t-25 -63v-289h-136v498h136zM206 696h113l-86 -147h-100z" />
    <glyph glyph-name="Rcommaaccent" unicode="&#x156;" horiz-adv-x="593" 
d="M75 0v680h235q102 0 163.5 -52.5t61.5 -145.5q0 -69 -34.5 -113t-88.5 -59q62 -32 101 -114.5t51 -195.5h-147q-19 115 -62 184t-103 69h-35v-253h-142zM389 466q0 36 -22 56.5t-57 20.5h-93v-153h93q35 0 57 20t22 56zM326 -215h-105l24 153h127z" />
    <glyph glyph-name="rcommaaccent" unicode="&#x157;" horiz-adv-x="364" 
d="M193 498v-54q42 64 118 64q23 0 39 -3v-145q-32 15 -73 15q-36 0 -59 -23t-25 -63v-289h-136v498h136zM142 -215h-105l24 153h127z" />
    <glyph glyph-name="Rcaron" unicode="&#x158;" horiz-adv-x="593" 
d="M75 0v680h235q102 0 163.5 -52.5t61.5 -145.5q0 -69 -34.5 -113t-88.5 -59q62 -32 101 -114.5t51 -195.5h-147q-19 115 -62 184t-103 69h-35v-253h-142zM389 466q0 36 -22 56.5t-57 20.5h-93v-153h93q35 0 57 20t22 56zM359 726h-140l-88 147h101l57 -92l57 92h100z" />
    <glyph glyph-name="rcaron" unicode="&#x159;" horiz-adv-x="364" 
d="M193 498v-54q42 64 118 64q23 0 39 -3v-145q-32 15 -73 15q-36 0 -59 -23t-25 -63v-289h-136v498h136zM269 549h-140l-88 147h101l57 -92l57 92h100z" />
    <glyph glyph-name="Sacute" unicode="&#x15a;" horiz-adv-x="492" 
d="M424 660v-151q-69 49 -147 49q-41 0 -62.5 -17t-21.5 -44q0 -33 51 -62l90 -54q123 -74 123 -188q0 -87 -58.5 -145.5t-170.5 -58.5q-88 0 -172 35v157q31 -24 76.5 -41.5t89.5 -17.5q40 0 62 17.5t22 45.5q0 35 -54 66l-93 55q-65 38 -91.5 82t-26.5 105q0 38 12.5 71.5
t39.5 63t74.5 46.5t110.5 17q77 0 146 -31zM295 873h113l-86 -147h-100z" />
    <glyph glyph-name="sacute" unicode="&#x15b;" horiz-adv-x="391" 
d="M335 491v-134q-54 33 -109 33q-24 0 -36.5 -10.5t-12.5 -25.5q0 -18 29 -36l72 -42q82 -49 82 -135q0 -67 -48 -109.5t-135 -42.5q-72 0 -130 25v136q18 -16 54.5 -30t65.5 -14q25 0 38.5 10.5t13.5 26.5q0 24 -33 43l-78 45q-72 42 -72 128q0 67 49.5 108t135.5 41
q60 0 114 -17zM233 696h113l-86 -147h-100z" />
    <glyph glyph-name="Scircumflex" unicode="&#x15c;" horiz-adv-x="492" 
d="M424 660v-151q-69 49 -147 49q-41 0 -62.5 -17t-21.5 -44q0 -33 51 -62l90 -54q123 -74 123 -188q0 -87 -58.5 -145.5t-170.5 -58.5q-88 0 -172 35v157q31 -24 76.5 -41.5t89.5 -17.5q40 0 62 17.5t22 45.5q0 35 -54 66l-93 55q-65 38 -91.5 82t-26.5 105q0 38 12.5 71.5
t39.5 63t74.5 46.5t110.5 17q77 0 146 -31zM196 873h140l87 -147h-100l-57 91l-57 -91h-101z" />
    <glyph glyph-name="scircumflex" unicode="&#x15d;" horiz-adv-x="391" 
d="M335 491v-134q-54 33 -109 33q-24 0 -36.5 -10.5t-12.5 -25.5q0 -18 29 -36l72 -42q82 -49 82 -135q0 -67 -48 -109.5t-135 -42.5q-72 0 -130 25v136q18 -16 54.5 -30t65.5 -14q25 0 38.5 10.5t13.5 26.5q0 24 -33 43l-78 45q-72 42 -72 128q0 67 49.5 108t135.5 41
q60 0 114 -17zM137 696h140l87 -147h-100l-57 91l-57 -91h-101z" />
    <glyph glyph-name="Scedilla" unicode="&#x15e;" horiz-adv-x="492" 
d="M241 -152h-134l64 145q-63 9 -115 31v157q31 -24 76.5 -41.5t89.5 -17.5q40 0 62 17.5t22 45.5q0 35 -54 66l-93 55q-65 38 -91.5 82t-26.5 105q0 38 12.5 71.5t39.5 63t74.5 46.5t110.5 17q77 0 146 -31v-151q-69 49 -147 49q-41 0 -62.5 -17t-21.5 -44q0 -33 51 -62
l90 -54q123 -74 123 -188q0 -72 -42 -126.5t-122 -70.5z" />
    <glyph glyph-name="scedilla" unicode="&#x15f;" horiz-adv-x="391" 
d="M198 -152h-134l64 145q-49 7 -81 21v136q18 -16 54.5 -30t65.5 -14q25 0 38.5 10.5t13.5 26.5q0 24 -33 43l-78 45q-72 42 -72 128q0 67 49.5 108t135.5 41q60 0 114 -17v-134q-54 33 -109 33q-24 0 -36.5 -10.5t-12.5 -25.5q0 -18 29 -36l72 -42q82 -49 82 -135
q0 -51 -28.5 -89t-80.5 -53z" />
    <glyph glyph-name="Scaron" unicode="&#x160;" horiz-adv-x="492" 
d="M424 660v-151q-69 49 -147 49q-41 0 -62.5 -17t-21.5 -44q0 -33 51 -62l90 -54q123 -74 123 -188q0 -87 -58.5 -145.5t-170.5 -58.5q-88 0 -172 35v157q31 -24 76.5 -41.5t89.5 -17.5q40 0 62 17.5t22 45.5q0 35 -54 66l-93 55q-65 38 -91.5 82t-26.5 105q0 38 12.5 71.5
t39.5 63t74.5 46.5t110.5 17q77 0 146 -31zM333 726h-140l-88 147h101l57 -92l57 92h100z" />
    <glyph glyph-name="scaron" unicode="&#x161;" horiz-adv-x="391" 
d="M335 491v-134q-54 33 -109 33q-24 0 -36.5 -10.5t-12.5 -25.5q0 -18 29 -36l72 -42q82 -49 82 -135q0 -67 -48 -109.5t-135 -42.5q-72 0 -130 25v136q18 -16 54.5 -30t65.5 -14q25 0 38.5 10.5t13.5 26.5q0 24 -33 43l-78 45q-72 42 -72 128q0 67 49.5 108t135.5 41
q60 0 114 -17zM277 549h-140l-88 147h101l57 -92l57 92h100z" />
    <glyph glyph-name="Tcommaaccent" unicode="&#x162;" horiz-adv-x="512" 
d="M185 0v543h-165v137h472v-137h-165v-543h-13l-53 -152h-134l68 152h-10z" />
    <glyph glyph-name="tcommaaccent" unicode="&#x163;" horiz-adv-x="329" 
d="M168 -152h-134l68 152h-7v382h-76v116h84v109l128 29v-138h84v-116h-84v-382h-10z" />
    <glyph glyph-name="Tcaron" unicode="&#x164;" horiz-adv-x="512" 
d="M185 0v543h-165v137h472v-137h-165v-543h-142zM326 726h-140l-88 147h101l57 -92l57 92h100z" />
    <glyph glyph-name="tcaron" unicode="&#x165;" horiz-adv-x="329" 
d="M231 0h-136v382h-76v116h84v109l128 29v-138h84v-116h-84v-382zM380 528h-105l24 153h127z" />
    <glyph glyph-name="Tbar" unicode="&#x166;" horiz-adv-x="518" 
d="M111 380h77v163h-165v137h472v-137h-165v-163h77v-89h-77v-291h-142v291h-77v89z" />
    <glyph glyph-name="tbar" unicode="&#x167;" horiz-adv-x="337" 
d="M24 272h74v110h-75v116h83v109l129 29v-138h83v-116h-83v-110h82v-89h-82v-183h-137v183h-74v89z" />
    <glyph glyph-name="Utilde" unicode="&#x168;" horiz-adv-x="654" 
d="M445 680h142v-424q0 -125 -70 -196t-190 -71t-189.5 71t-69.5 196v424h142v-436q0 -52 32 -84.5t85 -32.5q54 0 86 32.5t32 84.5v436zM475 835v-92q-39 25 -75 25q-25 0 -73 -20t-78 -20q-43 0 -70 21v92q27 -25 70 -25q23 0 68.5 20.5t82.5 20.5q39 0 75 -22z" />
    <glyph glyph-name="utilde" unicode="&#x169;" horiz-adv-x="555" 
d="M360 0v62q-42 -73 -131 -73q-78 0 -126 53t-48 134v322h136v-283q0 -42 22.5 -67.5t61.5 -25.5q37 0 60 23.5t25 62.5v290h136v-498h-136zM424 658v-92q-39 25 -75 25q-25 0 -73 -20t-78 -20q-43 0 -70 21v92q27 -25 70 -25q23 0 68.5 20.5t82.5 20.5q39 0 75 -22z" />
    <glyph glyph-name="Umacron" unicode="&#x16a;" horiz-adv-x="654" 
d="M445 680h142v-424q0 -125 -70 -196t-190 -71t-189.5 71t-69.5 196v424h142v-436q0 -52 32 -84.5t85 -32.5q54 0 86 32.5t32 84.5v436zM178 846h297v-90h-297v90z" />
    <glyph glyph-name="umacron" unicode="&#x16b;" horiz-adv-x="555" 
d="M360 0v62q-42 -73 -131 -73q-78 0 -126 53t-48 134v322h136v-283q0 -42 22.5 -67.5t61.5 -25.5q37 0 60 23.5t25 62.5v290h136v-498h-136zM127 669h297v-90h-297v90z" />
    <glyph glyph-name="Ubreve" unicode="&#x16c;" horiz-adv-x="654" 
d="M445 680h142v-424q0 -125 -70 -196t-190 -71t-189.5 71t-69.5 196v424h142v-436q0 -52 32 -84.5t85 -32.5q54 0 86 32.5t32 84.5v436zM403 872h74q0 -66 -40 -108t-113 -42q-70 0 -109 42.5t-39 107.5h72q4 -30 25 -49.5t51 -19.5q32 0 53 19t26 50z" />
    <glyph glyph-name="ubreve" unicode="&#x16d;" horiz-adv-x="555" 
d="M360 0v62q-42 -73 -131 -73q-78 0 -126 53t-48 134v322h136v-283q0 -42 22.5 -67.5t61.5 -25.5q37 0 60 23.5t25 62.5v290h136v-498h-136zM352 695h74q0 -66 -40 -108t-113 -42q-70 0 -109 42.5t-39 107.5h72q4 -30 25 -49.5t51 -19.5q32 0 53 19t26 50z" />
    <glyph glyph-name="Uring" unicode="&#x16e;" horiz-adv-x="654" 
d="M445 680h142v-424q0 -125 -70 -196t-190 -71t-189.5 71t-69.5 196v424h142v-436q0 -52 32 -84.5t85 -32.5q54 0 86 32.5t32 84.5v436zM218 816q0 41 28.5 70.5t77.5 29.5q52 0 81.5 -29t29.5 -71q0 -40 -29.5 -69.5t-81.5 -29.5q-49 0 -77.5 29.5t-28.5 69.5zM282 816
q0 -17 11.5 -29t30.5 -12q22 0 34 11.5t12 29.5t-12 30.5t-34 12.5q-19 0 -30.5 -12.5t-11.5 -30.5z" />
    <glyph glyph-name="uring" unicode="&#x16f;" horiz-adv-x="555" 
d="M360 0v62q-42 -73 -131 -73q-78 0 -126 53t-48 134v322h136v-283q0 -42 22.5 -67.5t61.5 -25.5q37 0 60 23.5t25 62.5v290h136v-498h-136zM167 639q0 41 28.5 70.5t77.5 29.5q52 0 81.5 -29t29.5 -71q0 -40 -29.5 -69.5t-81.5 -29.5q-49 0 -77.5 29.5t-28.5 69.5z
M231 639q0 -17 11.5 -29t30.5 -12q22 0 34 11.5t12 29.5t-12 30.5t-34 12.5q-19 0 -30.5 -12.5t-11.5 -30.5z" />
    <glyph glyph-name="Uhungarumlaut" unicode="&#x170;" horiz-adv-x="654" 
d="M445 680h142v-424q0 -125 -70 -196t-190 -71t-189.5 71t-69.5 196v424h142v-436q0 -52 32 -84.5t85 -32.5q54 0 86 32.5t32 84.5v436zM263 873h113l-86 -147h-100zM441 873h112l-86 -147h-100z" />
    <glyph glyph-name="uhungarumlaut" unicode="&#x171;" horiz-adv-x="555" 
d="M360 0v62q-42 -73 -131 -73q-78 0 -126 53t-48 134v322h136v-283q0 -42 22.5 -67.5t61.5 -25.5q37 0 60 23.5t25 62.5v290h136v-498h-136zM208 696h113l-86 -147h-100zM386 696h112l-86 -147h-100z" />
    <glyph glyph-name="Uogonek" unicode="&#x172;" horiz-adv-x="654" 
d="M445 680h142v-424q0 -103 -48.5 -170t-134.5 -88l-62 -48q-29 -24 -29 -41q0 -24 29 -24q31 0 63 28v-91q-38 -19 -84 -19q-57 0 -88 21.5t-31 62.5q0 51 56 86l28 18q-102 11 -160 81t-58 184v424h142v-436q0 -52 32 -84.5t85 -32.5q54 0 86 32.5t32 84.5v436z" />
    <glyph glyph-name="uogonek" unicode="&#x173;" horiz-adv-x="555" 
d="M360 0v62q-42 -73 -131 -73q-78 0 -126 53t-48 134v322h136v-283q0 -42 22.5 -67.5t61.5 -25.5q37 0 60 23.5t25 62.5v290h136v-498l-85 -52q-30 -19 -30 -39q0 -24 29 -24q33 0 63 28v-91q-38 -19 -84 -19q-57 0 -88 21.5t-31 62.5q0 54 56 84l56 29h-22z" />
    <glyph glyph-name="Wcircumflex" unicode="&#x174;" horiz-adv-x="959" 
d="M190 0l-182 680h158l115 -502l139 419l-23 83h143l139 -502l114 502h158l-182 -680h-159l-120 405l-141 -405h-159zM402 873h140l87 -147h-100l-57 91l-57 -91h-101z" />
    <glyph glyph-name="wcircumflex" unicode="&#x175;" horiz-adv-x="788" 
d="M9 498h141l88 -331l88 263l-24 68h135l116 -331l86 331h141l-148 -498h-142l-99 273l-92 -273h-143zM316 696h140l87 -147h-100l-57 91l-57 -91h-101z" />
    <glyph glyph-name="Ycircumflex" unicode="&#x176;" horiz-adv-x="572" 
d="M215 0v294l-219 386h160l130 -246l131 246h159l-219 -388v-292h-142zM217 873h140l87 -147h-100l-57 91l-57 -91h-101z" />
    <glyph glyph-name="ycircumflex" unicode="&#x177;" horiz-adv-x="523" 
d="M73 -205l114 243l-183 460h153l105 -288l111 288h154l-296 -703h-158zM196 696h140l87 -147h-100l-57 91l-57 -91h-101z" />
    <glyph glyph-name="Ydieresis" unicode="&#x178;" horiz-adv-x="572" 
d="M215 0v294l-219 386h160l130 -246l131 246h159l-219 -388v-292h-142zM109 818q0 31 21 52.5t52 21.5t51.5 -21.5t20.5 -52.5t-20.5 -52t-51.5 -21t-52 21t-21 52zM320 818q0 31 20.5 52.5t51.5 21.5q32 0 52.5 -21.5t20.5 -52.5t-20.5 -52t-52.5 -21q-31 0 -51.5 21
t-20.5 52z" />
    <glyph glyph-name="Zacute" unicode="&#x179;" horiz-adv-x="505" 
d="M464 559l-255 -422h255v-137h-428v121l249 422h-239v137h418v-121zM278 873h113l-86 -147h-100z" />
    <glyph glyph-name="zacute" unicode="&#x17a;" horiz-adv-x="416" 
d="M379 389l-184 -272h184v-117h-345v109l178 273h-168v116h335v-109zM235 696h113l-86 -147h-100z" />
    <glyph glyph-name="Zdotaccent" unicode="&#x17b;" horiz-adv-x="505" 
d="M464 559l-255 -422h255v-137h-428v121l249 422h-239v137h418v-121zM187 818q0 34 23 57.5t57 23.5q35 0 57.5 -23.5t22.5 -57.5t-22.5 -57t-57.5 -23q-34 0 -57 23t-23 57z" />
    <glyph glyph-name="zdotaccent" unicode="&#x17c;" horiz-adv-x="416" 
d="M379 389l-184 -272h184v-117h-345v109l178 273h-168v116h335v-109zM142 641q0 34 23 57.5t57 23.5q35 0 57.5 -23.5t22.5 -57.5t-22.5 -57t-57.5 -23q-34 0 -57 23t-23 57z" />
    <glyph glyph-name="Zcaron" unicode="&#x17d;" horiz-adv-x="505" 
d="M464 559l-255 -422h255v-137h-428v121l249 422h-239v137h418v-121zM330 726h-140l-88 147h101l57 -92l57 92h100z" />
    <glyph glyph-name="zcaron" unicode="&#x17e;" horiz-adv-x="416" 
d="M379 389l-184 -272h184v-117h-345v109l178 273h-168v116h335v-109zM287 549h-140l-88 147h101l57 -92l57 92h100z" />
    <glyph glyph-name="florin" unicode="&#x192;" 
d="M198 175v138h-113v93h113v117q0 86 49.5 131.5t134.5 45.5q31 0 51 -6v-136q-18 9 -46 9q-24 0 -38.5 -14.5t-14.5 -38.5v-108h113v-93h-113v-146q0 -86 -49.5 -132t-134.5 -46q-21 0 -51 6v137q20 -10 46 -10q24 0 38.5 15t14.5 38z" />
    <glyph glyph-name="AEacute" unicode="&#x1fc;" horiz-adv-x="917" 
d="M861 0h-387v145h-222l-97 -145h-174l469 680h411v-137h-245v-132h225v-137h-225v-137h245v-137zM329 282h145v218zM661 873h113l-86 -147h-100z" />
    <glyph glyph-name="aeacute" unicode="&#x1fd;" horiz-adv-x="832" 
d="M800 207h-338q9 -44 44.5 -69.5t87.5 -25.5q94 0 169 47v-131q-70 -39 -185 -39q-64 0 -114 22.5t-77 60.5q-27 -37 -73.5 -60t-105.5 -23q-93 0 -139 46.5t-46 115.5q0 68 46 114t120 46q66 0 109 -36v27q0 43 -25 64t-67 21q-66 0 -128 -37v129q70 29 144 29
q126 0 174 -78q70 78 179 78q105 0 169 -68.5t64 -168.5q0 -34 -8 -64zM157 151q0 -26 20.5 -44t49.5 -18t49 18t20 44t-20 44t-49 18t-49.5 -18t-20.5 -44zM574 395q-44 0 -75.5 -25t-37.5 -61h216q-1 38 -30 62t-73 24zM433 696h113l-86 -147h-100z" />
    <glyph glyph-name="Oslashacute" unicode="&#x1fe;" horiz-adv-x="766" 
d="M33 340q0 149 100.5 250t249.5 101q95 0 176 -46l48 66l67 -47l-49 -67q108 -102 108 -257q0 -149 -100.5 -250t-249.5 -101q-92 0 -172 43l-45 -62l-63 46l44 61q-114 101 -114 263zM179 340q0 -86 55 -143l239 329q-44 23 -90 23q-86 0 -145 -61t-59 -148zM586 340
q0 80 -50 136l-238 -326q40 -19 85 -19q86 0 144.5 61t58.5 148zM410 873h113l-86 -147h-100z" />
    <glyph glyph-name="oslashacute" unicode="&#x1ff;" horiz-adv-x="574" 
d="M28 249q0 109 75 184t184 75q65 0 121 -29l33 44l68 -46l-35 -47q72 -75 72 -181q0 -110 -75 -185t-184 -75q-63 0 -117 28l-34 -47l-63 46l33 45q-78 73 -78 188zM156 249q0 -45 27 -82l151 209q-23 10 -47 10q-56 0 -93.5 -40t-37.5 -97zM418 249q0 41 -24 73
l-148 -202q19 -8 41 -8q56 0 93.5 40t37.5 97zM317 696h113l-86 -147h-100z" />
    <glyph glyph-name="Scommaaccent" unicode="&#x218;" horiz-adv-x="492" 
d="M424 660v-151q-69 49 -147 49q-41 0 -62.5 -17t-21.5 -44q0 -33 51 -62l90 -54q123 -74 123 -188q0 -87 -58.5 -145.5t-170.5 -58.5q-88 0 -172 35v157q31 -24 76.5 -41.5t89.5 -17.5q40 0 62 17.5t22 45.5q0 35 -54 66l-93 55q-65 38 -91.5 82t-26.5 105q0 38 12.5 71.5
t39.5 63t74.5 46.5t110.5 17q77 0 146 -31zM261 -215h-105l24 153h127z" />
    <glyph glyph-name="scommaaccent" unicode="&#x219;" horiz-adv-x="391" 
d="M335 491v-134q-54 33 -109 33q-24 0 -36.5 -10.5t-12.5 -25.5q0 -18 29 -36l72 -42q82 -49 82 -135q0 -67 -48 -109.5t-135 -42.5q-72 0 -130 25v136q18 -16 54.5 -30t65.5 -14q25 0 38.5 10.5t13.5 26.5q0 24 -33 43l-78 45q-72 42 -72 128q0 67 49.5 108t135.5 41
q60 0 114 -17zM205 -215h-105l24 153h127z" />
    <glyph glyph-name="uni021A" unicode="&#x21a;" horiz-adv-x="512" 
d="M185 0v543h-165v137h472v-137h-165v-543h-142zM271 -215h-105l24 153h127z" />
    <glyph glyph-name="uni021B" unicode="&#x21b;" horiz-adv-x="329" 
d="M231 0h-136v382h-76v116h84v109l128 29v-138h84v-116h-84v-382zM179 -215h-105l24 153h127z" />
    <glyph glyph-name="dotlessj" unicode="&#x237;" horiz-adv-x="250" 
d="M57 -35v533h136v-534q0 -88 -44.5 -133.5t-120.5 -45.5q-29 0 -47 7v137q16 -10 34 -10q42 0 42 46z" />
    <glyph glyph-name="circumflex" unicode="&#x2c6;" horiz-adv-x="580" 
d="M220 696h140l87 -147h-100l-57 91l-57 -91h-101z" />
    <glyph glyph-name="caron" unicode="&#x2c7;" horiz-adv-x="580" 
d="M360 549h-140l-88 147h101l57 -92l57 92h100z" />
    <glyph glyph-name="breve" unicode="&#x2d8;" horiz-adv-x="580" 
d="M366 695h74q0 -66 -40 -108t-113 -42q-70 0 -109 42.5t-39 107.5h72q4 -30 25 -49.5t51 -19.5q32 0 53 19t26 50z" />
    <glyph glyph-name="dotaccent" unicode="&#x2d9;" horiz-adv-x="580" 
d="M210 641q0 34 23 57.5t57 23.5q35 0 57.5 -23.5t22.5 -57.5t-22.5 -57t-57.5 -23q-34 0 -57 23t-23 57z" />
    <glyph glyph-name="ring" unicode="&#x2da;" horiz-adv-x="580" 
d="M181 639q0 41 28.5 70.5t77.5 29.5q52 0 81.5 -29t29.5 -71q0 -40 -29.5 -69.5t-81.5 -29.5q-49 0 -77.5 29.5t-28.5 69.5zM245 639q0 -17 11.5 -29t30.5 -12q22 0 34 11.5t12 29.5t-12 30.5t-34 12.5q-19 0 -30.5 -12.5t-11.5 -30.5z" />
    <glyph glyph-name="ogonek" unicode="&#x2db;" horiz-adv-x="580" 
d="M401 1l1 -1l-85 -52q-30 -19 -30 -39q0 -24 29 -24q33 0 63 28v-91q-38 -19 -84 -19q-57 0 -88 21.5t-31 62.5q0 54 56 84l113 58z" />
    <glyph glyph-name="tilde" unicode="&#x2dc;" horiz-adv-x="580" 
d="M438 658v-92q-39 25 -75 25q-25 0 -73 -20t-78 -20q-43 0 -70 21v92q27 -25 70 -25q23 0 68.5 20.5t82.5 20.5q39 0 75 -22z" />
    <glyph glyph-name="hungarumlaut" unicode="&#x2dd;" horiz-adv-x="580" 
d="M181 696h113l-86 -147h-100zM359 696h112l-86 -147h-100z" />
    <glyph glyph-name="pi" unicode="&#x3c0;" horiz-adv-x="628" 
d="M531 0h-137v382h-162v-382h-136v382h-76v116h594v-116h-83v-382z" />
    <glyph glyph-name="Wgrave" unicode="&#x1e80;" horiz-adv-x="959" 
d="M190 0l-182 680h158l115 -502l139 419l-23 83h143l139 -502l114 502h158l-182 -680h-159l-120 405l-141 -405h-159zM340 873h112l74 -147h-100z" />
    <glyph glyph-name="wgrave" unicode="&#x1e81;" horiz-adv-x="788" 
d="M9 498h141l88 -331l88 263l-24 68h135l116 -331l86 331h141l-148 -498h-142l-99 273l-92 -273h-143zM243 696h112l74 -147h-100z" />
    <glyph glyph-name="Wacute" unicode="&#x1e82;" horiz-adv-x="959" 
d="M190 0l-182 680h158l115 -502l139 419l-23 83h143l139 -502l114 502h158l-182 -680h-159l-120 405l-141 -405h-159zM480 873h113l-86 -147h-100z" />
    <glyph glyph-name="wacute" unicode="&#x1e83;" horiz-adv-x="788" 
d="M9 498h141l88 -331l88 263l-24 68h135l116 -331l86 331h141l-148 -498h-142l-99 273l-92 -273h-143zM402 696h113l-86 -147h-100z" />
    <glyph glyph-name="Wdieresis" unicode="&#x1e84;" horiz-adv-x="959" 
d="M190 0l-182 680h158l115 -502l139 419l-23 83h143l139 -502l114 502h158l-182 -680h-159l-120 405l-141 -405h-159zM294 818q0 31 21 52.5t52 21.5t51.5 -21.5t20.5 -52.5t-20.5 -52t-51.5 -21t-52 21t-21 52zM505 818q0 31 20.5 52.5t51.5 21.5q32 0 52.5 -21.5
t20.5 -52.5t-20.5 -52t-52.5 -21q-31 0 -51.5 21t-20.5 52z" />
    <glyph glyph-name="wdieresis" unicode="&#x1e85;" horiz-adv-x="788" 
d="M9 498h141l88 -331l88 263l-24 68h135l116 -331l86 331h141l-148 -498h-142l-99 273l-92 -273h-143zM208 641q0 31 21 52.5t52 21.5t51.5 -21.5t20.5 -52.5t-20.5 -52t-51.5 -21t-52 21t-21 52zM419 641q0 31 20.5 52.5t51.5 21.5q32 0 52.5 -21.5t20.5 -52.5t-20.5 -52
t-52.5 -21q-31 0 -51.5 21t-20.5 52z" />
    <glyph glyph-name="Ygrave" unicode="&#x1ef2;" horiz-adv-x="572" 
d="M215 0v294l-219 386h160l130 -246l131 246h159l-219 -388v-292h-142zM153 873h112l74 -147h-100z" />
    <glyph glyph-name="ygrave" unicode="&#x1ef3;" horiz-adv-x="523" 
d="M73 -205l114 243l-183 460h153l105 -288l111 288h154l-296 -703h-158zM132 696h112l74 -147h-100z" />
    <glyph glyph-name="endash" unicode="&#x2013;" horiz-adv-x="588" 
d="M53 339h482v-108h-482v108z" />
    <glyph glyph-name="emdash" unicode="&#x2014;" horiz-adv-x="728" 
d="M53 339h622v-108h-622v108z" />
    <glyph glyph-name="quoteleft" unicode="&#x2018;" horiz-adv-x="257" 
d="M92 680h125l-29 -278h-151z" />
    <glyph glyph-name="quoteright" unicode="&#x2019;" horiz-adv-x="253" 
d="M171 402h-126l29 278h151z" />
    <glyph glyph-name="quotesinglbase" unicode="&#x201a;" horiz-adv-x="267" 
d="M165 -115h-126l29 278h151z" />
    <glyph glyph-name="quotedblleft" unicode="&#x201c;" horiz-adv-x="479" 
d="M92 680h125l-29 -278h-151zM314 680h125l-29 -278h-151z" />
    <glyph glyph-name="quotedblright" unicode="&#x201d;" horiz-adv-x="475" 
d="M171 402h-126l29 278h151zM392 402h-126l29 278h151z" />
    <glyph glyph-name="quotedblbase" unicode="&#x201e;" horiz-adv-x="488" 
d="M165 -115h-126l29 278h151zM387 -115h-126l29 278h151z" />
    <glyph glyph-name="dagger" unicode="&#x2020;" horiz-adv-x="425" 
d="M258 235v-440h-90v440h-141v80h141v375h90v-375h140v-80h-140z" />
    <glyph glyph-name="daggerdbl" unicode="&#x2021;" horiz-adv-x="455" 
d="M271 118h143v-80h-143v-243h-90v243h-137v80h137v270h-141v80h141v222h90v-222h140v-80h-140v-270z" />
    <glyph glyph-name="bullet" unicode="&#x2022;" horiz-adv-x="392" 
d="M196 156q-58 0 -96 36.5t-38 91.5q0 56 38 92t96 36t96 -36t38 -92q0 -55 -38 -91.5t-96 -36.5z" />
    <glyph glyph-name="ellipsis" unicode="&#x2026;" horiz-adv-x="787" 
d="M39 82q0 41 26 67.5t66 26.5q41 0 67.5 -27t26.5 -67t-26.5 -66t-67.5 -26q-40 0 -66 26t-26 66zM301 82q0 41 26 67.5t66 26.5t66.5 -26.5t26.5 -67.5q0 -40 -26.5 -66t-66.5 -26t-66 26t-26 66zM562 82q0 41 26.5 67.5t66.5 26.5t66.5 -27t26.5 -67t-26.5 -66
t-66.5 -26t-66.5 26t-26.5 66z" />
    <glyph glyph-name="perthousand" unicode="&#x2030;" horiz-adv-x="1252" 
d="M244 0l302 680h102l-303 -680h-101zM194 595q-29 0 -45.5 -16.5t-16.5 -43.5v-116q0 -27 16.5 -43.5t45.5 -16.5t45.5 16.5t16.5 43.5v116q0 27 -16.5 43.5t-45.5 16.5zM194 690q69 0 114.5 -43t45.5 -109v-121q0 -67 -45.5 -110t-114.5 -43t-114.5 43t-45.5 110v121
q0 66 45.5 109t114.5 43zM692 320q-28 0 -44.5 -16t-16.5 -43v-116q0 -27 16.5 -43.5t44.5 -16.5q29 0 45.5 16.5t16.5 43.5v116q0 27 -16.5 43t-45.5 16zM692 416q69 0 114.5 -43t45.5 -109v-122q0 -66 -45.5 -109.5t-114.5 -43.5q-68 0 -113.5 43.5t-45.5 109.5v122
q0 66 45.5 109t113.5 43zM1057 320q-28 0 -44.5 -16t-16.5 -43v-116q0 -27 16.5 -43.5t44.5 -16.5q29 0 45.5 16.5t16.5 43.5v116q0 27 -16.5 43t-45.5 16zM1057 416q69 0 114.5 -43t45.5 -109v-122q0 -66 -45.5 -109.5t-114.5 -43.5q-68 0 -113.5 43.5t-45.5 109.5v122
q0 66 45.5 109t113.5 43z" />
    <glyph glyph-name="guilsinglleft" unicode="&#x2039;" horiz-adv-x="306" 
d="M32 284l164 228l70 -51l-101 -178l102 -177l-71 -50z" />
    <glyph glyph-name="guilsinglright" unicode="&#x203a;" horiz-adv-x="305" 
d="M274 283l-164 -228l-70 51l101 178l-102 177l71 50z" />
    <glyph glyph-name="fraction" unicode="&#x2044;" horiz-adv-x="200" 
d="M-102 0l302 680h102l-303 -680h-101z" />
    <glyph glyph-name="zerosuperior" unicode="&#x2070;" horiz-adv-x="380" 
d="M190 721q-29 0 -45.5 -16t-16.5 -43v-116q0 -27 16.5 -43.5t45.5 -16.5t45.5 16.5t16.5 43.5v116q0 27 -16.5 43t-45.5 16zM190 817q69 0 114.5 -43t45.5 -109v-122q0 -66 -45.5 -109.5t-114.5 -43.5t-114.5 43.5t-45.5 109.5v122q0 66 45.5 109t114.5 43z" />
    <glyph glyph-name="foursuperior" unicode="&#x2074;" horiz-adv-x="367" 
d="M345 474h-50v-77h-98v77h-183v83l183 254h98v-243h50v-94zM116 568h81v112z" />
    <glyph glyph-name="fivesuperior" unicode="&#x2075;" horiz-adv-x="320" 
d="M284 716h-125l-7 -44q67 -7 104 -43.5t37 -92.5q0 -71 -43.5 -108.5t-113.5 -37.5q-61 0 -105 22v118q47 -42 99 -42q25 0 43.5 14t18.5 34q0 27 -21.5 35t-61.5 8h-58l19 232h214v-95z" />
    <glyph glyph-name="sixsuperior" unicode="&#x2076;" horiz-adv-x="355" 
d="M285 811l-89 -130q63 -5 101 -46t38 -95q0 -64 -45 -107t-111 -43q-67 0 -112.5 43t-45.5 107q0 45 28 89l118 182h118zM236 540q0 22 -16 37t-41 15t-42 -15t-17 -37q0 -21 17 -36.5t42 -15.5q24 0 40.5 15.5t16.5 36.5z" />
    <glyph glyph-name="sevensuperior" unicode="&#x2077;" horiz-adv-x="286" 
d="M267 727l-126 -330h-112l130 319h-138v95h246v-84z" />
    <glyph glyph-name="eightsuperior" unicode="&#x2078;" horiz-adv-x="338" 
d="M39 699q0 51 37 84.5t92 33.5q56 0 93 -33.5t37 -84.5q0 -52 -41 -80q57 -31 57 -96q0 -58 -41.5 -95.5t-104.5 -37.5q-61 0 -102.5 37.5t-41.5 95.5q0 66 56 96q-41 28 -41 80zM116 524q0 -20 15 -33.5t37 -13.5q23 0 38 13.5t15 33.5t-14.5 33.5t-38.5 13.5
q-22 0 -37 -13.5t-15 -33.5zM131 697q0 -15 10.5 -24.5t27.5 -9.5t27.5 10t10.5 24t-10.5 23.5t-27.5 9.5t-27.5 -9.5t-10.5 -23.5z" />
    <glyph glyph-name="ninesuperior" unicode="&#x2079;" horiz-adv-x="354" 
d="M70 397l88 129q-63 6 -101 46.5t-38 94.5q0 64 45.5 107.5t111.5 43.5q67 0 112.5 -43.5t45.5 -107.5q0 -43 -28 -89l-119 -181h-117zM118 667q0 -21 16.5 -36t41.5 -15t42 15t17 36q0 22 -17 37.5t-42 15.5t-41.5 -15.5t-16.5 -37.5z" />
    <glyph glyph-name="zeroinferior" unicode="&#x2080;" horiz-adv-x="380" 
d="M190 194q-29 0 -45.5 -16t-16.5 -43v-116q0 -27 16.5 -43.5t45.5 -16.5t45.5 16.5t16.5 43.5v116q0 27 -16.5 43t-45.5 16zM190 290q69 0 114.5 -43t45.5 -109v-122q0 -66 -45.5 -109.5t-114.5 -43.5t-114.5 43.5t-45.5 109.5v122q0 66 45.5 109t114.5 43z" />
    <glyph glyph-name="oneinferior" unicode="&#x2081;" horiz-adv-x="312" 
d="M22 -130v94h97v225h-79v95h177v-320h84v-94h-279z" />
    <glyph glyph-name="twoinferior" unicode="&#x2082;" horiz-adv-x="304" 
d="M28 -130v83l117 137q31 34 31 58q0 21 -13 33t-35 12q-51 0 -92 -36v107q42 26 99 26q71 0 106.5 -36t35.5 -87q0 -61 -48 -115l-75 -87h116v-95h-242z" />
    <glyph glyph-name="threeinferior" unicode="&#x2083;" horiz-adv-x="302" 
d="M64 34v95h60q18 0 29.5 8.5t11.5 22.5t-12 23t-32 9q-50 0 -84 -23v107q34 14 87 14q64 0 103 -33t39 -84q0 -63 -49 -90q61 -31 61 -98q0 -52 -42 -87t-107 -35q-54 0 -97 16v115q36 -33 90 -33q24 0 39.5 11t15.5 28q0 34 -53 34h-60z" />
    <glyph glyph-name="fourinferior" unicode="&#x2084;" horiz-adv-x="367" 
d="M345 -53h-50v-77h-98v77h-183v83l183 254h98v-243h50v-94zM116 41h81v112z" />
    <glyph glyph-name="fiveinferior" unicode="&#x2085;" horiz-adv-x="320" 
d="M284 189h-125l-7 -44q67 -7 104 -43.5t37 -92.5q0 -71 -43.5 -108.5t-113.5 -37.5q-61 0 -105 22v118q47 -42 99 -42q25 0 43.5 14t18.5 34q0 27 -21.5 35t-61.5 8h-58l19 232h214v-95z" />
    <glyph glyph-name="sixinferior" unicode="&#x2086;" horiz-adv-x="355" 
d="M285 284l-89 -130q63 -5 101 -46t38 -95q0 -64 -45 -107t-111 -43q-67 0 -112.5 43t-45.5 107q0 45 28 89l118 182h118zM236 13q0 22 -16 37t-41 15t-42 -15t-17 -37q0 -21 17 -36.5t42 -15.5q24 0 40.5 15.5t16.5 36.5z" />
    <glyph glyph-name="seveninferior" unicode="&#x2087;" horiz-adv-x="286" 
d="M267 200l-126 -330h-112l130 319h-138v95h246v-84z" />
    <glyph glyph-name="eightinferior" unicode="&#x2088;" horiz-adv-x="338" 
d="M39 172q0 51 37 84.5t92 33.5q56 0 93 -33.5t37 -84.5q0 -52 -41 -80q57 -31 57 -96q0 -58 -41.5 -95.5t-104.5 -37.5q-61 0 -102.5 37.5t-41.5 95.5q0 66 56 96q-41 28 -41 80zM116 -3q0 -20 15 -33.5t37 -13.5q23 0 38 13.5t15 33.5t-14.5 33.5t-38.5 13.5
q-22 0 -37 -13.5t-15 -33.5zM131 170q0 -15 10.5 -24.5t27.5 -9.5t27.5 10t10.5 24t-10.5 23.5t-27.5 9.5t-27.5 -9.5t-10.5 -23.5z" />
    <glyph glyph-name="nineinferior" unicode="&#x2089;" horiz-adv-x="354" 
d="M70 -130l88 129q-63 6 -101 46.5t-38 94.5q0 64 45.5 107.5t111.5 43.5q67 0 112.5 -43.5t45.5 -107.5q0 -44 -28 -89l-119 -181h-117zM118 140q0 -21 16.5 -36t41.5 -15t42 15t17 36q0 22 -17 37.5t-42 15.5t-41.5 -15.5t-16.5 -37.5z" />
    <glyph glyph-name="Euro" unicode="&#x20ac;" 
d="M34 452h44q6 108 78 173.5t182 65.5q41 0 87.5 -14t71.5 -34l-40 -135q-18 19 -52.5 31.5t-66.5 12.5q-51 0 -81.5 -26t-35.5 -74h216l-23 -93h-194v-54h178l-23 -92h-153q16 -85 112 -85q75 0 128 51l45 -124q-73 -66 -173 -66q-106 0 -175.5 61t-79.5 163h-69l23 92h45
v54h-67z" />
    <glyph glyph-name="afii61289" unicode="&#x2113;" horiz-adv-x="379" 
d="M345 31q-51 -42 -117 -42q-109 0 -109 124v109q-48 -40 -64 -50l-35 57q60 44 99 83v214q0 82 32.5 123t88.5 41q51 0 78.5 -34t27.5 -96q0 -73 -38 -139t-114 -139v-151q0 -63 46 -63q37 0 79 32zM270 547q0 28 -11 41.5t-27 13.5q-38 0 -38 -63v-157q76 81 76 165z" />
    <glyph glyph-name="uni2117" unicode="&#x2117;" horiz-adv-x="819" 
d="M37 341q0 160 106.5 264t266.5 104t266 -104t106 -264q0 -159 -106.5 -264t-265.5 -105t-266 105t-107 264zM120 341q0 -129 81.5 -209t208.5 -80q126 0 207 80t81 209t-81 208.5t-207 79.5q-127 0 -208.5 -79.5t-81.5 -208.5zM303 145v401h150q63 0 101.5 -35t38.5 -95
t-38.5 -95t-101.5 -35h-52v-141h-98zM493 416q0 17 -11.5 26t-30.5 9h-50v-70h50q19 0 30.5 9t11.5 26z" />
    <glyph glyph-name="trademark" unicode="&#x2122;" horiz-adv-x="823" 
d="M140 334v270h-87v76h255v-76h-89v-270h-79zM598 334h-68l-83 204v-204h-79v346h96l100 -245l99 245h96v-346h-79v204z" />
    <glyph glyph-name="Omega" unicode="&#x2126;" horiz-adv-x="793" 
d="M396 691q147 0 248.5 -96t101.5 -229q0 -80 -32.5 -140.5t-85.5 -88.5h104v-137h-298v137q75 9 120.5 65.5t45.5 139.5q0 87 -58.5 147t-145.5 60t-145 -60t-58 -147q0 -83 45 -139.5t121 -65.5v-137h-298v137h104q-53 28 -86 88.5t-33 140.5q0 133 101.5 229t248.5 96z
" />
    <glyph glyph-name="estimated" unicode="&#x212e;" horiz-adv-x="729" 
d="M697 338h-513v-232q74 -74 185 -74q158 0 248 153l42 -25q-59 -92 -125 -131.5t-165 -39.5q-147 0 -237 99.5t-90 249.5q0 151 90 250.5t237 99.5q146 0 236.5 -98t91.5 -252zM184 382h373v189q-81 75 -189 75q-109 0 -184 -75v-189z" />
    <glyph glyph-name="onethird" unicode="&#x2153;" horiz-adv-x="855" 
d="M250 0l302 680h102l-303 -680h-101zM38 266v94h97v225h-79v95h177v-320h84v-94h-279zM609 164v95h60q18 0 29.5 8.5t11.5 22.5t-12 23t-32 9q-50 0 -84 -23v107q34 14 87 14q64 0 103 -33t39 -84q0 -63 -49 -90q61 -31 61 -98q0 -52 -42 -87t-107 -35q-54 0 -97 16v115
q36 -33 90 -33q24 0 39.5 11t15.5 28q0 34 -53 34h-60z" />
    <glyph glyph-name="twothirds" unicode="&#x2154;" horiz-adv-x="826" 
d="M221 0l302 680h102l-303 -680h-101zM580 164v95h60q18 0 29.5 8.5t11.5 22.5t-12 23t-32 9q-50 0 -84 -23v107q34 14 87 14q64 0 103 -33t39 -84q0 -63 -49 -90q61 -31 61 -98q0 -52 -42 -87t-107 -35q-54 0 -97 16v115q36 -33 90 -33q24 0 39.5 11t15.5 28q0 34 -53 34
h-60zM39 266v83l117 137q31 34 31 58q0 21 -13 33t-35 12q-51 0 -92 -36v107q42 26 99 26q71 0 106.5 -36t35.5 -87q0 -61 -48 -115l-75 -87h116v-95h-242z" />
    <glyph glyph-name="oneeighth" unicode="&#x215b;" horiz-adv-x="865" 
d="M250 0l302 680h102l-303 -680h-101zM38 266v94h97v225h-79v95h177v-320h84v-94h-279zM558 301q0 51 37 84.5t92 33.5q56 0 93 -33.5t37 -84.5q0 -52 -41 -80q57 -31 57 -96q0 -58 -41.5 -95.5t-104.5 -37.5q-61 0 -102.5 37.5t-41.5 95.5q0 66 56 96q-41 28 -41 80z
M635 126q0 -20 15 -33.5t37 -13.5q23 0 38 13.5t15 33.5t-14.5 33.5t-38.5 13.5q-22 0 -37 -13.5t-15 -33.5zM650 299q0 -15 10.5 -24.5t27.5 -9.5t27.5 10t10.5 24t-10.5 23.5t-27.5 9.5t-27.5 -9.5t-10.5 -23.5z" />
    <glyph glyph-name="threeeighths" unicode="&#x215c;" horiz-adv-x="833" 
d="M218 0l302 680h102l-303 -680h-101zM74 430v95h60q18 0 29.5 8.5t11.5 22.5t-12 23t-32 9q-50 0 -84 -23v107q34 14 87 14q64 0 103 -33t39 -84q0 -63 -49 -90q61 -31 61 -98q0 -52 -42 -87t-107 -35q-54 0 -97 16v115q36 -33 90 -33q24 0 39.5 11t15.5 28q0 34 -53 34
h-60zM526 301q0 51 37 84.5t92 33.5q56 0 93 -33.5t37 -84.5q0 -52 -41 -80q57 -31 57 -96q0 -58 -41.5 -95.5t-104.5 -37.5q-61 0 -102.5 37.5t-41.5 95.5q0 66 56 96q-41 28 -41 80zM603 126q0 -20 15 -33.5t37 -13.5q23 0 38 13.5t15 33.5t-14.5 33.5t-38.5 13.5
q-22 0 -37 -13.5t-15 -33.5zM618 299q0 -15 10.5 -24.5t27.5 -9.5t27.5 10t10.5 24t-10.5 23.5t-27.5 9.5t-27.5 -9.5t-10.5 -23.5z" />
    <glyph glyph-name="fiveeighths" unicode="&#x215d;" horiz-adv-x="821" 
d="M206 0l302 680h102l-303 -680h-101zM514 301q0 51 37 84.5t92 33.5q56 0 93 -33.5t37 -84.5q0 -52 -41 -80q57 -31 57 -96q0 -58 -41.5 -95.5t-104.5 -37.5q-61 0 -102.5 37.5t-41.5 95.5q0 66 56 96q-41 28 -41 80zM591 126q0 -20 15 -33.5t37 -13.5q23 0 38 13.5
t15 33.5t-14.5 33.5t-38.5 13.5q-22 0 -37 -13.5t-15 -33.5zM606 299q0 -15 10.5 -24.5t27.5 -9.5t27.5 10t10.5 24t-10.5 23.5t-27.5 9.5t-27.5 -9.5t-10.5 -23.5zM289 585h-125l-7 -44q67 -7 104 -43.5t37 -92.5q0 -71 -43.5 -108.5t-113.5 -37.5q-61 0 -105 22v118
q47 -42 99 -42q25 0 43.5 14t18.5 34q0 27 -21.5 35t-61.5 8h-58l19 232h214v-95z" />
    <glyph glyph-name="seveneighths" unicode="&#x215e;" horiz-adv-x="788" 
d="M173 0l302 680h102l-303 -680h-101zM481 301q0 51 37 84.5t92 33.5q56 0 93 -33.5t37 -84.5q0 -52 -41 -80q57 -31 57 -96q0 -58 -41.5 -95.5t-104.5 -37.5q-61 0 -102.5 37.5t-41.5 95.5q0 66 56 96q-41 28 -41 80zM558 126q0 -20 15 -33.5t37 -13.5q23 0 38 13.5
t15 33.5t-14.5 33.5t-38.5 13.5q-22 0 -37 -13.5t-15 -33.5zM573 299q0 -15 10.5 -24.5t27.5 -9.5t27.5 10t10.5 24t-10.5 23.5t-27.5 9.5t-27.5 -9.5t-10.5 -23.5zM282 596l-126 -330h-112l130 319h-138v95h246v-84z" />
    <glyph glyph-name="arrowleft" unicode="&#x2190;" horiz-adv-x="750" 
d="M49 284l283 282l63 -63l-171 -171h451v-95h-451l171 -172l-63 -63z" />
    <glyph glyph-name="arrowup" unicode="&#x2191;" horiz-adv-x="750" 
d="M361 597l282 -284l-63 -62l-171 171v-451h-95v451l-172 -171l-62 62z" />
    <glyph glyph-name="arrowright" unicode="&#x2192;" horiz-adv-x="750" 
d="M674 283l-284 -281l-62 62l171 172h-451v95h451l-171 171l62 63z" />
    <glyph glyph-name="arrowdown" unicode="&#x2193;" horiz-adv-x="750" 
d="M361 -30l-282 284l63 62l171 -171v451h95v-451l172 171l62 -62z" />
    <glyph glyph-name="uni2196" unicode="&#x2196;" horiz-adv-x="750" 
d="M142 503h398v-87h-242l318 -319l-67 -68l-319 320v-243h-88v397z" />
    <glyph glyph-name="uni2197" unicode="&#x2197;" horiz-adv-x="750" 
d="M616 503v-398h-87v243l-319 -319l-68 67l320 320h-243v87h397z" />
    <glyph glyph-name="uni2198" unicode="&#x2198;" horiz-adv-x="750" 
d="M616 29h-398v88h243l-319 319l67 67l320 -319v243h87v-398z" />
    <glyph glyph-name="uni2199" unicode="&#x2199;" horiz-adv-x="750" 
d="M142 29v398h88v-242l319 318l67 -67l-319 -319h243v-88h-398z" />
    <glyph glyph-name="partialdiff" unicode="&#x2202;" horiz-adv-x="544" 
d="M28 234q0 101 65 167.5t158 73.5l-136 205h170l187 -300q44 -71 44 -146q0 -104 -70 -174.5t-174 -70.5t-174 70.5t-70 174.5zM172 234q0 -43 29 -73t71 -30t71 30t29 73q0 42 -29 71.5t-71 29.5t-71 -29.5t-29 -71.5z" />
    <glyph glyph-name="Delta" unicode="&#x2206;" horiz-adv-x="706" 
d="M21 0l252 680h159l252 -680h-663zM353 494l-126 -357h252z" />
    <glyph glyph-name="product" unicode="&#x220f;" horiz-adv-x="748" 
d="M530 0v543h-311v-543h-142v680h595v-680h-142z" />
    <glyph glyph-name="summation" unicode="&#x2211;" horiz-adv-x="478" 
d="M433 0h-387v131l168 207l-168 211v131h387v-137h-204l127 -149v-102l-127 -155h204v-137z" />
    <glyph glyph-name="minus" unicode="&#x2212;" 
d="M33 233v105h453v-105h-453z" />
    <glyph glyph-name="uni2215" unicode="&#x2215;" horiz-adv-x="200" 
d="M-102 0l302 680h102l-303 -680h-101z" />
    <glyph glyph-name="uni2219" unicode="&#x2219;" horiz-adv-x="269" 
d="M42 299q0 41 26 67.5t66 26.5t67 -26.5t27 -67.5q0 -40 -26.5 -66t-67.5 -26q-40 0 -66 26t-26 66z" />
    <glyph glyph-name="radical" unicode="&#x221a;" horiz-adv-x="646" 
d="M180 -206l-183 490h159l104 -325l244 721h159l-324 -886h-159z" />
    <glyph glyph-name="infinity" unicode="&#x221e;" horiz-adv-x="772" 
d="M726 287q0 -75 -46 -122.5t-116 -47.5q-106 0 -177 101q-38 -49 -79.5 -74.5t-98.5 -25.5q-69 0 -116 45.5t-47 120.5q0 74 46 121.5t115 47.5q102 0 180 -106q73 108 176 108q68 0 115.5 -47t47.5 -121zM620 284q0 33 -20 53.5t-53 20.5q-50 0 -98 -75q51 -70 98 -70
q33 0 53 20t20 51zM325 283q-48 75 -100 75q-32 0 -52.5 -21t-20.5 -53q0 -33 20.5 -52t52.5 -19q57 0 100 70z" />
    <glyph glyph-name="integral" unicode="&#x222b;" 
d="M191 175v348q0 86 50 131.5t135 45.5q31 0 51 -6v-136q-18 9 -46 9q-25 0 -39 -14.5t-14 -38.5v-347q0 -86 -49.5 -132t-135.5 -46q-21 0 -51 6v137q20 -10 47 -10q24 0 38 15t14 38z" />
    <glyph glyph-name="approxequal" unicode="&#x2248;" 
d="M483 244v-106q-51 -39 -111 -39q-48 0 -121 31.5t-115 31.5q-44 0 -106 -40v106q61 39 117 39q45 0 116 -31.5t117 -31.5q50 0 103 40zM483 446v-106q-51 -39 -111 -39q-48 0 -120.5 31.5t-115.5 31.5q-44 0 -106 -40v106q61 39 117 39q45 0 116 -31.5t117 -31.5
q50 0 103 40z" />
    <glyph glyph-name="notequal" unicode="&#x2260;" 
d="M33 452h227l26 109l82 -19l-23 -90h141v-106h-166l-30 -122h196v-105h-222l-26 -110l-80 19l22 91h-147v105h172l30 122h-202v106z" />
    <glyph glyph-name="lessequal" unicode="&#x2264;" 
d="M37 40v106h453v-106h-453zM490 474v-105l-453 -173v109l318 116l-318 118v109z" />
    <glyph glyph-name="greaterequal" unicode="&#x2265;" 
d="M482 146v-106h-453v106h453zM29 369v105l453 174v-109l-318 -118l318 -116v-109z" />
    <glyph glyph-name="lozenge" unicode="&#x25ca;" horiz-adv-x="617" 
d="M586 340l-200 -340h-158l-198 341l198 339h158zM193 341l114 -202l114 201l-114 201z" />
    <glyph glyph-name="commaaccent" unicode="&#xf6c3;" horiz-adv-x="580" 
d="M319 -215h-105l24 153h127z" />
    <glyph glyph-name="commaaccent.alt" horiz-adv-x="609" 
d="M296 700h105l-23 -153h-128z" />
    <glyph glyph-name="zero.tf" 
d="M260 552q-48 0 -74 -29t-26 -79v-209q0 -49 26 -78t74 -29t74 29t26 78v209q0 50 -26 79t-74 29zM260 691q106 0 174 -68t68 -175v-216q0 -107 -68 -175t-174 -68t-174 68t-68 175v216q0 107 68 175t174 68z" />
    <glyph glyph-name="one.tf" 
d="M54 0v137h155v406h-129v137h271v-543h133v-137h-430z" />
    <glyph glyph-name="two.tf" 
d="M56 0v121l200 235q57 65 57 110q0 39 -24 61t-66 22q-85 0 -153 -63v160q68 45 163 45q111 0 168.5 -57.5t57.5 -140.5q0 -61 -20 -105t-58 -88l-140 -163h209v-137h-394z" />
    <glyph glyph-name="three.tf" 
d="M122 282v137h96q33 0 54.5 17.5t21.5 46.5t-22.5 47.5t-59.5 18.5q-77 0 -135 -40v154q60 28 141 28q101 0 161.5 -53t60.5 -136q0 -106 -84 -151q48 -22 76 -63.5t28 -99.5q0 -85 -67 -142t-170 -57q-89 0 -154 29v162q54 -49 146 -49q41 0 69.5 21.5t28.5 55.5t-26 54
t-68 20h-97z" />
    <glyph glyph-name="four.tf" 
d="M508 131h-81v-131h-142v131h-290v121l290 428h142v-412h81v-137zM145 268h140v210z" />
    <glyph glyph-name="five.tf" 
d="M453 543h-203l-12 -100q104 -4 165.5 -62t61.5 -156q0 -114 -67.5 -175t-175.5 -61q-91 0 -164 40v171q73 -69 156 -69q46 0 75 26.5t29 67.5q0 86 -136 86h-91l32 369h330v-137z" />
    <glyph glyph-name="six.tf" 
d="M418 680l-137 -205q93 -7 158.5 -73.5t65.5 -167.5q0 -104 -70 -174.5t-174 -70.5t-174 70.5t-70 174.5q0 74 43 146l188 300h170zM361 234q0 42 -29 71.5t-71 29.5t-71 -29.5t-29 -71.5q0 -43 29 -73t71 -30t71 30t29 73z" />
    <glyph glyph-name="seven.tf" 
d="M460 559l-214 -559h-162l219 543h-234v137h391v-121z" />
    <glyph glyph-name="eight.tf" 
d="M59 500q0 83 57.5 137t142.5 54q86 0 144 -54t58 -137q0 -88 -69 -136q93 -50 93 -161q0 -93 -65 -153.5t-161 -60.5q-95 0 -159.5 60.5t-64.5 153.5q0 111 92 162q-68 45 -68 135zM170 204q0 -37 25.5 -63t63.5 -26q39 0 65 26t26 63q0 39 -26 65.5t-65 26.5
q-38 0 -63.5 -26.5t-25.5 -65.5zM192 499q0 -29 19 -48t49 -19t49 19t19 48t-19 47.5t-49 18.5t-49 -18.5t-19 -47.5z" />
    <glyph glyph-name="nine.tf" 
d="M102 0l136 204q-93 8 -158 74.5t-65 167.5q0 104 70 174.5t174 70.5t174 -70.5t70 -174.5q0 -75 -44 -146l-187 -300h-170zM159 446q0 -42 29 -71.5t71 -29.5t71 29.5t29 71.5q0 43 -29 73t-71 30t-71 -30t-29 -73z" />
    <glyph glyph-name="zero.tosf" 
d="M260 422q-48 0 -74 -29t-26 -79v-87q0 -49 26 -78t74 -29t74 29t26 78v87q0 50 -26 79t-74 29zM260 553q106 0 174 -68t68 -175v-78q0 -107 -68 -175t-174 -68t-174 68t-68 175v78q0 107 68 175t174 68z" />
    <glyph glyph-name="one.tosf" 
d="M63 0v117h145v315h-119v117h261v-432h123v-117h-410z" />
    <glyph glyph-name="two.tosf" 
d="M63 0v109l126 84q113 73 113 146q0 38 -25 61t-68 23q-73 0 -146 -69v157q28 20 73 33t90 13q110 0 168 -58t58 -140q0 -123 -132 -216l-39 -26h183v-117h-401z" />
    <glyph glyph-name="three.tosf" 
d="M124 161v117h92q31 0 52.5 21t21.5 54q0 32 -22.5 52t-57.5 20q-76 0 -128 -40v147q59 27 136 27q98 0 158 -54t60 -135q0 -106 -78 -151q44 -21 70.5 -63.5t26.5 -99.5q0 -85 -65.5 -142t-165.5 -57q-80 0 -150 29v151q56 -46 139 -46q40 0 67.5 23.5t27.5 62.5
q0 37 -25.5 60.5t-65.5 23.5h-93z" />
    <glyph glyph-name="four.tosf" 
d="M488 0h-66v-131h-136v131h-271v105l250 444h157v-432h66v-117zM156 117h130v229z" />
    <glyph glyph-name="five.tosf" 
d="M457 432h-216l-18 -120q109 -1 173.5 -59.5t64.5 -158.5q0 -114 -68.5 -175t-176.5 -61q-89 0 -164 43v153q30 -28 74 -45.5t84 -17.5q53 0 83 28.5t30 74.5q0 96 -148 96h-90l42 359h330v-117z" />
    <glyph glyph-name="six.tosf" 
d="M413 680l-141 -212q96 -4 164 -68t68 -166q0 -104 -70 -174.5t-173 -70.5q-104 0 -174.5 70.5t-70.5 174.5q0 75 44 146l195 300h158zM367 234q0 45 -30.5 76.5t-75.5 31.5t-76 -31.5t-31 -76.5t31 -77t76 -32t75.5 32t30.5 77z" />
    <glyph glyph-name="seven.tosf" 
d="M463 440l-222 -571h-152l233 563h-253v117h394v-109z" />
    <glyph glyph-name="eight.tosf" 
d="M51 500q0 82 60 136.5t148 54.5q89 0 149 -54t60 -137q0 -87 -74 -136q98 -49 98 -161q0 -93 -66.5 -153.5t-166.5 -60.5q-99 0 -165.5 60.5t-66.5 153.5q0 112 97 162q-73 46 -73 135zM156 204q0 -39 29.5 -66.5t73.5 -27.5t74 27.5t30 66.5q0 41 -29.5 69t-74.5 28
q-44 0 -73.5 -28t-29.5 -69zM180 499q0 -30 22.5 -50.5t57.5 -20.5q34 0 56.5 20.5t22.5 50.5t-22.5 50t-56.5 20q-35 0 -57.5 -20t-22.5 -50z" />
    <glyph glyph-name="nine.tosf" 
d="M106 -132l142 212q-97 3 -165 67t-68 168t70 174t173 70q104 0 174.5 -70t70.5 -174q0 -76 -44 -147l-195 -300h-158zM152 315q0 -45 30.5 -76.5t75.5 -31.5t76 31.5t31 76.5t-31 76.5t-76 31.5t-75.5 -31.5t-30.5 -76.5z" />
    <glyph glyph-name="zero.osf" horiz-adv-x="627" 
d="M32 271q0 119 81 200.5t201 81.5q118 0 199.5 -81.5t81.5 -200.5q0 -120 -81 -201.5t-200 -81.5q-120 0 -201 81.5t-81 201.5zM170 271q0 -62 41.5 -105.5t102.5 -43.5t101.5 43.5t40.5 105.5q0 61 -40.5 104t-101.5 43t-102.5 -43t-41.5 -104z" />
    <glyph glyph-name="one.osf" horiz-adv-x="458" 
d="M32 0v117h145v315h-119v117h261v-432h123v-117h-410z" />
    <glyph glyph-name="two.osf" horiz-adv-x="484" 
d="M46 0v109l126 84q113 73 113 146q0 38 -25 61t-68 23q-73 0 -146 -69v157q28 20 73 33t90 13q110 0 168 -58t58 -140q0 -123 -132 -216l-39 -26h183v-117h-401z" />
    <glyph glyph-name="three.osf" horiz-adv-x="450" 
d="M90 161v117h92q31 0 52.5 21t21.5 54q0 32 -22.5 52t-57.5 20q-76 0 -128 -40v147q58 27 136 27q98 0 158 -54t60 -135q0 -106 -78 -151q44 -21 70.5 -63.5t26.5 -99.5q0 -85 -65.5 -142t-165.5 -57q-80 0 -150 29v151q56 -46 139 -46q40 0 67.5 23.5t27.5 62.5
q0 37 -25.5 60.5t-65.5 23.5h-93z" />
    <glyph glyph-name="four.osf" horiz-adv-x="553" 
d="M522 0h-81v-131h-137v131h-295v105l290 444h142v-432h81v-117zM159 117h145v229z" />
    <glyph glyph-name="five.osf" horiz-adv-x="478" 
d="M437 432h-216l-18 -120q109 -1 173.5 -59.5t64.5 -158.5q0 -114 -68.5 -175t-176.5 -61q-89 0 -164 43v153q30 -28 74 -45.5t84 -17.5q53 0 83 28.5t30 74.5q0 96 -148 96h-90l42 359h330v-117z" />
    <glyph glyph-name="six.osf" horiz-adv-x="550" 
d="M428 680l-141 -212q96 -4 164 -68t68 -166q0 -104 -70 -174.5t-173 -70.5q-104 0 -174.5 70.5t-70.5 174.5q0 75 44 146l195 300h158zM382 234q0 45 -30.5 76.5t-75.5 31.5t-76 -31.5t-31 -76.5t31 -77t76 -32t75.5 32t30.5 77z" />
    <glyph glyph-name="seven.osf" horiz-adv-x="422" 
d="M415 440l-222 -571h-152l233 563h-253v117h394v-109z" />
    <glyph glyph-name="eight.osf" horiz-adv-x="539" 
d="M61 500q0 82 60 136.5t148 54.5q89 0 149 -54t60 -137q0 -87 -74 -136q98 -49 98 -161q0 -93 -66.5 -153.5t-166.5 -60.5q-99 0 -165.5 60.5t-66.5 153.5q0 112 97 162q-73 46 -73 135zM166 204q0 -39 29.5 -66.5t73.5 -27.5t74 27.5t30 66.5q0 41 -29.5 69t-74.5 28
q-44 0 -73.5 -28t-29.5 -69zM190 499q0 -30 22.5 -50.5t57.5 -20.5q34 0 56.5 20.5t22.5 50.5t-22.5 50t-56.5 20q-35 0 -57.5 -20t-22.5 -50z" />
    <glyph glyph-name="nine.osf" horiz-adv-x="535" 
d="M114 -132l142 212q-97 3 -165 67t-68 168t70 174t173 70q104 0 174.5 -70t70.5 -174q0 -76 -44 -147l-195 -300h-158zM160 315q0 -45 30.5 -76.5t75.5 -31.5t76 31.5t31 76.5t-31 76.5t-76 31.5t-75.5 -31.5t-30.5 -76.5z" />
    <glyph glyph-name="zero.denom" horiz-adv-x="381" 
d="M191 324q-29 0 -45.5 -16t-16.5 -43v-116q0 -27 16.5 -43.5t45.5 -16.5t45.5 16.5t16.5 43.5v116q0 27 -16.5 43t-45.5 16zM191 420q69 0 114.5 -43t45.5 -109v-122q0 -66 -45.5 -109.5t-114.5 -43.5t-114.5 43.5t-45.5 109.5v122q0 66 45.5 109t114.5 43z" />
    <glyph glyph-name="one.denom" horiz-adv-x="312" 
d="M22 0v94h97v225h-79v95h177v-320h84v-94h-279z" />
    <glyph glyph-name="two.denom" horiz-adv-x="304" 
d="M28 0v83l117 137q31 34 31 58q0 21 -13 33t-35 12q-51 0 -92 -36v107q42 26 99 26q71 0 106.5 -36t35.5 -87q0 -61 -48 -115l-75 -87h116v-95h-242z" />
    <glyph glyph-name="three.denom" horiz-adv-x="302" 
d="M64 164v95h60q18 0 29.5 8.5t11.5 22.5t-12 23t-32 9q-50 0 -84 -23v107q34 14 87 14q64 0 103 -33t39 -84q0 -63 -49 -90q61 -31 61 -98q0 -52 -42 -87t-107 -35q-54 0 -97 16v115q36 -33 90 -33q24 0 39.5 11t15.5 28q0 34 -53 34h-60z" />
    <glyph glyph-name="four.denom" horiz-adv-x="366" 
d="M344 77h-50v-77h-98v77h-183v83l183 254h98v-243h50v-94zM115 171h81v112z" />
    <glyph glyph-name="five.denom" horiz-adv-x="319" 
d="M283 319h-125l-7 -44q67 -7 104 -43.5t37 -92.5q0 -71 -43.5 -108.5t-113.5 -37.5q-61 0 -105 22v118q47 -42 99 -42q25 0 43.5 14t18.5 34q0 27 -21.5 35t-61.5 8h-58l19 232h214v-95z" />
    <glyph glyph-name="six.denom" horiz-adv-x="355" 
d="M285 414l-89 -130q63 -5 101 -46t38 -95q0 -64 -45 -107t-111 -43q-67 0 -112.5 43t-45.5 107q0 45 28 89l118 182h118zM236 143q0 22 -16 37t-41 15t-42 -15t-17 -37q0 -21 17 -36.5t42 -15.5q24 0 40.5 15.5t16.5 36.5z" />
    <glyph glyph-name="seven.denom" horiz-adv-x="285" 
d="M267 330l-126 -330h-112l130 319h-138v95h246v-84z" />
    <glyph glyph-name="eight.denom" horiz-adv-x="338" 
d="M39 302q0 51 37 84.5t92 33.5q56 0 93 -33.5t37 -84.5q0 -52 -41 -80q57 -31 57 -96q0 -58 -41.5 -95.5t-104.5 -37.5q-61 0 -102.5 37.5t-41.5 95.5q0 66 56 96q-41 28 -41 80zM116 127q0 -20 15 -33.5t37 -13.5q23 0 38 13.5t15 33.5t-14.5 33.5t-38.5 13.5
q-22 0 -37 -13.5t-15 -33.5zM131 300q0 -15 10.5 -24.5t27.5 -9.5t27.5 10t10.5 24t-10.5 23.5t-27.5 9.5t-27.5 -9.5t-10.5 -23.5z" />
    <glyph glyph-name="nine.denom" horiz-adv-x="355" 
d="M70 0l88 129q-63 6 -101 46.5t-38 94.5q0 64 45.5 107.5t111.5 43.5q67 0 112.5 -43.5t45.5 -107.5q0 -44 -28 -89l-119 -181h-117zM118 270q0 -21 16.5 -36t41.5 -15t42 15t17 36q0 22 -17 37.5t-42 15.5t-41.5 -15.5t-16.5 -37.5z" />
    <glyph glyph-name="zero.num" horiz-adv-x="381" 
d="M191 590q-29 0 -45.5 -16t-16.5 -43v-116q0 -27 16.5 -43.5t45.5 -16.5t45.5 16.5t16.5 43.5v116q0 27 -16.5 43t-45.5 16zM191 686q69 0 114.5 -43t45.5 -109v-122q0 -66 -45.5 -109.5t-114.5 -43.5t-114.5 43.5t-45.5 109.5v122q0 66 45.5 109t114.5 43z" />
    <glyph glyph-name="one.num" horiz-adv-x="312" 
d="M22 266v94h97v225h-79v95h177v-320h84v-94h-279z" />
    <glyph glyph-name="two.num" horiz-adv-x="304" 
d="M28 266v83l117 137q31 34 31 58q0 21 -13 33t-35 12q-51 0 -92 -36v107q42 26 99 26q71 0 106.5 -36t35.5 -87q0 -61 -48 -115l-75 -87h116v-95h-242z" />
    <glyph glyph-name="three.num" horiz-adv-x="302" 
d="M64 430v95h60q18 0 29.5 8.5t11.5 22.5t-12 23t-32 9q-50 0 -84 -23v107q34 14 87 14q64 0 103 -33t39 -84q0 -63 -49 -90q61 -31 61 -98q0 -52 -42 -87t-107 -35q-54 0 -97 16v115q36 -33 90 -33q24 0 39.5 11t15.5 28q0 34 -53 34h-60z" />
    <glyph glyph-name="four.num" horiz-adv-x="367" 
d="M345 343h-50v-77h-98v77h-183v83l183 254h98v-243h50v-94zM116 437h81v112z" />
    <glyph glyph-name="five.num" horiz-adv-x="319" 
d="M283 585h-125l-7 -44q67 -7 104 -43.5t37 -92.5q0 -71 -43.5 -108.5t-113.5 -37.5q-61 0 -105 22v118q47 -42 99 -42q25 0 43.5 14t18.5 34q0 27 -21.5 35t-61.5 8h-58l19 232h214v-95z" />
    <glyph glyph-name="six.num" horiz-adv-x="355" 
d="M285 680l-89 -130q63 -5 101 -46t38 -95q0 -64 -45 -107t-111 -43q-67 0 -112.5 43t-45.5 107q0 45 28 89l118 182h118zM236 409q0 22 -16 37t-41 15t-42 -15t-17 -37q0 -21 17 -36.5t42 -15.5q24 0 40.5 15.5t16.5 36.5z" />
    <glyph glyph-name="seven.num" horiz-adv-x="287" 
d="M267 596l-126 -330h-112l130 319h-138v95h246v-84z" />
    <glyph glyph-name="eight.num" horiz-adv-x="338" 
d="M39 568q0 51 37 84.5t92 33.5q56 0 93 -33.5t37 -84.5q0 -52 -41 -80q57 -31 57 -96q0 -58 -41.5 -95.5t-104.5 -37.5q-61 0 -102.5 37.5t-41.5 95.5q0 66 56 96q-41 28 -41 80zM116 393q0 -20 15 -33.5t37 -13.5q23 0 38 13.5t15 33.5t-14.5 33.5t-38.5 13.5
q-22 0 -37 -13.5t-15 -33.5zM131 566q0 -15 10.5 -24.5t27.5 -9.5t27.5 10t10.5 24t-10.5 23.5t-27.5 9.5t-27.5 -9.5t-10.5 -23.5z" />
    <glyph glyph-name="nine.num" horiz-adv-x="355" 
d="M70 266l88 129q-63 6 -101 46.5t-38 94.5q0 64 45.5 107.5t111.5 43.5q67 0 112.5 -43.5t45.5 -107.5q0 -44 -28 -89l-119 -181h-117zM118 536q0 -21 16.5 -36t41.5 -15t42 15t17 36q0 22 -17 37.5t-42 15.5t-41.5 -15.5t-16.5 -37.5z" />
    <glyph glyph-name="parenleft.case" horiz-adv-x="280" 
d="M140 332q0 -231 118 -400l-75 -48q-67 84 -108.5 203t-41.5 245q0 127 41.5 246t108.5 203l75 -48q-118 -169 -118 -401z" />
    <glyph glyph-name="parenright.case" horiz-adv-x="280" 
d="M140 333q0 231 -118 400l75 48q67 -84 108.5 -203t41.5 -245q0 -127 -41.5 -246t-108.5 -203l-75 48q118 169 118 401z" />
    <glyph glyph-name="hyphen.case" horiz-adv-x="380" 
d="M325 277h-269v128h269v-128z" />
    <glyph glyph-name="bracketleft.case" horiz-adv-x="302" 
d="M73 780h204v-82h-114v-731h114v-82h-204v895z" />
    <glyph glyph-name="bracketright.case" horiz-adv-x="302" 
d="M229 -115h-204v82h114v731h-114v82h204v-895z" />
    <glyph glyph-name="braceleft.case" horiz-adv-x="332" 
d="M7 292v81h30q81 0 81 95v160q0 88 32.5 120t106.5 32h48v-81h-27q-36 0 -53 -17t-17 -61v-174q0 -95 -74 -115q74 -20 74 -115v-171q0 -45 17 -62.5t53 -17.5h27v-81h-46q-75 0 -108 32.5t-33 122.5v156q0 96 -81 96h-30z" />
    <glyph glyph-name="bar.case" horiz-adv-x="236" 
d="M163 780v-895h-90v895h90z" />
    <glyph glyph-name="braceright.case" horiz-adv-x="332" 
d="M325 373v-81h-30q-81 0 -81 -95v-160q0 -88 -33 -120t-107 -32h-47v81h27q36 0 53 17t17 61v174q0 95 74 115q-74 20 -74 115v171q0 45 -17 62.5t-53 17.5h-27v81h46q75 0 108 -32.5t33 -122.5v-156q0 -96 81 -96h30z" />
    <glyph glyph-name="guilsinglleft.case" horiz-adv-x="329" 
d="M41 340l164 228l70 -51l-101 -178l102 -177l-71 -50z" />
    <glyph glyph-name="guilsinglright.case" horiz-adv-x="326" 
d="M286 339l-164 -228l-70 51l101 178l-102 177l71 50z" />
    <glyph glyph-name="guillemotleft.case" horiz-adv-x="533" 
d="M41 340l164 228l70 -51l-101 -178l102 -177l-71 -50zM246 340l164 228l70 -51l-101 -178l102 -177l-71 -50z" />
    <glyph glyph-name="guillemotright.case" horiz-adv-x="531" 
d="M286 339l-164 -228l-70 51l101 178l-102 177l71 50zM491 339l-164 -228l-70 51l101 178l-102 177l71 50z" />
    <glyph glyph-name="endash.case" horiz-adv-x="597" 
d="M58 395h482v-108h-482v108z" />
    <glyph glyph-name="emdash.case" horiz-adv-x="737" 
d="M58 395h622v-108h-622v108z" />
    <glyph glyph-name="bullet.case" horiz-adv-x="390" 
d="M195 212q-58 0 -96 36.5t-38 91.5q0 56 38 92t96 36t96 -36t38 -92q0 -55 -38 -91.5t-96 -36.5z" />
    <glyph glyph-name="periodcentered.case" horiz-adv-x="277" 
d="M46 355q0 41 26 67.5t66 26.5t67 -26.5t27 -67.5q0 -40 -26.5 -66t-67.5 -26q-40 0 -66 26t-26 66z" />
    <glyph glyph-name="a.alt" horiz-adv-x="604" 
d="M409 249q0 52 -34.5 89t-86.5 37q-51 0 -85.5 -37t-34.5 -89t34.5 -89.5t85.5 -37.5q52 0 86.5 37t34.5 90zM545 0h-136v64q-54 -75 -148 -75q-102 0 -167 74.5t-65 185.5t64.5 185t166.5 74q95 0 149 -75v65h136v-498z" />
    <glyph glyph-name="R.alt" horiz-adv-x="595" 
d="M75 0v680h244q102 0 163 -54.5t61 -152.5q0 -70 -34.5 -119t-93.5 -71l162 -283h-164l-141 266h-55v-266h-142zM397 469q0 36 -21 55t-56 19h-103v-148h103q35 0 56 19t21 55z" />
    <glyph glyph-name="agrave.alt" horiz-adv-x="604" 
d="M409 249q0 52 -34.5 89t-86.5 37q-51 0 -85.5 -37t-34.5 -89t34.5 -89.5t85.5 -37.5q52 0 86.5 37t34.5 90zM545 0h-136v64q-54 -75 -148 -75q-102 0 -167 74.5t-65 185.5t64.5 185t166.5 74q95 0 149 -75v65h136v-498zM178 696h112l74 -147h-100z" />
    <glyph glyph-name="aacute.alt" horiz-adv-x="604" 
d="M409 249q0 52 -34.5 89t-86.5 37q-51 0 -85.5 -37t-34.5 -89t34.5 -89.5t85.5 -37.5q52 0 86.5 37t34.5 90zM545 0h-136v64q-54 -75 -148 -75q-102 0 -167 74.5t-65 185.5t64.5 185t166.5 74q95 0 149 -75v65h136v-498zM339 696h113l-86 -147h-100z" />
    <glyph glyph-name="acircumflex.alt" horiz-adv-x="604" 
d="M409 249q0 52 -34.5 89t-86.5 37q-51 0 -85.5 -37t-34.5 -89t34.5 -89.5t85.5 -37.5q52 0 86.5 37t34.5 90zM545 0h-136v64q-54 -75 -148 -75q-102 0 -167 74.5t-65 185.5t64.5 185t166.5 74q95 0 149 -75v65h136v-498zM228 696h140l87 -147h-100l-57 91l-57 -91h-101z
" />
    <glyph glyph-name="atilde.alt" horiz-adv-x="604" 
d="M409 249q0 52 -34.5 89t-86.5 37q-51 0 -85.5 -37t-34.5 -89t34.5 -89.5t85.5 -37.5q52 0 86.5 37t34.5 90zM545 0h-136v64q-54 -75 -148 -75q-102 0 -167 74.5t-65 185.5t64.5 185t166.5 74q95 0 149 -75v65h136v-498zM447 658v-92q-39 25 -75 25q-25 0 -73 -20t-78 -20
q-43 0 -70 21v92q27 -25 70 -25q23 0 68.5 20.5t82.5 20.5q39 0 75 -22z" />
    <glyph glyph-name="adieresis.alt" horiz-adv-x="604" 
d="M409 249q0 52 -34.5 89t-86.5 37q-51 0 -85.5 -37t-34.5 -89t34.5 -89.5t85.5 -37.5q52 0 86.5 37t34.5 90zM545 0h-136v64q-54 -75 -148 -75q-102 0 -167 74.5t-65 185.5t64.5 185t166.5 74q95 0 149 -75v65h136v-498zM121 641q0 31 21 52.5t52 21.5t51.5 -21.5
t20.5 -52.5t-20.5 -52t-51.5 -21t-52 21t-21 52zM332 641q0 31 20.5 52.5t51.5 21.5q32 0 52.5 -21.5t20.5 -52.5t-20.5 -52t-52.5 -21q-31 0 -51.5 21t-20.5 52z" />
    <glyph glyph-name="amacron.alt" horiz-adv-x="604" 
d="M409 249q0 52 -34.5 89t-86.5 37q-51 0 -85.5 -37t-34.5 -89t34.5 -89.5t85.5 -37.5q52 0 86.5 37t34.5 90zM545 0h-136v64q-54 -75 -148 -75q-102 0 -167 74.5t-65 185.5t64.5 185t166.5 74q95 0 149 -75v65h136v-498zM150 669h297v-90h-297v90z" />
    <glyph glyph-name="abreve.alt" horiz-adv-x="604" 
d="M409 249q0 52 -34.5 89t-86.5 37q-51 0 -85.5 -37t-34.5 -89t34.5 -89.5t85.5 -37.5q52 0 86.5 37t34.5 90zM545 0h-136v64q-54 -75 -148 -75q-102 0 -167 74.5t-65 185.5t64.5 185t166.5 74q95 0 149 -75v65h136v-498zM376 695h74q0 -66 -40 -108t-113 -42
q-70 0 -109 42.5t-39 107.5h72q4 -30 25 -49.5t51 -19.5q32 0 53 19t26 50z" />
    <glyph glyph-name="aring.alt" horiz-adv-x="604" 
d="M409 249q0 52 -34.5 89t-86.5 37q-51 0 -85.5 -37t-34.5 -89t34.5 -89.5t85.5 -37.5q52 0 86.5 37t34.5 90zM545 0h-136v64q-54 -75 -148 -75q-102 0 -167 74.5t-65 185.5t64.5 185t166.5 74q95 0 149 -75v65h136v-498zM191 639q0 41 28.5 70.5t77.5 29.5q52 0 81.5 -29
t29.5 -71q0 -40 -29.5 -69.5t-81.5 -29.5q-49 0 -77.5 29.5t-28.5 69.5zM255 639q0 -17 11.5 -29t30.5 -12q22 0 34 11.5t12 29.5t-12 30.5t-34 12.5q-19 0 -30.5 -12.5t-11.5 -30.5z" />
    <glyph glyph-name="aogonek.alt" horiz-adv-x="604" 
d="M545 0l-85 -52q-30 -19 -30 -39q0 -24 29 -24q33 0 63 28v-91q-38 -19 -84 -19q-57 0 -88 21.5t-31 62.5q0 54 56 84l56 29h-22v64q-54 -75 -148 -75q-102 0 -167 74.5t-65 185.5t64.5 185t166.5 74q95 0 149 -75v65h136v-498zM409 249q0 52 -34.5 89t-86.5 37
q-51 0 -85.5 -37t-34.5 -89t34.5 -89.5t85.5 -37.5q52 0 86.5 37t34.5 90z" />
    <glyph glyph-name="Racute.alt" horiz-adv-x="595" 
d="M75 0v680h244q102 0 163 -54.5t61 -152.5q0 -70 -34.5 -119t-93.5 -71l162 -283h-164l-141 266h-55v-266h-142zM397 469q0 36 -21 55t-56 19h-103v-148h103q35 0 56 19t21 55zM293 873h113l-86 -147h-100z" />
    <glyph glyph-name="Rcaron.alt" horiz-adv-x="595" 
d="M75 0v680h244q102 0 163 -54.5t61 -152.5q0 -70 -34.5 -119t-93.5 -71l162 -283h-164l-141 266h-55v-266h-142zM397 469q0 36 -21 55t-56 19h-103v-148h103q35 0 56 19t21 55zM354 726h-140l-88 147h101l57 -92l57 92h100z" />
    <glyph glyph-name="Rcommaaccent.alt" horiz-adv-x="595" 
d="M75 0v680h244q102 0 163 -54.5t61 -152.5q0 -70 -34.5 -119t-93.5 -71l162 -283h-164l-141 266h-55v-266h-142zM397 469q0 36 -21 55t-56 19h-103v-148h103q35 0 56 19t21 55zM321 -215h-105l24 153h127z" />
    </font>
</defs>
</svg>
