<?xml version="1.0" standalone="no"?>
<!DOCTYPE svg PUBLIC "-//W3C//DTD SVG 1.1//EN" "http://www.w3.org/Graphics/SVG/1.1/DTD/svg11.dtd" >
<svg>
<metadata>
Created by FontForge 20090622 at Thu Aug 10 14:43:58 2017
 By deploy user
Copyright (c) 2013 by Hannes von Doehren. All rights reserved.
</metadata>
<defs>
<font id="NiveauGroteskLight" horiz-adv-x="520" >
  <font-face 
    font-family="Niveau Grotesk Light"
    font-weight="300"
    font-stretch="normal"
    units-per-em="1000"
    panose-1="2 0 0 0 0 0 0 0 0 0"
    ascent="750"
    descent="-250"
    x-height="481"
    cap-height="680"
    bbox="-105 -215 1087 902"
    underline-thickness="50"
    underline-position="-50"
    unicode-range="U+0020-U+FB02"
  />
<missing-glyph horiz-adv-x="833" 
d="M69 49l301 301l-301 301l20 20l301 -301l301 301l20 -20l-301 -301l301 -301l-20 -20l-301 301l-301 -301z" />
    <glyph glyph-name="fi" unicode="fi" horiz-adv-x="554" 
d="M295 481v-50h-134v-431h-57v431h-79v50h79v79q0 65 37 102.5t101 37.5q32 0 61 -9v-60q-26 13 -60 13q-82 0 -82 -86v-77h134zM480 481v-481h-57v481h57zM409 639q0 17 12.5 29.5t29.5 12.5q19 0 31 -12.5t12 -29.5q0 -18 -12 -30t-31 -12q-17 0 -29.5 12t-12.5 30z" />
    <glyph glyph-name="fl" unicode="fl" horiz-adv-x="552" 
d="M295 481v-50h-134v-431h-57v431h-79v50h79v79q0 65 37 102.5t101 37.5q32 0 61 -9v-60q-26 13 -60 13q-82 0 -82 -86v-77h134zM475 690v-690h-56v690h56z" />
    <glyph glyph-name=".notdef" horiz-adv-x="833" 
d="M69 49l301 301l-301 301l20 20l301 -301l301 301l20 -20l-301 -301l301 -301l-20 -20l-301 301l-301 -301z" />
    <glyph glyph-name=".null" horiz-adv-x="0" 
 />
    <glyph glyph-name="nonmarkingreturn" horiz-adv-x="333" 
 />
    <glyph glyph-name="space" unicode=" " horiz-adv-x="243" 
 />
    <glyph glyph-name="exclam" unicode="!" horiz-adv-x="238" 
d="M142 204h-46l-8 476h62zM70 39q0 21 14 35t35 14t35 -14t14 -35t-14 -35t-35 -14t-35 14t-14 35z" />
    <glyph glyph-name="quotedbl" unicode="&#x22;" horiz-adv-x="338" 
d="M121 476h-54l-2 204h58zM271 476h-54l-2 204h58z" />
    <glyph glyph-name="numbersign" unicode="#" horiz-adv-x="651" 
d="M316 0l59 200h-188l-59 -200h-45l59 200h-100v40h112l59 199h-141v40h153l60 201h46l-60 -201h187l60 201h46l-60 -201h105v-40h-117l-60 -199h147v-40h-159l-59 -200h-45zM259 439l-60 -199h188l59 199h-187z" />
    <glyph glyph-name="dollar" unicode="$" horiz-adv-x="466" 
d="M399 649v-70q-62 52 -143 55v-263l58 -37q61 -39 86.5 -77.5t25.5 -90.5q0 -65 -45 -114.5t-125 -58.5v-110h-35v107h-3q-89 0 -165 45v72q71 -61 164 -61h4v274l-70 45q-99 62 -99 156q0 63 42.5 111t126.5 56v90h35v-88q79 -1 143 -41zM281 281l-25 16v-248
q51 9 79.5 41.5t28.5 73.5q0 64 -83 117zM114 523q0 -59 68 -104l39 -25v238q-50 -7 -78.5 -36t-28.5 -73z" />
    <glyph glyph-name="percent" unicode="%" horiz-adv-x="805" 
d="M228 0l302 680h48l-303 -680h-47zM183 644q-41 0 -66 -24.5t-25 -61.5v-135q0 -38 25 -62.5t66 -24.5q42 0 67 24.5t25 62.5v135q0 38 -25 62t-67 24zM183 690q60 0 99.5 -37.5t39.5 -93.5v-138q0 -56 -39.5 -94t-99.5 -38q-59 0 -98.5 38t-39.5 94v138q0 56 39.5 93.5
t98.5 37.5zM622 345q-42 0 -67 -24.5t-25 -62.5v-135q0 -38 25 -62.5t67 -24.5t67 24.5t25 62.5v135q0 38 -25 62.5t-67 24.5zM622 390q60 0 99.5 -37t39.5 -94v-137q0 -57 -39.5 -94.5t-99.5 -37.5t-99.5 37.5t-39.5 94.5v137q0 57 39.5 94t99.5 37z" />
    <glyph glyph-name="ampersand" unicode="&#x26;" horiz-adv-x="671" 
d="M38 183q0 47 15 84t45 64.5t58 44.5t69 36l-4 5q-63 80 -63 134q0 57 42.5 98t107.5 41q66 0 104 -42.5t38 -96.5q0 -56 -36 -90.5t-104 -67.5l158 -193l157 182v-81l-121 -145l128 -156h-71l-93 114q-112 -124 -225 -124q-99 0 -152 60t-53 133zM242 45q91 0 190 112
l-173 213q-37 -17 -61 -31.5t-50 -37t-38.5 -51.5t-12.5 -65q0 -52 39.5 -96t105.5 -44zM271 441l5 -6q57 26 87 51t30 63q0 33 -22.5 60.5t-61.5 27.5q-43 0 -68.5 -25t-25.5 -63t56 -108z" />
    <glyph glyph-name="quotesingle" unicode="'" horiz-adv-x="187" 
d="M121 476h-54l-2 188h58z" />
    <glyph glyph-name="parenleft" unicode="(" horiz-adv-x="249" 
d="M95 242q0 -247 133 -422l-34 -26q-67 84 -108.5 203t-41.5 245q0 127 41.5 246t108.5 203l34 -26q-133 -175 -133 -423z" />
    <glyph glyph-name="parenright" unicode=")" horiz-adv-x="249" 
d="M154 243q0 247 -133 422l34 26q67 -84 108.5 -203t41.5 -245q0 -127 -41.5 -246t-108.5 -203l-34 26q133 175 133 423z" />
    <glyph glyph-name="asterisk" unicode="*" horiz-adv-x="368" 
d="M75 634l96 -55v111h31v-111l94 55l16 -27l-94 -55l94 -54l-16 -27l-94 54v-108h-31v108l-96 -55l-15 27l95 55l-95 56z" />
    <glyph glyph-name="plus" unicode="+" 
d="M39 263v46h194v199h51v-199h196v-46h-196v-199h-51v199h-194z" />
    <glyph glyph-name="comma" unicode="," horiz-adv-x="241" 
d="M118 -138h-51l33 222h66z" />
    <glyph glyph-name="hyphen" unicode="-" horiz-adv-x="377" 
d="M311 259h-245v53h245v-53z" />
    <glyph glyph-name="period" unicode="." horiz-adv-x="223" 
d="M62 39q0 21 14 35t35 14t35 -14t14 -35t-14 -35t-35 -14t-35 14t-14 35z" />
    <glyph glyph-name="slash" unicode="/" horiz-adv-x="409" 
d="M29 0l302 680h48l-303 -680h-47z" />
    <glyph glyph-name="zero" unicode="0" horiz-adv-x="582" 
d="M291 633q-74 0 -118.5 -47.5t-44.5 -120.5v-250q0 -73 44.5 -120.5t118.5 -47.5t119 47.5t45 120.5v250q0 73 -45 120.5t-119 47.5zM291 690q96 0 159 -63.5t63 -159.5v-254q0 -96 -63 -159.5t-159 -63.5t-158.5 63.5t-62.5 159.5v254q0 96 62.5 159.5t158.5 63.5z" />
    <glyph glyph-name="one" unicode="1" horiz-adv-x="448" 
d="M40 0v54h179v572h-165v54h223v-626h151v-54h-388z" />
    <glyph glyph-name="two" unicode="2" horiz-adv-x="457" 
d="M44 0v53l220 281q40 50 59.5 87.5t19.5 82.5q0 58 -36.5 93t-96.5 35q-86 0 -153 -72v69q29 27 70.5 44t84.5 17q86 0 138 -50t52 -130q0 -43 -15 -83.5t-29 -61t-44 -59.5l-200 -252h289v-54h-359z" />
    <glyph glyph-name="three" unicode="3" horiz-adv-x="465" 
d="M108 330v55h101q53 0 88 35.5t35 88.5q0 56 -36.5 89.5t-96.5 33.5q-84 0 -134 -41v65q57 34 135 34q86 0 139.5 -50t53.5 -126q0 -56 -27 -98t-70 -58q52 -17 84 -64t32 -111q0 -86 -59.5 -139.5t-150.5 -53.5q-86 0 -145 37v68q61 -47 142 -47q66 0 109.5 39t43.5 102
q0 60 -41 100.5t-102 40.5h-101z" />
    <glyph glyph-name="four" unicode="4" horiz-adv-x="535" 
d="M502 155h-97v-155h-58v155h-322v51l322 474h58v-471h97v-54zM90 209h257v381z" />
    <glyph glyph-name="five" unicode="5" horiz-adv-x="491" 
d="M432 626h-243l-28 -212h40q107 0 172 -55.5t65 -150.5q0 -102 -64.5 -160t-159.5 -58q-91 0 -171 58v76q80 -76 169 -76q70 0 117.5 44t47.5 116q0 73 -52 113t-134 40h-91l38 319h294v-54z" />
    <glyph glyph-name="six" unicode="6" horiz-adv-x="548" 
d="M368 680l-162 -239q40 14 72 14q99 0 166.5 -66t67.5 -166q0 -99 -67.5 -166t-166.5 -67t-166 67t-67 166q0 77 46 146l209 311h68zM452 223q0 74 -50.5 125t-123.5 51t-123 -51t-50 -125t50 -124.5t123 -50.5t123.5 50.5t50.5 124.5z" />
    <glyph glyph-name="seven" unicode="7" horiz-adv-x="401" 
d="M382 630l-249 -630h-67l256 626h-288v54h348v-50z" />
    <glyph glyph-name="eight" unicode="8" horiz-adv-x="528" 
d="M74 513q0 75 55 126t134 51q80 0 135 -51t55 -126q0 -50 -27 -90.5t-72 -60.5q55 -22 88.5 -68.5t33.5 -106.5q0 -84 -61.5 -140.5t-151.5 -56.5q-89 0 -150 56.5t-61 140.5q0 60 33 106.5t87 68.5q-44 20 -71 60.5t-27 90.5zM110 188q0 -61 44 -102.5t109 -41.5
q66 0 110.5 41.5t44.5 102.5q0 60 -44 102.5t-111 42.5q-64 0 -108.5 -42t-44.5 -103zM131 513q0 -52 37.5 -88.5t94.5 -36.5t95.5 36t38.5 89q0 52 -38.5 87.5t-95.5 35.5q-56 0 -94 -35.5t-38 -87.5z" />
    <glyph glyph-name="nine" unicode="9" horiz-adv-x="548" 
d="M179 0l158 232q-33 -9 -68 -9q-98 0 -165.5 67t-67.5 167q0 99 67 166t166 67q100 0 167 -67t67 -166q0 -77 -46 -146l-209 -311h-69zM96 457q0 -74 50 -125t123 -51q74 0 124 51t50 125t-50 124.5t-124 50.5q-73 0 -123 -50.5t-50 -124.5z" />
    <glyph glyph-name="colon" unicode=":" horiz-adv-x="225" 
d="M65 36q0 21 13.5 34.5t33.5 13.5t33.5 -13.5t13.5 -34.5q0 -20 -13.5 -33t-33.5 -13t-33.5 13t-13.5 33zM65 437q0 20 13.5 33.5t33.5 13.5t33.5 -13.5t13.5 -33.5t-13.5 -33.5t-33.5 -13.5t-33.5 13.5t-13.5 33.5z" />
    <glyph glyph-name="semicolon" unicode=";" horiz-adv-x="247" 
d="M108 -137h-48l33 216h62zM87 437q0 20 13 33.5t33 13.5t33.5 -13.5t13.5 -33.5t-13.5 -33.5t-33.5 -13.5t-33 13.5t-13 33.5z" />
    <glyph glyph-name="less" unicode="&#x3c;" 
d="M27 262v46l441 176v-51l-383 -148l383 -148v-51z" />
    <glyph glyph-name="equal" unicode="=" 
d="M39 426h441v-46h-441v46zM39 191h441v-47h-441v47z" />
    <glyph glyph-name="greater" unicode="&#x3e;" 
d="M492 308v-46l-441 -176v51l383 148l-383 148v51z" />
    <glyph glyph-name="question" unicode="?" horiz-adv-x="421" 
d="M206 204h-59q0 49 15 78t50 61l60 56q29 26 40 52.5t11 63.5q0 50 -35.5 83.5t-107.5 33.5q-35 0 -73 -15.5t-66 -42.5v76q62 40 142 40q101 0 150.5 -50.5t49.5 -121.5q0 -86 -66 -151l-58 -54q-53 -49 -53 -109zM127 39q0 21 14 35t35 14t35 -14t14 -35t-14 -35
t-35 -14t-35 14t-14 35z" />
    <glyph glyph-name="at" unicode="@" horiz-adv-x="820" 
d="M417 -95q-158 0 -261.5 103.5t-103.5 261.5t103.5 261.5t261.5 103.5q156 0 260.5 -98t104.5 -236q0 -98 -41 -149t-101 -51q-77 0 -98 74q-46 -76 -137 -76q-72 0 -119 49.5t-47 122.5t47 122.5t119 49.5q83 0 130 -65v53h38v-203q0 -89 69 -89q41 0 69.5 40t28.5 121
q0 121 -93 209t-230 88q-139 0 -231.5 -93.5t-92.5 -233.5t92.5 -233.5t231.5 -93.5q124 0 214 77l24 -29q-99 -86 -238 -86zM279 271q0 -56 36 -94.5t91 -38.5q56 0 92 38.5t36 94.5t-36 94t-92 38q-55 0 -91 -38t-36 -94z" />
    <glyph glyph-name="A" unicode="A" horiz-adv-x="618" 
d="M535 0l-81 213h-291l-79 -213h-65l258 680h65l258 -680h-65zM309 604l-127 -336h253z" />
    <glyph glyph-name="B" unicode="B" horiz-adv-x="550" 
d="M95 0v680h184q86 0 142.5 -47t56.5 -127q0 -113 -104 -155q58 -18 92.5 -61.5t34.5 -106.5q0 -86 -59.5 -134.5t-151.5 -48.5h-195zM440 187q0 66 -43 101t-107 35h-137v-269h137q65 0 107.5 34t42.5 99zM418 501q0 61 -39.5 93t-99.5 32h-126v-249h126q60 0 99.5 31
t39.5 93z" />
    <glyph glyph-name="C" unicode="C" horiz-adv-x="636" 
d="M587 113v-69q-84 -54 -190 -54q-149 0 -249.5 100.5t-100.5 249.5t100.5 249.5t249.5 100.5q106 0 190 -54v-70q-78 67 -190 67q-123 0 -206 -84.5t-83 -208.5t83 -208.5t206 -84.5q111 0 190 66z" />
    <glyph glyph-name="D" unicode="D" horiz-adv-x="708" 
d="M95 0v680h233q149 0 240 -94.5t91 -245.5t-91 -245.5t-240 -94.5h-233zM327 626h-174v-572h174q123 0 197.5 80t74.5 206t-74.5 206t-197.5 80z" />
    <glyph glyph-name="E" unicode="E" horiz-adv-x="519" 
d="M450 0h-355v680h355v-54h-297v-257h277v-54h-277v-261h297v-54z" />
    <glyph glyph-name="F" unicode="F" horiz-adv-x="495" 
d="M430 289h-277v-289h-58v680h355v-54h-297v-283h277v-54z" />
    <glyph glyph-name="G" unicode="G" horiz-adv-x="753" 
d="M592 646v-66q-83 53 -186 53q-130 0 -214 -84t-84 -209q0 -121 79.5 -207t199.5 -86t194.5 75t74.5 188q0 33 -2 42h-274v52h332q7 -29 7 -84q0 -142 -91 -236t-242 -94q-146 0 -242.5 101t-96.5 249q0 150 101.5 250t257.5 100q105 0 186 -44z" />
    <glyph glyph-name="H" unicode="H" horiz-adv-x="734" 
d="M580 0v315h-427v-315h-58v680h58v-311h427v311h58v-680h-58z" />
    <glyph glyph-name="I" unicode="I" horiz-adv-x="248" 
d="M95 0v680h58v-680h-58z" />
    <glyph glyph-name="J" unicode="J" horiz-adv-x="437" 
d="M290 680h58v-488q0 -98 -48.5 -150t-141.5 -52q-40 0 -77.5 14t-58.5 31v70q63 -59 133 -59q61 0 98 37.5t37 109.5v487z" />
    <glyph glyph-name="K" unicode="K" horiz-adv-x="541" 
d="M95 0v680h58v-362l293 362h71l-223 -278l233 -402h-70l-202 355l-102 -125v-230h-58z" />
    <glyph glyph-name="L" unicode="L" horiz-adv-x="467" 
d="M450 0h-355v680h58v-626h297v-54z" />
    <glyph glyph-name="M" unicode="M" horiz-adv-x="860" 
d="M457 0h-53l-251 564v-564h-58v680h66l269 -607l270 607h65v-680h-58v564z" />
    <glyph glyph-name="N" unicode="N" horiz-adv-x="713" 
d="M560 0l-404 535v-535h-58v607l-46 67v6h72l436 -582v582h58v-680h-58z" />
    <glyph glyph-name="O" unicode="O" horiz-adv-x="794" 
d="M47 340q0 149 100.5 249.5t249.5 100.5t249.5 -100.5t100.5 -249.5t-100.5 -249.5t-249.5 -100.5t-249.5 100.5t-100.5 249.5zM108 340q0 -124 83 -208.5t206 -84.5t206.5 84.5t83.5 208.5t-83.5 208.5t-206.5 84.5t-206 -84.5t-83 -208.5z" />
    <glyph glyph-name="P" unicode="P" horiz-adv-x="530" 
d="M95 0v680h184q94 0 151.5 -53t57.5 -146q0 -92 -57.5 -144.5t-151.5 -52.5h-126v-284h-58zM427 481q0 71 -41 108t-107 37h-126v-288h126q67 0 107.5 36t40.5 107z" />
    <glyph glyph-name="Q" unicode="Q" horiz-adv-x="809" 
d="M47 340q0 149 100.5 249.5t249.5 100.5t249.5 -100.5t100.5 -249.5q0 -137 -87 -235l78 -77l-40 -41l-80 79q-93 -76 -221 -76q-149 0 -249.5 100.5t-100.5 249.5zM108 340q0 -124 83 -208.5t206 -84.5q105 0 177 63l-163 164l40 41l165 -166q71 81 71 191
q0 124 -83.5 208.5t-206.5 84.5t-206 -84.5t-83 -208.5z" />
    <glyph glyph-name="R" unicode="R" horiz-adv-x="564" 
d="M95 0v680h184q93 0 150.5 -50.5t57.5 -136.5q0 -71 -40.5 -115.5t-108.5 -60.5q63 -28 115 -111.5t73 -205.5h-60q-25 132 -89.5 216t-135.5 84h-88v-300h-58zM426 489q0 63 -41.5 100t-106.5 37h-125v-272h125q66 0 107 35.5t41 99.5z" />
    <glyph glyph-name="S" unicode="S" horiz-adv-x="474" 
d="M402 649v-70q-65 55 -149 55q-62 0 -99 -30.5t-37 -80.5q0 -59 68 -104l132 -85q61 -39 86.5 -77.5t25.5 -90.5q0 -73 -55.5 -124.5t-152.5 -51.5q-89 0 -165 45v72q71 -61 164 -61q69 0 108 34.5t39 83.5q0 64 -83 117l-130 84q-99 62 -99 156q0 69 50.5 119t150.5 50
q83 0 146 -41z" />
    <glyph glyph-name="T" unicode="T" horiz-adv-x="470" 
d="M207 0v626h-190v54h436v-54h-188v-626h-58z" />
    <glyph glyph-name="U" unicode="U" horiz-adv-x="655" 
d="M509 680h58v-444q0 -112 -64.5 -179t-174.5 -67q-111 0 -176 67t-65 179v444h58v-446q0 -84 50.5 -135.5t133.5 -51.5q81 0 130.5 51.5t49.5 135.5v446z" />
    <glyph glyph-name="V" unicode="V" horiz-adv-x="618" 
d="M277 0l-258 680h65l225 -610l226 610h65l-258 -680h-65z" />
    <glyph glyph-name="W" unicode="W" horiz-adv-x="974" 
d="M229 0l-205 680h66l174 -602l206 535l-23 67h61l202 -602l174 602h66l-204 -680h-65l-183 535l-204 -535h-65z" />
    <glyph glyph-name="X" unicode="X" horiz-adv-x="567" 
d="M284 301l-200 -301h-71l230 348l-220 332h72l189 -284l189 284h72l-221 -332l231 -348h-72z" />
    <glyph glyph-name="Y" unicode="Y" horiz-adv-x="558" 
d="M250 0v304l-229 376h67l191 -316l191 316h68l-230 -376v-304h-58z" />
    <glyph glyph-name="Z" unicode="Z" horiz-adv-x="470" 
d="M431 630l-328 -576h328v-54h-397v50l326 576h-316v54h387v-50z" />
    <glyph glyph-name="bracketleft" unicode="[" horiz-adv-x="268" 
d="M82 690h162v-43h-117v-809h117v-43h-162v895z" />
    <glyph glyph-name="backslash" unicode="\" horiz-adv-x="409" 
d="M77 680l302 -680h-47l-303 680h48z" />
    <glyph glyph-name="bracketright" unicode="]" horiz-adv-x="268" 
d="M186 -205h-162v43h117v809h-117v43h162v-895z" />
    <glyph glyph-name="asciicircum" unicode="^" horiz-adv-x="458" 
d="M229 700l175 -167l-30 -34l-145 139l-145 -139l-30 34z" />
    <glyph glyph-name="underscore" unicode="_" horiz-adv-x="531" 
d="M465 -72h-400v42h400v-42z" />
    <glyph glyph-name="grave" unicode="`" horiz-adv-x="600" 
d="M228 696h55l77 -147h-48z" />
    <glyph glyph-name="a" unicode="a" horiz-adv-x="470" 
d="M86 396v59q65 36 137 36q79 0 128 -43.5t49 -132.5v-315h-57v61q-20 -32 -56.5 -51.5t-80.5 -19.5q-77 0 -125 46.5t-48 115.5q0 68 50 114.5t124 46.5q42 0 79.5 -20t56.5 -48v70q0 61 -36.5 92t-87.5 31q-68 0 -133 -42zM91 152q0 -48 37 -81.5t88 -33.5
q52 0 89.5 33.5t37.5 81.5q0 46 -38 80t-89 34q-52 0 -88.5 -33.5t-36.5 -80.5z" />
    <glyph glyph-name="b" unicode="b" horiz-adv-x="618" 
d="M132 113v-113h-57v690h57v-323q27 57 79.5 90.5t120.5 33.5q104 0 173.5 -72t69.5 -178q0 -107 -69.5 -179t-173.5 -72q-68 0 -120.5 33t-79.5 90zM132 241q0 -82 55 -138.5t137 -56.5q81 0 136.5 56.5t55.5 138.5q0 81 -55.5 137.5t-136.5 56.5q-82 0 -137 -56t-55 -138
z" />
    <glyph glyph-name="c" unicode="c" horiz-adv-x="471" 
d="M427 92v-63q-58 -39 -134 -39q-107 0 -179 72t-72 179q0 106 72 178t179 72q76 0 134 -37v-66q-55 47 -134 47q-81 0 -136.5 -56.5t-55.5 -137.5q0 -82 55.5 -138.5t136.5 -56.5q78 0 134 46z" />
    <glyph glyph-name="d" unicode="d" horiz-adv-x="618" 
d="M486 0v113q-28 -57 -80 -90t-119 -33q-105 0 -175 72t-70 179q0 106 70 178t175 72q67 0 119 -33.5t80 -90.5v323h57v-690h-57zM486 241q0 81 -55.5 137.5t-136.5 56.5t-136.5 -56.5t-55.5 -137.5q0 -82 55.5 -138.5t136.5 -56.5t136.5 56.5t55.5 138.5z" />
    <glyph glyph-name="e" unicode="e" horiz-adv-x="552" 
d="M516 216h-415q7 -75 59.5 -124t128.5 -49q49 0 97 20t81 48v-64q-81 -57 -181 -57q-104 0 -174 71.5t-70 179.5q0 106 69 178t172 72q102 0 169 -69t67 -170q0 -24 -3 -36zM283 440q-75 0 -126.5 -50.5t-56.5 -125.5h363q-1 78 -52.5 127t-127.5 49z" />
    <glyph glyph-name="f" unicode="f" horiz-adv-x="309" 
d="M295 481v-50h-134v-431h-57v431h-79v50h79v79q0 65 37 102.5t101 37.5q32 0 61 -9v-60q-26 13 -60 13q-82 0 -82 -86v-77h134z" />
    <glyph glyph-name="g" unicode="g" horiz-adv-x="611" 
d="M477 481h57v-456q0 -108 -67.5 -174t-173.5 -66q-98 0 -173 45v64q29 -23 76.5 -39t96.5 -16q80 0 132 51t52 130v101q-28 -54 -79 -85.5t-117 -31.5q-101 0 -169.5 70t-68.5 173t68.5 173.5t169.5 70.5q66 0 117 -32.5t79 -87.5v110zM475 247q0 80 -53 133t-133 53
t-133 -53t-53 -133t53 -134t133 -54t133 54t53 134z" />
    <glyph glyph-name="h" unicode="h" horiz-adv-x="541" 
d="M132 690v-293q45 94 153 94q84 0 135 -54.5t51 -141.5v-295h-56v285q0 67 -38 108.5t-104 41.5q-64 0 -101.5 -39.5t-39.5 -104.5v-291h-57v690h57z" />
    <glyph glyph-name="i" unicode="i" horiz-adv-x="207" 
d="M132 481v-481h-57v481h57zM61 639q0 17 12.5 29.5t29.5 12.5q19 0 31 -12.5t12 -29.5q0 -18 -12 -30t-31 -12q-17 0 -29.5 12t-12.5 30z" />
    <glyph glyph-name="j" unicode="j" horiz-adv-x="207" 
d="M75 -91v572h57v-572q0 -63 -29 -93.5t-79 -30.5q-31 0 -51 12v59q24 -15 48 -15q54 0 54 68zM62 639q0 17 12 29.5t30 12.5t30 -12t12 -30t-11.5 -30t-30.5 -12q-18 0 -30 12t-12 30z" />
    <glyph glyph-name="k" unicode="k" horiz-adv-x="447" 
d="M75 0v690h57v-462l226 253h69l-168 -192l175 -289h-68l-148 250l-86 -97v-153h-57z" />
    <glyph glyph-name="l" unicode="l" horiz-adv-x="210" 
d="M133 690v-690h-56v690h56z" />
    <glyph glyph-name="m" unicode="m" horiz-adv-x="820" 
d="M132 481v-71q41 81 138 81q56 0 98.5 -28t60.5 -78q17 51 55.5 78.5t94.5 27.5q75 0 123.5 -48.5t48.5 -132.5v-310h-57v299q0 65 -34.5 100.5t-91.5 35.5q-56 0 -91.5 -36t-35.5 -100v-299h-57v299q0 65 -34.5 100.5t-90.5 35.5t-91 -33.5t-36 -95.5v-306h-57v481h57z
" />
    <glyph glyph-name="n" unicode="n" horiz-adv-x="541" 
d="M132 481v-84q43 94 153 94q84 0 135 -54.5t51 -141.5v-295h-56v285q0 67 -38 108.5t-104 41.5q-64 0 -101.5 -39.5t-39.5 -104.5v-291h-57v481h57z" />
    <glyph glyph-name="o" unicode="o" horiz-adv-x="584" 
d="M42 241q0 106 72 178t178 72t178 -72t72 -178q0 -107 -72 -179t-178 -72t-178 72.5t-72 178.5zM101 241q0 -82 55 -138.5t136 -56.5t136.5 56.5t55.5 138.5q0 81 -55.5 137.5t-136.5 56.5t-136 -56.5t-55 -137.5z" />
    <glyph glyph-name="p" unicode="p" horiz-adv-x="618" 
d="M132 481v-116q27 58 79.5 92t120.5 34q104 0 173.5 -72t69.5 -178q0 -107 -69.5 -179t-173.5 -72q-68 0 -120.5 33t-79.5 90v-318h-57v686h57zM132 241q0 -82 55 -138.5t137 -56.5q81 0 136.5 56.5t55.5 138.5q0 81 -55.5 137.5t-136.5 56.5q-82 0 -137 -56t-55 -138z
" />
    <glyph glyph-name="q" unicode="q" horiz-adv-x="619" 
d="M486 367v114h57v-686h-57v318q-28 -57 -80 -90t-119 -33q-105 0 -175 72t-70 179q0 106 70 178t175 72q67 0 119 -33.5t80 -90.5zM486 241q0 81 -55.5 137.5t-136.5 56.5t-136.5 -56.5t-55.5 -137.5q0 -82 55.5 -138.5t136.5 -56.5t136.5 56.5t55.5 138.5z" />
    <glyph glyph-name="r" unicode="r" horiz-adv-x="321" 
d="M132 481v-72q37 82 129 82q20 0 43 -5v-61q-25 10 -52 10q-59 0 -88.5 -38.5t-31.5 -105.5v-291h-57v481h57z" />
    <glyph glyph-name="s" unicode="s" horiz-adv-x="378" 
d="M316 463v-65q-52 41 -113 41q-44 0 -69 -20.5t-25 -53.5q0 -22 12 -37t39 -32l93 -56q82 -50 82 -121q0 -61 -44 -95t-116 -34q-64 0 -124 32v67q54 -48 124 -48q47 0 74 21.5t27 55.5q0 42 -59 77l-96 59q-71 43 -71 111q0 55 40 90.5t114 35.5q62 0 112 -28z" />
    <glyph glyph-name="t" unicode="t" horiz-adv-x="286" 
d="M171 0h-57v431h-98v50h100v125l55 16v-141h101v-50h-101v-431z" />
    <glyph glyph-name="u" unicode="u" horiz-adv-x="544" 
d="M410 0v83q-43 -93 -153 -93q-84 0 -135 54.5t-51 141.5v295h57v-285q0 -67 37.5 -108.5t103.5 -41.5q64 0 101.5 39t39.5 104v292h57v-481h-57z" />
    <glyph glyph-name="v" unicode="v" horiz-adv-x="495" 
d="M20 481h61l166 -412l168 412h60l-197 -481h-61z" />
    <glyph glyph-name="w" unicode="w" horiz-adv-x="762" 
d="M25 481h61l124 -409l132 352l-24 57h60l173 -409l125 409h61l-152 -481h-61l-152 358l-134 -358h-62z" />
    <glyph glyph-name="x" unicode="x" horiz-adv-x="438" 
d="M218 196l-133 -196h-69l168 241l-168 240h69l133 -196l135 196h68l-167 -240l167 -241h-68z" />
    <glyph glyph-name="y" unicode="y" horiz-adv-x="485" 
d="M104 -205l107 242l-190 444h65l156 -373l160 373h65l-298 -686h-65z" />
    <glyph glyph-name="z" unicode="z" horiz-adv-x="384" 
d="M344 431l-242 -382h242v-49h-309v50l242 381h-231v50h298v-50z" />
    <glyph glyph-name="braceleft" unicode="{" horiz-adv-x="295" 
d="M9 222v41h30q81 0 81 99v185q0 77 30.5 110t88.5 33h32v-41h-27q-38 0 -58.5 -22.5t-20.5 -82.5v-187q0 -96 -68 -115q68 -19 68 -115v-186q0 -60 20.5 -82.5t58.5 -22.5h27v-41h-32q-58 0 -88.5 33.5t-30.5 110.5v183q0 100 -81 100h-30z" />
    <glyph glyph-name="bar" unicode="|" horiz-adv-x="209" 
d="M127 690v-895h-45v895h45z" />
    <glyph glyph-name="braceright" unicode="}" horiz-adv-x="295" 
d="M285 263v-41h-30q-81 0 -81 -99v-185q0 -77 -30.5 -110t-87.5 -33h-33v41h27q38 0 58.5 22.5t20.5 82.5v187q0 96 68 115q-68 19 -68 115v186q0 60 -20.5 82.5t-58.5 22.5h-27v41h32q58 0 88.5 -33.5t30.5 -110.5v-183q0 -100 81 -100h30z" />
    <glyph glyph-name="asciitilde" unicode="~" 
d="M480 319v-53q-39 -37 -104 -37q-40 0 -121 33t-114 33q-61 0 -101 -44v53q44 37 103 37q40 0 119.5 -33t115.5 -33q65 0 102 44z" />
    <glyph glyph-name="uni00A0" unicode="&#xa0;" horiz-adv-x="243" 
 />
    <glyph glyph-name="exclamdown" unicode="&#xa1;" horiz-adv-x="216" 
d="M85 276h46l8 -475h-62zM157 442q0 -21 -14 -35t-35 -14t-35 14t-14 35t14 35t35 14t35 -14t14 -35z" />
    <glyph glyph-name="cent" unicode="&#xa2;" 
d="M333 690v-95q65 -5 114 -36v-66q-48 40 -114 46v-387q66 6 114 46v-64q-48 -33 -114 -39v-95h-45v96q-98 9 -162 79.5t-64 170.5q0 99 64 169t162 79v96h45zM121 346q0 -75 47.5 -130t119.5 -64v386q-72 -9 -119.5 -63.5t-47.5 -128.5z" />
    <glyph glyph-name="sterling" unicode="&#xa3;" 
d="M43 342h96q-28 106 -28 161q0 83 52 135t140 52q99 0 149 -39v-72q-60 54 -146 54q-62 0 -98.5 -36.5t-36.5 -95.5q0 -52 31 -159h202v-44h-190q19 -78 19 -122q0 -77 -57 -122h276v-54h-355v50q31 18 51.5 51t20.5 72q0 52 -19 125h-107v44z" />
    <glyph glyph-name="currency" unicode="&#xa4;" horiz-adv-x="474" 
d="M83 285q0 49 25 86l-48 49l35 35l46 -48q41 36 97 36q52 0 94 -32l43 43l34 -33l-43 -45q30 -42 30 -91q0 -52 -31 -94l46 -46l-35 -35l-48 45q-39 -28 -90 -28q-56 0 -94 32l-47 -47l-34 34l47 48q-27 41 -27 91zM134 285q0 -47 29.5 -78.5t74.5 -31.5q46 0 76 31.5
t30 78.5q0 46 -30 77.5t-76 31.5q-45 0 -74.5 -31.5t-29.5 -77.5z" />
    <glyph glyph-name="yen" unicode="&#xa5;" 
d="M67 197h164v101h-164v44h142l-193 338h67l177 -316l177 316h68l-194 -338h141v-44h-163v-101h163v-43h-163v-154h-58v154h-164v43z" />
    <glyph glyph-name="brokenbar" unicode="&#xa6;" horiz-adv-x="217" 
d="M131 394h-45v296h45v-296zM86 108h45v-313h-45v313z" />
    <glyph glyph-name="section" unicode="&#xa7;" horiz-adv-x="490" 
d="M410 577q-76 58 -152 58q-60 0 -97 -24t-37 -65q0 -46 69 -83l135 -70q59 -30 83.5 -63.5t24.5 -77.5q0 -68 -67 -111q67 -46 67 -120q0 -61 -54.5 -104.5t-150.5 -43.5q-88 0 -167 47v71q78 -62 166 -62q67 0 105.5 27t38.5 66q0 52 -78 92l-137 73q-97 50 -97 129
q0 75 71 113q-71 46 -71 118q0 59 50.5 101.5t147.5 42.5q78 0 150 -45v-69zM185 402q-63 -26 -63 -82q0 -48 72 -85l124 -68q59 29 59 81q0 53 -86 97z" />
    <glyph glyph-name="dieresis" unicode="&#xa8;" horiz-adv-x="580" 
d="M160 631q0 17 12 28.5t28 11.5q18 0 29.5 -11.5t11.5 -28.5t-11.5 -28.5t-29.5 -11.5q-17 0 -28.5 11.5t-11.5 28.5zM339 631q0 17 11.5 28.5t28.5 11.5q18 0 29.5 -11.5t11.5 -28.5t-11.5 -28.5t-29.5 -11.5q-17 0 -28.5 11.5t-11.5 28.5z" />
    <glyph glyph-name="copyright" unicode="&#xa9;" horiz-adv-x="809" 
d="M50 344q0 155 103 255t252 100q148 0 251 -100t103 -255q0 -156 -103 -256.5t-251 -100.5t-251.5 100.5t-103.5 256.5zM95 344q0 -139 89.5 -226.5t220.5 -87.5t220.5 87.5t89.5 226.5t-89.5 225.5t-220.5 86.5t-220.5 -86.5t-89.5 -225.5zM526 227v-55q-48 -27 -107 -27
q-88 0 -147 56.5t-59 139.5t59 140t147 57q58 0 107 -28v-55q-46 36 -107 36q-67 0 -112.5 -43.5t-45.5 -106.5t45.5 -106t112.5 -43q64 0 107 35z" />
    <glyph glyph-name="ordfeminine" unicode="&#xaa;" horiz-adv-x="333" 
d="M70 547v49q50 24 97 24q51 0 83 -28.5t32 -87.5v-191h-49v34q-10 -19 -33 -30t-52 -11q-48 0 -77 29t-29 72q0 42 31 70t77 28q26 0 49.5 -11.5t33.5 -27.5v39q0 37 -20.5 54t-52.5 17q-43 0 -90 -29zM91 407q0 -26 20.5 -44.5t49.5 -18.5t49.5 18.5t20.5 44.5t-21 44.5
t-50 18.5t-49 -18.5t-20 -44.5zM63 249h213v-43h-213v43z" />
    <glyph glyph-name="guillemotleft" unicode="&#xab;" horiz-adv-x="459" 
d="M43 285l161 207l32 -26l-131 -181l131 -181l-32 -26zM217 285l161 207l32 -26l-131 -181l131 -181l-32 -26z" />
    <glyph glyph-name="logicalnot" unicode="&#xac;" 
d="M39 342v47h441v-244h-50v197h-391z" />
    <glyph glyph-name="uni00AD" unicode="&#xad;" horiz-adv-x="377" 
d="M311 259h-245v53h245v-53z" />
    <glyph glyph-name="registered" unicode="&#xae;" horiz-adv-x="594" 
d="M48 516q0 109 72.5 179.5t176.5 70.5q105 0 177 -70.5t72 -179.5t-72.5 -180t-176.5 -71t-176.5 71t-72.5 180zM82 516q0 -97 62 -157.5t153 -60.5q92 0 153.5 60.5t61.5 157.5t-61.5 157t-153.5 60q-91 0 -153 -60t-62 -157zM216 383v268h84q40 0 64.5 -19.5t24.5 -54.5
q0 -28 -16.5 -46t-43.5 -24q26 -12 47 -45t28 -79h-38q-10 49 -33.5 80t-51.5 31h-28v-111h-37zM351 573q0 20 -14 31.5t-37 11.5h-47v-87h47q23 0 37 11.5t14 32.5z" />
    <glyph glyph-name="macron" unicode="&#xaf;" horiz-adv-x="580" 
d="M155 647h270v-42h-270v42z" />
    <glyph glyph-name="degree" unicode="&#xb0;" horiz-adv-x="387" 
d="M45 535q0 64 42.5 108t105.5 44q65 0 107.5 -44t42.5 -108q0 -62 -43 -106.5t-107 -44.5q-63 0 -105.5 44.5t-42.5 106.5zM88 535q0 -46 30 -78t75 -32q47 0 76.5 31.5t29.5 78.5t-29.5 79t-76.5 32q-45 0 -75 -32t-30 -79z" />
    <glyph glyph-name="plusminus" unicode="&#xb1;" 
d="M39 394v46h194v199h51v-199h196v-46h-196v-192h-51v192h-194zM39 50v46h441v-46h-441z" />
    <glyph glyph-name="twosuperior" unicode="&#xb2;" horiz-adv-x="287" 
d="M30 422v42l130 152q44 53 44 88q0 30 -20.5 48t-53.5 18q-51 0 -92 -39v54q40 31 95 31q56 0 87.5 -29.5t31.5 -75.5q0 -25 -8.5 -47.5t-17.5 -34.5t-26 -33l-110 -129h161v-45h-221z" />
    <glyph glyph-name="threesuperior" unicode="&#xb3;" horiz-adv-x="289" 
d="M67 603v45h61q29 0 48.5 17.5t19.5 43.5q0 28 -20 44t-54 16q-50 0 -81 -23v53q30 17 82 17q54 0 88 -29t34 -73q0 -64 -54 -88q29 -11 47 -37t18 -61q0 -49 -37 -80.5t-94 -31.5q-49 0 -89 20v55q39 -28 87 -28q37 0 61 19.5t24 50.5q0 30 -22.5 50t-56.5 20h-62z" />
    <glyph glyph-name="acute" unicode="&#xb4;" horiz-adv-x="580" 
d="M302 696h54l-84 -147h-48z" />
    <glyph glyph-name="mu" unicode="&#xb5;" horiz-adv-x="559" 
d="M418 0v83q-43 -93 -153 -93q-89 0 -129 66v-261h-57v686h57v-285q0 -67 37.5 -108.5t103.5 -41.5q64 0 101.5 39t39.5 104v292h57v-481h-57z" />
    <glyph glyph-name="paragraph" unicode="&#xb6;" horiz-adv-x="471" 
d="M178 481h86v-686h-47v416h-39q-75 0 -112.5 36t-37.5 99t37.5 99t112.5 36zM388 -205h-47v686h47v-686z" />
    <glyph glyph-name="periodcentered" unicode="&#xb7;" horiz-adv-x="225" 
d="M63 280q0 21 14 35t35 14t35 -14t14 -35t-14 -35t-35 -14t-35 14t-14 35z" />
    <glyph glyph-name="cedilla" unicode="&#xb8;" horiz-adv-x="580" 
d="M292 -152h-56l56 156h52z" />
    <glyph glyph-name="onesuperior" unicode="&#xb9;" horiz-adv-x="284" 
d="M28 422v45h106v300h-96v44h143v-344h89v-45h-242z" />
    <glyph glyph-name="ordmasculine" unicode="&#xba;" horiz-adv-x="364" 
d="M25 463q0 67 45 112t111 45q67 0 112.5 -45t45.5 -112q0 -66 -45.5 -111.5t-112.5 -45.5q-66 0 -111 45.5t-45 111.5zM73 463q0 -47 31 -78.5t77 -31.5t77.5 31.5t31.5 78.5t-31.5 78.5t-77.5 31.5t-77 -31.5t-31 -78.5zM76 249h213v-43h-213v43z" />
    <glyph glyph-name="guillemotright" unicode="&#xbb;" horiz-adv-x="461" 
d="M418 285l-161 -207l-32 26l131 181l-131 181l32 26zM242 285l-161 -207l-32 26l131 181l-131 181l32 26z" />
    <glyph glyph-name="onequarter" unicode="&#xbc;" horiz-adv-x="765" 
d="M228 0l302 680h48l-303 -680h-47zM46 291v45h106v300h-96v44h143v-344h89v-45h-242zM733 85h-57v-85h-47v85h-192v40l192 264h47v-259h57v-45zM487 130h142v191z" />
    <glyph glyph-name="onehalf" unicode="&#xbd;" horiz-adv-x="762" 
d="M227 0l302 680h48l-303 -680h-47zM46 291v45h106v300h-96v44h143v-344h89v-45h-242zM495 0v42l130 152q44 53 44 88q0 30 -20.5 48t-53.5 18q-51 0 -92 -39v54q40 31 95 31q56 0 87.5 -29.5t31.5 -75.5q0 -25 -8.5 -47.5t-17.5 -34.5t-26 -33l-110 -129h161v-45h-221z
" />
    <glyph glyph-name="threequarters" unicode="&#xbe;" horiz-adv-x="748" 
d="M211 0l302 680h48l-303 -680h-47zM716 85h-57v-85h-47v85h-192v40l192 264h47v-259h57v-45zM470 130h142v191zM81 472v45h61q29 0 48.5 17.5t19.5 43.5q0 28 -20 44t-54 16q-50 0 -81 -23v53q30 17 82 17q54 0 88 -29t34 -73q0 -64 -54 -88q29 -11 47 -37t18 -61
q0 -49 -37 -80.5t-94 -31.5q-49 0 -89 20v55q39 -28 87 -28q37 0 61 19.5t24 50.5q0 30 -22.5 50t-56.5 20h-62z" />
    <glyph glyph-name="questiondown" unicode="&#xbf;" horiz-adv-x="410" 
d="M210 276h59q0 -49 -15 -77.5t-50 -60.5l-60 -56q-29 -26 -40 -52.5t-11 -63.5q0 -50 35.5 -83.5t107.5 -33.5q79 0 139 58v-76q-62 -40 -142 -40q-101 0 -150.5 50.5t-49.5 121.5q0 86 66 151l58 54q53 49 53 108zM289 442q0 -21 -14 -35t-35 -14t-35 14t-14 35t14 35
t35 14t35 -14t14 -35z" />
    <glyph glyph-name="Agrave" unicode="&#xc0;" horiz-adv-x="618" 
d="M535 0l-81 213h-291l-79 -213h-65l258 680h65l258 -680h-65zM309 604l-127 -336h253zM201 875h55l77 -147h-48z" />
    <glyph glyph-name="Aacute" unicode="&#xc1;" horiz-adv-x="618" 
d="M535 0l-81 213h-291l-79 -213h-65l258 680h65l258 -680h-65zM309 604l-127 -336h253zM370 875h54l-84 -147h-48z" />
    <glyph glyph-name="Acircumflex" unicode="&#xc2;" horiz-adv-x="618" 
d="M535 0l-81 213h-291l-79 -213h-65l258 680h65l258 -680h-65zM309 604l-127 -336h253zM282 875h57l104 -147h-51l-81 114l-82 -114h-50z" />
    <glyph glyph-name="Atilde" unicode="&#xc3;" horiz-adv-x="618" 
d="M535 0l-81 213h-291l-79 -213h-65l258 680h65l258 -680h-65zM309 604l-127 -336h253zM444 809v-51q-30 28 -67 28q-21 0 -64 -18t-72 -18q-42 0 -66 22v49q26 -26 66 -26q23 0 64.5 17.5t71.5 17.5q35 0 67 -21z" />
    <glyph glyph-name="Adieresis" unicode="&#xc4;" horiz-adv-x="618" 
d="M535 0l-81 213h-291l-79 -213h-65l258 680h65l258 -680h-65zM309 604l-127 -336h253zM179 810q0 16 11.5 28t28.5 12q18 0 29.5 -11.5t11.5 -28.5t-11.5 -28.5t-29.5 -11.5q-17 0 -28.5 11.5t-11.5 28.5zM358 810q0 16 12 28t28 12q18 0 29.5 -11.5t11.5 -28.5
t-11.5 -28.5t-29.5 -11.5q-17 0 -28.5 11.5t-11.5 28.5z" />
    <glyph glyph-name="Aring" unicode="&#xc5;" horiz-adv-x="618" 
d="M535 0l-81 213h-291l-79 -213h-65l258 680h65l258 -680h-65zM309 604l-127 -336h253zM211 807q0 41 27.5 68t70.5 27q44 0 71.5 -27t27.5 -68q0 -40 -27.5 -67t-71.5 -27q-43 0 -70.5 27t-27.5 67zM249 807q0 -26 16.5 -42.5t43.5 -16.5t43.5 16.5t16.5 42.5t-16.5 42.5
t-43.5 16.5t-43.5 -16.5t-16.5 -42.5z" />
    <glyph glyph-name="AE" unicode="&#xc6;" horiz-adv-x="866" 
d="M796 0h-355v213h-257l-145 -213h-72l467 680h362v-54h-297v-257h277v-54h-277v-261h297v-54zM217 268h224v330z" />
    <glyph glyph-name="Ccedilla" unicode="&#xc7;" horiz-adv-x="636" 
d="M358 -152h-56l52 145q-134 14 -220.5 111.5t-86.5 235.5q0 149 100.5 249.5t249.5 100.5q106 0 190 -54v-70q-78 67 -190 67q-123 0 -206 -84.5t-83 -208.5t83 -208.5t206 -84.5q111 0 190 66v-69q-79 -51 -182 -54z" />
    <glyph glyph-name="Egrave" unicode="&#xc8;" horiz-adv-x="519" 
d="M450 0h-355v680h355v-54h-297v-257h277v-54h-277v-261h297v-54zM176 875h55l77 -147h-48z" />
    <glyph glyph-name="Eacute" unicode="&#xc9;" horiz-adv-x="519" 
d="M450 0h-355v680h355v-54h-297v-257h277v-54h-277v-261h297v-54zM326 875h54l-84 -147h-48z" />
    <glyph glyph-name="Ecircumflex" unicode="&#xca;" horiz-adv-x="519" 
d="M450 0h-355v680h355v-54h-297v-257h277v-54h-277v-261h297v-54zM244 875h57l104 -147h-51l-81 114l-82 -114h-50z" />
    <glyph glyph-name="Edieresis" unicode="&#xcb;" horiz-adv-x="519" 
d="M450 0h-355v680h355v-54h-297v-257h277v-54h-277v-261h297v-54zM143 810q0 16 11.5 28t28.5 12q18 0 29.5 -11.5t11.5 -28.5t-11.5 -28.5t-29.5 -11.5q-17 0 -28.5 11.5t-11.5 28.5zM322 810q0 16 12 28t28 12q18 0 29.5 -11.5t11.5 -28.5t-11.5 -28.5t-29.5 -11.5
q-17 0 -28.5 11.5t-11.5 28.5z" />
    <glyph glyph-name="Igrave" unicode="&#xcc;" horiz-adv-x="248" 
d="M95 0v680h58v-680h-58zM17 875h55l77 -147h-48z" />
    <glyph glyph-name="Iacute" unicode="&#xcd;" horiz-adv-x="248" 
d="M95 0v680h58v-680h-58zM181 875h54l-84 -147h-48z" />
    <glyph glyph-name="Icircumflex" unicode="&#xce;" horiz-adv-x="248" 
d="M95 0v680h58v-680h-58zM96 875h57l104 -147h-51l-81 114l-82 -114h-50z" />
    <glyph glyph-name="Idieresis" unicode="&#xcf;" horiz-adv-x="248" 
d="M95 0v680h58v-680h-58zM-6 810q0 16 12 28t28 12q18 0 29.5 -11.5t11.5 -28.5t-11.5 -28.5t-29.5 -11.5q-17 0 -28.5 11.5t-11.5 28.5zM173 810q0 16 11.5 28t28.5 12q18 0 29.5 -11.5t11.5 -28.5t-11.5 -28.5t-29.5 -11.5q-17 0 -28.5 11.5t-11.5 28.5z" />
    <glyph glyph-name="Eth" unicode="&#xd0;" horiz-adv-x="716" 
d="M30 362h72v318h233q149 0 240 -94.5t91 -245.5t-91 -245.5t-240 -94.5h-233v320h-72v42zM335 626h-175v-264h141v-42h-141v-266h175q123 0 197 80t74 206t-74 206t-197 80z" />
    <glyph glyph-name="Ntilde" unicode="&#xd1;" horiz-adv-x="715" 
d="M562 0l-404 535v-535h-58v607l-46 67v6h72l436 -582v582h58v-680h-58zM498 809v-51q-30 28 -67 28q-21 0 -64 -18t-72 -18q-42 0 -66 22v49q26 -26 66 -26q23 0 64.5 17.5t71.5 17.5q35 0 67 -21z" />
    <glyph glyph-name="Ograve" unicode="&#xd2;" horiz-adv-x="794" 
d="M47 340q0 149 100.5 249.5t249.5 100.5t249.5 -100.5t100.5 -249.5t-100.5 -249.5t-249.5 -100.5t-249.5 100.5t-100.5 249.5zM108 340q0 -124 83 -208.5t206 -84.5t206.5 84.5t83.5 208.5t-83.5 208.5t-206.5 84.5t-206 -84.5t-83 -208.5zM284 875h55l77 -147h-48z" />
    <glyph glyph-name="Oacute" unicode="&#xd3;" horiz-adv-x="794" 
d="M47 340q0 149 100.5 249.5t249.5 100.5t249.5 -100.5t100.5 -249.5t-100.5 -249.5t-249.5 -100.5t-249.5 100.5t-100.5 249.5zM108 340q0 -124 83 -208.5t206 -84.5t206.5 84.5t83.5 208.5t-83.5 208.5t-206.5 84.5t-206 -84.5t-83 -208.5zM448 875h54l-84 -147h-48z" />
    <glyph glyph-name="Ocircumflex" unicode="&#xd4;" horiz-adv-x="794" 
d="M47 340q0 149 100.5 249.5t249.5 100.5t249.5 -100.5t100.5 -249.5t-100.5 -249.5t-249.5 -100.5t-249.5 100.5t-100.5 249.5zM108 340q0 -124 83 -208.5t206 -84.5t206.5 84.5t83.5 208.5t-83.5 208.5t-206.5 84.5t-206 -84.5t-83 -208.5zM368 875h57l104 -147h-51
l-81 114l-82 -114h-50z" />
    <glyph glyph-name="Otilde" unicode="&#xd5;" horiz-adv-x="794" 
d="M47 340q0 149 100.5 249.5t249.5 100.5t249.5 -100.5t100.5 -249.5t-100.5 -249.5t-249.5 -100.5t-249.5 100.5t-100.5 249.5zM108 340q0 -124 83 -208.5t206 -84.5t206.5 84.5t83.5 208.5t-83.5 208.5t-206.5 84.5t-206 -84.5t-83 -208.5zM531 809v-51q-30 28 -67 28
q-21 0 -64 -18t-72 -18q-42 0 -66 22v49q26 -26 66 -26q23 0 64.5 17.5t71.5 17.5q36 0 67 -21z" />
    <glyph glyph-name="Odieresis" unicode="&#xd6;" horiz-adv-x="794" 
d="M47 340q0 149 100.5 249.5t249.5 100.5t249.5 -100.5t100.5 -249.5t-100.5 -249.5t-249.5 -100.5t-249.5 100.5t-100.5 249.5zM108 340q0 -124 83 -208.5t206 -84.5t206.5 84.5t83.5 208.5t-83.5 208.5t-206.5 84.5t-206 -84.5t-83 -208.5zM267 810q0 16 11.5 28t28.5 12
q18 0 29.5 -11.5t11.5 -28.5t-11.5 -28.5t-29.5 -11.5q-17 0 -28.5 11.5t-11.5 28.5zM446 810q0 16 12 28t28 12q18 0 29.5 -11.5t11.5 -28.5t-11.5 -28.5t-29.5 -11.5q-17 0 -28.5 11.5t-11.5 28.5z" />
    <glyph glyph-name="multiply" unicode="&#xd7;" 
d="M97 89l-33 33l162 162l-166 165l36 35l165 -164l163 163l33 -33l-163 -164l165 -164l-35 -36l-166 165z" />
    <glyph glyph-name="Oslash" unicode="&#xd8;" horiz-adv-x="794" 
d="M47 340q0 149 100.5 249.5t249.5 100.5q103 0 192 -55l44 61l36 -24l-46 -62q59 -48 91.5 -118t32.5 -152q0 -149 -100.5 -249.5t-249.5 -100.5q-106 0 -190 53l-41 -56l-33 24l40 55q-59 48 -92.5 119.5t-33.5 154.5zM108 340q0 -139 101 -225l345 472q-71 46 -157 46
q-123 0 -206 -84.5t-83 -208.5zM687 340q0 137 -99 221l-346 -470q69 -44 155 -44q123 0 206.5 84.5t83.5 208.5z" />
    <glyph glyph-name="Ugrave" unicode="&#xd9;" horiz-adv-x="655" 
d="M509 680h58v-444q0 -112 -64.5 -179t-174.5 -67q-111 0 -176 67t-65 179v444h58v-446q0 -84 50.5 -135.5t133.5 -51.5q81 0 130.5 51.5t49.5 135.5v446zM226 875h55l77 -147h-48z" />
    <glyph glyph-name="Uacute" unicode="&#xda;" horiz-adv-x="655" 
d="M509 680h58v-444q0 -112 -64.5 -179t-174.5 -67q-111 0 -176 67t-65 179v444h58v-446q0 -84 50.5 -135.5t133.5 -51.5q81 0 130.5 51.5t49.5 135.5v446zM377 875h54l-84 -147h-48z" />
    <glyph glyph-name="Ucircumflex" unicode="&#xdb;" horiz-adv-x="655" 
d="M509 680h58v-444q0 -112 -64.5 -179t-174.5 -67q-111 0 -176 67t-65 179v444h58v-446q0 -84 50.5 -135.5t133.5 -51.5q81 0 130.5 51.5t49.5 135.5v446zM299 875h57l104 -147h-51l-81 114l-82 -114h-50z" />
    <glyph glyph-name="Udieresis" unicode="&#xdc;" horiz-adv-x="655" 
d="M509 680h58v-444q0 -112 -64.5 -179t-174.5 -67q-111 0 -176 67t-65 179v444h58v-446q0 -84 50.5 -135.5t133.5 -51.5q81 0 130.5 51.5t49.5 135.5v446zM197 810q0 16 11.5 28t28.5 12q18 0 29.5 -11.5t11.5 -28.5t-11.5 -28.5t-29.5 -11.5q-17 0 -28.5 11.5t-11.5 28.5z
M376 810q0 16 12 28t28 12q18 0 29.5 -11.5t11.5 -28.5t-11.5 -28.5t-29.5 -11.5q-17 0 -28.5 11.5t-11.5 28.5z" />
    <glyph glyph-name="Yacute" unicode="&#xdd;" horiz-adv-x="558" 
d="M250 0v304l-229 376h67l191 -316l191 316h68l-230 -376v-304h-58zM334 875h54l-84 -147h-48z" />
    <glyph glyph-name="Thorn" unicode="&#xde;" horiz-adv-x="515" 
d="M95 0v680h58v-129h126q94 0 151.5 -53t57.5 -145q0 -93 -57.5 -145.5t-151.5 -52.5h-126v-155h-58zM427 352q0 71 -41 108t-107 37h-126v-288h126q67 0 107.5 36t40.5 107z" />
    <glyph glyph-name="germandbls" unicode="&#xdf;" horiz-adv-x="524" 
d="M233 385h38q51 0 89.5 34.5t38.5 95.5q0 63 -37.5 97.5t-92.5 34.5q-68 0 -102.5 -41t-34.5 -112v-494h-57v492q0 94 48 151t146 57q82 0 135 -48.5t53 -132.5q0 -55 -29.5 -97t-76.5 -61q57 -17 93.5 -62.5t36.5 -106.5q0 -96 -57.5 -148.5t-150.5 -52.5q-24 0 -69 8v56
q33 -11 69 -11q65 0 107.5 38t42.5 111q0 67 -43.5 104.5t-107.5 37.5h-39v50z" />
    <glyph glyph-name="agrave" unicode="&#xe0;" horiz-adv-x="470" 
d="M86 396v59q65 36 137 36q79 0 128 -43.5t49 -132.5v-315h-57v61q-20 -32 -56.5 -51.5t-80.5 -19.5q-77 0 -125 46.5t-48 115.5q0 68 50 114.5t124 46.5q42 0 79.5 -20t56.5 -48v70q0 61 -36.5 92t-87.5 31q-68 0 -133 -42zM91 152q0 -48 37 -81.5t88 -33.5
q52 0 89.5 33.5t37.5 81.5q0 46 -38 80t-89 34q-52 0 -88.5 -33.5t-36.5 -80.5zM124 696h55l77 -147h-48z" />
    <glyph glyph-name="aacute" unicode="&#xe1;" horiz-adv-x="470" 
d="M86 396v59q65 36 137 36q79 0 128 -43.5t49 -132.5v-315h-57v61q-20 -32 -56.5 -51.5t-80.5 -19.5q-77 0 -125 46.5t-48 115.5q0 68 50 114.5t124 46.5q42 0 79.5 -20t56.5 -48v70q0 61 -36.5 92t-87.5 31q-68 0 -133 -42zM91 152q0 -48 37 -81.5t88 -33.5
q52 0 89.5 33.5t37.5 81.5q0 46 -38 80t-89 34q-52 0 -88.5 -33.5t-36.5 -80.5zM291 696h54l-84 -147h-48z" />
    <glyph glyph-name="acircumflex" unicode="&#xe2;" horiz-adv-x="469" 
d="M86 396v59q65 36 137 36q79 0 128 -43.5t49 -132.5v-315h-57v61q-20 -32 -56.5 -51.5t-80.5 -19.5q-77 0 -125 46.5t-48 115.5q0 68 50 114.5t124 46.5q42 0 79.5 -20t56.5 -48v70q0 61 -36.5 92t-87.5 31q-68 0 -133 -42zM91 152q0 -48 37 -81.5t88 -33.5
q52 0 89.5 33.5t37.5 81.5q0 46 -38 80t-89 34q-52 0 -88.5 -33.5t-36.5 -80.5zM195 696h57l104 -147h-51l-81 114l-82 -114h-50z" />
    <glyph glyph-name="atilde" unicode="&#xe3;" horiz-adv-x="470" 
d="M86 396v59q65 36 137 36q79 0 128 -43.5t49 -132.5v-315h-57v61q-20 -32 -56.5 -51.5t-80.5 -19.5q-77 0 -125 46.5t-48 115.5q0 68 50 114.5t124 46.5q42 0 79.5 -20t56.5 -48v70q0 61 -36.5 92t-87.5 31q-68 0 -133 -42zM91 152q0 -48 37 -81.5t88 -33.5
q52 0 89.5 33.5t37.5 81.5q0 46 -38 80t-89 34q-52 0 -88.5 -33.5t-36.5 -80.5zM358 630v-51q-30 28 -67 28q-21 0 -64 -18t-72 -18q-42 0 -66 22v49q26 -26 66 -26q23 0 64.5 17.5t71.5 17.5q35 0 67 -21z" />
    <glyph glyph-name="adieresis" unicode="&#xe4;" horiz-adv-x="470" 
d="M86 396v59q65 36 137 36q79 0 128 -43.5t49 -132.5v-315h-57v61q-20 -32 -56.5 -51.5t-80.5 -19.5q-77 0 -125 46.5t-48 115.5q0 68 50 114.5t124 46.5q42 0 79.5 -20t56.5 -48v70q0 61 -36.5 92t-87.5 31q-68 0 -133 -42zM91 152q0 -48 37 -81.5t88 -33.5
q52 0 89.5 33.5t37.5 81.5q0 46 -38 80t-89 34q-52 0 -88.5 -33.5t-36.5 -80.5zM95 631q0 17 11.5 28.5t28.5 11.5q18 0 29.5 -11.5t11.5 -28.5t-11.5 -28.5t-29.5 -11.5q-17 0 -28.5 11.5t-11.5 28.5zM274 631q0 17 12 28.5t28 11.5q18 0 29.5 -11.5t11.5 -28.5
t-11.5 -28.5t-29.5 -11.5q-17 0 -28.5 11.5t-11.5 28.5z" />
    <glyph glyph-name="aring" unicode="&#xe5;" horiz-adv-x="470" 
d="M86 396v59q65 36 137 36q79 0 128 -43.5t49 -132.5v-315h-57v61q-20 -32 -56.5 -51.5t-80.5 -19.5q-77 0 -125 46.5t-48 115.5q0 68 50 114.5t124 46.5q42 0 79.5 -20t56.5 -48v70q0 61 -36.5 92t-87.5 31q-68 0 -133 -42zM91 152q0 -48 37 -81.5t88 -33.5
q52 0 89.5 33.5t37.5 81.5q0 46 -38 80t-89 34q-52 0 -88.5 -33.5t-36.5 -80.5zM129 628q0 41 27.5 68t70.5 27q44 0 71.5 -27t27.5 -68q0 -40 -27.5 -67t-71.5 -27q-43 0 -70.5 27t-27.5 67zM167 628q0 -26 16.5 -42.5t43.5 -16.5t43.5 16.5t16.5 42.5t-16.5 42.5
t-43.5 16.5t-43.5 -16.5t-16.5 -42.5z" />
    <glyph glyph-name="ae" unicode="&#xe6;" horiz-adv-x="860" 
d="M824 217h-415q7 -79 59 -126.5t129 -47.5q49 0 97.5 20t80.5 48v-64q-78 -57 -182 -57q-75 0 -128 32t-80 85q-18 -52 -64 -84.5t-109 -32.5q-81 0 -130 46.5t-49 115.5q0 68 50 114.5t124 46.5q42 0 79.5 -20t56.5 -48v70q0 61 -36.5 92t-87.5 31q-68 0 -133 -42v59
q65 36 137 36q62 0 107 -29.5t58 -89.5q30 55 84 87t119 32q102 0 169 -69t67 -170q0 -22 -3 -35zM91 152q0 -48 37 -81.5t88 -33.5q52 0 89.5 33.5t37.5 81.5q0 46 -38 80t-89 34q-52 0 -88.5 -33.5t-36.5 -80.5zM591 440q-75 0 -126.5 -51t-55.5 -126h362
q-1 78 -52.5 127.5t-127.5 49.5z" />
    <glyph glyph-name="ccedilla" unicode="&#xe7;" horiz-adv-x="471" 
d="M256 -152h-56l52 145q-92 14 -151 83t-59 165q0 106 72 178t179 72q76 0 134 -37v-66q-55 47 -134 47q-81 0 -136.5 -56.5t-55.5 -137.5q0 -82 55.5 -138.5t136.5 -56.5q78 0 134 46v-63q-53 -36 -124 -39z" />
    <glyph glyph-name="egrave" unicode="&#xe8;" horiz-adv-x="552" 
d="M516 216h-415q7 -75 59.5 -124t128.5 -49q49 0 97 20t81 48v-64q-81 -57 -181 -57q-104 0 -174 71.5t-70 179.5q0 106 69 178t172 72q102 0 169 -69t67 -170q0 -24 -3 -36zM283 440q-75 0 -126.5 -50.5t-56.5 -125.5h363q-1 78 -52.5 127t-127.5 49zM187 696h55l77 -147
h-48z" />
    <glyph glyph-name="eacute" unicode="&#xe9;" horiz-adv-x="552" 
d="M516 216h-415q7 -75 59.5 -124t128.5 -49q49 0 97 20t81 48v-64q-81 -57 -181 -57q-104 0 -174 71.5t-70 179.5q0 106 69 178t172 72q102 0 169 -69t67 -170q0 -24 -3 -36zM283 440q-75 0 -126.5 -50.5t-56.5 -125.5h363q-1 78 -52.5 127t-127.5 49zM339 696h54l-84 -147
h-48z" />
    <glyph glyph-name="ecircumflex" unicode="&#xea;" horiz-adv-x="552" 
d="M516 216h-415q7 -75 59.5 -124t128.5 -49q49 0 97 20t81 48v-64q-81 -57 -181 -57q-104 0 -174 71.5t-70 179.5q0 106 69 178t172 72q102 0 169 -69t67 -170q0 -24 -3 -36zM283 440q-75 0 -126.5 -50.5t-56.5 -125.5h363q-1 78 -52.5 127t-127.5 49zM266 696h57l104 -147
h-51l-81 114l-82 -114h-50z" />
    <glyph glyph-name="edieresis" unicode="&#xeb;" horiz-adv-x="552" 
d="M516 216h-415q7 -75 59.5 -124t128.5 -49q49 0 97 20t81 48v-64q-81 -57 -181 -57q-104 0 -174 71.5t-70 179.5q0 106 69 178t172 72q102 0 169 -69t67 -170q0 -24 -3 -36zM283 440q-75 0 -126.5 -50.5t-56.5 -125.5h363q-1 78 -52.5 127t-127.5 49zM158 631
q0 17 12 28.5t28 11.5q18 0 29.5 -11.5t11.5 -28.5t-11.5 -28.5t-29.5 -11.5q-17 0 -28.5 11.5t-11.5 28.5zM337 631q0 17 11.5 28.5t28.5 11.5q18 0 29.5 -11.5t11.5 -28.5t-11.5 -28.5t-29.5 -11.5q-17 0 -28.5 11.5t-11.5 28.5z" />
    <glyph glyph-name="igrave" unicode="&#xec;" horiz-adv-x="207" 
d="M132 481v-481h-57v481h57zM-4 696h55l77 -147h-48z" />
    <glyph glyph-name="iacute" unicode="&#xed;" horiz-adv-x="207" 
d="M132 481v-481h-57v481h57zM159 696h54l-84 -147h-48z" />
    <glyph glyph-name="icircumflex" unicode="&#xee;" horiz-adv-x="207" 
d="M132 481v-481h-57v481h57zM75 696h57l104 -147h-51l-81 114l-82 -114h-50z" />
    <glyph glyph-name="idieresis" unicode="&#xef;" horiz-adv-x="207" 
d="M132 481v-481h-57v481h57zM-26 631q0 17 12 28.5t28 11.5q18 0 29.5 -11.5t11.5 -28.5t-11.5 -28.5t-29.5 -11.5q-17 0 -28.5 11.5t-11.5 28.5zM153 631q0 17 11.5 28.5t28.5 11.5q18 0 29.5 -11.5t11.5 -28.5t-11.5 -28.5t-29.5 -11.5q-17 0 -28.5 11.5t-11.5 28.5z" />
    <glyph glyph-name="eth" unicode="&#xf0;" horiz-adv-x="553" 
d="M398 636l-80 -48l147 -219q46 -69 46 -146q0 -99 -67.5 -166t-166.5 -67t-166 67t-67 166q0 100 67.5 167t165.5 67q31 0 68 -10l-76 112l-84 -51l-21 31l84 51l-61 90h69l41 -61l80 49zM104 223q0 -74 50 -124.5t123 -50.5t123.5 50.5t50.5 124.5t-50.5 125t-123.5 51
t-123 -51t-50 -125z" />
    <glyph glyph-name="ntilde" unicode="&#xf1;" horiz-adv-x="541" 
d="M132 481v-84q43 94 153 94q84 0 135 -54.5t51 -141.5v-295h-56v285q0 67 -38 108.5t-104 41.5q-64 0 -101.5 -39.5t-39.5 -104.5v-291h-57v481h57zM404 630v-51q-30 28 -67 28q-21 0 -64 -18t-72 -18q-42 0 -66 22v49q26 -26 66 -26q23 0 64.5 17.5t71.5 17.5
q35 0 67 -21z" />
    <glyph glyph-name="ograve" unicode="&#xf2;" horiz-adv-x="584" 
d="M42 241q0 106 72 178t178 72t178 -72t72 -178q0 -107 -72 -179t-178 -72t-178 72.5t-72 178.5zM101 241q0 -82 55 -138.5t136 -56.5t136.5 56.5t55.5 138.5q0 81 -55.5 137.5t-136.5 56.5t-136 -56.5t-55 -137.5zM195 696h55l77 -147h-48z" />
    <glyph glyph-name="oacute" unicode="&#xf3;" horiz-adv-x="584" 
d="M42 241q0 106 72 178t178 72t178 -72t72 -178q0 -107 -72 -179t-178 -72t-178 72.5t-72 178.5zM101 241q0 -82 55 -138.5t136 -56.5t136.5 56.5t55.5 138.5q0 81 -55.5 137.5t-136.5 56.5t-136 -56.5t-55 -137.5zM350 696h54l-84 -147h-48z" />
    <glyph glyph-name="ocircumflex" unicode="&#xf4;" horiz-adv-x="584" 
d="M42 241q0 106 72 178t178 72t178 -72t72 -178q0 -107 -72 -179t-178 -72t-178 72.5t-72 178.5zM101 241q0 -82 55 -138.5t136 -56.5t136.5 56.5t55.5 138.5q0 81 -55.5 137.5t-136.5 56.5t-136 -56.5t-55 -137.5zM264 696h57l104 -147h-51l-81 114l-82 -114h-50z" />
    <glyph glyph-name="otilde" unicode="&#xf5;" horiz-adv-x="584" 
d="M42 241q0 106 72 178t178 72t178 -72t72 -178q0 -107 -72 -179t-178 -72t-178 72.5t-72 178.5zM101 241q0 -82 55 -138.5t136 -56.5t136.5 56.5t55.5 138.5q0 81 -55.5 137.5t-136.5 56.5t-136 -56.5t-55 -137.5zM427 630v-51q-30 28 -67 28q-21 0 -64 -18t-72 -18
q-42 0 -66 22v49q26 -26 66 -26q23 0 64.5 17.5t71.5 17.5q36 0 67 -21z" />
    <glyph glyph-name="odieresis" unicode="&#xf6;" horiz-adv-x="584" 
d="M42 241q0 106 72 178t178 72t178 -72t72 -178q0 -107 -72 -179t-178 -72t-178 72.5t-72 178.5zM101 241q0 -82 55 -138.5t136 -56.5t136.5 56.5t55.5 138.5q0 81 -55.5 137.5t-136.5 56.5t-136 -56.5t-55 -137.5zM162 631q0 17 12 28.5t28 11.5q18 0 29.5 -11.5
t11.5 -28.5t-11.5 -28.5t-29.5 -11.5q-17 0 -28.5 11.5t-11.5 28.5zM341 631q0 17 11.5 28.5t28.5 11.5q18 0 29.5 -11.5t11.5 -28.5t-11.5 -28.5t-29.5 -11.5q-17 0 -28.5 11.5t-11.5 28.5z" />
    <glyph glyph-name="divide" unicode="&#xf7;" 
d="M263 53q-22 0 -36.5 14t-14.5 36q0 21 14.5 35t36.5 14t36.5 -14t14.5 -35q0 -22 -14.5 -36t-36.5 -14zM263 417q-22 0 -36.5 14t-14.5 36t14.5 36t36.5 14t36.5 -14t14.5 -36t-14.5 -36t-36.5 -14zM40 262v47h441v-47h-441z" />
    <glyph glyph-name="oslash" unicode="&#xf8;" horiz-adv-x="584" 
d="M42 241q0 106 72 178t178 72q71 0 133 -38l30 42l35 -25l-31 -42q83 -72 83 -187q0 -107 -72 -179t-178 -72q-72 0 -129 34l-27 -37l-33 24l26 37q-87 76 -87 193zM98 241q0 -92 65 -147l230 315q-48 29 -101 29q-81 0 -137.5 -57.5t-56.5 -139.5zM486 241q0 86 -60 141
l-229 -313q41 -26 95 -26q83 0 138.5 57.5t55.5 140.5z" />
    <glyph glyph-name="ugrave" unicode="&#xf9;" horiz-adv-x="544" 
d="M410 0v83q-43 -93 -153 -93q-84 0 -135 54.5t-51 141.5v295h57v-285q0 -67 37.5 -108.5t103.5 -41.5q64 0 101.5 39t39.5 104v292h57v-481h-57zM165 696h55l77 -147h-48z" />
    <glyph glyph-name="uacute" unicode="&#xfa;" horiz-adv-x="544" 
d="M410 0v83q-43 -93 -153 -93q-84 0 -135 54.5t-51 141.5v295h57v-285q0 -67 37.5 -108.5t103.5 -41.5q64 0 101.5 39t39.5 104v292h57v-481h-57zM326 696h54l-84 -147h-48z" />
    <glyph glyph-name="ucircumflex" unicode="&#xfb;" horiz-adv-x="544" 
d="M410 0v83q-43 -93 -153 -93q-84 0 -135 54.5t-51 141.5v295h57v-285q0 -67 37.5 -108.5t103.5 -41.5q64 0 101.5 39t39.5 104v292h57v-481h-57zM244 696h57l104 -147h-51l-81 114l-82 -114h-50z" />
    <glyph glyph-name="udieresis" unicode="&#xfc;" horiz-adv-x="544" 
d="M410 0v83q-43 -93 -153 -93q-84 0 -135 54.5t-51 141.5v295h57v-285q0 -67 37.5 -108.5t103.5 -41.5q64 0 101.5 39t39.5 104v292h57v-481h-57zM143 631q0 17 11.5 28.5t28.5 11.5q18 0 29.5 -11.5t11.5 -28.5t-11.5 -28.5t-29.5 -11.5q-17 0 -28.5 11.5t-11.5 28.5z
M322 631q0 17 12 28.5t28 11.5q18 0 29.5 -11.5t11.5 -28.5t-11.5 -28.5t-29.5 -11.5q-17 0 -28.5 11.5t-11.5 28.5z" />
    <glyph glyph-name="yacute" unicode="&#xfd;" horiz-adv-x="485" 
d="M104 -205l107 242l-190 444h65l156 -373l160 373h65l-298 -686h-65zM303 696h54l-84 -147h-48z" />
    <glyph glyph-name="thorn" unicode="&#xfe;" horiz-adv-x="618" 
d="M132 690v-325q28 58 80 92t120 34q104 0 174 -72t70 -178q0 -107 -70 -179t-174 -72q-68 0 -120 33t-80 90v-318h-56v895h56zM132 241q0 -82 55.5 -138.5t137.5 -56.5q81 0 136.5 56.5t55.5 138.5q0 81 -55.5 137.5t-136.5 56.5q-82 0 -137.5 -56.5t-55.5 -137.5z" />
    <glyph glyph-name="ydieresis" unicode="&#xff;" horiz-adv-x="485" 
d="M104 -205l107 242l-190 444h65l156 -373l160 373h65l-298 -686h-65zM114 631q0 17 12 28.5t28 11.5q18 0 29.5 -11.5t11.5 -28.5t-11.5 -28.5t-29.5 -11.5q-17 0 -28.5 11.5t-11.5 28.5zM293 631q0 17 11.5 28.5t28.5 11.5q18 0 29.5 -11.5t11.5 -28.5t-11.5 -28.5
t-29.5 -11.5q-17 0 -28.5 11.5t-11.5 28.5z" />
    <glyph glyph-name="Amacron" unicode="&#x100;" horiz-adv-x="618" 
d="M535 0l-81 213h-291l-79 -213h-65l258 680h65l258 -680h-65zM309 604l-127 -336h253zM174 826h270v-42h-270v42z" />
    <glyph glyph-name="amacron" unicode="&#x101;" horiz-adv-x="470" 
d="M86 396v59q65 36 137 36q79 0 128 -43.5t49 -132.5v-315h-57v61q-20 -32 -56.5 -51.5t-80.5 -19.5q-77 0 -125 46.5t-48 115.5q0 68 50 114.5t124 46.5q42 0 79.5 -20t56.5 -48v70q0 61 -36.5 92t-87.5 31q-68 0 -133 -42zM91 152q0 -48 37 -81.5t88 -33.5
q52 0 89.5 33.5t37.5 81.5q0 46 -38 80t-89 34q-52 0 -88.5 -33.5t-36.5 -80.5zM92 647h270v-42h-270v42z" />
    <glyph glyph-name="Abreve" unicode="&#x102;" horiz-adv-x="618" 
d="M535 0l-81 213h-291l-79 -213h-65l258 680h65l258 -680h-65zM309 604l-127 -336h253zM397 862h41q0 -58 -35 -94.5t-94 -36.5q-58 0 -93 36.5t-35 94.5h40q2 -40 24 -64.5t64 -24.5t64.5 24.5t23.5 64.5z" />
    <glyph glyph-name="abreve" unicode="&#x103;" horiz-adv-x="470" 
d="M86 396v59q65 36 137 36q79 0 128 -43.5t49 -132.5v-315h-57v61q-20 -32 -56.5 -51.5t-80.5 -19.5q-77 0 -125 46.5t-48 115.5q0 68 50 114.5t124 46.5q42 0 79.5 -20t56.5 -48v70q0 61 -36.5 92t-87.5 31q-68 0 -133 -42zM91 152q0 -48 37 -81.5t88 -33.5
q52 0 89.5 33.5t37.5 81.5q0 46 -38 80t-89 34q-52 0 -88.5 -33.5t-36.5 -80.5zM314 683h41q0 -58 -35 -94.5t-94 -36.5q-58 0 -93 36.5t-35 94.5h40q2 -40 24 -64.5t64 -24.5t64.5 24.5t23.5 64.5z" />
    <glyph glyph-name="Aogonek" unicode="&#x104;" horiz-adv-x="618" 
d="M535 0l-81 213h-291l-79 -213h-65l258 680h65l258 -680l-74 -55q-36 -27 -36 -58q0 -40 40 -40q29 0 70 31v-52q-44 -22 -75 -22q-39 0 -63 20.5t-24 55.5q0 49 51 85l49 35h-3zM309 604l-127 -336h253z" />
    <glyph glyph-name="aogonek" unicode="&#x105;" horiz-adv-x="469" 
d="M86 396v59q65 36 137 36q79 0 128 -43.5t49 -132.5v-315l-74 -55q-36 -27 -36 -58q0 -40 40 -40q29 0 70 31v-52q-44 -22 -75 -22q-39 0 -63 20.5t-24 55.5q0 49 51 85l54 38v58q-20 -32 -56.5 -51.5t-80.5 -19.5q-77 0 -125 46.5t-48 115.5q0 68 50 114.5t124 46.5
q42 0 79.5 -20t56.5 -48v70q0 61 -36.5 92t-87.5 31q-68 0 -133 -42zM91 152q0 -48 37 -81.5t88 -33.5q52 0 89.5 33.5t37.5 81.5q0 46 -38 80t-89 34q-52 0 -88.5 -33.5t-36.5 -80.5z" />
    <glyph glyph-name="Cacute" unicode="&#x106;" horiz-adv-x="636" 
d="M587 113v-69q-84 -54 -190 -54q-149 0 -249.5 100.5t-100.5 249.5t100.5 249.5t249.5 100.5q106 0 190 -54v-70q-78 67 -190 67q-123 0 -206 -84.5t-83 -208.5t83 -208.5t206 -84.5q111 0 190 66zM449 875h54l-84 -147h-48z" />
    <glyph glyph-name="cacute" unicode="&#x107;" horiz-adv-x="471" 
d="M427 92v-63q-58 -39 -134 -39q-107 0 -179 72t-72 179q0 106 72 178t179 72q76 0 134 -37v-66q-55 47 -134 47q-81 0 -136.5 -56.5t-55.5 -137.5q0 -82 55.5 -138.5t136.5 -56.5q78 0 134 46zM335 696h54l-84 -147h-48z" />
    <glyph glyph-name="Ccircumflex" unicode="&#x108;" horiz-adv-x="636" 
d="M587 113v-69q-84 -54 -190 -54q-149 0 -249.5 100.5t-100.5 249.5t100.5 249.5t249.5 100.5q106 0 190 -54v-70q-78 67 -190 67q-123 0 -206 -84.5t-83 -208.5t83 -208.5t206 -84.5q111 0 190 66zM363 875h57l104 -147h-51l-81 114l-82 -114h-50z" />
    <glyph glyph-name="ccircumflex" unicode="&#x109;" horiz-adv-x="471" 
d="M427 92v-63q-58 -39 -134 -39q-107 0 -179 72t-72 179q0 106 72 178t179 72q76 0 134 -37v-66q-55 47 -134 47q-81 0 -136.5 -56.5t-55.5 -137.5q0 -82 55.5 -138.5t136.5 -56.5q78 0 134 46zM258 696h57l104 -147h-51l-81 114l-82 -114h-50z" />
    <glyph glyph-name="Cdotaccent" unicode="&#x10a;" horiz-adv-x="636" 
d="M587 113v-69q-84 -54 -190 -54q-149 0 -249.5 100.5t-100.5 249.5t100.5 249.5t249.5 100.5q106 0 190 -54v-70q-78 67 -190 67q-123 0 -206 -84.5t-83 -208.5t83 -208.5t206 -84.5q111 0 190 66zM351 810q0 17 12.5 29.5t29.5 12.5q19 0 31 -12t12 -30t-12 -30t-31 -12
q-17 0 -29.5 12t-12.5 30z" />
    <glyph glyph-name="cdotaccent" unicode="&#x10b;" horiz-adv-x="471" 
d="M427 92v-63q-58 -39 -134 -39q-107 0 -179 72t-72 179q0 106 72 178t179 72q76 0 134 -37v-66q-55 47 -134 47q-81 0 -136.5 -56.5t-55.5 -137.5q0 -82 55.5 -138.5t136.5 -56.5q78 0 134 46zM248 631q0 17 12.5 29.5t29.5 12.5q18 0 30.5 -12.5t12.5 -29.5
q0 -18 -12 -30t-31 -12q-17 0 -29.5 12t-12.5 30z" />
    <glyph glyph-name="Ccaron" unicode="&#x10c;" horiz-adv-x="636" 
d="M587 113v-69q-84 -54 -190 -54q-149 0 -249.5 100.5t-100.5 249.5t100.5 249.5t249.5 100.5q106 0 190 -54v-70q-78 67 -190 67q-123 0 -206 -84.5t-83 -208.5t83 -208.5t206 -84.5q111 0 190 66zM420 728h-57l-103 147h49l83 -115l82 115h50z" />
    <glyph glyph-name="ccaron" unicode="&#x10d;" horiz-adv-x="471" 
d="M427 92v-63q-58 -39 -134 -39q-107 0 -179 72t-72 179q0 106 72 178t179 72q76 0 134 -37v-66q-55 47 -134 47q-81 0 -136.5 -56.5t-55.5 -137.5q0 -82 55.5 -138.5t136.5 -56.5q78 0 134 46zM315 549h-57l-103 147h49l83 -115l82 115h50z" />
    <glyph glyph-name="Dcaron" unicode="&#x10e;" horiz-adv-x="708" 
d="M95 0v680h233q149 0 240 -94.5t91 -245.5t-91 -245.5t-240 -94.5h-233zM327 626h-174v-572h174q123 0 197.5 80t74.5 206t-74.5 206t-197.5 80zM345 728h-57l-103 147h49l83 -115l82 115h50z" />
    <glyph glyph-name="dcaron" unicode="&#x10f;" horiz-adv-x="618" 
d="M486 0v113q-28 -57 -80 -90t-119 -33q-105 0 -175 72t-70 179q0 106 70 178t175 72q67 0 119 -33.5t80 -90.5v323h57v-690h-57zM486 241q0 81 -55.5 137.5t-136.5 56.5t-136.5 -56.5t-55.5 -137.5q0 -82 55.5 -138.5t136.5 -56.5t136.5 56.5t55.5 138.5zM642 536h-47
l26 145h60z" />
    <glyph glyph-name="Dcroat" unicode="&#x110;" horiz-adv-x="716" 
d="M30 362h72v318h233q149 0 240 -94.5t91 -245.5t-91 -245.5t-240 -94.5h-233v320h-72v42zM335 626h-175v-264h141v-42h-141v-266h175q123 0 197 80t74 206t-74 206t-197 80z" />
    <glyph glyph-name="dcroat" unicode="&#x111;" horiz-adv-x="618" 
d="M486 0v113q-28 -57 -80 -90t-119 -33q-105 0 -175 72t-70 179q0 106 70 178t175 72q67 0 119 -33.5t80 -90.5v192h-150v40h150v91h57v-91h68v-40h-68v-559h-57zM486 241q0 81 -55.5 137.5t-136.5 56.5t-136.5 -56.5t-55.5 -137.5q0 -82 55.5 -138.5t136.5 -56.5
t136.5 56.5t55.5 138.5z" />
    <glyph glyph-name="Emacron" unicode="&#x112;" horiz-adv-x="519" 
d="M450 0h-355v680h355v-54h-297v-257h277v-54h-277v-261h297v-54zM142 826h270v-42h-270v42z" />
    <glyph glyph-name="emacron" unicode="&#x113;" horiz-adv-x="552" 
d="M516 216h-415q7 -75 59.5 -124t128.5 -49q49 0 97 20t81 48v-64q-81 -57 -181 -57q-104 0 -174 71.5t-70 179.5q0 106 69 178t172 72q102 0 169 -69t67 -170q0 -24 -3 -36zM283 440q-75 0 -126.5 -50.5t-56.5 -125.5h363q-1 78 -52.5 127t-127.5 49zM155 647h270v-42
h-270v42z" />
    <glyph glyph-name="Ebreve" unicode="&#x114;" horiz-adv-x="519" 
d="M450 0h-355v680h355v-54h-297v-257h277v-54h-277v-261h297v-54zM361 862h41q0 -58 -35 -94.5t-94 -36.5q-58 0 -93 36.5t-35 94.5h40q2 -40 24 -64.5t64 -24.5t64.5 24.5t23.5 64.5z" />
    <glyph glyph-name="ebreve" unicode="&#x115;" horiz-adv-x="552" 
d="M516 216h-415q7 -75 59.5 -124t128.5 -49q49 0 97 20t81 48v-64q-81 -57 -181 -57q-104 0 -174 71.5t-70 179.5q0 106 69 178t172 72q102 0 169 -69t67 -170q0 -24 -3 -36zM283 440q-75 0 -126.5 -50.5t-56.5 -125.5h363q-1 78 -52.5 127t-127.5 49zM374 683h41
q0 -58 -35 -94.5t-94 -36.5q-58 0 -93 36.5t-35 94.5h40q2 -40 24 -64.5t64 -24.5t64.5 24.5t23.5 64.5z" />
    <glyph glyph-name="Edotaccent" unicode="&#x116;" horiz-adv-x="519" 
d="M450 0h-355v680h355v-54h-297v-257h277v-54h-277v-261h297v-54zM232 810q0 17 12.5 29.5t29.5 12.5q18 0 30.5 -12t12.5 -30t-12 -30t-31 -12q-17 0 -29.5 12t-12.5 30z" />
    <glyph glyph-name="edotaccent" unicode="&#x117;" horiz-adv-x="552" 
d="M516 216h-415q7 -75 59.5 -124t128.5 -49q49 0 97 20t81 48v-64q-81 -57 -181 -57q-104 0 -174 71.5t-70 179.5q0 106 69 178t172 72q102 0 169 -69t67 -170q0 -24 -3 -36zM283 440q-75 0 -126.5 -50.5t-56.5 -125.5h363q-1 78 -52.5 127t-127.5 49zM248 631
q0 17 12.5 29.5t29.5 12.5q18 0 30.5 -12.5t12.5 -29.5q0 -18 -12 -30t-31 -12q-17 0 -29.5 12t-12.5 30z" />
    <glyph glyph-name="Eogonek" unicode="&#x118;" horiz-adv-x="519" 
d="M450 0l-74 -55q-36 -27 -36 -58q0 -40 40 -40q29 0 70 31v-52q-44 -22 -75 -22q-39 0 -63 20.5t-24 55.5q0 49 51 85l49 35h-293v680h355v-54h-297v-257h277v-54h-277v-261h297v-54z" />
    <glyph glyph-name="eogonek" unicode="&#x119;" horiz-adv-x="552" 
d="M516 216h-415q7 -75 59.5 -124t128.5 -49q49 0 97 20t81 48v-64q-45 -32 -100 -47h1l-74 -55q-36 -27 -36 -58q0 -40 40 -40q29 0 70 31v-52q-44 -22 -75 -22q-39 0 -63 20.5t-24 55.5q0 49 51 85l35 25h-6q-104 0 -174 71.5t-70 179.5q0 106 69 178t172 72
q102 0 169 -69t67 -170q0 -24 -3 -36zM283 440q-75 0 -126.5 -50.5t-56.5 -125.5h363q-1 78 -52.5 127t-127.5 49z" />
    <glyph glyph-name="Ecaron" unicode="&#x11a;" horiz-adv-x="519" 
d="M450 0h-355v680h355v-54h-297v-257h277v-54h-277v-261h297v-54zM301 728h-57l-103 147h49l83 -115l82 115h50z" />
    <glyph glyph-name="ecaron" unicode="&#x11b;" horiz-adv-x="552" 
d="M516 216h-415q7 -75 59.5 -124t128.5 -49q49 0 97 20t81 48v-64q-81 -57 -181 -57q-104 0 -174 71.5t-70 179.5q0 106 69 178t172 72q102 0 169 -69t67 -170q0 -24 -3 -36zM283 440q-75 0 -126.5 -50.5t-56.5 -125.5h363q-1 78 -52.5 127t-127.5 49zM313 549h-57
l-103 147h49l83 -115l82 115h50z" />
    <glyph glyph-name="Gcircumflex" unicode="&#x11c;" horiz-adv-x="753" 
d="M592 646v-66q-83 53 -186 53q-130 0 -214 -84t-84 -209q0 -121 79.5 -207t199.5 -86t194.5 75t74.5 188q0 33 -2 42h-274v52h332q7 -29 7 -84q0 -142 -91 -236t-242 -94q-146 0 -242.5 101t-96.5 249q0 150 101.5 250t257.5 100q105 0 186 -44zM364 875h57l104 -147h-51
l-81 114l-82 -114h-50z" />
    <glyph glyph-name="gcircumflex" unicode="&#x11d;" horiz-adv-x="611" 
d="M477 481h57v-456q0 -108 -67.5 -174t-173.5 -66q-98 0 -173 45v64q29 -23 76.5 -39t96.5 -16q80 0 132 51t52 130v101q-28 -54 -79 -85.5t-117 -31.5q-101 0 -169.5 70t-68.5 173t68.5 173.5t169.5 70.5q66 0 117 -32.5t79 -87.5v110zM475 247q0 80 -53 133t-133 53
t-133 -53t-53 -133t53 -134t133 -54t133 54t53 134zM279 696h57l104 -147h-51l-81 114l-82 -114h-50z" />
    <glyph glyph-name="Gbreve" unicode="&#x11e;" horiz-adv-x="753" 
d="M592 646v-66q-83 53 -186 53q-130 0 -214 -84t-84 -209q0 -121 79.5 -207t199.5 -86t194.5 75t74.5 188q0 33 -2 42h-274v52h332q7 -29 7 -84q0 -142 -91 -236t-242 -94q-146 0 -242.5 101t-96.5 249q0 150 101.5 250t257.5 100q105 0 186 -44zM485 862h41
q0 -58 -35 -94.5t-94 -36.5q-58 0 -93 36.5t-35 94.5h40q2 -40 24 -64.5t64 -24.5t64.5 24.5t23.5 64.5z" />
    <glyph glyph-name="gbreve" unicode="&#x11f;" horiz-adv-x="611" 
d="M477 481h57v-456q0 -108 -67.5 -174t-173.5 -66q-98 0 -173 45v64q29 -23 76.5 -39t96.5 -16q80 0 132 51t52 130v101q-28 -54 -79 -85.5t-117 -31.5q-101 0 -169.5 70t-68.5 173t68.5 173.5t169.5 70.5q66 0 117 -32.5t79 -87.5v110zM475 247q0 80 -53 133t-133 53
t-133 -53t-53 -133t53 -134t133 -54t133 54t53 134zM396 683h41q0 -58 -35 -94.5t-94 -36.5q-58 0 -93 36.5t-35 94.5h40q2 -40 24 -64.5t64 -24.5t64.5 24.5t23.5 64.5z" />
    <glyph glyph-name="Gdotaccent" unicode="&#x120;" horiz-adv-x="753" 
d="M592 646v-66q-83 53 -186 53q-130 0 -214 -84t-84 -209q0 -121 79.5 -207t199.5 -86t194.5 75t74.5 188q0 33 -2 42h-274v52h332q7 -29 7 -84q0 -142 -91 -236t-242 -94q-146 0 -242.5 101t-96.5 249q0 150 101.5 250t257.5 100q105 0 186 -44zM350 810q0 17 12.5 29.5
t29.5 12.5q18 0 30.5 -12t12.5 -30t-12 -30t-31 -12q-17 0 -29.5 12t-12.5 30z" />
    <glyph glyph-name="gdotaccent" unicode="&#x121;" horiz-adv-x="611" 
d="M477 481h57v-456q0 -108 -67.5 -174t-173.5 -66q-98 0 -173 45v64q29 -23 76.5 -39t96.5 -16q80 0 132 51t52 130v101q-28 -54 -79 -85.5t-117 -31.5q-101 0 -169.5 70t-68.5 173t68.5 173.5t169.5 70.5q66 0 117 -32.5t79 -87.5v110zM475 247q0 80 -53 133t-133 53
t-133 -53t-53 -133t53 -134t133 -54t133 54t53 134zM264 631q0 17 12.5 29.5t29.5 12.5q18 0 30.5 -12.5t12.5 -29.5q0 -18 -12 -30t-31 -12q-17 0 -29.5 12t-12.5 30z" />
    <glyph glyph-name="Gcommaaccent" unicode="&#x122;" horiz-adv-x="753" 
d="M592 646v-66q-83 53 -186 53q-130 0 -214 -84t-84 -209q0 -121 79.5 -207t199.5 -86t194.5 75t74.5 188q0 33 -2 42h-274v52h332q7 -29 7 -84q0 -142 -91 -236t-242 -94q-146 0 -242.5 101t-96.5 249q0 150 101.5 250t257.5 100q105 0 186 -44zM382 -215h-47l26 145h60z
" />
    <glyph glyph-name="gcommaaccent" unicode="&#x123;" horiz-adv-x="611" 
d="M477 481h57v-456q0 -108 -67.5 -174t-173.5 -66q-98 0 -173 45v64q29 -23 76.5 -39t96.5 -16q80 0 132 51t52 130v101q-28 -54 -79 -85.5t-117 -31.5q-101 0 -169.5 70t-68.5 173t68.5 173.5t169.5 70.5q66 0 117 -32.5t79 -87.5v110zM475 247q0 80 -53 133t-133 53
t-133 -53t-53 -133t53 -134t133 -54t133 54t53 134zM310 695h47l-27 -145h-59z" />
    <glyph glyph-name="Hcircumflex" unicode="&#x124;" horiz-adv-x="734" 
d="M580 0v315h-427v-315h-58v680h58v-311h427v311h58v-680h-58zM338 875h57l104 -147h-51l-81 114l-82 -114h-50z" />
    <glyph glyph-name="hcircumflex" unicode="&#x125;" horiz-adv-x="541" 
d="M132 690v-293q45 94 153 94q84 0 135 -54.5t51 -141.5v-295h-56v285q0 67 -38 108.5t-104 41.5q-64 0 -101.5 -39.5t-39.5 -104.5v-291h-57v690h57zM241 870h57l104 -147h-51l-81 114l-82 -114h-50z" />
    <glyph glyph-name="Hbar" unicode="&#x126;" horiz-adv-x="734" 
d="M580 0v315h-427v-315h-58v680h58v-126h427v126h58v-680h-58zM153 369h427v142h-427v-142z" />
    <glyph glyph-name="hbar" unicode="&#x127;" horiz-adv-x="541" 
d="M132 690v-91h150v-40h-150v-162q45 94 153 94q84 0 135 -54.5t51 -141.5v-295h-56v285q0 67 -38 108.5t-104 41.5q-64 0 -101.5 -39.5t-39.5 -104.5v-291h-57v559h-68v40h68v91h57z" />
    <glyph glyph-name="Itilde" unicode="&#x128;" horiz-adv-x="248" 
d="M95 0v680h58v-680h-58zM259 809v-51q-30 28 -67 28q-21 0 -64 -18t-72 -18q-42 0 -66 22v49q26 -26 66 -26q23 0 64.5 17.5t71.5 17.5q36 0 67 -21z" />
    <glyph glyph-name="itilde" unicode="&#x129;" horiz-adv-x="207" 
d="M132 481v-481h-57v481h57zM238 630v-51q-30 28 -67 28q-21 0 -64 -18t-72 -18q-42 0 -66 22v49q26 -26 66 -26q23 0 64.5 17.5t71.5 17.5q35 0 67 -21z" />
    <glyph glyph-name="Imacron" unicode="&#x12a;" horiz-adv-x="248" 
d="M95 0v680h58v-680h-58zM-11 826h270v-42h-270v42z" />
    <glyph glyph-name="imacron" unicode="&#x12b;" horiz-adv-x="207" 
d="M132 481v-481h-57v481h57zM-31 647h270v-42h-270v42z" />
    <glyph glyph-name="Ibreve" unicode="&#x12c;" horiz-adv-x="248" 
d="M95 0v680h58v-680h-58zM212 862h41q0 -58 -35 -94.5t-94 -36.5q-58 0 -93 36.5t-35 94.5h40q2 -40 24 -64.5t64 -24.5t64.5 24.5t23.5 64.5z" />
    <glyph glyph-name="ibreve" unicode="&#x12d;" horiz-adv-x="207" 
d="M132 481v-481h-57v481h57zM191 683h41q0 -58 -35 -94.5t-94 -36.5q-58 0 -93 36.5t-35 94.5h40q2 -40 24 -64.5t64 -24.5t64.5 24.5t23.5 64.5z" />
    <glyph glyph-name="Iogonek" unicode="&#x12e;" horiz-adv-x="248" 
d="M-8 -120q0 51 50 85l53 35v680h58v-680l-73 -55q-37 -28 -37 -58q0 -40 41 -40q30 0 69 31v-52q-44 -22 -75 -22q-39 0 -62.5 20.5t-23.5 55.5z" />
    <glyph glyph-name="iogonek" unicode="&#x12f;" horiz-adv-x="207" 
d="M133 481v-481l-74 -55q-36 -27 -36 -58q0 -40 40 -40q29 0 70 31v-52q-44 -22 -75 -22q-39 0 -63 20.5t-24 55.5q0 49 51 85l54 38v478h57zM62 639q0 17 12.5 29.5t29.5 12.5q18 0 30.5 -12.5t12.5 -29.5q0 -18 -12 -30t-31 -12q-17 0 -29.5 12t-12.5 30z" />
    <glyph glyph-name="Idotaccent" unicode="&#x130;" horiz-adv-x="248" 
d="M95 0v680h58v-680h-58zM82 810q0 17 12.5 29.5t29.5 12.5q18 0 30.5 -12t12.5 -30t-12 -30t-31 -12q-17 0 -29.5 12t-12.5 30z" />
    <glyph glyph-name="dotlessi" unicode="&#x131;" horiz-adv-x="207" 
d="M132 481v-481h-57v481h57z" />
    <glyph glyph-name="IJ" unicode="&#x132;" horiz-adv-x="685" 
d="M95 0v680h58v-680h-58zM538 680h58v-488q0 -98 -48.5 -150t-141.5 -52q-40 0 -77.5 14t-58.5 31v70q63 -59 133 -59q61 0 98 37.5t37 109.5v487z" />
    <glyph glyph-name="ij" unicode="&#x133;" horiz-adv-x="413" 
d="M132 481v-481h-57v481h57zM61 639q0 17 12.5 29.5t29.5 12.5q19 0 31 -12.5t12 -29.5q0 -18 -12 -30t-31 -12q-17 0 -29.5 12t-12.5 30zM282 -91v572h57v-572q0 -63 -29 -93.5t-79 -30.5q-31 0 -51 12v59q24 -15 48 -15q54 0 54 68zM269 639q0 17 12 29.5t30 12.5t30 -12
t12 -30t-11.5 -30t-30.5 -12q-18 0 -30 12t-12 30z" />
    <glyph glyph-name="Jcircumflex" unicode="&#x134;" horiz-adv-x="436" 
d="M290 680h58v-488q0 -98 -48.5 -150t-141.5 -52q-40 0 -77.5 14t-58.5 31v70q63 -59 133 -59q61 0 98 37.5t37 109.5v487zM290 875h57l104 -147h-51l-81 114l-82 -114h-50z" />
    <glyph glyph-name="jcircumflex" unicode="&#x135;" horiz-adv-x="207" 
d="M75 -91v572h57v-572q0 -63 -29 -93.5t-79 -30.5q-31 0 -51 12v59q24 -15 48 -15q54 0 54 68zM75 696h57l104 -147h-51l-81 114l-82 -114h-50z" />
    <glyph glyph-name="Kcommaaccent" unicode="&#x136;" horiz-adv-x="541" 
d="M95 0v680h58v-362l293 362h71l-223 -278l233 -402h-70l-202 355l-102 -125v-230h-58zM280 -215h-47l26 145h60z" />
    <glyph glyph-name="kcommaaccent" unicode="&#x137;" horiz-adv-x="447" 
d="M75 0v690h57v-462l226 253h69l-168 -192l175 -289h-68l-148 250l-86 -97v-153h-57zM226 -215h-47l26 145h60z" />
    <glyph glyph-name="kgreenlandic" unicode="&#x138;" horiz-adv-x="447" 
d="M75 0v481h57v-253l226 253h69l-168 -192l175 -289h-68l-148 250l-86 -97v-153h-57z" />
    <glyph glyph-name="Lacute" unicode="&#x139;" horiz-adv-x="467" 
d="M450 0h-355v680h58v-626h297v-54zM182 875h54l-84 -147h-48z" />
    <glyph glyph-name="lacute" unicode="&#x13a;" horiz-adv-x="210" 
d="M133 690v-690h-56v690h56zM160 871h54l-84 -147h-48z" />
    <glyph glyph-name="Lcommaaccent" unicode="&#x13b;" horiz-adv-x="467" 
d="M450 0h-355v680h58v-626h297v-54zM260 -215h-47l26 145h60z" />
    <glyph glyph-name="lcommaaccent" unicode="&#x13c;" horiz-adv-x="210" 
d="M133 690v-690h-56v690h56zM94 -215h-47l26 145h60z" />
    <glyph glyph-name="Lcaron" unicode="&#x13d;" horiz-adv-x="472" 
d="M450 0h-355v680h58v-626h297v-54zM407 535h-47l26 145h60z" />
    <glyph glyph-name="lcaron" unicode="&#x13e;" horiz-adv-x="210" 
d="M133 690v-690h-56v690h56zM233 536h-47l26 145h60z" />
    <glyph glyph-name="Ldot" unicode="&#x13f;" horiz-adv-x="472" 
d="M450 0h-355v680h58v-626h297v-54zM341 364q0 21 14 35t34 14q21 0 34.5 -14t13.5 -35q0 -20 -13.5 -34t-34.5 -14q-20 0 -34 14t-14 34z" />
    <glyph glyph-name="ldot" unicode="&#x140;" horiz-adv-x="324" 
d="M133 690v-690h-56v690h56zM219 364q0 21 14 35t34 14q21 0 34.5 -14t13.5 -35q0 -20 -13.5 -34t-34.5 -14q-20 0 -34 14t-14 34z" />
    <glyph glyph-name="Lslash" unicode="&#x141;" horiz-adv-x="475" 
d="M458 0h-355v296l-70 -37v50l70 37v334h58v-304l177 95v-50l-177 -95v-272h297v-54z" />
    <glyph glyph-name="lslash" unicode="&#x142;" horiz-adv-x="251" 
d="M148 690v-314l95 52v-51l-95 -51v-326h-56v296l-71 -37v50l71 38v343h56z" />
    <glyph glyph-name="Nacute" unicode="&#x143;" horiz-adv-x="713" 
d="M560 0l-404 535v-535h-58v607l-46 67v6h72l436 -582v582h58v-680h-58zM413 875h54l-84 -147h-48z" />
    <glyph glyph-name="nacute" unicode="&#x144;" horiz-adv-x="541" 
d="M132 481v-84q43 94 153 94q84 0 135 -54.5t51 -141.5v-295h-56v285q0 67 -38 108.5t-104 41.5q-64 0 -101.5 -39.5t-39.5 -104.5v-291h-57v481h57zM332 696h54l-84 -147h-48z" />
    <glyph glyph-name="Ncommaaccent" unicode="&#x145;" horiz-adv-x="713" 
d="M560 0l-404 535v-535h-58v607l-46 67v6h72l436 -582v582h58v-680h-58zM345 -215h-47l26 145h60z" />
    <glyph glyph-name="ncommaaccent" unicode="&#x146;" horiz-adv-x="541" 
d="M132 481v-84q43 94 153 94q84 0 135 -54.5t51 -141.5v-295h-56v285q0 67 -38 108.5t-104 41.5q-64 0 -101.5 -39.5t-39.5 -104.5v-291h-57v481h57zM263 -215h-47l26 145h60z" />
    <glyph glyph-name="Ncaron" unicode="&#x147;" horiz-adv-x="713" 
d="M560 0l-404 535v-535h-58v607l-46 67v6h72l436 -582v582h58v-680h-58zM387 728h-57l-103 147h49l83 -115l82 115h50z" />
    <glyph glyph-name="ncaron" unicode="&#x148;" horiz-adv-x="541" 
d="M132 481v-84q43 94 153 94q84 0 135 -54.5t51 -141.5v-295h-56v285q0 67 -38 108.5t-104 41.5q-64 0 -101.5 -39.5t-39.5 -104.5v-291h-57v481h57zM298 549h-57l-103 147h49l83 -115l82 115h50z" />
    <glyph glyph-name="napostrophe" unicode="&#x149;" horiz-adv-x="541" 
d="M132 481v-84q43 94 153 94q84 0 135 -54.5t51 -141.5v-295h-56v285q0 67 -38 108.5t-104 41.5q-64 0 -101.5 -39.5t-39.5 -104.5v-291h-57v481h57zM58 535h-47l26 145h60z" />
    <glyph glyph-name="Eng" unicode="&#x14a;" horiz-adv-x="713" 
d="M561 -91v92l-405 534v-535h-58v607l-46 67v6h72l436 -582v582h58v-771q0 -62 -29.5 -93t-78.5 -31q-31 0 -51 12v59q24 -15 48 -15q54 0 54 68z" />
    <glyph glyph-name="eng" unicode="&#x14b;" horiz-adv-x="541" 
d="M415 -91v376q0 67 -38 108.5t-104 41.5q-64 0 -101.5 -39.5t-39.5 -104.5v-291h-57v481h57v-84q43 94 153 94q84 0 135 -54.5t51 -141.5v-386q0 -63 -29 -93.5t-78 -30.5q-31 0 -51 12v59q24 -15 48 -15q54 0 54 68z" />
    <glyph glyph-name="Omacron" unicode="&#x14c;" horiz-adv-x="794" 
d="M47 340q0 149 100.5 249.5t249.5 100.5t249.5 -100.5t100.5 -249.5t-100.5 -249.5t-249.5 -100.5t-249.5 100.5t-100.5 249.5zM108 340q0 -124 83 -208.5t206 -84.5t206.5 84.5t83.5 208.5t-83.5 208.5t-206.5 84.5t-206 -84.5t-83 -208.5zM262 826h270v-42h-270v42z" />
    <glyph glyph-name="omacron" unicode="&#x14d;" horiz-adv-x="584" 
d="M42 241q0 106 72 178t178 72t178 -72t72 -178q0 -107 -72 -179t-178 -72t-178 72.5t-72 178.5zM101 241q0 -82 55 -138.5t136 -56.5t136.5 56.5t55.5 138.5q0 81 -55.5 137.5t-136.5 56.5t-136 -56.5t-55 -137.5zM157 647h270v-42h-270v42z" />
    <glyph glyph-name="Obreve" unicode="&#x14e;" horiz-adv-x="794" 
d="M47 340q0 149 100.5 249.5t249.5 100.5t249.5 -100.5t100.5 -249.5t-100.5 -249.5t-249.5 -100.5t-249.5 100.5t-100.5 249.5zM108 340q0 -124 83 -208.5t206 -84.5t206.5 84.5t83.5 208.5t-83.5 208.5t-206.5 84.5t-206 -84.5t-83 -208.5zM484 862h41q0 -58 -35 -94.5
t-94 -36.5q-58 0 -93 36.5t-35 94.5h40q2 -40 24 -64.5t64 -24.5t64.5 24.5t23.5 64.5z" />
    <glyph glyph-name="obreve" unicode="&#x14f;" horiz-adv-x="584" 
d="M42 241q0 106 72 178t178 72t178 -72t72 -178q0 -107 -72 -179t-178 -72t-178 72.5t-72 178.5zM101 241q0 -82 55 -138.5t136 -56.5t136.5 56.5t55.5 138.5q0 81 -55.5 137.5t-136.5 56.5t-136 -56.5t-55 -137.5zM380 683h41q0 -58 -35 -94.5t-94 -36.5q-58 0 -93 36.5
t-35 94.5h40q2 -40 24 -64.5t64 -24.5t64.5 24.5t23.5 64.5z" />
    <glyph glyph-name="Ohungarumlaut" unicode="&#x150;" horiz-adv-x="794" 
d="M47 340q0 149 100.5 249.5t249.5 100.5t249.5 -100.5t100.5 -249.5t-100.5 -249.5t-249.5 -100.5t-249.5 100.5t-100.5 249.5zM108 340q0 -124 83 -208.5t206 -84.5t206.5 84.5t83.5 208.5t-83.5 208.5t-206.5 84.5t-206 -84.5t-83 -208.5zM390 875h54l-84 -147h-48z
M531 875h55l-84 -147h-48z" />
    <glyph glyph-name="ohungarumlaut" unicode="&#x151;" horiz-adv-x="584" 
d="M42 241q0 106 72 178t178 72t178 -72t72 -178q0 -107 -72 -179t-178 -72t-178 72.5t-72 178.5zM101 241q0 -82 55 -138.5t136 -56.5t136.5 56.5t55.5 138.5q0 81 -55.5 137.5t-136.5 56.5t-136 -56.5t-55 -137.5zM286 696h54l-84 -147h-48zM427 696h55l-84 -147h-48z" />
    <glyph glyph-name="OE" unicode="&#x152;" horiz-adv-x="1115" 
d="M1045 0h-355v165q-39 -81 -117 -128t-176 -47q-149 0 -249.5 100.5t-100.5 249.5t100.5 249.5t249.5 100.5q98 0 175.5 -47.5t117.5 -127.5v165h355v-54h-297v-257h277v-54h-277v-261h297v-54zM108 340q0 -124 83 -208.5t206 -84.5t206.5 84.5t83.5 208.5t-83.5 208.5
t-206.5 84.5t-206 -84.5t-83 -208.5z" />
    <glyph glyph-name="oe" unicode="&#x153;" horiz-adv-x="997" 
d="M960 216h-415q8 -76 60 -124.5t128 -48.5q50 0 98 20t80 48v-64q-79 -57 -180 -57q-74 0 -132 38.5t-85 103.5q-29 -64 -89 -103t-133 -39q-107 0 -178.5 72.5t-71.5 178.5t72 178t178 72q75 0 134.5 -39t87.5 -104q27 65 84 104t130 39q101 0 168.5 -69t67.5 -170
q0 -20 -4 -36zM101 241q0 -82 55 -138.5t136 -56.5t136.5 56.5t55.5 138.5q0 81 -55.5 137.5t-136.5 56.5t-136 -56.5t-55 -137.5zM728 440q-76 0 -127 -50.5t-56 -125.5h362q0 78 -52 127t-127 49z" />
    <glyph glyph-name="Racute" unicode="&#x154;" horiz-adv-x="564" 
d="M95 0v680h184q93 0 150.5 -50.5t57.5 -136.5q0 -71 -40.5 -115.5t-108.5 -60.5q63 -28 115 -111.5t73 -205.5h-60q-25 132 -89.5 216t-135.5 84h-88v-300h-58zM426 489q0 63 -41.5 100t-106.5 37h-125v-272h125q66 0 107 35.5t41 99.5zM307 875h54l-84 -147h-48z" />
    <glyph glyph-name="racute" unicode="&#x155;" horiz-adv-x="321" 
d="M132 481v-72q37 82 129 82q20 0 43 -5v-61q-25 10 -52 10q-59 0 -88.5 -38.5t-31.5 -105.5v-291h-57v481h57zM217 696h54l-84 -147h-48z" />
    <glyph glyph-name="Rcommaaccent" unicode="&#x156;" horiz-adv-x="564" 
d="M95 0v680h184q93 0 150.5 -50.5t57.5 -136.5q0 -71 -40.5 -115.5t-108.5 -60.5q63 -28 115 -111.5t73 -205.5h-60q-25 132 -89.5 216t-135.5 84h-88v-300h-58zM426 489q0 63 -41.5 100t-106.5 37h-125v-272h125q66 0 107 35.5t41 99.5zM286 -215h-47l26 145h60z" />
    <glyph glyph-name="rcommaaccent" unicode="&#x157;" horiz-adv-x="321" 
d="M132 481v-72q37 82 129 82q20 0 43 -5v-61q-25 10 -52 10q-59 0 -88.5 -38.5t-31.5 -105.5v-291h-57v481h57zM93 -215h-47l26 145h60z" />
    <glyph glyph-name="Rcaron" unicode="&#x158;" horiz-adv-x="564" 
d="M95 0v680h184q93 0 150.5 -50.5t57.5 -136.5q0 -71 -40.5 -115.5t-108.5 -60.5q63 -28 115 -111.5t73 -205.5h-60q-25 132 -89.5 216t-135.5 84h-88v-300h-58zM426 489q0 63 -41.5 100t-106.5 37h-125v-272h125q66 0 107 35.5t41 99.5zM300 728h-57l-103 147h49l83 -115
l82 115h50z" />
    <glyph glyph-name="rcaron" unicode="&#x159;" horiz-adv-x="321" 
d="M132 481v-72q37 82 129 82q20 0 43 -5v-61q-25 10 -52 10q-59 0 -88.5 -38.5t-31.5 -105.5v-291h-57v481h57zM214 549h-57l-103 147h49l83 -115l82 115h50z" />
    <glyph glyph-name="Sacute" unicode="&#x15a;" horiz-adv-x="474" 
d="M402 649v-70q-65 55 -149 55q-62 0 -99 -30.5t-37 -80.5q0 -59 68 -104l132 -85q61 -39 86.5 -77.5t25.5 -90.5q0 -73 -55.5 -124.5t-152.5 -51.5q-89 0 -165 45v72q71 -61 164 -61q69 0 108 34.5t39 83.5q0 64 -83 117l-130 84q-99 62 -99 156q0 69 50.5 119t150.5 50
q83 0 146 -41zM306 875h54l-84 -147h-48z" />
    <glyph glyph-name="sacute" unicode="&#x15b;" horiz-adv-x="378" 
d="M316 463v-65q-52 41 -113 41q-44 0 -69 -20.5t-25 -53.5q0 -22 12 -37t39 -32l93 -56q82 -50 82 -121q0 -61 -44 -95t-116 -34q-64 0 -124 32v67q54 -48 124 -48q47 0 74 21.5t27 55.5q0 42 -59 77l-96 59q-71 43 -71 111q0 55 40 90.5t114 35.5q62 0 112 -28zM245 696
h54l-84 -147h-48z" />
    <glyph glyph-name="Scircumflex" unicode="&#x15c;" horiz-adv-x="475" 
d="M403 649v-70q-65 55 -149 55q-62 0 -99 -30.5t-37 -80.5q0 -59 68 -104l132 -85q61 -39 86.5 -77.5t25.5 -90.5q0 -73 -55.5 -124.5t-152.5 -51.5q-89 0 -165 45v72q71 -61 164 -61q69 0 108 34.5t39 83.5q0 64 -83 117l-130 84q-99 62 -99 156q0 69 50.5 119t150.5 50
q83 0 146 -41zM224 875h57l104 -147h-51l-81 114l-82 -114h-50z" />
    <glyph glyph-name="scircumflex" unicode="&#x15d;" horiz-adv-x="378" 
d="M316 463v-65q-52 41 -113 41q-44 0 -69 -20.5t-25 -53.5q0 -22 12 -37t39 -32l93 -56q82 -50 82 -121q0 -61 -44 -95t-116 -34q-64 0 -124 32v67q54 -48 124 -48q47 0 74 21.5t27 55.5q0 42 -59 77l-96 59q-71 43 -71 111q0 55 40 90.5t114 35.5q62 0 112 -28zM168 696
h57l104 -147h-51l-81 114l-82 -114h-50z" />
    <glyph glyph-name="Scedilla" unicode="&#x15e;" horiz-adv-x="474" 
d="M208 -152h-56l51 143q-79 4 -147 44v72q71 -61 164 -61q69 0 108 34.5t39 83.5q0 64 -83 117l-130 84q-99 62 -99 156q0 69 50.5 119t150.5 50q83 0 146 -41v-70q-65 55 -149 55q-62 0 -99 -30.5t-37 -80.5q0 -59 68 -104l132 -85q61 -39 86.5 -77.5t25.5 -90.5
q0 -66 -45.5 -115.5t-127.5 -58.5z" />
    <glyph glyph-name="scedilla" unicode="&#x15f;" horiz-adv-x="378" 
d="M161 -152h-56l51 143q-55 4 -105 31v67q54 -48 124 -48q47 0 74 21.5t27 55.5q0 42 -59 77l-96 59q-71 43 -71 111q0 55 40 90.5t114 35.5q62 0 112 -28v-65q-52 41 -113 41q-44 0 -69 -20.5t-25 -53.5q0 -22 12 -37t39 -32l93 -56q82 -50 82 -121q0 -53 -34 -86t-92 -41
z" />
    <glyph glyph-name="Scaron" unicode="&#x160;" horiz-adv-x="475" 
d="M403 649v-70q-65 55 -149 55q-62 0 -99 -30.5t-37 -80.5q0 -59 68 -104l132 -85q61 -39 86.5 -77.5t25.5 -90.5q0 -73 -55.5 -124.5t-152.5 -51.5q-89 0 -165 45v72q71 -61 164 -61q69 0 108 34.5t39 83.5q0 64 -83 117l-130 84q-99 62 -99 156q0 69 50.5 119t150.5 50
q83 0 146 -41zM280 728h-57l-103 147h49l83 -115l82 115h50z" />
    <glyph glyph-name="scaron" unicode="&#x161;" horiz-adv-x="378" 
d="M316 463v-65q-52 41 -113 41q-44 0 -69 -20.5t-25 -53.5q0 -22 12 -37t39 -32l93 -56q82 -50 82 -121q0 -61 -44 -95t-116 -34q-64 0 -124 32v67q54 -48 124 -48q47 0 74 21.5t27 55.5q0 42 -59 77l-96 59q-71 43 -71 111q0 55 40 90.5t114 35.5q62 0 112 -28zM226 549
h-57l-103 147h49l83 -115l82 115h50z" />
    <glyph glyph-name="Tcommaaccent" unicode="&#x162;" horiz-adv-x="470" 
d="M207 0v626h-190v54h436v-54h-188v-626h-4l-50 -151h-56l54 151h-2z" />
    <glyph glyph-name="tcommaaccent" unicode="&#x163;" horiz-adv-x="285" 
d="M117 -151h-56l54 151h-1v431h-98v50h100v125l55 16v-141h101v-50h-101v-431h-4z" />
    <glyph glyph-name="Tcaron" unicode="&#x164;" horiz-adv-x="470" 
d="M207 0v626h-190v54h436v-54h-188v-626h-58zM264 728h-57l-103 147h49l83 -115l82 115h50z" />
    <glyph glyph-name="tcaron" unicode="&#x165;" horiz-adv-x="285" 
d="M171 0h-57v431h-98v50h100v125l55 16v-141h101v-50h-101v-431zM282 536h-47l26 145h60z" />
    <glyph glyph-name="Tbar" unicode="&#x166;" horiz-adv-x="480" 
d="M105 372h107v254h-190v54h436v-54h-188v-254h106v-43h-106v-329h-58v329h-107v43z" />
    <glyph glyph-name="tbar" unicode="&#x167;" horiz-adv-x="303" 
d="M24 271h99v160h-99v50h101v125l54 16v-141h102v-50h-102v-160h101v-43h-101v-228h-56v228h-99v43z" />
    <glyph glyph-name="Utilde" unicode="&#x168;" horiz-adv-x="655" 
d="M509 680h58v-444q0 -112 -64.5 -179t-174.5 -67q-111 0 -176 67t-65 179v444h58v-446q0 -84 50.5 -135.5t133.5 -51.5q81 0 130.5 51.5t49.5 135.5v446zM462 809v-51q-30 28 -67 28q-21 0 -64 -18t-72 -18q-42 0 -66 22v49q26 -26 66 -26q23 0 64.5 17.5t71.5 17.5
q35 0 67 -21z" />
    <glyph glyph-name="utilde" unicode="&#x169;" horiz-adv-x="544" 
d="M410 0v83q-43 -93 -153 -93q-84 0 -135 54.5t-51 141.5v295h57v-285q0 -67 37.5 -108.5t103.5 -41.5q64 0 101.5 39t39.5 104v292h57v-481h-57zM407 630v-51q-30 28 -67 28q-21 0 -64 -18t-72 -18q-42 0 -66 22v49q26 -26 66 -26q23 0 64.5 17.5t71.5 17.5q36 0 67 -21z
" />
    <glyph glyph-name="Umacron" unicode="&#x16a;" horiz-adv-x="655" 
d="M509 680h58v-444q0 -112 -64.5 -179t-174.5 -67q-111 0 -176 67t-65 179v444h58v-446q0 -84 50.5 -135.5t133.5 -51.5q81 0 130.5 51.5t49.5 135.5v446zM192 826h270v-42h-270v42z" />
    <glyph glyph-name="umacron" unicode="&#x16b;" horiz-adv-x="544" 
d="M410 0v83q-43 -93 -153 -93q-84 0 -135 54.5t-51 141.5v295h57v-285q0 -67 37.5 -108.5t103.5 -41.5q64 0 101.5 39t39.5 104v292h57v-481h-57zM138 647h270v-42h-270v42z" />
    <glyph glyph-name="Ubreve" unicode="&#x16c;" horiz-adv-x="655" 
d="M509 680h58v-444q0 -112 -64.5 -179t-174.5 -67q-111 0 -176 67t-65 179v444h58v-446q0 -84 50.5 -135.5t133.5 -51.5q81 0 130.5 51.5t49.5 135.5v446zM415 862h41q0 -58 -35 -94.5t-94 -36.5q-58 0 -93 36.5t-35 94.5h40q2 -40 24 -64.5t64 -24.5t64.5 24.5t23.5 64.5z
" />
    <glyph glyph-name="ubreve" unicode="&#x16d;" horiz-adv-x="544" 
d="M410 0v83q-43 -93 -153 -93q-84 0 -135 54.5t-51 141.5v295h57v-285q0 -67 37.5 -108.5t103.5 -41.5q64 0 101.5 39t39.5 104v292h57v-481h-57zM360 683h41q0 -58 -35 -94.5t-94 -36.5q-58 0 -93 36.5t-35 94.5h40q2 -40 24 -64.5t64 -24.5t64.5 24.5t23.5 64.5z" />
    <glyph glyph-name="Uring" unicode="&#x16e;" horiz-adv-x="655" 
d="M509 680h58v-444q0 -112 -64.5 -179t-174.5 -67q-111 0 -176 67t-65 179v444h58v-446q0 -84 50.5 -135.5t133.5 -51.5q81 0 130.5 51.5t49.5 135.5v446zM229 807q0 41 27.5 68t70.5 27q44 0 71.5 -27t27.5 -68q0 -40 -27.5 -67t-71.5 -27q-43 0 -70.5 27t-27.5 67z
M267 807q0 -26 16.5 -42.5t43.5 -16.5t43.5 16.5t16.5 42.5t-16.5 42.5t-43.5 16.5t-43.5 -16.5t-16.5 -42.5z" />
    <glyph glyph-name="uring" unicode="&#x16f;" horiz-adv-x="544" 
d="M410 0v83q-43 -93 -153 -93q-84 0 -135 54.5t-51 141.5v295h57v-285q0 -67 37.5 -108.5t103.5 -41.5q64 0 101.5 39t39.5 104v292h57v-481h-57zM174 628q0 41 27.5 68t70.5 27q44 0 71.5 -27t27.5 -68q0 -40 -27.5 -67t-71.5 -27q-43 0 -70.5 27t-27.5 67zM212 628
q0 -26 16.5 -42.5t43.5 -16.5t43.5 16.5t16.5 42.5t-16.5 42.5t-43.5 16.5t-43.5 -16.5t-16.5 -42.5z" />
    <glyph glyph-name="Uhungarumlaut" unicode="&#x170;" horiz-adv-x="655" 
d="M509 680h58v-444q0 -112 -64.5 -179t-174.5 -67q-111 0 -176 67t-65 179v444h58v-446q0 -84 50.5 -135.5t133.5 -51.5q81 0 130.5 51.5t49.5 135.5v446zM305 875h54l-84 -147h-48zM446 875h55l-84 -147h-48z" />
    <glyph glyph-name="uhungarumlaut" unicode="&#x171;" horiz-adv-x="544" 
d="M410 0v83q-43 -93 -153 -93q-84 0 -135 54.5t-51 141.5v295h57v-285q0 -67 37.5 -108.5t103.5 -41.5q64 0 101.5 39t39.5 104v292h57v-481h-57zM251 696h54l-84 -147h-48zM392 696h55l-84 -147h-48z" />
    <glyph glyph-name="Uogonek" unicode="&#x172;" horiz-adv-x="655" 
d="M509 680h58v-444q0 -97 -48.5 -160.5t-134.5 -80.5l-62 -50q-37 -28 -37 -58q0 -40 40 -40q31 0 70 31v-52q-44 -22 -75 -22q-39 0 -63 20.5t-24 55.5q0 45 51 85l33 25q-106 4 -168 70t-62 176v444h58v-446q0 -84 50.5 -135.5t133.5 -51.5q81 0 130.5 51.5t49.5 135.5
v446z" />
    <glyph glyph-name="uogonek" unicode="&#x173;" horiz-adv-x="544" 
d="M467 481v-481l-74 -55q-36 -27 -36 -58q0 -40 40 -40q29 0 70 31v-52q-44 -22 -75 -22q-39 0 -63 20.5t-24 55.5q0 49 51 85l54 38v80q-43 -93 -153 -93q-84 0 -135 54.5t-51 141.5v295h57v-285q0 -67 37.5 -108.5t103.5 -41.5q64 0 101.5 39t39.5 104v292h57z" />
    <glyph glyph-name="Wcircumflex" unicode="&#x174;" horiz-adv-x="974" 
d="M229 0l-205 680h66l174 -602l206 535l-23 67h61l202 -602l174 602h66l-204 -680h-65l-183 535l-204 -535h-65zM457 875h57l104 -147h-51l-81 114l-82 -114h-50z" />
    <glyph glyph-name="wcircumflex" unicode="&#x175;" horiz-adv-x="762" 
d="M25 481h61l124 -409l132 352l-24 57h60l173 -409l125 409h61l-152 -481h-61l-152 358l-134 -358h-62zM339 696h57l104 -147h-51l-81 114l-82 -114h-50z" />
    <glyph glyph-name="Ycircumflex" unicode="&#x176;" horiz-adv-x="558" 
d="M250 0v304l-229 376h67l191 -316l191 316h68l-230 -376v-304h-58zM250 875h57l104 -147h-51l-81 114l-82 -114h-50z" />
    <glyph glyph-name="ycircumflex" unicode="&#x177;" horiz-adv-x="485" 
d="M104 -205l107 242l-190 444h65l156 -373l160 373h65l-298 -686h-65zM216 696h57l104 -147h-51l-81 114l-82 -114h-50z" />
    <glyph glyph-name="Ydieresis" unicode="&#x178;" horiz-adv-x="558" 
d="M250 0v304l-229 376h67l191 -316l191 316h68l-230 -376v-304h-58zM149 810q0 16 11.5 28t28.5 12q18 0 29.5 -11.5t11.5 -28.5t-11.5 -28.5t-29.5 -11.5q-17 0 -28.5 11.5t-11.5 28.5zM328 810q0 16 12 28t28 12q18 0 29.5 -11.5t11.5 -28.5t-11.5 -28.5t-29.5 -11.5
q-17 0 -28.5 11.5t-11.5 28.5z" />
    <glyph glyph-name="Zacute" unicode="&#x179;" horiz-adv-x="470" 
d="M431 630l-328 -576h328v-54h-397v50l326 576h-316v54h387v-50zM287 875h54l-84 -147h-48z" />
    <glyph glyph-name="zacute" unicode="&#x17a;" horiz-adv-x="384" 
d="M344 431l-242 -382h242v-49h-309v50l242 381h-231v50h298v-50zM246 696h54l-84 -147h-48z" />
    <glyph glyph-name="Zdotaccent" unicode="&#x17b;" horiz-adv-x="470" 
d="M431 630l-328 -576h328v-54h-397v50l326 576h-316v54h387v-50zM202 810q0 17 12.5 29.5t29.5 12.5q18 0 30.5 -12t12.5 -30t-12 -30t-31 -12q-17 0 -29.5 12t-12.5 30z" />
    <glyph glyph-name="zdotaccent" unicode="&#x17c;" horiz-adv-x="384" 
d="M344 431l-242 -382h242v-49h-309v50l242 381h-231v50h298v-50zM159 631q0 17 12.5 29.5t29.5 12.5q19 0 31 -12.5t12 -29.5q0 -18 -12 -30t-31 -12q-17 0 -29.5 12t-12.5 30z" />
    <glyph glyph-name="Zcaron" unicode="&#x17d;" horiz-adv-x="470" 
d="M431 630l-328 -576h328v-54h-397v50l326 576h-316v54h387v-50zM271 728h-57l-103 147h49l83 -115l82 115h50z" />
    <glyph glyph-name="zcaron" unicode="&#x17e;" horiz-adv-x="384" 
d="M344 431l-242 -382h242v-49h-309v50l242 381h-231v50h298v-50zM228 549h-57l-103 147h49l83 -115l82 115h50z" />
    <glyph glyph-name="florin" unicode="&#x192;" 
d="M242 132v208h-138v43h138v177q0 65 37 102.5t101 37.5q32 0 61 -9v-60q-26 13 -60 13q-82 0 -82 -86v-175h138v-43h-138v-211q0 -65 -37 -102t-101 -37q-38 0 -61 9v59q24 -12 60 -12q82 0 82 86z" />
    <glyph glyph-name="AEacute" unicode="&#x1fc;" horiz-adv-x="866" 
d="M796 0h-355v213h-257l-145 -213h-72l467 680h362v-54h-297v-257h277v-54h-277v-261h297v-54zM217 268h224v330zM652 875h54l-84 -147h-48z" />
    <glyph glyph-name="aeacute" unicode="&#x1fd;" horiz-adv-x="860" 
d="M824 217h-415q7 -79 59 -126.5t129 -47.5q49 0 97.5 20t80.5 48v-64q-78 -57 -182 -57q-75 0 -128 32t-80 85q-18 -52 -64 -84.5t-109 -32.5q-81 0 -130 46.5t-49 115.5q0 68 50 114.5t124 46.5q42 0 79.5 -20t56.5 -48v70q0 61 -36.5 92t-87.5 31q-68 0 -133 -42v59
q65 36 137 36q62 0 107 -29.5t58 -89.5q30 55 84 87t119 32q102 0 169 -69t67 -170q0 -22 -3 -35zM91 152q0 -48 37 -81.5t88 -33.5q52 0 89.5 33.5t37.5 81.5q0 46 -38 80t-89 34q-52 0 -88.5 -33.5t-36.5 -80.5zM591 440q-75 0 -126.5 -51t-55.5 -126h362
q-1 78 -52.5 127.5t-127.5 49.5zM460 696h54l-84 -147h-48z" />
    <glyph glyph-name="Oslashacute" unicode="&#x1fe;" horiz-adv-x="794" 
d="M47 340q0 149 100.5 249.5t249.5 100.5q103 0 192 -55l44 61l36 -24l-46 -62q59 -48 91.5 -118t32.5 -152q0 -149 -100.5 -249.5t-249.5 -100.5q-106 0 -190 53l-41 -56l-33 24l40 55q-59 48 -92.5 119.5t-33.5 154.5zM108 340q0 -139 101 -225l345 472q-71 46 -157 46
q-123 0 -206 -84.5t-83 -208.5zM687 340q0 137 -99 221l-346 -470q69 -44 155 -44q123 0 206.5 84.5t83.5 208.5zM448 875h54l-84 -147h-48z" />
    <glyph glyph-name="oslashacute" unicode="&#x1ff;" horiz-adv-x="584" 
d="M42 241q0 106 72 178t178 72q71 0 133 -38l30 42l35 -25l-31 -42q83 -72 83 -187q0 -107 -72 -179t-178 -72q-72 0 -129 34l-27 -37l-33 24l26 37q-87 76 -87 193zM98 241q0 -92 65 -147l230 315q-48 29 -101 29q-81 0 -137.5 -57.5t-56.5 -139.5zM486 241q0 86 -60 141
l-229 -313q41 -26 95 -26q83 0 138.5 57.5t55.5 140.5zM350 696h54l-84 -147h-48z" />
    <glyph glyph-name="Scommaaccent" unicode="&#x218;" horiz-adv-x="474" 
d="M402 649v-70q-65 55 -149 55q-62 0 -99 -30.5t-37 -80.5q0 -59 68 -104l132 -85q61 -39 86.5 -77.5t25.5 -90.5q0 -73 -55.5 -124.5t-152.5 -51.5q-89 0 -165 45v72q71 -61 164 -61q69 0 108 34.5t39 83.5q0 64 -83 117l-130 84q-99 62 -99 156q0 69 50.5 119t150.5 50
q83 0 146 -41zM224 -215h-47l26 145h60z" />
    <glyph glyph-name="scommaaccent" unicode="&#x219;" horiz-adv-x="378" 
d="M316 463v-65q-52 41 -113 41q-44 0 -69 -20.5t-25 -53.5q0 -22 12 -37t39 -32l93 -56q82 -50 82 -121q0 -61 -44 -95t-116 -34q-64 0 -124 32v67q54 -48 124 -48q47 0 74 21.5t27 55.5q0 42 -59 77l-96 59q-71 43 -71 111q0 55 40 90.5t114 35.5q62 0 112 -28zM168 -215
h-47l26 145h60z" />
    <glyph glyph-name="uni021A" unicode="&#x21a;" horiz-adv-x="470" 
d="M207 0v626h-190v54h436v-54h-188v-626h-58zM227 -215h-47l26 145h60z" />
    <glyph glyph-name="uni021B" unicode="&#x21b;" horiz-adv-x="285" 
d="M171 0h-57v431h-98v50h100v125l55 16v-141h101v-50h-101v-431zM132 -215h-47l26 145h60z" />
    <glyph glyph-name="dotlessj" unicode="&#x237;" horiz-adv-x="207" 
d="M75 -91v572h57v-572q0 -63 -29 -93.5t-79 -30.5q-31 0 -51 12v59q24 -15 48 -15q54 0 54 68z" />
    <glyph glyph-name="circumflex" unicode="&#x2c6;" horiz-adv-x="580" 
d="M261 696h57l104 -147h-51l-81 114l-82 -114h-50z" />
    <glyph glyph-name="caron" unicode="&#x2c7;" horiz-adv-x="580" 
d="M318 549h-57l-103 147h49l83 -115l82 115h50z" />
    <glyph glyph-name="breve" unicode="&#x2d8;" horiz-adv-x="580" 
d="M377 683h41q0 -58 -35 -94.5t-94 -36.5q-58 0 -93 36.5t-35 94.5h40q2 -40 24 -64.5t64 -24.5t64.5 24.5t23.5 64.5z" />
    <glyph glyph-name="dotaccent" unicode="&#x2d9;" horiz-adv-x="580" 
d="M247 631q0 17 12.5 29.5t29.5 12.5q19 0 31 -12.5t12 -29.5q0 -18 -12 -30t-31 -12q-17 0 -29.5 12t-12.5 30z" />
    <glyph glyph-name="ring" unicode="&#x2da;" horiz-adv-x="580" 
d="M191 628q0 41 27.5 68t70.5 27q44 0 71.5 -27t27.5 -68q0 -40 -27.5 -67t-71.5 -27q-43 0 -70.5 27t-27.5 67zM229 628q0 -26 16.5 -42.5t43.5 -16.5t43.5 16.5t16.5 42.5t-16.5 42.5t-43.5 16.5t-43.5 -16.5t-16.5 -42.5z" />
    <glyph glyph-name="ogonek" unicode="&#x2db;" horiz-adv-x="580" 
d="M367 1l1 -1l-74 -55q-36 -27 -36 -58q0 -40 40 -40q29 0 70 31v-52q-44 -22 -75 -22q-39 0 -63 20.5t-24 55.5q0 49 51 85l81 57z" />
    <glyph glyph-name="tilde" unicode="&#x2dc;" horiz-adv-x="580" 
d="M424 630v-51q-30 28 -67 28q-21 0 -64 -18t-72 -18q-42 0 -66 22v49q26 -26 66 -26q23 0 64.5 17.5t71.5 17.5q36 0 67 -21z" />
    <glyph glyph-name="hungarumlaut" unicode="&#x2dd;" horiz-adv-x="580" 
d="M231 696h54l-84 -147h-48zM372 696h55l-84 -147h-48z" />
    <glyph glyph-name="pi" unicode="&#x3c0;" horiz-adv-x="584" 
d="M469 0h-56v431h-242v-431h-57v431h-98v50h555v-50h-102v-431z" />
    <glyph glyph-name="Wgrave" unicode="&#x1e80;" horiz-adv-x="974" 
d="M229 0l-205 680h66l174 -602l206 535l-23 67h61l202 -602l174 602h66l-204 -680h-65l-183 535l-204 -535h-65zM378 875h55l77 -147h-48z" />
    <glyph glyph-name="wgrave" unicode="&#x1e81;" horiz-adv-x="762" 
d="M25 481h61l124 -409l132 352l-24 57h60l173 -409l125 409h61l-152 -481h-61l-152 358l-134 -358h-62zM257 696h55l77 -147h-48z" />
    <glyph glyph-name="Wacute" unicode="&#x1e82;" horiz-adv-x="974" 
d="M229 0l-205 680h66l174 -602l206 535l-23 67h61l202 -602l174 602h66l-204 -680h-65l-183 535l-204 -535h-65zM519 875h54l-84 -147h-48z" />
    <glyph glyph-name="wacute" unicode="&#x1e83;" horiz-adv-x="762" 
d="M25 481h61l124 -409l132 352l-24 57h60l173 -409l125 409h61l-152 -481h-61l-152 358l-134 -358h-62zM409 696h54l-84 -147h-48z" />
    <glyph glyph-name="Wdieresis" unicode="&#x1e84;" horiz-adv-x="974" 
d="M229 0l-205 680h66l174 -602l206 535l-23 67h61l202 -602l174 602h66l-204 -680h-65l-183 535l-204 -535h-65zM355 810q0 16 11.5 28t28.5 12q18 0 29.5 -11.5t11.5 -28.5t-11.5 -28.5t-29.5 -11.5q-17 0 -28.5 11.5t-11.5 28.5zM534 810q0 16 12 28t28 12
q18 0 29.5 -11.5t11.5 -28.5t-11.5 -28.5t-29.5 -11.5q-17 0 -28.5 11.5t-11.5 28.5z" />
    <glyph glyph-name="wdieresis" unicode="&#x1e85;" horiz-adv-x="762" 
d="M25 481h61l124 -409l132 352l-24 57h60l173 -409l125 409h61l-152 -481h-61l-152 358l-134 -358h-62zM237 631q0 17 11.5 28.5t28.5 11.5q18 0 29.5 -11.5t11.5 -28.5t-11.5 -28.5t-29.5 -11.5q-17 0 -28.5 11.5t-11.5 28.5zM416 631q0 17 12 28.5t28 11.5
q18 0 29.5 -11.5t11.5 -28.5t-11.5 -28.5t-29.5 -11.5q-17 0 -28.5 11.5t-11.5 28.5z" />
    <glyph glyph-name="Ygrave" unicode="&#x1ef2;" horiz-adv-x="558" 
d="M250 0v304l-229 376h67l191 -316l191 316h68l-230 -376v-304h-58zM174 875h55l77 -147h-48z" />
    <glyph glyph-name="ygrave" unicode="&#x1ef3;" horiz-adv-x="485" 
d="M104 -205l107 242l-190 444h65l156 -373l160 373h65l-298 -686h-65zM143 696h55l77 -147h-48z" />
    <glyph glyph-name="endash" unicode="&#x2013;" horiz-adv-x="577" 
d="M66 313h445v-57h-445v57z" />
    <glyph glyph-name="emdash" unicode="&#x2014;" horiz-adv-x="717" 
d="M66 313h585v-57h-585v57z" />
    <glyph glyph-name="quoteleft" unicode="&#x2018;" horiz-adv-x="201" 
d="M99 680h52l-33 -222h-66z" />
    <glyph glyph-name="quoteright" unicode="&#x2019;" horiz-adv-x="198" 
d="M107 458h-51l33 222h66z" />
    <glyph glyph-name="quotesinglbase" unicode="&#x201a;" horiz-adv-x="241" 
d="M118 -138h-51l33 222h66z" />
    <glyph glyph-name="quotedblleft" unicode="&#x201c;" horiz-adv-x="368" 
d="M99 680h52l-33 -222h-66zM266 680h52l-33 -222h-66z" />
    <glyph glyph-name="quotedblright" unicode="&#x201d;" horiz-adv-x="365" 
d="M107 458h-51l33 222h66zM275 458h-51l33 222h66z" />
    <glyph glyph-name="quotedblbase" unicode="&#x201e;" horiz-adv-x="409" 
d="M118 -138h-51l33 222h66zM285 -138h-51l33 222h66z" />
    <glyph glyph-name="dagger" unicode="&#x2020;" horiz-adv-x="418" 
d="M233 253v-458h-45v458h-157v42h157v395h45v-395h154v-42h-154z" />
    <glyph glyph-name="daggerdbl" unicode="&#x2021;" horiz-adv-x="472" 
d="M257 98h159v-42h-159v-261h-45v261h-153v42h153v308h-155v42h155v242h45v-242h156v-42h-156v-308z" />
    <glyph glyph-name="bullet" unicode="&#x2022;" horiz-adv-x="365" 
d="M183 188q-43 0 -71.5 27t-28.5 69t28.5 69.5t71.5 27.5t71 -27.5t28 -69.5t-28 -69t-71 -27z" />
    <glyph glyph-name="ellipsis" unicode="&#x2026;" horiz-adv-x="643" 
d="M62 39q0 21 14 35t35 14t35 -14t14 -35t-14 -35t-35 -14t-35 14t-14 35zM272 39q0 21 14 35t35 14t35.5 -14t14.5 -35t-14.5 -35t-35.5 -14t-35 14t-14 35zM483 39q0 21 14 35t34 14q22 0 36 -14t14 -35t-14 -35t-36 -14q-20 0 -34 14t-14 35z" />
    <glyph glyph-name="perthousand" unicode="&#x2030;" horiz-adv-x="1130" 
d="M228 0l302 680h48l-303 -680h-47zM183 644q-41 0 -66 -24.5t-25 -61.5v-135q0 -38 25 -62.5t66 -24.5q42 0 67 24.5t25 62.5v135q0 38 -25 62t-67 24zM183 690q60 0 99.5 -37.5t39.5 -93.5v-138q0 -56 -39.5 -94t-99.5 -38q-59 0 -98.5 38t-39.5 94v138q0 56 39.5 93.5
t98.5 37.5zM622 345q-42 0 -67 -24.5t-25 -62.5v-135q0 -38 25 -62.5t67 -24.5t67 24.5t25 62.5v135q0 38 -25 62.5t-67 24.5zM622 390q60 0 99.5 -37t39.5 -94v-137q0 -57 -39.5 -94.5t-99.5 -37.5t-99.5 37.5t-39.5 94.5v137q0 57 39.5 94t99.5 37zM948 345
q-42 0 -67 -24.5t-25 -62.5v-135q0 -38 25 -62.5t67 -24.5t67 24.5t25 62.5v135q0 38 -25 62.5t-67 24.5zM948 390q60 0 99.5 -37t39.5 -94v-137q0 -57 -39.5 -94.5t-99.5 -37.5t-99.5 37.5t-39.5 94.5v137q0 57 39.5 94t99.5 37z" />
    <glyph glyph-name="guilsinglleft" unicode="&#x2039;" horiz-adv-x="285" 
d="M43 285l161 207l32 -26l-131 -181l131 -181l-32 -26z" />
    <glyph glyph-name="guilsinglright" unicode="&#x203a;" horiz-adv-x="285" 
d="M242 285l-161 -207l-32 26l131 181l-131 181l32 26z" />
    <glyph glyph-name="fraction" unicode="&#x2044;" horiz-adv-x="140" 
d="M-105 0l302 680h48l-303 -680h-47z" />
    <glyph glyph-name="zerosuperior" unicode="&#x2070;" horiz-adv-x="362" 
d="M181 771q-41 0 -66 -24.5t-25 -62.5v-135q0 -38 25 -62.5t66 -24.5q42 0 67 24.5t25 62.5v135q0 38 -25 62.5t-67 24.5zM181 816q60 0 99.5 -37t39.5 -94v-137q0 -57 -39.5 -94.5t-99.5 -37.5q-59 0 -98.5 37.5t-39.5 94.5v137q0 57 39.5 94t98.5 37z" />
    <glyph glyph-name="foursuperior" unicode="&#x2074;" horiz-adv-x="338" 
d="M314 507h-57v-85h-47v85h-192v40l192 264h47v-259h57v-45zM68 552h142v191z" />
    <glyph glyph-name="fivesuperior" unicode="&#x2075;" horiz-adv-x="306" 
d="M267 767h-143l-15 -103h14q68 0 108 -33t40 -87q0 -60 -39.5 -94t-99.5 -34q-55 0 -103 30v59q46 -42 102 -42q37 0 64 22.5t27 58.5q0 37 -29.5 56.5t-77.5 19.5h-55l23 191h184v-44z" />
    <glyph glyph-name="sixsuperior" unicode="&#x2076;" horiz-adv-x="341" 
d="M238 811l-94 -130q12 4 30 4q65 0 104.5 -39t39.5 -94q0 -58 -41.5 -97t-102.5 -39t-102.5 39t-41.5 97q0 42 28 83l125 176h55zM270 552q0 37 -27.5 62t-68.5 25t-68.5 -25t-27.5 -62q0 -38 28 -63.5t68 -25.5t68 25.5t28 63.5z" />
    <glyph glyph-name="sevensuperior" unicode="&#x2077;" horiz-adv-x="247" 
d="M232 771l-138 -349h-54l141 345h-158v44h209v-40z" />
    <glyph glyph-name="eightsuperior" unicode="&#x2078;" horiz-adv-x="327" 
d="M47 713q0 44 33.5 73.5t83.5 29.5q49 0 83 -29.5t34 -73.5q0 -58 -56 -83q32 -13 51 -39t19 -60q0 -49 -38 -82t-93 -33q-56 0 -93.5 33t-37.5 82q0 34 19 60t51 39q-56 25 -56 83zM79 532q0 -30 24.5 -52t60.5 -22t61 22t25 52t-25 52.5t-61 22.5t-60.5 -21.5
t-24.5 -53.5zM92 713q0 -27 20 -44.5t52 -17.5q31 0 51.5 18t20.5 44t-20.5 43.5t-51.5 17.5t-51.5 -17.5t-20.5 -43.5z" />
    <glyph glyph-name="ninesuperior" unicode="&#x2079;" horiz-adv-x="341" 
d="M103 422l94 130q-15 -3 -30 -3q-65 0 -104 38.5t-39 94.5q0 57 41 96t102 39t102.5 -39t41.5 -96q0 -43 -28 -83l-124 -177h-56zM72 682q0 -38 27.5 -63t67.5 -25q41 0 68.5 25t27.5 63q0 37 -27.5 62.5t-68.5 25.5q-40 0 -67.5 -25.5t-27.5 -62.5z" />
    <glyph glyph-name="zeroinferior" unicode="&#x2080;" horiz-adv-x="362" 
d="M181 219q-41 0 -66 -24.5t-25 -62.5v-135q0 -38 25 -62.5t66 -24.5q42 0 67 24.5t25 62.5v135q0 38 -25 62.5t-67 24.5zM181 264q60 0 99.5 -37t39.5 -94v-137q0 -57 -39.5 -94.5t-99.5 -37.5q-59 0 -98.5 37.5t-39.5 94.5v137q0 57 39.5 94t98.5 37z" />
    <glyph glyph-name="oneinferior" unicode="&#x2081;" horiz-adv-x="284" 
d="M28 -130v45h106v300h-96v44h143v-344h89v-45h-242z" />
    <glyph glyph-name="twoinferior" unicode="&#x2082;" horiz-adv-x="288" 
d="M30 -130v42l130 152q44 53 44 88q0 30 -20.5 48t-53.5 18q-51 0 -92 -39v54q40 31 95 31q56 0 87.5 -29.5t31.5 -75.5q0 -25 -8.5 -47.5t-17.5 -34.5t-26 -33l-110 -129h161v-45h-221z" />
    <glyph glyph-name="threeinferior" unicode="&#x2083;" horiz-adv-x="289" 
d="M67 51v45h61q29 0 48.5 17.5t19.5 43.5q0 28 -20 44t-54 16q-50 0 -81 -23v53q30 17 82 17q54 0 88 -29t34 -73q0 -64 -54 -88q29 -11 47 -37t18 -61q0 -49 -37 -80.5t-94 -31.5q-49 0 -89 20v55q39 -28 87 -28q37 0 61 19.5t24 50.5q0 30 -22.5 50t-56.5 20h-62z" />
    <glyph glyph-name="fourinferior" unicode="&#x2084;" horiz-adv-x="338" 
d="M314 -45h-57v-85h-47v85h-192v40l192 264h47v-259h57v-45zM68 0h142v191z" />
    <glyph glyph-name="fiveinferior" unicode="&#x2085;" horiz-adv-x="306" 
d="M267 215h-143l-15 -103h14q68 0 108 -33t40 -87q0 -60 -39.5 -94t-99.5 -34q-55 0 -103 30v59q46 -42 102 -42q37 0 64 22.5t27 58.5q0 37 -29.5 56.5t-77.5 19.5h-55l23 191h184v-44z" />
    <glyph glyph-name="sixinferior" unicode="&#x2086;" horiz-adv-x="341" 
d="M238 259l-94 -130q12 4 30 4q65 0 104.5 -39t39.5 -94q0 -58 -41.5 -97t-102.5 -39t-102.5 39t-41.5 97q0 42 28 83l125 176h55zM270 0q0 37 -27.5 62t-68.5 25t-68.5 -25t-27.5 -62q0 -38 28 -63.5t68 -25.5t68 25.5t28 63.5z" />
    <glyph glyph-name="seveninferior" unicode="&#x2087;" horiz-adv-x="247" 
d="M232 219l-138 -349h-54l141 345h-158v44h209v-40z" />
    <glyph glyph-name="eightinferior" unicode="&#x2088;" horiz-adv-x="327" 
d="M47 161q0 44 33.5 73.5t83.5 29.5q49 0 83 -29.5t34 -73.5q0 -58 -56 -83q32 -13 51 -39t19 -60q0 -49 -38 -82t-93 -33q-56 0 -93.5 33t-37.5 82q0 34 19 60t51 39q-56 25 -56 83zM79 -20q0 -30 24.5 -52t60.5 -22t61 22t25 52t-25 52.5t-61 22.5t-60.5 -21.5
t-24.5 -53.5zM92 161q0 -27 20 -44.5t52 -17.5q31 0 51.5 18t20.5 44t-20.5 43.5t-51.5 17.5t-51.5 -17.5t-20.5 -43.5z" />
    <glyph glyph-name="nineinferior" unicode="&#x2089;" horiz-adv-x="341" 
d="M103 -130l94 130q-15 -3 -30 -3q-65 0 -104 38.5t-39 94.5q0 57 41 96t102 39t102.5 -39t41.5 -96q0 -43 -28 -83l-124 -177h-56zM72 130q0 -38 27.5 -63t67.5 -25q41 0 68.5 25t27.5 63q0 37 -27.5 62.5t-68.5 25.5q-40 0 -67.5 -25.5t-27.5 -62.5z" />
    <glyph glyph-name="Euro" unicode="&#x20ac;" 
d="M32 430h62v37q0 98 62.5 160.5t160.5 62.5q101 0 166 -69l-18 -64q-20 35 -60 55.5t-88 20.5q-75 0 -120 -46.5t-45 -121.5v-35h266l-11 -43h-255v-101h223l-11 -44h-212v-28q0 -74 44.5 -120.5t119.5 -46.5q96 0 147 74l26 -50q-62 -81 -173 -81q-98 0 -160 62t-62 160
v30h-73l11 44h62v101h-73z" />
    <glyph glyph-name="afii61289" unicode="&#x2113;" horiz-adv-x="377" 
d="M343 36q-56 -46 -117 -46q-97 0 -97 119v136q-27 -27 -83 -63l-19 33q68 48 102 78v230q0 84 29 125.5t78 41.5q48 0 72 -34t24 -95q0 -131 -161 -285v-161q0 -84 58 -84q48 0 97 40zM289 562q0 84 -56 84q-62 0 -62 -112v-203q118 118 118 231z" />
    <glyph glyph-name="uni2117" unicode="&#x2117;" horiz-adv-x="809" 
d="M50 344q0 155 103 255t252 100q148 0 251 -100t103 -255q0 -156 -103 -256.5t-251 -100.5t-251.5 100.5t-103.5 256.5zM95 344q0 -139 89.5 -226.5t220.5 -87.5t220.5 87.5t89.5 226.5t-89.5 225.5t-220.5 86.5t-220.5 -86.5t-89.5 -225.5zM326 155v381h116
q57 0 91.5 -30.5t34.5 -83.5q0 -52 -35 -82.5t-91 -30.5h-69v-154h-47zM518 422q0 34 -21 52t-56 18h-68v-139h68q77 0 77 69z" />
    <glyph glyph-name="trademark" unicode="&#x2122;" horiz-adv-x="757" 
d="M148 349v293h-91v38h222v-38h-91v-293h-40zM530 349h-37l-111 254v-254h-40v331h47l123 -280l122 280h46v-331h-40v254z" />
    <glyph glyph-name="Omega" unicode="&#x2126;" horiz-adv-x="807" 
d="M404 690q149 0 249.5 -99t100.5 -245q0 -105 -50.5 -182t-137.5 -110h146v-54h-280v54q115 3 188 86t73 201q0 123 -83 207.5t-206 84.5t-206.5 -84.5t-83.5 -207.5q0 -118 73.5 -201t187.5 -86v-54h-280v54h146q-87 33 -137 110t-50 182q0 146 100.5 245t249.5 99z" />
    <glyph glyph-name="estimated" unicode="&#x212e;" horiz-adv-x="749" 
d="M707 338h-519v-241q74 -74 191 -74q170 0 261 155l29 -17q-59 -92 -125 -131.5t-165 -39.5q-147 0 -237 99t-90 249q0 151 90 250.5t237 99.5q146 0 236.5 -98t91.5 -252zM188 376h385v204q-81 75 -195 75q-115 0 -190 -75v-204z" />
    <glyph glyph-name="onethird" unicode="&#x2153;" horiz-adv-x="764" 
d="M228 0l302 680h48l-303 -680h-47zM46 291v45h106v300h-96v44h143v-344h89v-45h-242zM535 181v45h61q29 0 48.5 17.5t19.5 43.5q0 28 -20 44t-54 16q-50 0 -81 -23v53q30 17 82 17q54 0 88 -29t34 -73q0 -64 -54 -88q29 -11 47 -37t18 -61q0 -49 -37 -80.5t-94 -31.5
q-49 0 -89 20v55q39 -28 87 -28q37 0 61 19.5t24 50.5q0 30 -22.5 50t-56.5 20h-62z" />
    <glyph glyph-name="twothirds" unicode="&#x2154;" horiz-adv-x="747" 
d="M211 0l302 680h48l-303 -680h-47zM518 181v45h61q29 0 48.5 17.5t19.5 43.5q0 28 -20 44t-54 16q-50 0 -81 -23v53q30 17 82 17q54 0 88 -29t34 -73q0 -64 -54 -88q29 -11 47 -37t18 -61q0 -49 -37 -80.5t-94 -31.5q-49 0 -89 20v55q39 -28 87 -28q37 0 61 19.5t24 50.5
q0 30 -22.5 50t-56.5 20h-62zM46 291v42l130 152q44 53 44 88q0 30 -20.5 48t-53.5 18q-51 0 -92 -39v54q40 31 95 31q56 0 87.5 -29.5t31.5 -75.5q0 -25 -8.5 -47.5t-17.5 -34.5t-26 -33l-110 -129h161v-45h-221z" />
    <glyph glyph-name="oneeighth" unicode="&#x215b;" horiz-adv-x="793" 
d="M228 0l302 680h48l-303 -680h-47zM46 291v45h106v300h-96v44h143v-344h89v-45h-242zM507 290q0 44 33.5 73.5t83.5 29.5q49 0 83 -29.5t34 -73.5q0 -58 -56 -83q32 -13 51 -39t19 -60q0 -49 -38 -82t-93 -33q-56 0 -93.5 33t-37.5 82q0 34 19 60t51 39q-56 25 -56 83z
M539 109q0 -30 24.5 -52t60.5 -22t61 22t25 52t-25 52.5t-61 22.5t-60.5 -21.5t-24.5 -53.5zM552 290q0 -27 20 -44.5t52 -17.5q31 0 51.5 18t20.5 44t-20.5 43.5t-51.5 17.5t-51.5 -17.5t-20.5 -43.5z" />
    <glyph glyph-name="threeeighths" unicode="&#x215c;" horiz-adv-x="776" 
d="M211 0l302 680h48l-303 -680h-47zM81 472v45h61q29 0 48.5 17.5t19.5 43.5q0 28 -20 44t-54 16q-50 0 -81 -23v53q30 17 82 17q54 0 88 -29t34 -73q0 -64 -54 -88q29 -11 47 -37t18 -61q0 -49 -37 -80.5t-94 -31.5q-49 0 -89 20v55q39 -28 87 -28q37 0 61 19.5t24 50.5
q0 30 -22.5 50t-56.5 20h-62zM490 290q0 44 33.5 73.5t83.5 29.5q49 0 83 -29.5t34 -73.5q0 -58 -56 -83q32 -13 51 -39t19 -60q0 -49 -38 -82t-93 -33q-56 0 -93.5 33t-37.5 82q0 34 19 60t51 39q-56 25 -56 83zM522 109q0 -30 24.5 -52t60.5 -22t61 22t25 52t-25 52.5
t-61 22.5t-60.5 -21.5t-24.5 -53.5zM535 290q0 -27 20 -44.5t52 -17.5q31 0 51.5 18t20.5 44t-20.5 43.5t-51.5 17.5t-51.5 -17.5t-20.5 -43.5z" />
    <glyph glyph-name="fiveeighths" unicode="&#x215d;" horiz-adv-x="773" 
d="M208 0l302 680h48l-303 -680h-47zM487 290q0 44 33.5 73.5t83.5 29.5q49 0 83 -29.5t34 -73.5q0 -58 -56 -83q32 -13 51 -39t19 -60q0 -49 -38 -82t-93 -33q-56 0 -93.5 33t-37.5 82q0 34 19 60t51 39q-56 25 -56 83zM519 109q0 -30 24.5 -52t60.5 -22t61 22t25 52
t-25 52.5t-61 22.5t-60.5 -21.5t-24.5 -53.5zM532 290q0 -27 20 -44.5t52 -17.5q31 0 51.5 18t20.5 44t-20.5 43.5t-51.5 17.5t-51.5 -17.5t-20.5 -43.5zM277 636h-143l-15 -103h14q68 0 108 -33t40 -87q0 -60 -39.5 -94t-99.5 -34q-55 0 -103 30v59q46 -42 102 -42
q37 0 64 22.5t27 58.5q0 37 -29.5 56.5t-77.5 19.5h-55l23 191h184v-44z" />
    <glyph glyph-name="seveneighths" unicode="&#x215e;" horiz-adv-x="705" 
d="M140 0l302 680h48l-303 -680h-47zM419 290q0 44 33.5 73.5t83.5 29.5q49 0 83 -29.5t34 -73.5q0 -58 -56 -83q32 -13 51 -39t19 -60q0 -49 -38 -82t-93 -33q-56 0 -93.5 33t-37.5 82q0 34 19 60t51 39q-56 25 -56 83zM451 109q0 -30 24.5 -52t60.5 -22t61 22t25 52
t-25 52.5t-61 22.5t-60.5 -21.5t-24.5 -53.5zM464 290q0 -27 20 -44.5t52 -17.5q31 0 51.5 18t20.5 44t-20.5 43.5t-51.5 17.5t-51.5 -17.5t-20.5 -43.5zM248 640l-138 -349h-54l141 345h-158v44h209v-40z" />
    <glyph glyph-name="arrowleft" unicode="&#x2190;" horiz-adv-x="750" 
d="M64 285l249 251l30 -29l-198 -201h528v-44h-528l197 -199l-29 -29z" />
    <glyph glyph-name="arrowup" unicode="&#x2191;" horiz-adv-x="750" 
d="M369 589l251 -248l-29 -31l-201 198v-528h-44v528l-199 -197l-30 30z" />
    <glyph glyph-name="arrowright" unicode="&#x2192;" horiz-adv-x="750" 
d="M673 285l-248 -252l-31 30l198 200h-528v44h528l-197 200l30 29z" />
    <glyph glyph-name="arrowdown" unicode="&#x2193;" horiz-adv-x="750" 
d="M368 -20l-251 248l29 31l201 -198v528h44v-528l199 197l30 -30z" />
    <glyph glyph-name="uni2196" unicode="&#x2196;" horiz-adv-x="750" 
d="M152 502h356v-42h-284l376 -375l-31 -31l-376 375v-283h-41v356z" />
    <glyph glyph-name="uni2197" unicode="&#x2197;" horiz-adv-x="750" 
d="M600 502v-356h-42v283l-375 -375l-31 31l375 375h-283v42h356z" />
    <glyph glyph-name="uni2198" unicode="&#x2198;" horiz-adv-x="750" 
d="M600 54h-356v41h283l-375 375l31 32l375 -376v283h42v-355z" />
    <glyph glyph-name="uni2199" unicode="&#x2199;" horiz-adv-x="750" 
d="M152 54v356h41v-284l375 376l32 -31l-376 -376h283v-41h-355z" />
    <glyph glyph-name="partialdiff" unicode="&#x2202;" horiz-adv-x="553" 
d="M277 457q31 0 68 -10l-158 233h69l209 -311q46 -69 46 -146q0 -99 -67.5 -166t-166.5 -67t-166 67t-67 166q0 100 67.5 167t165.5 67zM104 223q0 -74 50 -124.5t123 -50.5t123.5 50.5t50.5 124.5t-50.5 125t-123.5 51t-123 -51t-50 -125z" />
    <glyph glyph-name="Delta" unicode="&#x2206;" horiz-adv-x="632" 
d="M26 0l258 680h65l258 -680h-581zM316 604l-205 -549h411z" />
    <glyph glyph-name="product" unicode="&#x220f;" horiz-adv-x="726" 
d="M576 0v626h-427v-626h-58v680h543v-680h-58z" />
    <glyph glyph-name="summation" unicode="&#x2211;" horiz-adv-x="449" 
d="M399 0h-355v53l201 287l-201 287v53h355v-54h-283l189 -266v-37l-189 -269h283v-54z" />
    <glyph glyph-name="minus" unicode="&#x2212;" 
d="M39 262v47h441v-47h-441z" />
    <glyph glyph-name="uni2215" unicode="&#x2215;" horiz-adv-x="140" 
d="M-105 0l302 680h48l-303 -680h-47z" />
    <glyph glyph-name="uni2219" unicode="&#x2219;" horiz-adv-x="225" 
d="M63 280q0 21 14 35t35 14t35 -14t14 -35t-14 -35t-35 -14t-35 14t-14 35z" />
    <glyph glyph-name="radical" unicode="&#x221a;" horiz-adv-x="599" 
d="M202 -206l-188 491h65l155 -421l302 816h65l-334 -886h-65z" />
    <glyph glyph-name="infinity" unicode="&#x221e;" horiz-adv-x="762" 
d="M705 285q0 -68 -42 -109t-108 -41q-100 0 -173 111q-74 -110 -177 -110q-63 0 -105.5 40t-42.5 108q0 67 42 109t106 42q97 0 177 -116q75 116 173 116q64 0 107 -40.5t43 -109.5zM654 285q0 48 -29.5 75.5t-73.5 27.5q-32 0 -60.5 -18t-43.5 -36.5t-37 -50.5
q65 -101 141 -101q45 0 74 28t29 75zM353 283q-69 105 -144 105q-42 0 -72 -29t-30 -75q0 -48 29.5 -75.5t72.5 -27.5q78 0 144 102z" />
    <glyph glyph-name="integral" unicode="&#x222b;" 
d="M232 132v428q0 65 36.5 102.5t100.5 37.5q32 0 61 -9v-60q-26 13 -60 13q-82 0 -82 -86v-429q0 -65 -37 -102t-100 -37q-38 0 -61 9v59q24 -12 59 -12q83 0 83 86z" />
    <glyph glyph-name="approxequal" unicode="&#x2248;" 
d="M479 218v-52q-40 -38 -104 -38q-40 0 -120.5 33t-114.5 33q-61 0 -101 -43v52q43 38 103 38q40 0 119 -33t116 -33q65 0 102 43zM480 411v-52q-40 -38 -104 -38q-40 0 -121 33t-114 33q-61 0 -101 -43v52q43 38 103 38q40 0 119.5 -33t115.5 -33q65 0 102 43z" />
    <glyph glyph-name="notequal" unicode="&#x2260;" 
d="M39 426h234l33 129l39 -10l-30 -119h165v-46h-177l-48 -189h225v-47h-236l-34 -134l-39 10l31 124h-163v47h175l48 189h-223v46z" />
    <glyph glyph-name="lessequal" unicode="&#x2264;" 
d="M45 50v46h441v-46h-441zM486 440v-46l-441 -176v51l383 148l-383 148v51z" />
    <glyph glyph-name="greaterequal" unicode="&#x2265;" 
d="M475 96v-46h-441v46h441zM34 394v46l441 176v-51l-383 -148l383 -148v-51z" />
    <glyph glyph-name="lozenge" unicode="&#x25ca;" horiz-adv-x="540" 
d="M507 341l-206 -341h-62l-205 341l205 339h62zM101 340l169 -282l169 283l-169 281z" />
    <glyph glyph-name="commaaccent" unicode="&#xf6c3;" horiz-adv-x="580" 
d="M294 -215h-47l26 145h60z" />
    <glyph glyph-name="commaaccent.alt" horiz-adv-x="611" 
d="M311 695h47l-27 -145h-59z" />
    <glyph glyph-name="zero.tf" 
d="M260 633q-73 0 -115.5 -46t-42.5 -119v-256q0 -73 42.5 -119t115.5 -46t115.5 46t42.5 119v256q0 73 -42.5 119t-115.5 46zM260 690q96 0 156 -62t60 -158v-260q0 -96 -60 -158t-156 -62t-156 62t-60 158v260q0 96 60 158t156 62z" />
    <glyph glyph-name="one.tf" 
d="M76 0v54h179v572h-165v54h223v-626h151v-54h-388z" />
    <glyph glyph-name="two.tf" 
d="M66 0v53l234 281q42 50 62.5 87.5t20.5 82.5q0 58 -39.5 93t-102.5 35q-91 0 -161 -72v69q68 61 164 61q90 0 144 -50t54 -130q0 -43 -15.5 -83t-32 -62.5t-46.5 -58.5l-211 -252h305v-54h-376z" />
    <glyph glyph-name="three.tf" 
d="M129 330v55h106q57 0 93.5 35.5t36.5 88.5q0 56 -38 89.5t-102 33.5q-90 0 -140 -41v65q57 34 141 34q91 0 145.5 -48t54.5 -128q0 -55 -28 -96t-71 -59q53 -19 86 -66t33 -110q0 -86 -62 -139.5t-156 -53.5q-88 0 -151 36v69q63 -47 149 -47q69 0 114.5 39t45.5 102
q0 59 -43.5 100t-107.5 41h-106z" />
    <glyph glyph-name="four.tf" 
d="M495 155h-98v-155h-58v155h-321v51l321 474h58v-471h98v-54zM82 209h257v380z" />
    <glyph glyph-name="five.tf" 
d="M446 626h-242l-29 -212h41q107 0 171.5 -55.5t64.5 -150.5q0 -102 -64.5 -160t-158.5 -58q-92 0 -172 58v76q80 -76 170 -76q69 0 117 44t48 116q0 73 -52 113t-135 40h-91l38 319h294v-54z" />
    <glyph glyph-name="six.tf" 
d="M354 680l-158 -232q33 9 68 9q98 0 165.5 -67t67.5 -167q0 -99 -67 -166t-166 -67t-166.5 67t-67.5 166q0 78 47 146l208 311h69zM437 223q0 74 -50 125t-123 51t-123.5 -51t-50.5 -125t50.5 -124.5t123.5 -50.5t123 50.5t50 124.5z" />
    <glyph glyph-name="seven.tf" 
d="M442 630l-249 -630h-67l256 626h-288v54h348v-50z" />
    <glyph glyph-name="eight.tf" 
d="M70 513q0 75 55 126t134 51q80 0 135 -51t55 -126q0 -50 -27.5 -90.5t-71.5 -60.5q55 -22 88 -68.5t33 -106.5q0 -84 -61 -140.5t-151 -56.5q-89 0 -150 56.5t-61 140.5q0 60 32.5 106.5t87.5 68.5q-44 20 -71 60.5t-27 90.5zM105 188q0 -61 44.5 -102.5t109.5 -41.5
t110 41.5t45 102.5q0 60 -44 102.5t-111 42.5q-65 0 -109.5 -42t-44.5 -103zM127 513q0 -52 37.5 -88.5t94.5 -36.5t95 36t38 89t-38 88t-95 35q-56 0 -94 -35.5t-38 -87.5z" />
    <glyph glyph-name="nine.tf" 
d="M165 0l158 232q-33 -9 -68 -9q-98 0 -165.5 67t-67.5 167q0 99 67 166t166 67t166.5 -67t67.5 -166q0 -77 -46 -146l-209 -311h-69zM82 457q0 -74 50 -125t123 -51t123.5 51t50.5 125t-50.5 124.5t-123.5 50.5t-123 -50.5t-50 -124.5z" />
    <glyph glyph-name="zero.tosf" 
d="M260 472q-73 0 -115.5 -46t-42.5 -119v-97q0 -73 42.5 -119t115.5 -46t115.5 46t42.5 119v97q0 73 -42.5 119t-115.5 46zM260 527q96 0 156 -62t60 -158v-97q0 -96 -60 -158t-156 -62t-156 62t-60 158v97q0 96 60 158t156 62z" />
    <glyph glyph-name="one.tosf" 
d="M86 0v49h169v427h-155v49h213v-476h141v-49h-368z" />
    <glyph glyph-name="two.tosf" 
d="M74 0v47l133 81q170 104 170 212q0 59 -41.5 95t-104.5 36q-91 0 -157 -70v69q25 23 69 40t92 17q89 0 146 -51t57 -131q0 -132 -185 -246l-83 -50h285v-49h-381z" />
    <glyph glyph-name="three.tosf" 
d="M137 178v50h101q52 0 87.5 36.5t35.5 89.5q0 57 -36.5 91t-97.5 34q-81 0 -133 -41v63q57 34 135 34q86 0 139.5 -50t53.5 -126q0 -56 -26.5 -97t-68.5 -59q51 -18 82.5 -64.5t31.5 -110.5q0 -86 -59.5 -139.5t-150.5 -53.5q-88 0 -145 36v66q60 -46 142 -46
q66 0 109.5 39.5t43.5 102.5q0 61 -41 103t-102 42h-101z" />
    <glyph glyph-name="four.tosf" 
d="M487 0h-93v-155h-57v155h-317v47l312 478h62v-476h93v-49zM83 49h254v385z" />
    <glyph glyph-name="five.tosf" 
d="M453 476h-254l-29 -217h42q107 0 172.5 -55.5t65.5 -150.5q0 -102 -64.5 -160t-159.5 -58q-89 0 -172 58v72q78 -74 170 -74q71 0 119 44t48 118q0 73 -52 114t-137 41h-91l40 317h302v-49z" />
    <glyph glyph-name="six.tosf" 
d="M353 680l-164 -240q40 15 75 15q99 0 166.5 -66t67.5 -166q0 -99 -67.5 -166t-166.5 -67t-166 67t-67 166q0 77 46 146l211 311h65zM439 223q0 74 -50.5 125.5t-124.5 51.5t-124.5 -51.5t-50.5 -125.5t50.5 -125.5t124.5 -51.5t124.5 51.5t50.5 125.5z" />
    <glyph glyph-name="seven.tosf" 
d="M446 478l-252 -633h-65l259 631h-300v49h358v-47z" />
    <glyph glyph-name="eight.tosf" 
d="M66 513q0 75 56 126t138 51t138.5 -51t56.5 -126q0 -50 -28 -90.5t-75 -60.5q57 -22 91 -68.5t34 -106.5q0 -84 -62.5 -140.5t-154.5 -56.5t-154.5 56.5t-62.5 140.5q0 60 33.5 106.5t90.5 68.5q-46 20 -73.5 60.5t-27.5 90.5zM99 188q0 -61 46.5 -103.5t114.5 -42.5
t114.5 42t46.5 104q0 60 -46 103.5t-115 43.5q-67 0 -114 -43t-47 -104zM122 513q0 -53 39 -89.5t99 -36.5q59 0 99 36.5t40 89.5t-40 88.5t-99 35.5t-98.5 -35.5t-39.5 -88.5z" />
    <glyph glyph-name="nine.tosf" 
d="M168 -155l162 239q-36 -14 -73 -14q-99 0 -166.5 65.5t-67.5 165.5t67.5 167t166.5 67t166 -67t67 -167q0 -76 -46 -145l-211 -311h-65zM82 301q0 -74 50.5 -125.5t124.5 -51.5t124.5 51.5t50.5 125.5q0 75 -50.5 126.5t-124.5 51.5t-124.5 -51.5t-50.5 -126.5z" />
    <glyph glyph-name="zero.osf" horiz-adv-x="632" 
d="M47 258q0 114 77.5 191.5t190.5 77.5q115 0 192 -77.5t77 -191.5t-77.5 -191.5t-191.5 -77.5q-113 0 -190.5 78t-77.5 191zM106 258q0 -89 60.5 -151t148.5 -62q89 0 149.5 62t60.5 151q0 90 -60 151.5t-150 61.5q-88 0 -148.5 -62t-60.5 -151z" />
    <glyph glyph-name="one.osf" horiz-adv-x="434" 
d="M43 0v49h169v427h-155v49h213v-476h141v-49h-368z" />
    <glyph glyph-name="two.osf" horiz-adv-x="482" 
d="M55 0v47l133 81q170 104 170 212q0 59 -41.5 95t-104.5 36q-91 0 -157 -70v69q25 23 69 40t92 17q89 0 146 -51t57 -131q0 -132 -185 -246l-83 -50h285v-49h-381z" />
    <glyph glyph-name="three.osf" horiz-adv-x="449" 
d="M101 178v50h101q52 0 87.5 36.5t35.5 89.5q0 57 -36.5 91t-97.5 34q-81 0 -133 -41v63q57 34 135 34q86 0 139.5 -50t53.5 -126q0 -56 -26.5 -97t-68.5 -59q51 -18 82.5 -64.5t31.5 -110.5q0 -86 -59.5 -139.5t-150.5 -53.5q-88 0 -145 36v66q60 -46 142 -46
q66 0 109.5 39.5t43.5 102.5q0 61 -41 103t-102 42h-101z" />
    <glyph glyph-name="four.osf" horiz-adv-x="521" 
d="M493 0h-98v-155h-56v155h-323v47l321 478h58v-476h98v-49zM80 49h259v385z" />
    <glyph glyph-name="five.osf" horiz-adv-x="482" 
d="M434 476h-254l-29 -217h42q107 0 172.5 -55.5t65.5 -150.5q0 -102 -64.5 -160t-159.5 -58q-89 0 -172 58v72q78 -74 170 -74q71 0 119 44t48 118q0 73 -52 114t-137 41h-91l40 317h302v-49z" />
    <glyph glyph-name="six.osf" horiz-adv-x="548" 
d="M367 680l-164 -240q40 15 75 15q99 0 166.5 -66t67.5 -166q0 -99 -67.5 -166t-166.5 -67t-166 67t-67 166q0 77 46 146l211 311h65zM453 223q0 74 -50.5 125.5t-124.5 51.5t-124.5 -51.5t-50.5 -125.5t50.5 -125.5t124.5 -51.5t124.5 51.5t50.5 125.5z" />
    <glyph glyph-name="seven.osf" horiz-adv-x="396" 
d="M384 478l-252 -633h-65l259 631h-300v49h358v-47z" />
    <glyph glyph-name="eight.osf" horiz-adv-x="538" 
d="M75 513q0 75 56 126t138 51t138.5 -51t56.5 -126q0 -50 -28 -90.5t-75 -60.5q57 -22 91 -68.5t34 -106.5q0 -84 -62.5 -140.5t-154.5 -56.5t-154.5 56.5t-62.5 140.5q0 60 33.5 106.5t90.5 68.5q-46 20 -73.5 60.5t-27.5 90.5zM108 188q0 -61 46.5 -103.5t114.5 -42.5
t114.5 42t46.5 104q0 60 -46 103.5t-115 43.5q-67 0 -114 -43t-47 -104zM131 513q0 -53 39 -89.5t99 -36.5q59 0 99 36.5t40 89.5t-40 88.5t-99 35.5t-98.5 -35.5t-39.5 -88.5z" />
    <glyph glyph-name="nine.osf" horiz-adv-x="535" 
d="M176 -155l162 239q-36 -14 -73 -14q-99 0 -166.5 65.5t-67.5 165.5t67.5 167t166.5 67t166 -67t67 -167q0 -76 -46 -145l-211 -311h-65zM90 301q0 -74 50.5 -125.5t124.5 -51.5t124.5 51.5t50.5 125.5q0 75 -50.5 126.5t-124.5 51.5t-124.5 -51.5t-50.5 -126.5z" />
    <glyph glyph-name="zero.denom" horiz-adv-x="368" 
d="M183 349q-41 0 -66 -24.5t-25 -62.5v-135q0 -38 25 -62.5t66 -24.5q42 0 67 24.5t25 62.5v135q0 38 -25 62.5t-67 24.5zM183 394q60 0 99.5 -37t39.5 -94v-137q0 -57 -39.5 -94.5t-99.5 -37.5q-59 0 -98.5 37.5t-39.5 94.5v137q0 57 39.5 94t98.5 37z" />
    <glyph glyph-name="one.denom" horiz-adv-x="283" 
d="M27 0v45h106v300h-96v44h143v-344h89v-45h-242z" />
    <glyph glyph-name="two.denom" horiz-adv-x="288" 
d="M30 0v42l130 152q44 53 44 88q0 30 -20.5 48t-53.5 18q-51 0 -92 -39v54q40 31 95 31q56 0 87.5 -29.5t31.5 -75.5q0 -25 -8.5 -47.5t-17.5 -34.5t-26 -33l-110 -129h161v-45h-221z" />
    <glyph glyph-name="three.denom" horiz-adv-x="290" 
d="M67 181v45h61q29 0 48.5 17.5t19.5 43.5q0 28 -20 44t-54 16q-50 0 -81 -23v53q30 17 82 17q54 0 88 -29t34 -73q0 -64 -54 -88q29 -11 47 -37t18 -61q0 -49 -37 -80.5t-94 -31.5q-49 0 -89 20v55q39 -28 87 -28q37 0 61 19.5t24 50.5q0 30 -22.5 50t-56.5 20h-62z" />
    <glyph glyph-name="four.denom" horiz-adv-x="338" 
d="M314 85h-57v-85h-47v85h-192v40l192 264h47v-259h57v-45zM68 130h142v191z" />
    <glyph glyph-name="five.denom" horiz-adv-x="306" 
d="M267 345h-143l-15 -103h14q68 0 108 -33t40 -87q0 -60 -39.5 -94t-99.5 -34q-55 0 -103 30v59q46 -42 102 -42q37 0 64 22.5t27 58.5q0 37 -29.5 56.5t-77.5 19.5h-55l23 191h184v-44z" />
    <glyph glyph-name="six.denom" horiz-adv-x="341" 
d="M238 389l-94 -130q12 4 30 4q65 0 104.5 -39t39.5 -94q0 -58 -41.5 -97t-102.5 -39t-102.5 39t-41.5 97q0 42 28 83l125 176h55zM270 130q0 37 -27.5 62t-68.5 25t-68.5 -25t-27.5 -62q0 -38 28 -63.5t68 -25.5t68 25.5t28 63.5z" />
    <glyph glyph-name="seven.denom" horiz-adv-x="246" 
d="M232 349l-138 -349h-54l141 345h-158v44h209v-40z" />
    <glyph glyph-name="eight.denom" horiz-adv-x="328" 
d="M47 291q0 44 33.5 73.5t83.5 29.5q49 0 83 -29.5t34 -73.5q0 -58 -56 -83q32 -13 51 -39t19 -60q0 -49 -38 -82t-93 -33q-56 0 -93.5 33t-37.5 82q0 34 19 60t51 39q-56 25 -56 83zM79 110q0 -30 24.5 -52t60.5 -22t61 22t25 52t-25 52.5t-61 22.5t-60.5 -21.5
t-24.5 -53.5zM92 291q0 -27 20 -44.5t52 -17.5q31 0 51.5 18t20.5 44t-20.5 43.5t-51.5 17.5t-51.5 -17.5t-20.5 -43.5z" />
    <glyph glyph-name="nine.denom" horiz-adv-x="341" 
d="M103 0l94 130q-15 -3 -30 -3q-65 0 -104 38.5t-39 94.5q0 57 41 96t102 39t102.5 -39t41.5 -96q0 -43 -28 -83l-124 -177h-56zM72 260q0 -38 27.5 -63t67.5 -25q41 0 68.5 25t27.5 63q0 37 -27.5 62.5t-68.5 25.5q-40 0 -67.5 -25.5t-27.5 -62.5z" />
    <glyph glyph-name="zero.num" horiz-adv-x="368" 
d="M183 640q-41 0 -66 -24.5t-25 -62.5v-135q0 -38 25 -62.5t66 -24.5q42 0 67 24.5t25 62.5v135q0 38 -25 62.5t-67 24.5zM183 685q60 0 99.5 -37t39.5 -94v-137q0 -57 -39.5 -94.5t-99.5 -37.5q-59 0 -98.5 37.5t-39.5 94.5v137q0 57 39.5 94t98.5 37z" />
    <glyph glyph-name="one.num" horiz-adv-x="284" 
d="M28 291v45h106v300h-96v44h143v-344h89v-45h-242z" />
    <glyph glyph-name="two.num" horiz-adv-x="288" 
d="M30 291v42l130 152q44 53 44 88q0 30 -20.5 48t-53.5 18q-51 0 -92 -39v54q40 31 95 31q56 0 87.5 -29.5t31.5 -75.5q0 -25 -8.5 -47.5t-17.5 -34.5t-26 -33l-110 -129h161v-45h-221z" />
    <glyph glyph-name="three.num" horiz-adv-x="290" 
d="M67 472v45h61q29 0 48.5 17.5t19.5 43.5q0 28 -20 44t-54 16q-50 0 -81 -23v53q30 17 82 17q54 0 88 -29t34 -73q0 -64 -54 -88q29 -11 47 -37t18 -61q0 -49 -37 -80.5t-94 -31.5q-49 0 -89 20v55q39 -28 87 -28q37 0 61 19.5t24 50.5q0 30 -22.5 50t-56.5 20h-62z" />
    <glyph glyph-name="four.num" horiz-adv-x="338" 
d="M314 376h-57v-85h-47v85h-192v40l192 264h47v-259h57v-45zM68 421h142v191z" />
    <glyph glyph-name="five.num" horiz-adv-x="305" 
d="M267 636h-143l-15 -103h14q68 0 108 -33t40 -87q0 -60 -39.5 -94t-99.5 -34q-55 0 -103 30v59q46 -42 102 -42q37 0 64 22.5t27 58.5q0 37 -29.5 56.5t-77.5 19.5h-55l23 191h184v-44z" />
    <glyph glyph-name="six.num" horiz-adv-x="341" 
d="M238 680l-94 -130q12 4 30 4q65 0 104.5 -39t39.5 -94q0 -58 -41.5 -97t-102.5 -39t-102.5 39t-41.5 97q0 42 28 83l125 176h55zM270 421q0 37 -27.5 62t-68.5 25t-68.5 -25t-27.5 -62q0 -38 28 -63.5t68 -25.5t68 25.5t28 63.5z" />
    <glyph glyph-name="seven.num" horiz-adv-x="247" 
d="M232 640l-138 -349h-54l141 345h-158v44h209v-40z" />
    <glyph glyph-name="eight.num" horiz-adv-x="328" 
d="M47 582q0 44 33.5 73.5t83.5 29.5q49 0 83 -29.5t34 -73.5q0 -58 -56 -83q32 -13 51 -39t19 -60q0 -49 -38 -82t-93 -33q-56 0 -93.5 33t-37.5 82q0 34 19 60t51 39q-56 25 -56 83zM79 401q0 -30 24.5 -52t60.5 -22t61 22t25 52t-25 52.5t-61 22.5t-60.5 -21.5
t-24.5 -53.5zM92 582q0 -27 20 -44.5t52 -17.5q31 0 51.5 18t20.5 44t-20.5 43.5t-51.5 17.5t-51.5 -17.5t-20.5 -43.5z" />
    <glyph glyph-name="nine.num" horiz-adv-x="341" 
d="M103 291l94 130q-15 -3 -30 -3q-65 0 -104 38.5t-39 94.5q0 57 41 96t102 39t102.5 -39t41.5 -96q0 -43 -28 -83l-124 -177h-56zM72 551q0 -38 27.5 -63t67.5 -25q41 0 68.5 25t27.5 63q0 37 -27.5 62.5t-68.5 25.5q-40 0 -67.5 -25.5t-27.5 -62.5z" />
    <glyph glyph-name="parenleft.case" horiz-adv-x="262" 
d="M99 332q0 -247 133 -422l-34 -26q-67 84 -108.5 203t-41.5 245q0 127 41.5 246t108.5 203l34 -26q-133 -175 -133 -423z" />
    <glyph glyph-name="parenright.case" horiz-adv-x="262" 
d="M163 333q0 247 -133 422l34 26q67 -84 108.5 -203t41.5 -245q0 -127 -41.5 -246t-108.5 -203l-34 26q133 175 133 423z" />
    <glyph glyph-name="hyphen.case" horiz-adv-x="384" 
d="M314 315h-245v53h245v-53z" />
    <glyph glyph-name="bracketleft.case" horiz-adv-x="285" 
d="M88 780h162v-43h-117v-809h117v-43h-162v895z" />
    <glyph glyph-name="bracketright.case" horiz-adv-x="285" 
d="M197 -115h-162v43h117v809h-117v43h162v-895z" />
    <glyph glyph-name="braceleft.case" horiz-adv-x="315" 
d="M19 312v41h30q81 0 81 99v185q0 77 30.5 110t88.5 33h32v-41h-27q-38 0 -58.5 -22.5t-20.5 -82.5v-187q0 -96 -68 -115q68 -19 68 -115v-186q0 -60 20.5 -82.5t58.5 -22.5h27v-41h-32q-58 0 -88.5 33.5t-30.5 110.5v183q0 100 -81 100h-30z" />
    <glyph glyph-name="bar.case" horiz-adv-x="221" 
d="M133 780v-895h-45v895h45z" />
    <glyph glyph-name="braceright.case" horiz-adv-x="315" 
d="M296 353v-41h-30q-81 0 -81 -99v-185q0 -77 -30.5 -110t-87.5 -33h-33v41h27q38 0 58.5 22.5t20.5 82.5v187q0 96 68 115q-68 19 -68 115v186q0 60 -20.5 82.5t-58.5 22.5h-27v41h32q58 0 88.5 -33.5t30.5 -110.5v-183q0 -100 81 -100h30z" />
    <glyph glyph-name="guilsinglleft.case" horiz-adv-x="315" 
d="M56 341l161 207l32 -26l-131 -181l131 -181l-32 -26z" />
    <glyph glyph-name="guilsinglright.case" horiz-adv-x="315" 
d="M259 341l-161 -207l-32 26l131 181l-131 181l32 26z" />
    <glyph glyph-name="guillemotleft.case" horiz-adv-x="491" 
d="M56 341l161 207l32 -26l-131 -181l131 -181l-32 -26zM231 341l161 207l32 -26l-131 -181l131 -181l-32 -26z" />
    <glyph glyph-name="guillemotright.case" horiz-adv-x="490" 
d="M259 341l-161 -207l-32 26l131 181l-131 181l32 26zM434 341l-161 -207l-32 26l131 181l-131 181l32 26z" />
    <glyph glyph-name="endash.case" horiz-adv-x="584" 
d="M69 369h445v-57h-445v57z" />
    <glyph glyph-name="emdash.case" horiz-adv-x="724" 
d="M69 369h585v-57h-585v57z" />
    <glyph glyph-name="bullet.case" horiz-adv-x="361" 
d="M181 244q-43 0 -71.5 27t-28.5 69t28.5 69.5t71.5 27.5t71 -27.5t28 -69.5t-28 -69t-71 -27z" />
    <glyph glyph-name="periodcentered.case" horiz-adv-x="232" 
d="M67 336q0 21 14 35t35 14t35 -14t14 -35t-14 -35t-35 -14t-35 14t-14 35z" />
    <glyph glyph-name="a.alt" horiz-adv-x="618" 
d="M484 241q0 81 -55 137.5t-136 56.5t-136.5 -56.5t-55.5 -137.5q0 -82 55.5 -138.5t136.5 -56.5t136 56.5t55 138.5zM541 0h-57v114q-27 -57 -79.5 -90.5t-118.5 -33.5q-105 0 -174 72t-69 179q0 106 69.5 178t173.5 72q66 0 118 -33.5t80 -90.5v114h57v-481z" />
    <glyph glyph-name="R.alt" horiz-adv-x="555" 
d="M95 0v680h187q93 0 151 -51t58 -138q0 -73 -43 -121.5t-116 -60.5l188 -309h-68l-180 303h-119v-303h-58zM430 489q0 64 -41.5 100.5t-106.5 36.5h-129v-271h129q66 0 107 35.5t41 98.5z" />
    <glyph glyph-name="agrave.alt" horiz-adv-x="618" 
d="M484 241q0 81 -55 137.5t-136 56.5t-136.5 -56.5t-55.5 -137.5q0 -82 55.5 -138.5t136.5 -56.5t136 56.5t55 138.5zM541 0h-57v114q-27 -57 -79.5 -90.5t-118.5 -33.5q-105 0 -174 72t-69 179q0 106 69.5 178t173.5 72q66 0 118 -33.5t80 -90.5v114h57v-481zM204 696h55
l77 -147h-48z" />
    <glyph glyph-name="aacute.alt" horiz-adv-x="618" 
d="M484 241q0 81 -55 137.5t-136 56.5t-136.5 -56.5t-55.5 -137.5q0 -82 55.5 -138.5t136.5 -56.5t136 56.5t55 138.5zM541 0h-57v114q-27 -57 -79.5 -90.5t-118.5 -33.5q-105 0 -174 72t-69 179q0 106 69.5 178t173.5 72q66 0 118 -33.5t80 -90.5v114h57v-481zM361 696h54
l-84 -147h-48z" />
    <glyph glyph-name="acircumflex.alt" horiz-adv-x="618" 
d="M484 241q0 81 -55 137.5t-136 56.5t-136.5 -56.5t-55.5 -137.5q0 -82 55.5 -138.5t136.5 -56.5t136 56.5t55 138.5zM541 0h-57v114q-27 -57 -79.5 -90.5t-118.5 -33.5q-105 0 -174 72t-69 179q0 106 69.5 178t173.5 72q66 0 118 -33.5t80 -90.5v114h57v-481zM271 696h57
l104 -147h-51l-81 114l-82 -114h-50z" />
    <glyph glyph-name="atilde.alt" horiz-adv-x="618" 
d="M484 241q0 81 -55 137.5t-136 56.5t-136.5 -56.5t-55.5 -137.5q0 -82 55.5 -138.5t136.5 -56.5t136 56.5t55 138.5zM541 0h-57v114q-27 -57 -79.5 -90.5t-118.5 -33.5q-105 0 -174 72t-69 179q0 106 69.5 178t173.5 72q66 0 118 -33.5t80 -90.5v114h57v-481zM435 630v-51
q-30 28 -67 28q-21 0 -64 -18t-72 -18q-42 0 -66 22v49q26 -26 66 -26q23 0 64.5 17.5t71.5 17.5q36 0 67 -21z" />
    <glyph glyph-name="adieresis.alt" horiz-adv-x="618" 
d="M484 241q0 81 -55 137.5t-136 56.5t-136.5 -56.5t-55.5 -137.5q0 -82 55.5 -138.5t136.5 -56.5t136 56.5t55 138.5zM541 0h-57v114q-27 -57 -79.5 -90.5t-118.5 -33.5q-105 0 -174 72t-69 179q0 106 69.5 178t173.5 72q66 0 118 -33.5t80 -90.5v114h57v-481zM171 631
q0 17 11.5 28.5t28.5 11.5q18 0 29.5 -11.5t11.5 -28.5t-11.5 -28.5t-29.5 -11.5q-17 0 -28.5 11.5t-11.5 28.5zM350 631q0 17 12 28.5t28 11.5q18 0 29.5 -11.5t11.5 -28.5t-11.5 -28.5t-29.5 -11.5q-17 0 -28.5 11.5t-11.5 28.5z" />
    <glyph glyph-name="amacron.alt" horiz-adv-x="618" 
d="M484 241q0 81 -55 137.5t-136 56.5t-136.5 -56.5t-55.5 -137.5q0 -82 55.5 -138.5t136.5 -56.5t136 56.5t55 138.5zM541 0h-57v114q-27 -57 -79.5 -90.5t-118.5 -33.5q-105 0 -174 72t-69 179q0 106 69.5 178t173.5 72q66 0 118 -33.5t80 -90.5v114h57v-481zM166 647h270
v-42h-270v42z" />
    <glyph glyph-name="abreve.alt" horiz-adv-x="618" 
d="M484 241q0 81 -55 137.5t-136 56.5t-136.5 -56.5t-55.5 -137.5q0 -82 55.5 -138.5t136.5 -56.5t136 56.5t55 138.5zM541 0h-57v114q-27 -57 -79.5 -90.5t-118.5 -33.5q-105 0 -174 72t-69 179q0 106 69.5 178t173.5 72q66 0 118 -33.5t80 -90.5v114h57v-481zM389 683h41
q0 -58 -35 -94.5t-94 -36.5q-58 0 -93 36.5t-35 94.5h40q2 -40 24 -64.5t64 -24.5t64.5 24.5t23.5 64.5z" />
    <glyph glyph-name="aring.alt" horiz-adv-x="618" 
d="M484 241q0 81 -55 137.5t-136 56.5t-136.5 -56.5t-55.5 -137.5q0 -82 55.5 -138.5t136.5 -56.5t136 56.5t55 138.5zM541 0h-57v114q-27 -57 -79.5 -90.5t-118.5 -33.5q-105 0 -174 72t-69 179q0 106 69.5 178t173.5 72q66 0 118 -33.5t80 -90.5v114h57v-481zM203 628
q0 41 27.5 68t70.5 27q44 0 71.5 -27t27.5 -68q0 -40 -27.5 -67t-71.5 -27q-43 0 -70.5 27t-27.5 67zM241 628q0 -26 16.5 -42.5t43.5 -16.5t43.5 16.5t16.5 42.5t-16.5 42.5t-43.5 16.5t-43.5 -16.5t-16.5 -42.5z" />
    <glyph glyph-name="aogonek.alt" horiz-adv-x="618" 
d="M541 0l-74 -55q-36 -27 -36 -58q0 -40 40 -40q29 0 70 31v-52q-44 -22 -75 -22q-39 0 -63 20.5t-24 55.5q0 49 51 85l54 38v111q-27 -57 -79.5 -90.5t-118.5 -33.5q-105 0 -174 72t-69 179q0 106 69.5 178t173.5 72q66 0 118 -33.5t80 -90.5v114h57v-481zM484 241
q0 81 -55 137.5t-136 56.5t-136.5 -56.5t-55.5 -137.5q0 -82 55.5 -138.5t136.5 -56.5t136 56.5t55 138.5z" />
    <glyph glyph-name="Racute.alt" horiz-adv-x="555" 
d="M95 0v680h187q93 0 151 -51t58 -138q0 -73 -43 -121.5t-116 -60.5l188 -309h-68l-180 303h-119v-303h-58zM430 489q0 64 -41.5 100.5t-106.5 36.5h-129v-271h129q66 0 107 35.5t41 98.5zM306 875h54l-84 -147h-48z" />
    <glyph glyph-name="Rcaron.alt" horiz-adv-x="555" 
d="M95 0v680h187q93 0 151 -51t58 -138q0 -73 -43 -121.5t-116 -60.5l188 -309h-68l-180 303h-119v-303h-58zM430 489q0 64 -41.5 100.5t-106.5 36.5h-129v-271h129q66 0 107 35.5t41 98.5zM299 728h-57l-103 147h49l83 -115l82 115h50z" />
    <glyph glyph-name="Rcommaaccent.alt" horiz-adv-x="555" 
d="M95 0v680h187q93 0 151 -51t58 -138q0 -73 -43 -121.5t-116 -60.5l188 -309h-68l-180 303h-119v-303h-58zM430 489q0 64 -41.5 100.5t-106.5 36.5h-129v-271h129q66 0 107 35.5t41 98.5zM285 -215h-47l26 145h60z" />
    </font>
</defs>
</svg>
